G04 (created by PCBNEW (2013-jul-07)-stable) date su 14. joulukuuta 2014 12.55.15*
%MOIN*%
G04 Gerber Fmt 3.4, Leading zero omitted, Abs format*
%FSLAX34Y34*%
G01*
G70*
G90*
G04 APERTURE LIST*
%ADD10C,0.000787402*%
%ADD11R,0.0354X0.0354*%
%ADD12C,0.0511811*%
%ADD13O,0.0551181X0.0314961*%
%ADD14C,0.15748*%
%ADD15C,0.023622*%
%ADD16C,0.015748*%
%ADD17C,0.00590551*%
%ADD18C,0.011811*%
G04 APERTURE END LIST*
G54D10*
G54D11*
X73500Y-41250D03*
X73500Y-41750D03*
X73425Y-30893D03*
X73425Y-30393D03*
X73425Y-29893D03*
X73500Y-40250D03*
X73500Y-40750D03*
X73500Y-39750D03*
X73500Y-39250D03*
X87755Y-30551D03*
G54D12*
X82677Y-30629D03*
G54D13*
X73443Y-31731D03*
X73443Y-38581D03*
G54D11*
X88268Y-36252D03*
X88268Y-35752D03*
X88268Y-35252D03*
X87268Y-42402D03*
X86768Y-42402D03*
X87268Y-29252D03*
X88268Y-31752D03*
X88268Y-31252D03*
X83768Y-42402D03*
X83268Y-42402D03*
X88268Y-33752D03*
X85768Y-29252D03*
X88268Y-32752D03*
X88268Y-32252D03*
X88268Y-33252D03*
X85768Y-42402D03*
X85268Y-42402D03*
X84768Y-29252D03*
X83768Y-29252D03*
X84268Y-29252D03*
X88268Y-30752D03*
X88268Y-30252D03*
X85268Y-29252D03*
X86268Y-42402D03*
X86768Y-29252D03*
X84768Y-42402D03*
X72953Y-30252D03*
X72953Y-30752D03*
X88268Y-37752D03*
X72953Y-40901D03*
X72953Y-41401D03*
X86268Y-29252D03*
X83268Y-29252D03*
X88268Y-36752D03*
X88268Y-37252D03*
G54D14*
X80610Y-28346D03*
X80610Y-43307D03*
G54D11*
X77452Y-42401D03*
X77952Y-42401D03*
X88267Y-38251D03*
X88267Y-39251D03*
X88267Y-38751D03*
X77452Y-29251D03*
X72952Y-39401D03*
X77952Y-29251D03*
G54D15*
X74803Y-40118D03*
X75118Y-40118D03*
X77283Y-31535D03*
X76929Y-31527D03*
X77637Y-39606D03*
X76830Y-30905D03*
X86314Y-32720D03*
X86299Y-34173D03*
X86291Y-35972D03*
X86291Y-35570D03*
X83464Y-31062D03*
X80444Y-35094D03*
X86232Y-37417D03*
X86255Y-36901D03*
X74370Y-31259D03*
X86244Y-33224D03*
X87188Y-30736D03*
X86692Y-36614D03*
X75767Y-32311D03*
X86862Y-41909D03*
X82429Y-40692D03*
X77114Y-30456D03*
X77677Y-40807D03*
X78590Y-31334D03*
X82480Y-40185D03*
X86665Y-37413D03*
X81822Y-38500D03*
X86248Y-33732D03*
X80523Y-38685D03*
X86283Y-31996D03*
X80141Y-38161D03*
X85297Y-39330D03*
X81702Y-33921D03*
X74661Y-37751D03*
X79854Y-39047D03*
X80543Y-39732D03*
X83803Y-39460D03*
X85255Y-36933D03*
X85259Y-40622D03*
X85286Y-39017D03*
X84834Y-33145D03*
X81602Y-38240D03*
X74763Y-32480D03*
X83307Y-38031D03*
X82165Y-32027D03*
X82559Y-31220D03*
X83307Y-38346D03*
X81948Y-32244D03*
X74763Y-32854D03*
X85236Y-35846D03*
X86259Y-36318D03*
X80492Y-30669D03*
X82925Y-40712D03*
X81653Y-39350D03*
X86279Y-35236D03*
X80570Y-37751D03*
X82165Y-37578D03*
X83283Y-39330D03*
X85185Y-39870D03*
X81850Y-37578D03*
X85488Y-41027D03*
X82259Y-39940D03*
X80228Y-38779D03*
X83759Y-34685D03*
X80433Y-35740D03*
X84881Y-39783D03*
X83444Y-32165D03*
X82854Y-32165D03*
X83661Y-35846D03*
X84763Y-40078D03*
X87433Y-37196D03*
X84814Y-34122D03*
X80413Y-35433D03*
X79665Y-32874D03*
X84822Y-32440D03*
X79645Y-40669D03*
X86811Y-30039D03*
X83118Y-32790D03*
X80472Y-32027D03*
X84192Y-40846D03*
X84429Y-40610D03*
X80925Y-32047D03*
X74696Y-38228D03*
X81633Y-31240D03*
X82933Y-38877D03*
X81929Y-31240D03*
X83228Y-38799D03*
X84960Y-31673D03*
X82125Y-41003D03*
X82952Y-36437D03*
X85078Y-29665D03*
X84685Y-29685D03*
X82637Y-36437D03*
X81531Y-37641D03*
X84094Y-30885D03*
X83858Y-37814D03*
X84389Y-39488D03*
X82244Y-31220D03*
X85019Y-30393D03*
X84921Y-38917D03*
X84409Y-30885D03*
X85030Y-39202D03*
X84803Y-38622D03*
X84704Y-31515D03*
X82122Y-40685D03*
X79830Y-39389D03*
X76181Y-38287D03*
X76692Y-38287D03*
X75767Y-38051D03*
X74350Y-40137D03*
X79350Y-36862D03*
X84822Y-37775D03*
X85531Y-31496D03*
X79421Y-35027D03*
X85492Y-30885D03*
X84921Y-38070D03*
X79421Y-35700D03*
X84822Y-37460D03*
X85275Y-31673D03*
X85118Y-39566D03*
X84133Y-32047D03*
X87590Y-29960D03*
X83787Y-30897D03*
X87992Y-39921D03*
X87933Y-38503D03*
X75291Y-30413D03*
X84409Y-30362D03*
X74933Y-39354D03*
X79165Y-34393D03*
X87905Y-33035D03*
X86488Y-34480D03*
X87244Y-33267D03*
X80484Y-31322D03*
X81574Y-35669D03*
X81889Y-38110D03*
X79606Y-38818D03*
X76751Y-40188D03*
X76771Y-39881D03*
X77637Y-38622D03*
X79405Y-36358D03*
X78118Y-31523D03*
X86287Y-40968D03*
X81374Y-41078D03*
X80106Y-32027D03*
X84814Y-33484D03*
X81141Y-37244D03*
X74818Y-41062D03*
X85204Y-38566D03*
X85287Y-36566D03*
X85291Y-34598D03*
X80846Y-32795D03*
X84763Y-41141D03*
X85393Y-41299D03*
X86224Y-38956D03*
X86279Y-38692D03*
X74889Y-30566D03*
X74665Y-30566D03*
X80059Y-40917D03*
X78708Y-41047D03*
X75161Y-31350D03*
X86452Y-38074D03*
X81633Y-34425D03*
X87263Y-35818D03*
X87503Y-37484D03*
X87440Y-37775D03*
X86842Y-37866D03*
X85133Y-41094D03*
X75433Y-31582D03*
X74606Y-31492D03*
X82559Y-32795D03*
X78137Y-40413D03*
X86759Y-38161D03*
X85208Y-35330D03*
X80984Y-36574D03*
X81574Y-40787D03*
X85275Y-41889D03*
G54D16*
X73425Y-30893D02*
X73285Y-30893D01*
X73143Y-30752D02*
X72953Y-30752D01*
X73285Y-30893D02*
X73143Y-30752D01*
G54D17*
X83736Y-31114D02*
X83322Y-31527D01*
X83322Y-31527D02*
X83070Y-31527D01*
X83070Y-31527D02*
X82858Y-31314D01*
X82858Y-31314D02*
X82858Y-31149D01*
X82858Y-31149D02*
X82716Y-31007D01*
X82716Y-31007D02*
X81562Y-31007D01*
X81456Y-31114D02*
X74515Y-31114D01*
X86255Y-36901D02*
X86159Y-36998D01*
X86159Y-36998D02*
X85769Y-36998D01*
X85769Y-36998D02*
X85679Y-36907D01*
X85679Y-36907D02*
X85679Y-34249D01*
X85679Y-34249D02*
X85500Y-34070D01*
X85500Y-34070D02*
X85500Y-31842D01*
X85500Y-31842D02*
X85744Y-31598D01*
X85744Y-31598D02*
X85744Y-31330D01*
X85744Y-31330D02*
X85527Y-31114D01*
X85527Y-31114D02*
X83830Y-31114D01*
X81562Y-31007D02*
X81456Y-31114D01*
X74515Y-31114D02*
X74370Y-31259D01*
X83830Y-31114D02*
X83736Y-31114D01*
G54D18*
X85531Y-34311D02*
X85446Y-34226D01*
X85531Y-37043D02*
X85633Y-37145D01*
X85633Y-37145D02*
X86531Y-37145D01*
X86531Y-37145D02*
X86598Y-37078D01*
X86598Y-37078D02*
X87314Y-37078D01*
X87314Y-37078D02*
X87433Y-37196D01*
X85531Y-34311D02*
X85531Y-36850D01*
X85531Y-36850D02*
X85531Y-36968D01*
X85531Y-36968D02*
X85531Y-37043D01*
X84919Y-34226D02*
X84814Y-34122D01*
X85446Y-34226D02*
X84919Y-34226D01*
G54D17*
X80413Y-35433D02*
X80043Y-35433D01*
X80043Y-35433D02*
X79960Y-35350D01*
G54D16*
X72953Y-30252D02*
X72996Y-30252D01*
X73354Y-29893D02*
X73425Y-29893D01*
X72996Y-30252D02*
X73354Y-29893D01*
G54D17*
X87268Y-42402D02*
X87268Y-41834D01*
X87268Y-41834D02*
X87271Y-41830D01*
X78137Y-40413D02*
X78137Y-41122D01*
X78137Y-41122D02*
X78129Y-41129D01*
G54D10*
G36*
X88001Y-36013D02*
X87995Y-36023D01*
X87987Y-36042D01*
X87982Y-36063D01*
X87982Y-36084D01*
X87982Y-36439D01*
X87986Y-36460D01*
X87994Y-36480D01*
X87998Y-36486D01*
X87991Y-36493D01*
X87977Y-36513D01*
X87968Y-36536D01*
X87963Y-36561D01*
X87962Y-36586D01*
X87963Y-36702D01*
X87490Y-36702D01*
X87490Y-35796D01*
X87481Y-35753D01*
X87470Y-35726D01*
X87470Y-33245D01*
X87461Y-33201D01*
X87444Y-33160D01*
X87420Y-33123D01*
X87415Y-33118D01*
X87415Y-30714D01*
X87406Y-30670D01*
X87389Y-30629D01*
X87365Y-30592D01*
X87333Y-30560D01*
X87297Y-30536D01*
X87256Y-30518D01*
X87212Y-30509D01*
X87168Y-30509D01*
X87124Y-30518D01*
X87083Y-30534D01*
X87046Y-30558D01*
X87037Y-30567D01*
X87037Y-30017D01*
X87028Y-29973D01*
X87011Y-29932D01*
X86987Y-29895D01*
X86956Y-29864D01*
X86919Y-29839D01*
X86878Y-29822D01*
X86834Y-29813D01*
X86790Y-29812D01*
X86746Y-29821D01*
X86705Y-29837D01*
X86668Y-29862D01*
X86636Y-29893D01*
X86611Y-29929D01*
X86594Y-29970D01*
X86584Y-30014D01*
X86584Y-30058D01*
X86592Y-30102D01*
X86608Y-30143D01*
X86632Y-30180D01*
X86663Y-30212D01*
X86700Y-30237D01*
X86740Y-30255D01*
X86784Y-30265D01*
X86828Y-30266D01*
X86872Y-30258D01*
X86913Y-30242D01*
X86951Y-30218D01*
X86983Y-30188D01*
X87008Y-30151D01*
X87026Y-30111D01*
X87036Y-30067D01*
X87037Y-30017D01*
X87037Y-30567D01*
X87014Y-30590D01*
X86989Y-30626D01*
X86972Y-30667D01*
X86962Y-30710D01*
X86962Y-30755D01*
X86970Y-30798D01*
X86986Y-30840D01*
X87010Y-30877D01*
X87041Y-30909D01*
X87078Y-30934D01*
X87118Y-30952D01*
X87162Y-30962D01*
X87206Y-30963D01*
X87250Y-30955D01*
X87291Y-30939D01*
X87329Y-30915D01*
X87361Y-30884D01*
X87386Y-30848D01*
X87404Y-30808D01*
X87414Y-30764D01*
X87415Y-30714D01*
X87415Y-33118D01*
X87389Y-33092D01*
X87352Y-33067D01*
X87311Y-33050D01*
X87267Y-33041D01*
X87223Y-33041D01*
X87179Y-33049D01*
X87138Y-33066D01*
X87101Y-33090D01*
X87069Y-33121D01*
X87044Y-33158D01*
X87027Y-33198D01*
X87018Y-33242D01*
X87017Y-33286D01*
X87025Y-33330D01*
X87041Y-33371D01*
X87065Y-33409D01*
X87096Y-33440D01*
X87133Y-33466D01*
X87173Y-33484D01*
X87217Y-33493D01*
X87261Y-33494D01*
X87305Y-33486D01*
X87346Y-33470D01*
X87384Y-33446D01*
X87416Y-33416D01*
X87441Y-33380D01*
X87459Y-33339D01*
X87469Y-33296D01*
X87470Y-33245D01*
X87470Y-35726D01*
X87464Y-35712D01*
X87440Y-35675D01*
X87408Y-35643D01*
X87371Y-35618D01*
X87331Y-35601D01*
X87287Y-35592D01*
X87243Y-35592D01*
X87199Y-35600D01*
X87158Y-35617D01*
X87121Y-35641D01*
X87089Y-35672D01*
X87064Y-35709D01*
X87046Y-35750D01*
X87037Y-35793D01*
X87037Y-35837D01*
X87045Y-35881D01*
X87061Y-35922D01*
X87085Y-35960D01*
X87116Y-35992D01*
X87152Y-36017D01*
X87193Y-36035D01*
X87236Y-36044D01*
X87281Y-36045D01*
X87324Y-36037D01*
X87366Y-36021D01*
X87403Y-35998D01*
X87435Y-35967D01*
X87461Y-35931D01*
X87479Y-35890D01*
X87489Y-35847D01*
X87490Y-35796D01*
X87490Y-36702D01*
X86901Y-36702D01*
X86908Y-36685D01*
X86918Y-36642D01*
X86919Y-36591D01*
X86910Y-36548D01*
X86893Y-36507D01*
X86869Y-36470D01*
X86837Y-36438D01*
X86801Y-36414D01*
X86760Y-36396D01*
X86716Y-36387D01*
X86714Y-36387D01*
X86714Y-34458D01*
X86705Y-34414D01*
X86689Y-34373D01*
X86664Y-34336D01*
X86633Y-34305D01*
X86596Y-34280D01*
X86555Y-34263D01*
X86511Y-34254D01*
X86509Y-34254D01*
X86509Y-31973D01*
X86501Y-31930D01*
X86484Y-31889D01*
X86459Y-31852D01*
X86428Y-31820D01*
X86391Y-31795D01*
X86350Y-31778D01*
X86307Y-31769D01*
X86262Y-31769D01*
X86219Y-31777D01*
X86178Y-31794D01*
X86140Y-31818D01*
X86109Y-31849D01*
X86084Y-31886D01*
X86066Y-31927D01*
X86057Y-31970D01*
X86056Y-32015D01*
X86064Y-32058D01*
X86081Y-32100D01*
X86105Y-32137D01*
X86136Y-32169D01*
X86172Y-32194D01*
X86213Y-32212D01*
X86256Y-32221D01*
X86300Y-32222D01*
X86344Y-32215D01*
X86386Y-32199D01*
X86423Y-32175D01*
X86455Y-32144D01*
X86481Y-32108D01*
X86499Y-32067D01*
X86509Y-32024D01*
X86509Y-31973D01*
X86509Y-34254D01*
X86474Y-34253D01*
X86474Y-33710D01*
X86470Y-33690D01*
X86470Y-33202D01*
X86461Y-33158D01*
X86444Y-33117D01*
X86420Y-33080D01*
X86389Y-33049D01*
X86352Y-33024D01*
X86311Y-33007D01*
X86267Y-32998D01*
X86223Y-32997D01*
X86179Y-33006D01*
X86138Y-33022D01*
X86101Y-33047D01*
X86069Y-33078D01*
X86044Y-33114D01*
X86027Y-33155D01*
X86018Y-33199D01*
X86017Y-33243D01*
X86025Y-33287D01*
X86041Y-33328D01*
X86065Y-33365D01*
X86096Y-33397D01*
X86133Y-33422D01*
X86173Y-33440D01*
X86217Y-33450D01*
X86261Y-33451D01*
X86305Y-33443D01*
X86346Y-33427D01*
X86384Y-33403D01*
X86416Y-33373D01*
X86441Y-33336D01*
X86459Y-33296D01*
X86469Y-33252D01*
X86470Y-33202D01*
X86470Y-33690D01*
X86465Y-33666D01*
X86448Y-33625D01*
X86424Y-33588D01*
X86393Y-33557D01*
X86356Y-33532D01*
X86315Y-33514D01*
X86271Y-33506D01*
X86227Y-33505D01*
X86183Y-33514D01*
X86142Y-33530D01*
X86105Y-33555D01*
X86073Y-33586D01*
X86048Y-33622D01*
X86031Y-33663D01*
X86021Y-33706D01*
X86021Y-33751D01*
X86029Y-33794D01*
X86045Y-33836D01*
X86069Y-33873D01*
X86100Y-33905D01*
X86137Y-33930D01*
X86177Y-33948D01*
X86221Y-33958D01*
X86265Y-33959D01*
X86309Y-33951D01*
X86350Y-33935D01*
X86388Y-33911D01*
X86420Y-33880D01*
X86445Y-33844D01*
X86463Y-33804D01*
X86473Y-33760D01*
X86474Y-33710D01*
X86474Y-34253D01*
X86467Y-34253D01*
X86423Y-34262D01*
X86382Y-34278D01*
X86345Y-34303D01*
X86313Y-34334D01*
X86288Y-34370D01*
X86271Y-34411D01*
X86262Y-34454D01*
X86261Y-34499D01*
X86269Y-34543D01*
X86285Y-34584D01*
X86309Y-34621D01*
X86340Y-34653D01*
X86377Y-34678D01*
X86417Y-34696D01*
X86461Y-34706D01*
X86505Y-34707D01*
X86549Y-34699D01*
X86590Y-34683D01*
X86628Y-34659D01*
X86660Y-34628D01*
X86685Y-34592D01*
X86704Y-34552D01*
X86713Y-34508D01*
X86714Y-34458D01*
X86714Y-36387D01*
X86672Y-36387D01*
X86628Y-36395D01*
X86587Y-36412D01*
X86550Y-36436D01*
X86518Y-36467D01*
X86505Y-36486D01*
X86505Y-35214D01*
X86497Y-35170D01*
X86480Y-35129D01*
X86455Y-35092D01*
X86424Y-35060D01*
X86387Y-35036D01*
X86346Y-35018D01*
X86303Y-35009D01*
X86258Y-35009D01*
X86215Y-35018D01*
X86174Y-35034D01*
X86136Y-35058D01*
X86105Y-35090D01*
X86080Y-35126D01*
X86062Y-35167D01*
X86053Y-35210D01*
X86052Y-35255D01*
X86060Y-35298D01*
X86077Y-35340D01*
X86101Y-35377D01*
X86132Y-35409D01*
X86168Y-35434D01*
X86209Y-35452D01*
X86252Y-35462D01*
X86296Y-35463D01*
X86340Y-35455D01*
X86382Y-35439D01*
X86419Y-35415D01*
X86451Y-35384D01*
X86477Y-35348D01*
X86495Y-35308D01*
X86505Y-35264D01*
X86505Y-35214D01*
X86505Y-36486D01*
X86493Y-36504D01*
X86486Y-36521D01*
X86486Y-36296D01*
X86477Y-36253D01*
X86460Y-36212D01*
X86436Y-36175D01*
X86404Y-36143D01*
X86368Y-36118D01*
X86327Y-36101D01*
X86283Y-36092D01*
X86239Y-36092D01*
X86195Y-36100D01*
X86154Y-36117D01*
X86117Y-36141D01*
X86085Y-36172D01*
X86060Y-36209D01*
X86043Y-36250D01*
X86033Y-36293D01*
X86033Y-36337D01*
X86041Y-36381D01*
X86057Y-36422D01*
X86081Y-36460D01*
X86112Y-36492D01*
X86148Y-36517D01*
X86189Y-36535D01*
X86232Y-36544D01*
X86277Y-36545D01*
X86321Y-36537D01*
X86362Y-36521D01*
X86399Y-36498D01*
X86432Y-36467D01*
X86457Y-36431D01*
X86475Y-36390D01*
X86485Y-36347D01*
X86486Y-36296D01*
X86486Y-36521D01*
X86476Y-36545D01*
X86466Y-36588D01*
X86466Y-36633D01*
X86474Y-36676D01*
X86484Y-36702D01*
X86365Y-36702D01*
X86364Y-36701D01*
X86323Y-36684D01*
X86279Y-36675D01*
X86235Y-36675D01*
X86191Y-36683D01*
X86150Y-36699D01*
X86146Y-36702D01*
X85816Y-36702D01*
X85816Y-34249D01*
X85815Y-34237D01*
X85814Y-34224D01*
X85814Y-34223D01*
X85814Y-34223D01*
X85810Y-34210D01*
X85807Y-34198D01*
X85806Y-34198D01*
X85806Y-34197D01*
X85800Y-34186D01*
X85794Y-34174D01*
X85794Y-34174D01*
X85793Y-34173D01*
X85785Y-34163D01*
X85777Y-34153D01*
X85776Y-34152D01*
X85776Y-34152D01*
X85776Y-34152D01*
X85776Y-34152D01*
X85637Y-34013D01*
X85637Y-31899D01*
X85841Y-31695D01*
X85849Y-31686D01*
X85857Y-31676D01*
X85858Y-31675D01*
X85858Y-31675D01*
X85864Y-31663D01*
X85870Y-31652D01*
X85870Y-31652D01*
X85871Y-31651D01*
X85875Y-31639D01*
X85878Y-31627D01*
X85878Y-31626D01*
X85879Y-31625D01*
X85880Y-31613D01*
X85881Y-31600D01*
X85881Y-31598D01*
X85881Y-31598D01*
X85881Y-31598D01*
X85881Y-31598D01*
X85881Y-31330D01*
X85880Y-31318D01*
X85879Y-31305D01*
X85879Y-31304D01*
X85879Y-31303D01*
X85875Y-31291D01*
X85872Y-31279D01*
X85871Y-31278D01*
X85871Y-31278D01*
X85865Y-31266D01*
X85859Y-31255D01*
X85859Y-31255D01*
X85858Y-31254D01*
X85850Y-31244D01*
X85842Y-31234D01*
X85841Y-31233D01*
X85841Y-31233D01*
X85841Y-31233D01*
X85841Y-31233D01*
X85653Y-31044D01*
X85664Y-31034D01*
X85689Y-30998D01*
X85707Y-30957D01*
X85717Y-30914D01*
X85718Y-30863D01*
X85709Y-30820D01*
X85692Y-30779D01*
X85668Y-30742D01*
X85637Y-30710D01*
X85600Y-30685D01*
X85559Y-30668D01*
X85515Y-30659D01*
X85471Y-30659D01*
X85427Y-30667D01*
X85386Y-30684D01*
X85349Y-30708D01*
X85317Y-30739D01*
X85292Y-30776D01*
X85275Y-30817D01*
X85266Y-30860D01*
X85265Y-30904D01*
X85273Y-30948D01*
X85284Y-30976D01*
X85246Y-30976D01*
X85246Y-30371D01*
X85237Y-30327D01*
X85220Y-30286D01*
X85195Y-30249D01*
X85164Y-30218D01*
X85127Y-30193D01*
X85086Y-30176D01*
X85043Y-30167D01*
X84999Y-30167D01*
X84955Y-30175D01*
X84914Y-30192D01*
X84877Y-30216D01*
X84845Y-30247D01*
X84820Y-30284D01*
X84802Y-30324D01*
X84793Y-30368D01*
X84793Y-30412D01*
X84801Y-30456D01*
X84817Y-30497D01*
X84841Y-30534D01*
X84872Y-30566D01*
X84908Y-30592D01*
X84949Y-30610D01*
X84992Y-30619D01*
X85037Y-30620D01*
X85080Y-30612D01*
X85122Y-30596D01*
X85159Y-30572D01*
X85191Y-30542D01*
X85217Y-30506D01*
X85235Y-30465D01*
X85245Y-30422D01*
X85246Y-30371D01*
X85246Y-30976D01*
X84616Y-30976D01*
X84625Y-30957D01*
X84635Y-30914D01*
X84635Y-30863D01*
X84635Y-30340D01*
X84627Y-30296D01*
X84610Y-30255D01*
X84585Y-30218D01*
X84554Y-30186D01*
X84517Y-30162D01*
X84476Y-30144D01*
X84433Y-30135D01*
X84388Y-30135D01*
X84345Y-30143D01*
X84304Y-30160D01*
X84266Y-30184D01*
X84235Y-30215D01*
X84210Y-30252D01*
X84192Y-30293D01*
X84183Y-30336D01*
X84182Y-30381D01*
X84190Y-30424D01*
X84207Y-30466D01*
X84231Y-30503D01*
X84262Y-30535D01*
X84298Y-30560D01*
X84339Y-30578D01*
X84382Y-30588D01*
X84426Y-30589D01*
X84470Y-30581D01*
X84512Y-30565D01*
X84549Y-30541D01*
X84581Y-30510D01*
X84607Y-30474D01*
X84625Y-30434D01*
X84635Y-30390D01*
X84635Y-30340D01*
X84635Y-30863D01*
X84627Y-30820D01*
X84610Y-30779D01*
X84585Y-30742D01*
X84554Y-30710D01*
X84517Y-30685D01*
X84476Y-30668D01*
X84433Y-30659D01*
X84388Y-30659D01*
X84345Y-30667D01*
X84304Y-30684D01*
X84266Y-30708D01*
X84251Y-30723D01*
X84239Y-30710D01*
X84202Y-30685D01*
X84161Y-30668D01*
X84118Y-30659D01*
X84073Y-30659D01*
X84030Y-30667D01*
X83989Y-30684D01*
X83951Y-30708D01*
X83935Y-30725D01*
X83932Y-30722D01*
X83895Y-30697D01*
X83854Y-30680D01*
X83811Y-30671D01*
X83766Y-30671D01*
X83723Y-30679D01*
X83682Y-30696D01*
X83644Y-30720D01*
X83613Y-30751D01*
X83588Y-30788D01*
X83570Y-30828D01*
X83561Y-30872D01*
X83560Y-30916D01*
X83568Y-30960D01*
X83585Y-31001D01*
X83609Y-31038D01*
X83612Y-31042D01*
X83543Y-31112D01*
X82990Y-31112D01*
X82989Y-31110D01*
X82986Y-31098D01*
X82985Y-31097D01*
X82985Y-31097D01*
X82979Y-31085D01*
X82973Y-31074D01*
X82973Y-31073D01*
X82973Y-31073D01*
X82964Y-31063D01*
X82957Y-31053D01*
X82956Y-31052D01*
X82956Y-31052D01*
X82956Y-31052D01*
X82955Y-31052D01*
X82853Y-30949D01*
X82902Y-30918D01*
X82954Y-30869D01*
X82995Y-30810D01*
X83024Y-30745D01*
X83040Y-30675D01*
X83041Y-30594D01*
X83027Y-30524D01*
X83000Y-30458D01*
X82960Y-30398D01*
X82910Y-30347D01*
X82851Y-30308D01*
X82785Y-30280D01*
X82715Y-30265D01*
X82643Y-30265D01*
X82573Y-30278D01*
X82507Y-30305D01*
X82447Y-30344D01*
X82396Y-30394D01*
X82356Y-30453D01*
X82328Y-30519D01*
X82313Y-30589D01*
X82312Y-30660D01*
X82325Y-30730D01*
X82351Y-30797D01*
X82390Y-30857D01*
X82402Y-30870D01*
X81562Y-30870D01*
X81550Y-30871D01*
X81537Y-30872D01*
X81536Y-30872D01*
X81536Y-30872D01*
X81524Y-30876D01*
X81511Y-30879D01*
X81511Y-30880D01*
X81510Y-30880D01*
X81499Y-30886D01*
X81487Y-30892D01*
X81487Y-30892D01*
X81486Y-30893D01*
X81476Y-30901D01*
X81466Y-30909D01*
X81465Y-30910D01*
X81465Y-30910D01*
X81465Y-30910D01*
X81465Y-30910D01*
X81399Y-30976D01*
X80718Y-30976D01*
X80718Y-30647D01*
X80709Y-30603D01*
X80692Y-30562D01*
X80668Y-30525D01*
X80637Y-30494D01*
X80600Y-30469D01*
X80559Y-30451D01*
X80515Y-30443D01*
X80471Y-30442D01*
X80427Y-30451D01*
X80386Y-30467D01*
X80349Y-30492D01*
X80317Y-30523D01*
X80292Y-30559D01*
X80275Y-30600D01*
X80266Y-30643D01*
X80265Y-30688D01*
X80273Y-30731D01*
X80289Y-30773D01*
X80313Y-30810D01*
X80344Y-30842D01*
X80381Y-30867D01*
X80421Y-30885D01*
X80465Y-30895D01*
X80509Y-30896D01*
X80553Y-30888D01*
X80594Y-30872D01*
X80632Y-30848D01*
X80664Y-30817D01*
X80689Y-30781D01*
X80707Y-30741D01*
X80717Y-30697D01*
X80718Y-30647D01*
X80718Y-30976D01*
X77340Y-30976D01*
X77340Y-30434D01*
X77331Y-30390D01*
X77315Y-30349D01*
X77290Y-30312D01*
X77259Y-30281D01*
X77222Y-30256D01*
X77181Y-30239D01*
X77137Y-30230D01*
X77093Y-30230D01*
X77049Y-30238D01*
X77008Y-30255D01*
X76971Y-30279D01*
X76939Y-30310D01*
X76914Y-30347D01*
X76897Y-30387D01*
X76888Y-30431D01*
X76887Y-30475D01*
X76895Y-30519D01*
X76911Y-30560D01*
X76935Y-30597D01*
X76966Y-30629D01*
X77003Y-30655D01*
X77043Y-30673D01*
X77087Y-30682D01*
X77131Y-30683D01*
X77175Y-30675D01*
X77216Y-30659D01*
X77254Y-30635D01*
X77286Y-30605D01*
X77311Y-30569D01*
X77330Y-30528D01*
X77339Y-30485D01*
X77340Y-30434D01*
X77340Y-30976D01*
X75517Y-30976D01*
X75517Y-30391D01*
X75509Y-30347D01*
X75492Y-30306D01*
X75467Y-30269D01*
X75436Y-30238D01*
X75399Y-30213D01*
X75358Y-30196D01*
X75315Y-30187D01*
X75270Y-30186D01*
X75227Y-30195D01*
X75185Y-30211D01*
X75148Y-30236D01*
X75117Y-30267D01*
X75092Y-30303D01*
X75074Y-30344D01*
X75065Y-30388D01*
X75064Y-30421D01*
X75034Y-30391D01*
X74997Y-30366D01*
X74957Y-30349D01*
X74913Y-30340D01*
X74869Y-30340D01*
X74825Y-30348D01*
X74784Y-30365D01*
X74777Y-30369D01*
X74773Y-30366D01*
X74732Y-30349D01*
X74689Y-30340D01*
X74644Y-30340D01*
X74601Y-30348D01*
X74559Y-30365D01*
X74522Y-30389D01*
X74491Y-30420D01*
X74466Y-30457D01*
X74448Y-30498D01*
X74439Y-30541D01*
X74438Y-30585D01*
X74446Y-30629D01*
X74463Y-30670D01*
X74487Y-30708D01*
X74517Y-30740D01*
X74554Y-30765D01*
X74595Y-30783D01*
X74638Y-30792D01*
X74682Y-30793D01*
X74726Y-30786D01*
X74767Y-30769D01*
X74776Y-30764D01*
X74778Y-30765D01*
X74819Y-30783D01*
X74862Y-30792D01*
X74907Y-30793D01*
X74950Y-30786D01*
X74992Y-30769D01*
X75029Y-30746D01*
X75061Y-30715D01*
X75087Y-30679D01*
X75105Y-30638D01*
X75115Y-30595D01*
X75115Y-30557D01*
X75143Y-30586D01*
X75180Y-30611D01*
X75221Y-30629D01*
X75264Y-30639D01*
X75308Y-30640D01*
X75352Y-30632D01*
X75393Y-30616D01*
X75431Y-30592D01*
X75463Y-30562D01*
X75489Y-30525D01*
X75507Y-30485D01*
X75517Y-30441D01*
X75517Y-30391D01*
X75517Y-30976D01*
X74515Y-30976D01*
X74503Y-30977D01*
X74490Y-30978D01*
X74489Y-30978D01*
X74488Y-30979D01*
X74476Y-30982D01*
X74464Y-30986D01*
X74463Y-30986D01*
X74463Y-30986D01*
X74452Y-30992D01*
X74440Y-30998D01*
X74440Y-30999D01*
X74439Y-30999D01*
X74429Y-31007D01*
X74419Y-31015D01*
X74418Y-31016D01*
X74418Y-31016D01*
X74418Y-31016D01*
X74418Y-31016D01*
X74400Y-31034D01*
X74393Y-31033D01*
X74349Y-31033D01*
X74305Y-31041D01*
X74264Y-31058D01*
X74227Y-31082D01*
X74197Y-31112D01*
X74183Y-31112D01*
X74183Y-31132D01*
X74170Y-31150D01*
X74153Y-31191D01*
X74144Y-31234D01*
X74143Y-31278D01*
X74151Y-31322D01*
X74167Y-31363D01*
X74183Y-31387D01*
X74183Y-31584D01*
X74015Y-31584D01*
X73784Y-31584D01*
X73753Y-31545D01*
X73730Y-31526D01*
X73730Y-31083D01*
X73730Y-30931D01*
X73698Y-30899D01*
X73431Y-30899D01*
X73431Y-31166D01*
X73463Y-31198D01*
X73590Y-31198D01*
X73615Y-31198D01*
X73640Y-31193D01*
X73663Y-31183D01*
X73684Y-31169D01*
X73701Y-31151D01*
X73715Y-31131D01*
X73725Y-31107D01*
X73730Y-31083D01*
X73730Y-31526D01*
X73714Y-31512D01*
X73668Y-31487D01*
X73619Y-31471D01*
X73567Y-31466D01*
X73563Y-31465D01*
X73323Y-31465D01*
X73272Y-31471D01*
X73222Y-31486D01*
X73218Y-31488D01*
X73218Y-31195D01*
X73234Y-31198D01*
X73259Y-31198D01*
X73387Y-31198D01*
X73419Y-31166D01*
X73419Y-30899D01*
X73411Y-30899D01*
X73411Y-30887D01*
X73419Y-30887D01*
X73419Y-30879D01*
X73431Y-30879D01*
X73431Y-30887D01*
X73698Y-30887D01*
X73730Y-30855D01*
X73730Y-30704D01*
X73725Y-30679D01*
X73715Y-30656D01*
X73701Y-30635D01*
X73694Y-30627D01*
X73697Y-30622D01*
X73706Y-30602D01*
X73710Y-30582D01*
X73710Y-30560D01*
X73710Y-30206D01*
X73706Y-30185D01*
X73698Y-30165D01*
X73686Y-30147D01*
X73682Y-30143D01*
X73686Y-30140D01*
X73697Y-30122D01*
X73706Y-30102D01*
X73710Y-30082D01*
X73710Y-30060D01*
X73710Y-29706D01*
X73706Y-29685D01*
X73698Y-29665D01*
X73686Y-29647D01*
X73671Y-29632D01*
X73653Y-29621D01*
X73634Y-29612D01*
X73613Y-29608D01*
X73592Y-29608D01*
X73237Y-29608D01*
X73218Y-29612D01*
X73218Y-29517D01*
X75157Y-29517D01*
X77213Y-29517D01*
X77224Y-29524D01*
X77243Y-29532D01*
X77264Y-29537D01*
X77285Y-29537D01*
X77640Y-29537D01*
X77661Y-29533D01*
X77680Y-29525D01*
X77691Y-29517D01*
X77713Y-29517D01*
X77724Y-29524D01*
X77743Y-29532D01*
X77764Y-29537D01*
X77785Y-29537D01*
X78140Y-29537D01*
X78161Y-29533D01*
X78180Y-29525D01*
X78191Y-29517D01*
X83028Y-29517D01*
X83039Y-29524D01*
X83058Y-29532D01*
X83079Y-29537D01*
X83100Y-29537D01*
X83455Y-29537D01*
X83476Y-29533D01*
X83496Y-29525D01*
X83507Y-29517D01*
X83528Y-29517D01*
X83539Y-29524D01*
X83558Y-29532D01*
X83579Y-29537D01*
X83600Y-29537D01*
X83955Y-29537D01*
X83976Y-29533D01*
X83996Y-29525D01*
X84007Y-29517D01*
X84028Y-29517D01*
X84039Y-29524D01*
X84058Y-29532D01*
X84079Y-29537D01*
X84100Y-29537D01*
X84455Y-29537D01*
X84476Y-29533D01*
X84496Y-29525D01*
X84507Y-29517D01*
X84528Y-29517D01*
X84530Y-29519D01*
X84510Y-29538D01*
X84485Y-29575D01*
X84468Y-29616D01*
X84458Y-29659D01*
X84458Y-29704D01*
X84466Y-29747D01*
X84482Y-29789D01*
X84506Y-29826D01*
X84537Y-29858D01*
X84574Y-29883D01*
X84614Y-29901D01*
X84658Y-29910D01*
X84702Y-29911D01*
X84746Y-29904D01*
X84787Y-29888D01*
X84825Y-29864D01*
X84857Y-29833D01*
X84882Y-29797D01*
X84887Y-29786D01*
X84900Y-29806D01*
X84931Y-29838D01*
X84967Y-29863D01*
X85008Y-29881D01*
X85051Y-29891D01*
X85096Y-29892D01*
X85139Y-29884D01*
X85181Y-29868D01*
X85218Y-29844D01*
X85250Y-29813D01*
X85276Y-29777D01*
X85294Y-29737D01*
X85304Y-29693D01*
X85305Y-29643D01*
X85296Y-29599D01*
X85279Y-29558D01*
X85265Y-29537D01*
X85455Y-29537D01*
X85476Y-29533D01*
X85496Y-29525D01*
X85507Y-29517D01*
X85528Y-29517D01*
X85539Y-29524D01*
X85558Y-29532D01*
X85579Y-29537D01*
X85600Y-29537D01*
X85955Y-29537D01*
X85976Y-29533D01*
X85996Y-29525D01*
X86007Y-29517D01*
X86028Y-29517D01*
X86039Y-29524D01*
X86058Y-29532D01*
X86079Y-29537D01*
X86100Y-29537D01*
X86455Y-29537D01*
X86476Y-29533D01*
X86496Y-29525D01*
X86507Y-29517D01*
X86528Y-29517D01*
X86539Y-29524D01*
X86558Y-29532D01*
X86579Y-29537D01*
X86600Y-29537D01*
X86955Y-29537D01*
X86976Y-29533D01*
X86996Y-29525D01*
X87007Y-29517D01*
X87028Y-29517D01*
X87039Y-29524D01*
X87058Y-29532D01*
X87079Y-29537D01*
X87100Y-29537D01*
X87455Y-29537D01*
X87476Y-29533D01*
X87496Y-29525D01*
X87507Y-29517D01*
X88001Y-29517D01*
X88001Y-30013D01*
X87995Y-30023D01*
X87987Y-30042D01*
X87982Y-30063D01*
X87982Y-30084D01*
X87982Y-30277D01*
X87965Y-30270D01*
X87944Y-30265D01*
X87923Y-30265D01*
X87816Y-30265D01*
X87816Y-29938D01*
X87808Y-29894D01*
X87791Y-29853D01*
X87766Y-29816D01*
X87735Y-29785D01*
X87698Y-29760D01*
X87657Y-29743D01*
X87614Y-29734D01*
X87569Y-29734D01*
X87526Y-29742D01*
X87485Y-29759D01*
X87448Y-29783D01*
X87416Y-29814D01*
X87391Y-29851D01*
X87373Y-29891D01*
X87364Y-29935D01*
X87363Y-29979D01*
X87371Y-30023D01*
X87388Y-30064D01*
X87412Y-30101D01*
X87443Y-30133D01*
X87479Y-30159D01*
X87520Y-30176D01*
X87563Y-30186D01*
X87608Y-30187D01*
X87651Y-30179D01*
X87693Y-30163D01*
X87730Y-30139D01*
X87762Y-30109D01*
X87788Y-30072D01*
X87806Y-30032D01*
X87816Y-29989D01*
X87816Y-29938D01*
X87816Y-30265D01*
X87568Y-30265D01*
X87547Y-30270D01*
X87527Y-30278D01*
X87510Y-30289D01*
X87495Y-30304D01*
X87483Y-30322D01*
X87474Y-30342D01*
X87470Y-30362D01*
X87470Y-30384D01*
X87470Y-30738D01*
X87474Y-30759D01*
X87482Y-30779D01*
X87494Y-30796D01*
X87509Y-30812D01*
X87527Y-30823D01*
X87546Y-30832D01*
X87567Y-30836D01*
X87588Y-30836D01*
X87943Y-30836D01*
X87964Y-30832D01*
X87982Y-30824D01*
X87982Y-30939D01*
X87986Y-30960D01*
X87994Y-30980D01*
X88001Y-30990D01*
X88001Y-31013D01*
X87995Y-31023D01*
X87987Y-31042D01*
X87982Y-31063D01*
X87982Y-31084D01*
X87982Y-31439D01*
X87986Y-31460D01*
X87994Y-31480D01*
X88001Y-31490D01*
X88001Y-31513D01*
X87995Y-31523D01*
X87987Y-31542D01*
X87982Y-31563D01*
X87982Y-31584D01*
X87982Y-31939D01*
X87986Y-31960D01*
X87994Y-31980D01*
X88001Y-31990D01*
X88001Y-32013D01*
X87995Y-32023D01*
X87987Y-32042D01*
X87982Y-32063D01*
X87982Y-32084D01*
X87982Y-32439D01*
X87986Y-32460D01*
X87994Y-32480D01*
X88001Y-32490D01*
X88001Y-32513D01*
X87995Y-32523D01*
X87987Y-32542D01*
X87982Y-32563D01*
X87982Y-32584D01*
X87982Y-32822D01*
X87972Y-32818D01*
X87929Y-32809D01*
X87884Y-32808D01*
X87841Y-32817D01*
X87800Y-32833D01*
X87762Y-32858D01*
X87731Y-32889D01*
X87706Y-32925D01*
X87688Y-32966D01*
X87679Y-33010D01*
X87678Y-33054D01*
X87686Y-33098D01*
X87703Y-33139D01*
X87727Y-33176D01*
X87758Y-33208D01*
X87794Y-33233D01*
X87835Y-33251D01*
X87878Y-33261D01*
X87922Y-33262D01*
X87966Y-33254D01*
X87982Y-33248D01*
X87982Y-33439D01*
X87986Y-33460D01*
X87994Y-33480D01*
X88001Y-33490D01*
X88001Y-33513D01*
X87995Y-33523D01*
X87987Y-33542D01*
X87982Y-33563D01*
X87982Y-33584D01*
X87982Y-33939D01*
X87986Y-33960D01*
X87994Y-33980D01*
X88001Y-33990D01*
X88001Y-35013D01*
X87995Y-35023D01*
X87987Y-35042D01*
X87982Y-35063D01*
X87982Y-35084D01*
X87982Y-35439D01*
X87986Y-35460D01*
X87994Y-35480D01*
X88001Y-35490D01*
X88001Y-35513D01*
X87995Y-35523D01*
X87987Y-35542D01*
X87982Y-35563D01*
X87982Y-35584D01*
X87982Y-35939D01*
X87986Y-35960D01*
X87994Y-35980D01*
X88001Y-35990D01*
X88001Y-36013D01*
X88001Y-36013D01*
G37*
G54D17*
X88001Y-36013D02*
X87995Y-36023D01*
X87987Y-36042D01*
X87982Y-36063D01*
X87982Y-36084D01*
X87982Y-36439D01*
X87986Y-36460D01*
X87994Y-36480D01*
X87998Y-36486D01*
X87991Y-36493D01*
X87977Y-36513D01*
X87968Y-36536D01*
X87963Y-36561D01*
X87962Y-36586D01*
X87963Y-36702D01*
X87490Y-36702D01*
X87490Y-35796D01*
X87481Y-35753D01*
X87470Y-35726D01*
X87470Y-33245D01*
X87461Y-33201D01*
X87444Y-33160D01*
X87420Y-33123D01*
X87415Y-33118D01*
X87415Y-30714D01*
X87406Y-30670D01*
X87389Y-30629D01*
X87365Y-30592D01*
X87333Y-30560D01*
X87297Y-30536D01*
X87256Y-30518D01*
X87212Y-30509D01*
X87168Y-30509D01*
X87124Y-30518D01*
X87083Y-30534D01*
X87046Y-30558D01*
X87037Y-30567D01*
X87037Y-30017D01*
X87028Y-29973D01*
X87011Y-29932D01*
X86987Y-29895D01*
X86956Y-29864D01*
X86919Y-29839D01*
X86878Y-29822D01*
X86834Y-29813D01*
X86790Y-29812D01*
X86746Y-29821D01*
X86705Y-29837D01*
X86668Y-29862D01*
X86636Y-29893D01*
X86611Y-29929D01*
X86594Y-29970D01*
X86584Y-30014D01*
X86584Y-30058D01*
X86592Y-30102D01*
X86608Y-30143D01*
X86632Y-30180D01*
X86663Y-30212D01*
X86700Y-30237D01*
X86740Y-30255D01*
X86784Y-30265D01*
X86828Y-30266D01*
X86872Y-30258D01*
X86913Y-30242D01*
X86951Y-30218D01*
X86983Y-30188D01*
X87008Y-30151D01*
X87026Y-30111D01*
X87036Y-30067D01*
X87037Y-30017D01*
X87037Y-30567D01*
X87014Y-30590D01*
X86989Y-30626D01*
X86972Y-30667D01*
X86962Y-30710D01*
X86962Y-30755D01*
X86970Y-30798D01*
X86986Y-30840D01*
X87010Y-30877D01*
X87041Y-30909D01*
X87078Y-30934D01*
X87118Y-30952D01*
X87162Y-30962D01*
X87206Y-30963D01*
X87250Y-30955D01*
X87291Y-30939D01*
X87329Y-30915D01*
X87361Y-30884D01*
X87386Y-30848D01*
X87404Y-30808D01*
X87414Y-30764D01*
X87415Y-30714D01*
X87415Y-33118D01*
X87389Y-33092D01*
X87352Y-33067D01*
X87311Y-33050D01*
X87267Y-33041D01*
X87223Y-33041D01*
X87179Y-33049D01*
X87138Y-33066D01*
X87101Y-33090D01*
X87069Y-33121D01*
X87044Y-33158D01*
X87027Y-33198D01*
X87018Y-33242D01*
X87017Y-33286D01*
X87025Y-33330D01*
X87041Y-33371D01*
X87065Y-33409D01*
X87096Y-33440D01*
X87133Y-33466D01*
X87173Y-33484D01*
X87217Y-33493D01*
X87261Y-33494D01*
X87305Y-33486D01*
X87346Y-33470D01*
X87384Y-33446D01*
X87416Y-33416D01*
X87441Y-33380D01*
X87459Y-33339D01*
X87469Y-33296D01*
X87470Y-33245D01*
X87470Y-35726D01*
X87464Y-35712D01*
X87440Y-35675D01*
X87408Y-35643D01*
X87371Y-35618D01*
X87331Y-35601D01*
X87287Y-35592D01*
X87243Y-35592D01*
X87199Y-35600D01*
X87158Y-35617D01*
X87121Y-35641D01*
X87089Y-35672D01*
X87064Y-35709D01*
X87046Y-35750D01*
X87037Y-35793D01*
X87037Y-35837D01*
X87045Y-35881D01*
X87061Y-35922D01*
X87085Y-35960D01*
X87116Y-35992D01*
X87152Y-36017D01*
X87193Y-36035D01*
X87236Y-36044D01*
X87281Y-36045D01*
X87324Y-36037D01*
X87366Y-36021D01*
X87403Y-35998D01*
X87435Y-35967D01*
X87461Y-35931D01*
X87479Y-35890D01*
X87489Y-35847D01*
X87490Y-35796D01*
X87490Y-36702D01*
X86901Y-36702D01*
X86908Y-36685D01*
X86918Y-36642D01*
X86919Y-36591D01*
X86910Y-36548D01*
X86893Y-36507D01*
X86869Y-36470D01*
X86837Y-36438D01*
X86801Y-36414D01*
X86760Y-36396D01*
X86716Y-36387D01*
X86714Y-36387D01*
X86714Y-34458D01*
X86705Y-34414D01*
X86689Y-34373D01*
X86664Y-34336D01*
X86633Y-34305D01*
X86596Y-34280D01*
X86555Y-34263D01*
X86511Y-34254D01*
X86509Y-34254D01*
X86509Y-31973D01*
X86501Y-31930D01*
X86484Y-31889D01*
X86459Y-31852D01*
X86428Y-31820D01*
X86391Y-31795D01*
X86350Y-31778D01*
X86307Y-31769D01*
X86262Y-31769D01*
X86219Y-31777D01*
X86178Y-31794D01*
X86140Y-31818D01*
X86109Y-31849D01*
X86084Y-31886D01*
X86066Y-31927D01*
X86057Y-31970D01*
X86056Y-32015D01*
X86064Y-32058D01*
X86081Y-32100D01*
X86105Y-32137D01*
X86136Y-32169D01*
X86172Y-32194D01*
X86213Y-32212D01*
X86256Y-32221D01*
X86300Y-32222D01*
X86344Y-32215D01*
X86386Y-32199D01*
X86423Y-32175D01*
X86455Y-32144D01*
X86481Y-32108D01*
X86499Y-32067D01*
X86509Y-32024D01*
X86509Y-31973D01*
X86509Y-34254D01*
X86474Y-34253D01*
X86474Y-33710D01*
X86470Y-33690D01*
X86470Y-33202D01*
X86461Y-33158D01*
X86444Y-33117D01*
X86420Y-33080D01*
X86389Y-33049D01*
X86352Y-33024D01*
X86311Y-33007D01*
X86267Y-32998D01*
X86223Y-32997D01*
X86179Y-33006D01*
X86138Y-33022D01*
X86101Y-33047D01*
X86069Y-33078D01*
X86044Y-33114D01*
X86027Y-33155D01*
X86018Y-33199D01*
X86017Y-33243D01*
X86025Y-33287D01*
X86041Y-33328D01*
X86065Y-33365D01*
X86096Y-33397D01*
X86133Y-33422D01*
X86173Y-33440D01*
X86217Y-33450D01*
X86261Y-33451D01*
X86305Y-33443D01*
X86346Y-33427D01*
X86384Y-33403D01*
X86416Y-33373D01*
X86441Y-33336D01*
X86459Y-33296D01*
X86469Y-33252D01*
X86470Y-33202D01*
X86470Y-33690D01*
X86465Y-33666D01*
X86448Y-33625D01*
X86424Y-33588D01*
X86393Y-33557D01*
X86356Y-33532D01*
X86315Y-33514D01*
X86271Y-33506D01*
X86227Y-33505D01*
X86183Y-33514D01*
X86142Y-33530D01*
X86105Y-33555D01*
X86073Y-33586D01*
X86048Y-33622D01*
X86031Y-33663D01*
X86021Y-33706D01*
X86021Y-33751D01*
X86029Y-33794D01*
X86045Y-33836D01*
X86069Y-33873D01*
X86100Y-33905D01*
X86137Y-33930D01*
X86177Y-33948D01*
X86221Y-33958D01*
X86265Y-33959D01*
X86309Y-33951D01*
X86350Y-33935D01*
X86388Y-33911D01*
X86420Y-33880D01*
X86445Y-33844D01*
X86463Y-33804D01*
X86473Y-33760D01*
X86474Y-33710D01*
X86474Y-34253D01*
X86467Y-34253D01*
X86423Y-34262D01*
X86382Y-34278D01*
X86345Y-34303D01*
X86313Y-34334D01*
X86288Y-34370D01*
X86271Y-34411D01*
X86262Y-34454D01*
X86261Y-34499D01*
X86269Y-34543D01*
X86285Y-34584D01*
X86309Y-34621D01*
X86340Y-34653D01*
X86377Y-34678D01*
X86417Y-34696D01*
X86461Y-34706D01*
X86505Y-34707D01*
X86549Y-34699D01*
X86590Y-34683D01*
X86628Y-34659D01*
X86660Y-34628D01*
X86685Y-34592D01*
X86704Y-34552D01*
X86713Y-34508D01*
X86714Y-34458D01*
X86714Y-36387D01*
X86672Y-36387D01*
X86628Y-36395D01*
X86587Y-36412D01*
X86550Y-36436D01*
X86518Y-36467D01*
X86505Y-36486D01*
X86505Y-35214D01*
X86497Y-35170D01*
X86480Y-35129D01*
X86455Y-35092D01*
X86424Y-35060D01*
X86387Y-35036D01*
X86346Y-35018D01*
X86303Y-35009D01*
X86258Y-35009D01*
X86215Y-35018D01*
X86174Y-35034D01*
X86136Y-35058D01*
X86105Y-35090D01*
X86080Y-35126D01*
X86062Y-35167D01*
X86053Y-35210D01*
X86052Y-35255D01*
X86060Y-35298D01*
X86077Y-35340D01*
X86101Y-35377D01*
X86132Y-35409D01*
X86168Y-35434D01*
X86209Y-35452D01*
X86252Y-35462D01*
X86296Y-35463D01*
X86340Y-35455D01*
X86382Y-35439D01*
X86419Y-35415D01*
X86451Y-35384D01*
X86477Y-35348D01*
X86495Y-35308D01*
X86505Y-35264D01*
X86505Y-35214D01*
X86505Y-36486D01*
X86493Y-36504D01*
X86486Y-36521D01*
X86486Y-36296D01*
X86477Y-36253D01*
X86460Y-36212D01*
X86436Y-36175D01*
X86404Y-36143D01*
X86368Y-36118D01*
X86327Y-36101D01*
X86283Y-36092D01*
X86239Y-36092D01*
X86195Y-36100D01*
X86154Y-36117D01*
X86117Y-36141D01*
X86085Y-36172D01*
X86060Y-36209D01*
X86043Y-36250D01*
X86033Y-36293D01*
X86033Y-36337D01*
X86041Y-36381D01*
X86057Y-36422D01*
X86081Y-36460D01*
X86112Y-36492D01*
X86148Y-36517D01*
X86189Y-36535D01*
X86232Y-36544D01*
X86277Y-36545D01*
X86321Y-36537D01*
X86362Y-36521D01*
X86399Y-36498D01*
X86432Y-36467D01*
X86457Y-36431D01*
X86475Y-36390D01*
X86485Y-36347D01*
X86486Y-36296D01*
X86486Y-36521D01*
X86476Y-36545D01*
X86466Y-36588D01*
X86466Y-36633D01*
X86474Y-36676D01*
X86484Y-36702D01*
X86365Y-36702D01*
X86364Y-36701D01*
X86323Y-36684D01*
X86279Y-36675D01*
X86235Y-36675D01*
X86191Y-36683D01*
X86150Y-36699D01*
X86146Y-36702D01*
X85816Y-36702D01*
X85816Y-34249D01*
X85815Y-34237D01*
X85814Y-34224D01*
X85814Y-34223D01*
X85814Y-34223D01*
X85810Y-34210D01*
X85807Y-34198D01*
X85806Y-34198D01*
X85806Y-34197D01*
X85800Y-34186D01*
X85794Y-34174D01*
X85794Y-34174D01*
X85793Y-34173D01*
X85785Y-34163D01*
X85777Y-34153D01*
X85776Y-34152D01*
X85776Y-34152D01*
X85776Y-34152D01*
X85776Y-34152D01*
X85637Y-34013D01*
X85637Y-31899D01*
X85841Y-31695D01*
X85849Y-31686D01*
X85857Y-31676D01*
X85858Y-31675D01*
X85858Y-31675D01*
X85864Y-31663D01*
X85870Y-31652D01*
X85870Y-31652D01*
X85871Y-31651D01*
X85875Y-31639D01*
X85878Y-31627D01*
X85878Y-31626D01*
X85879Y-31625D01*
X85880Y-31613D01*
X85881Y-31600D01*
X85881Y-31598D01*
X85881Y-31598D01*
X85881Y-31598D01*
X85881Y-31598D01*
X85881Y-31330D01*
X85880Y-31318D01*
X85879Y-31305D01*
X85879Y-31304D01*
X85879Y-31303D01*
X85875Y-31291D01*
X85872Y-31279D01*
X85871Y-31278D01*
X85871Y-31278D01*
X85865Y-31266D01*
X85859Y-31255D01*
X85859Y-31255D01*
X85858Y-31254D01*
X85850Y-31244D01*
X85842Y-31234D01*
X85841Y-31233D01*
X85841Y-31233D01*
X85841Y-31233D01*
X85841Y-31233D01*
X85653Y-31044D01*
X85664Y-31034D01*
X85689Y-30998D01*
X85707Y-30957D01*
X85717Y-30914D01*
X85718Y-30863D01*
X85709Y-30820D01*
X85692Y-30779D01*
X85668Y-30742D01*
X85637Y-30710D01*
X85600Y-30685D01*
X85559Y-30668D01*
X85515Y-30659D01*
X85471Y-30659D01*
X85427Y-30667D01*
X85386Y-30684D01*
X85349Y-30708D01*
X85317Y-30739D01*
X85292Y-30776D01*
X85275Y-30817D01*
X85266Y-30860D01*
X85265Y-30904D01*
X85273Y-30948D01*
X85284Y-30976D01*
X85246Y-30976D01*
X85246Y-30371D01*
X85237Y-30327D01*
X85220Y-30286D01*
X85195Y-30249D01*
X85164Y-30218D01*
X85127Y-30193D01*
X85086Y-30176D01*
X85043Y-30167D01*
X84999Y-30167D01*
X84955Y-30175D01*
X84914Y-30192D01*
X84877Y-30216D01*
X84845Y-30247D01*
X84820Y-30284D01*
X84802Y-30324D01*
X84793Y-30368D01*
X84793Y-30412D01*
X84801Y-30456D01*
X84817Y-30497D01*
X84841Y-30534D01*
X84872Y-30566D01*
X84908Y-30592D01*
X84949Y-30610D01*
X84992Y-30619D01*
X85037Y-30620D01*
X85080Y-30612D01*
X85122Y-30596D01*
X85159Y-30572D01*
X85191Y-30542D01*
X85217Y-30506D01*
X85235Y-30465D01*
X85245Y-30422D01*
X85246Y-30371D01*
X85246Y-30976D01*
X84616Y-30976D01*
X84625Y-30957D01*
X84635Y-30914D01*
X84635Y-30863D01*
X84635Y-30340D01*
X84627Y-30296D01*
X84610Y-30255D01*
X84585Y-30218D01*
X84554Y-30186D01*
X84517Y-30162D01*
X84476Y-30144D01*
X84433Y-30135D01*
X84388Y-30135D01*
X84345Y-30143D01*
X84304Y-30160D01*
X84266Y-30184D01*
X84235Y-30215D01*
X84210Y-30252D01*
X84192Y-30293D01*
X84183Y-30336D01*
X84182Y-30381D01*
X84190Y-30424D01*
X84207Y-30466D01*
X84231Y-30503D01*
X84262Y-30535D01*
X84298Y-30560D01*
X84339Y-30578D01*
X84382Y-30588D01*
X84426Y-30589D01*
X84470Y-30581D01*
X84512Y-30565D01*
X84549Y-30541D01*
X84581Y-30510D01*
X84607Y-30474D01*
X84625Y-30434D01*
X84635Y-30390D01*
X84635Y-30340D01*
X84635Y-30863D01*
X84627Y-30820D01*
X84610Y-30779D01*
X84585Y-30742D01*
X84554Y-30710D01*
X84517Y-30685D01*
X84476Y-30668D01*
X84433Y-30659D01*
X84388Y-30659D01*
X84345Y-30667D01*
X84304Y-30684D01*
X84266Y-30708D01*
X84251Y-30723D01*
X84239Y-30710D01*
X84202Y-30685D01*
X84161Y-30668D01*
X84118Y-30659D01*
X84073Y-30659D01*
X84030Y-30667D01*
X83989Y-30684D01*
X83951Y-30708D01*
X83935Y-30725D01*
X83932Y-30722D01*
X83895Y-30697D01*
X83854Y-30680D01*
X83811Y-30671D01*
X83766Y-30671D01*
X83723Y-30679D01*
X83682Y-30696D01*
X83644Y-30720D01*
X83613Y-30751D01*
X83588Y-30788D01*
X83570Y-30828D01*
X83561Y-30872D01*
X83560Y-30916D01*
X83568Y-30960D01*
X83585Y-31001D01*
X83609Y-31038D01*
X83612Y-31042D01*
X83543Y-31112D01*
X82990Y-31112D01*
X82989Y-31110D01*
X82986Y-31098D01*
X82985Y-31097D01*
X82985Y-31097D01*
X82979Y-31085D01*
X82973Y-31074D01*
X82973Y-31073D01*
X82973Y-31073D01*
X82964Y-31063D01*
X82957Y-31053D01*
X82956Y-31052D01*
X82956Y-31052D01*
X82956Y-31052D01*
X82955Y-31052D01*
X82853Y-30949D01*
X82902Y-30918D01*
X82954Y-30869D01*
X82995Y-30810D01*
X83024Y-30745D01*
X83040Y-30675D01*
X83041Y-30594D01*
X83027Y-30524D01*
X83000Y-30458D01*
X82960Y-30398D01*
X82910Y-30347D01*
X82851Y-30308D01*
X82785Y-30280D01*
X82715Y-30265D01*
X82643Y-30265D01*
X82573Y-30278D01*
X82507Y-30305D01*
X82447Y-30344D01*
X82396Y-30394D01*
X82356Y-30453D01*
X82328Y-30519D01*
X82313Y-30589D01*
X82312Y-30660D01*
X82325Y-30730D01*
X82351Y-30797D01*
X82390Y-30857D01*
X82402Y-30870D01*
X81562Y-30870D01*
X81550Y-30871D01*
X81537Y-30872D01*
X81536Y-30872D01*
X81536Y-30872D01*
X81524Y-30876D01*
X81511Y-30879D01*
X81511Y-30880D01*
X81510Y-30880D01*
X81499Y-30886D01*
X81487Y-30892D01*
X81487Y-30892D01*
X81486Y-30893D01*
X81476Y-30901D01*
X81466Y-30909D01*
X81465Y-30910D01*
X81465Y-30910D01*
X81465Y-30910D01*
X81465Y-30910D01*
X81399Y-30976D01*
X80718Y-30976D01*
X80718Y-30647D01*
X80709Y-30603D01*
X80692Y-30562D01*
X80668Y-30525D01*
X80637Y-30494D01*
X80600Y-30469D01*
X80559Y-30451D01*
X80515Y-30443D01*
X80471Y-30442D01*
X80427Y-30451D01*
X80386Y-30467D01*
X80349Y-30492D01*
X80317Y-30523D01*
X80292Y-30559D01*
X80275Y-30600D01*
X80266Y-30643D01*
X80265Y-30688D01*
X80273Y-30731D01*
X80289Y-30773D01*
X80313Y-30810D01*
X80344Y-30842D01*
X80381Y-30867D01*
X80421Y-30885D01*
X80465Y-30895D01*
X80509Y-30896D01*
X80553Y-30888D01*
X80594Y-30872D01*
X80632Y-30848D01*
X80664Y-30817D01*
X80689Y-30781D01*
X80707Y-30741D01*
X80717Y-30697D01*
X80718Y-30647D01*
X80718Y-30976D01*
X77340Y-30976D01*
X77340Y-30434D01*
X77331Y-30390D01*
X77315Y-30349D01*
X77290Y-30312D01*
X77259Y-30281D01*
X77222Y-30256D01*
X77181Y-30239D01*
X77137Y-30230D01*
X77093Y-30230D01*
X77049Y-30238D01*
X77008Y-30255D01*
X76971Y-30279D01*
X76939Y-30310D01*
X76914Y-30347D01*
X76897Y-30387D01*
X76888Y-30431D01*
X76887Y-30475D01*
X76895Y-30519D01*
X76911Y-30560D01*
X76935Y-30597D01*
X76966Y-30629D01*
X77003Y-30655D01*
X77043Y-30673D01*
X77087Y-30682D01*
X77131Y-30683D01*
X77175Y-30675D01*
X77216Y-30659D01*
X77254Y-30635D01*
X77286Y-30605D01*
X77311Y-30569D01*
X77330Y-30528D01*
X77339Y-30485D01*
X77340Y-30434D01*
X77340Y-30976D01*
X75517Y-30976D01*
X75517Y-30391D01*
X75509Y-30347D01*
X75492Y-30306D01*
X75467Y-30269D01*
X75436Y-30238D01*
X75399Y-30213D01*
X75358Y-30196D01*
X75315Y-30187D01*
X75270Y-30186D01*
X75227Y-30195D01*
X75185Y-30211D01*
X75148Y-30236D01*
X75117Y-30267D01*
X75092Y-30303D01*
X75074Y-30344D01*
X75065Y-30388D01*
X75064Y-30421D01*
X75034Y-30391D01*
X74997Y-30366D01*
X74957Y-30349D01*
X74913Y-30340D01*
X74869Y-30340D01*
X74825Y-30348D01*
X74784Y-30365D01*
X74777Y-30369D01*
X74773Y-30366D01*
X74732Y-30349D01*
X74689Y-30340D01*
X74644Y-30340D01*
X74601Y-30348D01*
X74559Y-30365D01*
X74522Y-30389D01*
X74491Y-30420D01*
X74466Y-30457D01*
X74448Y-30498D01*
X74439Y-30541D01*
X74438Y-30585D01*
X74446Y-30629D01*
X74463Y-30670D01*
X74487Y-30708D01*
X74517Y-30740D01*
X74554Y-30765D01*
X74595Y-30783D01*
X74638Y-30792D01*
X74682Y-30793D01*
X74726Y-30786D01*
X74767Y-30769D01*
X74776Y-30764D01*
X74778Y-30765D01*
X74819Y-30783D01*
X74862Y-30792D01*
X74907Y-30793D01*
X74950Y-30786D01*
X74992Y-30769D01*
X75029Y-30746D01*
X75061Y-30715D01*
X75087Y-30679D01*
X75105Y-30638D01*
X75115Y-30595D01*
X75115Y-30557D01*
X75143Y-30586D01*
X75180Y-30611D01*
X75221Y-30629D01*
X75264Y-30639D01*
X75308Y-30640D01*
X75352Y-30632D01*
X75393Y-30616D01*
X75431Y-30592D01*
X75463Y-30562D01*
X75489Y-30525D01*
X75507Y-30485D01*
X75517Y-30441D01*
X75517Y-30391D01*
X75517Y-30976D01*
X74515Y-30976D01*
X74503Y-30977D01*
X74490Y-30978D01*
X74489Y-30978D01*
X74488Y-30979D01*
X74476Y-30982D01*
X74464Y-30986D01*
X74463Y-30986D01*
X74463Y-30986D01*
X74452Y-30992D01*
X74440Y-30998D01*
X74440Y-30999D01*
X74439Y-30999D01*
X74429Y-31007D01*
X74419Y-31015D01*
X74418Y-31016D01*
X74418Y-31016D01*
X74418Y-31016D01*
X74418Y-31016D01*
X74400Y-31034D01*
X74393Y-31033D01*
X74349Y-31033D01*
X74305Y-31041D01*
X74264Y-31058D01*
X74227Y-31082D01*
X74197Y-31112D01*
X74183Y-31112D01*
X74183Y-31132D01*
X74170Y-31150D01*
X74153Y-31191D01*
X74144Y-31234D01*
X74143Y-31278D01*
X74151Y-31322D01*
X74167Y-31363D01*
X74183Y-31387D01*
X74183Y-31584D01*
X74015Y-31584D01*
X73784Y-31584D01*
X73753Y-31545D01*
X73730Y-31526D01*
X73730Y-31083D01*
X73730Y-30931D01*
X73698Y-30899D01*
X73431Y-30899D01*
X73431Y-31166D01*
X73463Y-31198D01*
X73590Y-31198D01*
X73615Y-31198D01*
X73640Y-31193D01*
X73663Y-31183D01*
X73684Y-31169D01*
X73701Y-31151D01*
X73715Y-31131D01*
X73725Y-31107D01*
X73730Y-31083D01*
X73730Y-31526D01*
X73714Y-31512D01*
X73668Y-31487D01*
X73619Y-31471D01*
X73567Y-31466D01*
X73563Y-31465D01*
X73323Y-31465D01*
X73272Y-31471D01*
X73222Y-31486D01*
X73218Y-31488D01*
X73218Y-31195D01*
X73234Y-31198D01*
X73259Y-31198D01*
X73387Y-31198D01*
X73419Y-31166D01*
X73419Y-30899D01*
X73411Y-30899D01*
X73411Y-30887D01*
X73419Y-30887D01*
X73419Y-30879D01*
X73431Y-30879D01*
X73431Y-30887D01*
X73698Y-30887D01*
X73730Y-30855D01*
X73730Y-30704D01*
X73725Y-30679D01*
X73715Y-30656D01*
X73701Y-30635D01*
X73694Y-30627D01*
X73697Y-30622D01*
X73706Y-30602D01*
X73710Y-30582D01*
X73710Y-30560D01*
X73710Y-30206D01*
X73706Y-30185D01*
X73698Y-30165D01*
X73686Y-30147D01*
X73682Y-30143D01*
X73686Y-30140D01*
X73697Y-30122D01*
X73706Y-30102D01*
X73710Y-30082D01*
X73710Y-30060D01*
X73710Y-29706D01*
X73706Y-29685D01*
X73698Y-29665D01*
X73686Y-29647D01*
X73671Y-29632D01*
X73653Y-29621D01*
X73634Y-29612D01*
X73613Y-29608D01*
X73592Y-29608D01*
X73237Y-29608D01*
X73218Y-29612D01*
X73218Y-29517D01*
X75157Y-29517D01*
X77213Y-29517D01*
X77224Y-29524D01*
X77243Y-29532D01*
X77264Y-29537D01*
X77285Y-29537D01*
X77640Y-29537D01*
X77661Y-29533D01*
X77680Y-29525D01*
X77691Y-29517D01*
X77713Y-29517D01*
X77724Y-29524D01*
X77743Y-29532D01*
X77764Y-29537D01*
X77785Y-29537D01*
X78140Y-29537D01*
X78161Y-29533D01*
X78180Y-29525D01*
X78191Y-29517D01*
X83028Y-29517D01*
X83039Y-29524D01*
X83058Y-29532D01*
X83079Y-29537D01*
X83100Y-29537D01*
X83455Y-29537D01*
X83476Y-29533D01*
X83496Y-29525D01*
X83507Y-29517D01*
X83528Y-29517D01*
X83539Y-29524D01*
X83558Y-29532D01*
X83579Y-29537D01*
X83600Y-29537D01*
X83955Y-29537D01*
X83976Y-29533D01*
X83996Y-29525D01*
X84007Y-29517D01*
X84028Y-29517D01*
X84039Y-29524D01*
X84058Y-29532D01*
X84079Y-29537D01*
X84100Y-29537D01*
X84455Y-29537D01*
X84476Y-29533D01*
X84496Y-29525D01*
X84507Y-29517D01*
X84528Y-29517D01*
X84530Y-29519D01*
X84510Y-29538D01*
X84485Y-29575D01*
X84468Y-29616D01*
X84458Y-29659D01*
X84458Y-29704D01*
X84466Y-29747D01*
X84482Y-29789D01*
X84506Y-29826D01*
X84537Y-29858D01*
X84574Y-29883D01*
X84614Y-29901D01*
X84658Y-29910D01*
X84702Y-29911D01*
X84746Y-29904D01*
X84787Y-29888D01*
X84825Y-29864D01*
X84857Y-29833D01*
X84882Y-29797D01*
X84887Y-29786D01*
X84900Y-29806D01*
X84931Y-29838D01*
X84967Y-29863D01*
X85008Y-29881D01*
X85051Y-29891D01*
X85096Y-29892D01*
X85139Y-29884D01*
X85181Y-29868D01*
X85218Y-29844D01*
X85250Y-29813D01*
X85276Y-29777D01*
X85294Y-29737D01*
X85304Y-29693D01*
X85305Y-29643D01*
X85296Y-29599D01*
X85279Y-29558D01*
X85265Y-29537D01*
X85455Y-29537D01*
X85476Y-29533D01*
X85496Y-29525D01*
X85507Y-29517D01*
X85528Y-29517D01*
X85539Y-29524D01*
X85558Y-29532D01*
X85579Y-29537D01*
X85600Y-29537D01*
X85955Y-29537D01*
X85976Y-29533D01*
X85996Y-29525D01*
X86007Y-29517D01*
X86028Y-29517D01*
X86039Y-29524D01*
X86058Y-29532D01*
X86079Y-29537D01*
X86100Y-29537D01*
X86455Y-29537D01*
X86476Y-29533D01*
X86496Y-29525D01*
X86507Y-29517D01*
X86528Y-29517D01*
X86539Y-29524D01*
X86558Y-29532D01*
X86579Y-29537D01*
X86600Y-29537D01*
X86955Y-29537D01*
X86976Y-29533D01*
X86996Y-29525D01*
X87007Y-29517D01*
X87028Y-29517D01*
X87039Y-29524D01*
X87058Y-29532D01*
X87079Y-29537D01*
X87100Y-29537D01*
X87455Y-29537D01*
X87476Y-29533D01*
X87496Y-29525D01*
X87507Y-29517D01*
X88001Y-29517D01*
X88001Y-30013D01*
X87995Y-30023D01*
X87987Y-30042D01*
X87982Y-30063D01*
X87982Y-30084D01*
X87982Y-30277D01*
X87965Y-30270D01*
X87944Y-30265D01*
X87923Y-30265D01*
X87816Y-30265D01*
X87816Y-29938D01*
X87808Y-29894D01*
X87791Y-29853D01*
X87766Y-29816D01*
X87735Y-29785D01*
X87698Y-29760D01*
X87657Y-29743D01*
X87614Y-29734D01*
X87569Y-29734D01*
X87526Y-29742D01*
X87485Y-29759D01*
X87448Y-29783D01*
X87416Y-29814D01*
X87391Y-29851D01*
X87373Y-29891D01*
X87364Y-29935D01*
X87363Y-29979D01*
X87371Y-30023D01*
X87388Y-30064D01*
X87412Y-30101D01*
X87443Y-30133D01*
X87479Y-30159D01*
X87520Y-30176D01*
X87563Y-30186D01*
X87608Y-30187D01*
X87651Y-30179D01*
X87693Y-30163D01*
X87730Y-30139D01*
X87762Y-30109D01*
X87788Y-30072D01*
X87806Y-30032D01*
X87816Y-29989D01*
X87816Y-29938D01*
X87816Y-30265D01*
X87568Y-30265D01*
X87547Y-30270D01*
X87527Y-30278D01*
X87510Y-30289D01*
X87495Y-30304D01*
X87483Y-30322D01*
X87474Y-30342D01*
X87470Y-30362D01*
X87470Y-30384D01*
X87470Y-30738D01*
X87474Y-30759D01*
X87482Y-30779D01*
X87494Y-30796D01*
X87509Y-30812D01*
X87527Y-30823D01*
X87546Y-30832D01*
X87567Y-30836D01*
X87588Y-30836D01*
X87943Y-30836D01*
X87964Y-30832D01*
X87982Y-30824D01*
X87982Y-30939D01*
X87986Y-30960D01*
X87994Y-30980D01*
X88001Y-30990D01*
X88001Y-31013D01*
X87995Y-31023D01*
X87987Y-31042D01*
X87982Y-31063D01*
X87982Y-31084D01*
X87982Y-31439D01*
X87986Y-31460D01*
X87994Y-31480D01*
X88001Y-31490D01*
X88001Y-31513D01*
X87995Y-31523D01*
X87987Y-31542D01*
X87982Y-31563D01*
X87982Y-31584D01*
X87982Y-31939D01*
X87986Y-31960D01*
X87994Y-31980D01*
X88001Y-31990D01*
X88001Y-32013D01*
X87995Y-32023D01*
X87987Y-32042D01*
X87982Y-32063D01*
X87982Y-32084D01*
X87982Y-32439D01*
X87986Y-32460D01*
X87994Y-32480D01*
X88001Y-32490D01*
X88001Y-32513D01*
X87995Y-32523D01*
X87987Y-32542D01*
X87982Y-32563D01*
X87982Y-32584D01*
X87982Y-32822D01*
X87972Y-32818D01*
X87929Y-32809D01*
X87884Y-32808D01*
X87841Y-32817D01*
X87800Y-32833D01*
X87762Y-32858D01*
X87731Y-32889D01*
X87706Y-32925D01*
X87688Y-32966D01*
X87679Y-33010D01*
X87678Y-33054D01*
X87686Y-33098D01*
X87703Y-33139D01*
X87727Y-33176D01*
X87758Y-33208D01*
X87794Y-33233D01*
X87835Y-33251D01*
X87878Y-33261D01*
X87922Y-33262D01*
X87966Y-33254D01*
X87982Y-33248D01*
X87982Y-33439D01*
X87986Y-33460D01*
X87994Y-33480D01*
X88001Y-33490D01*
X88001Y-33513D01*
X87995Y-33523D01*
X87987Y-33542D01*
X87982Y-33563D01*
X87982Y-33584D01*
X87982Y-33939D01*
X87986Y-33960D01*
X87994Y-33980D01*
X88001Y-33990D01*
X88001Y-35013D01*
X87995Y-35023D01*
X87987Y-35042D01*
X87982Y-35063D01*
X87982Y-35084D01*
X87982Y-35439D01*
X87986Y-35460D01*
X87994Y-35480D01*
X88001Y-35490D01*
X88001Y-35513D01*
X87995Y-35523D01*
X87987Y-35542D01*
X87982Y-35563D01*
X87982Y-35584D01*
X87982Y-35939D01*
X87986Y-35960D01*
X87994Y-35980D01*
X88001Y-35990D01*
X88001Y-36013D01*
G54D10*
G36*
X88001Y-42135D02*
X87536Y-42135D01*
X87526Y-42125D01*
X87505Y-42111D01*
X87482Y-42101D01*
X87457Y-42097D01*
X87305Y-42097D01*
X87273Y-42129D01*
X87273Y-42135D01*
X87262Y-42135D01*
X87262Y-42129D01*
X87230Y-42097D01*
X87078Y-42097D01*
X87053Y-42101D01*
X87030Y-42111D01*
X87009Y-42125D01*
X87002Y-42132D01*
X86996Y-42129D01*
X86977Y-42121D01*
X86956Y-42116D01*
X86953Y-42116D01*
X86964Y-42112D01*
X87002Y-42088D01*
X87034Y-42058D01*
X87059Y-42021D01*
X87078Y-41981D01*
X87087Y-41937D01*
X87088Y-41887D01*
X87079Y-41843D01*
X87068Y-41816D01*
X87068Y-37843D01*
X87060Y-37800D01*
X87043Y-37759D01*
X87018Y-37722D01*
X86987Y-37690D01*
X86950Y-37666D01*
X86909Y-37648D01*
X86866Y-37639D01*
X86821Y-37639D01*
X86778Y-37647D01*
X86737Y-37664D01*
X86699Y-37688D01*
X86668Y-37719D01*
X86643Y-37756D01*
X86625Y-37797D01*
X86616Y-37840D01*
X86615Y-37885D01*
X86623Y-37925D01*
X86597Y-37899D01*
X86560Y-37874D01*
X86520Y-37857D01*
X86476Y-37848D01*
X86432Y-37848D01*
X86388Y-37856D01*
X86347Y-37873D01*
X86310Y-37897D01*
X86278Y-37928D01*
X86253Y-37965D01*
X86235Y-38006D01*
X86226Y-38049D01*
X86226Y-38093D01*
X86234Y-38137D01*
X86250Y-38178D01*
X86274Y-38216D01*
X86305Y-38248D01*
X86341Y-38273D01*
X86382Y-38291D01*
X86425Y-38300D01*
X86470Y-38301D01*
X86513Y-38293D01*
X86555Y-38277D01*
X86592Y-38254D01*
X86624Y-38223D01*
X86650Y-38187D01*
X86668Y-38146D01*
X86678Y-38103D01*
X86679Y-38052D01*
X86671Y-38015D01*
X86695Y-38039D01*
X86731Y-38064D01*
X86772Y-38082D01*
X86815Y-38092D01*
X86859Y-38092D01*
X86903Y-38085D01*
X86945Y-38069D01*
X86982Y-38045D01*
X87014Y-38014D01*
X87040Y-37978D01*
X87058Y-37937D01*
X87068Y-37894D01*
X87068Y-37843D01*
X87068Y-41816D01*
X87063Y-41802D01*
X87038Y-41765D01*
X87007Y-41734D01*
X86970Y-41709D01*
X86929Y-41692D01*
X86885Y-41683D01*
X86841Y-41682D01*
X86797Y-41691D01*
X86756Y-41707D01*
X86719Y-41732D01*
X86687Y-41763D01*
X86662Y-41799D01*
X86645Y-41840D01*
X86636Y-41884D01*
X86635Y-41928D01*
X86643Y-41972D01*
X86659Y-42013D01*
X86683Y-42050D01*
X86714Y-42082D01*
X86751Y-42108D01*
X86771Y-42116D01*
X86580Y-42116D01*
X86559Y-42120D01*
X86539Y-42128D01*
X86529Y-42135D01*
X86513Y-42135D01*
X86513Y-40946D01*
X86505Y-40906D01*
X86505Y-38670D01*
X86497Y-38627D01*
X86480Y-38586D01*
X86455Y-38549D01*
X86424Y-38517D01*
X86387Y-38492D01*
X86346Y-38475D01*
X86303Y-38466D01*
X86258Y-38466D01*
X86215Y-38474D01*
X86174Y-38491D01*
X86136Y-38515D01*
X86105Y-38546D01*
X86080Y-38583D01*
X86062Y-38624D01*
X86053Y-38667D01*
X86052Y-38711D01*
X86060Y-38755D01*
X86073Y-38787D01*
X86050Y-38810D01*
X86025Y-38847D01*
X86007Y-38887D01*
X85998Y-38931D01*
X85997Y-38975D01*
X86005Y-39019D01*
X86022Y-39060D01*
X86046Y-39097D01*
X86076Y-39129D01*
X86113Y-39155D01*
X86154Y-39173D01*
X86197Y-39182D01*
X86241Y-39183D01*
X86285Y-39175D01*
X86326Y-39159D01*
X86364Y-39135D01*
X86396Y-39105D01*
X86422Y-39069D01*
X86440Y-39028D01*
X86450Y-38985D01*
X86450Y-38934D01*
X86442Y-38890D01*
X86430Y-38862D01*
X86451Y-38841D01*
X86477Y-38805D01*
X86495Y-38764D01*
X86505Y-38721D01*
X86505Y-38670D01*
X86505Y-40906D01*
X86505Y-40902D01*
X86488Y-40861D01*
X86463Y-40824D01*
X86432Y-40793D01*
X86395Y-40768D01*
X86354Y-40751D01*
X86311Y-40742D01*
X86266Y-40741D01*
X86223Y-40750D01*
X86182Y-40766D01*
X86144Y-40791D01*
X86113Y-40822D01*
X86088Y-40858D01*
X86070Y-40899D01*
X86061Y-40943D01*
X86060Y-40987D01*
X86068Y-41031D01*
X86085Y-41072D01*
X86109Y-41109D01*
X86139Y-41141D01*
X86176Y-41167D01*
X86217Y-41184D01*
X86260Y-41194D01*
X86304Y-41195D01*
X86348Y-41187D01*
X86389Y-41171D01*
X86427Y-41147D01*
X86459Y-41117D01*
X86485Y-41080D01*
X86503Y-41040D01*
X86513Y-40997D01*
X86513Y-40946D01*
X86513Y-42135D01*
X86506Y-42135D01*
X86496Y-42129D01*
X86477Y-42121D01*
X86456Y-42116D01*
X86435Y-42116D01*
X86080Y-42116D01*
X86059Y-42120D01*
X86039Y-42128D01*
X86029Y-42135D01*
X86006Y-42135D01*
X85996Y-42129D01*
X85977Y-42121D01*
X85956Y-42116D01*
X85935Y-42116D01*
X85714Y-42116D01*
X85714Y-41005D01*
X85705Y-40961D01*
X85689Y-40920D01*
X85664Y-40883D01*
X85633Y-40852D01*
X85596Y-40827D01*
X85555Y-40810D01*
X85523Y-40803D01*
X85523Y-39307D01*
X85514Y-39264D01*
X85497Y-39223D01*
X85473Y-39186D01*
X85455Y-39168D01*
X85458Y-39165D01*
X85483Y-39129D01*
X85501Y-39088D01*
X85511Y-39045D01*
X85512Y-38994D01*
X85503Y-38951D01*
X85486Y-38910D01*
X85462Y-38873D01*
X85430Y-38841D01*
X85394Y-38816D01*
X85353Y-38799D01*
X85309Y-38790D01*
X85265Y-38790D01*
X85221Y-38798D01*
X85180Y-38815D01*
X85143Y-38839D01*
X85136Y-38846D01*
X85122Y-38810D01*
X85097Y-38773D01*
X85080Y-38756D01*
X85093Y-38765D01*
X85134Y-38783D01*
X85177Y-38792D01*
X85222Y-38793D01*
X85265Y-38786D01*
X85307Y-38769D01*
X85344Y-38746D01*
X85376Y-38715D01*
X85402Y-38679D01*
X85420Y-38638D01*
X85430Y-38595D01*
X85431Y-38544D01*
X85422Y-38501D01*
X85405Y-38460D01*
X85381Y-38423D01*
X85349Y-38391D01*
X85312Y-38366D01*
X85271Y-38349D01*
X85228Y-38340D01*
X85184Y-38340D01*
X85147Y-38347D01*
X85147Y-38048D01*
X85139Y-38005D01*
X85122Y-37964D01*
X85097Y-37927D01*
X85066Y-37895D01*
X85029Y-37870D01*
X85028Y-37870D01*
X85038Y-37847D01*
X85048Y-37804D01*
X85049Y-37753D01*
X85040Y-37709D01*
X85023Y-37668D01*
X84999Y-37631D01*
X84985Y-37618D01*
X84995Y-37609D01*
X85020Y-37572D01*
X85038Y-37532D01*
X85048Y-37489D01*
X85049Y-37438D01*
X85040Y-37394D01*
X85023Y-37353D01*
X84999Y-37316D01*
X84967Y-37285D01*
X84931Y-37260D01*
X84890Y-37243D01*
X84846Y-37234D01*
X84802Y-37234D01*
X84758Y-37242D01*
X84717Y-37259D01*
X84680Y-37283D01*
X84648Y-37314D01*
X84623Y-37351D01*
X84606Y-37391D01*
X84596Y-37435D01*
X84596Y-37479D01*
X84604Y-37523D01*
X84620Y-37564D01*
X84644Y-37601D01*
X84660Y-37618D01*
X84648Y-37629D01*
X84623Y-37666D01*
X84606Y-37706D01*
X84596Y-37750D01*
X84596Y-37794D01*
X84604Y-37838D01*
X84620Y-37879D01*
X84644Y-37916D01*
X84675Y-37948D01*
X84711Y-37974D01*
X84715Y-37975D01*
X84704Y-38002D01*
X84695Y-38045D01*
X84694Y-38089D01*
X84702Y-38133D01*
X84718Y-38174D01*
X84742Y-38212D01*
X84773Y-38244D01*
X84810Y-38269D01*
X84850Y-38287D01*
X84894Y-38296D01*
X84938Y-38297D01*
X84982Y-38289D01*
X85023Y-38273D01*
X85061Y-38250D01*
X85093Y-38219D01*
X85119Y-38183D01*
X85137Y-38142D01*
X85146Y-38099D01*
X85147Y-38048D01*
X85147Y-38347D01*
X85140Y-38348D01*
X85099Y-38365D01*
X85062Y-38389D01*
X85030Y-38420D01*
X85005Y-38457D01*
X84989Y-38493D01*
X84979Y-38478D01*
X84948Y-38446D01*
X84911Y-38421D01*
X84870Y-38404D01*
X84826Y-38395D01*
X84782Y-38395D01*
X84738Y-38403D01*
X84697Y-38420D01*
X84660Y-38444D01*
X84628Y-38475D01*
X84603Y-38512D01*
X84586Y-38553D01*
X84577Y-38596D01*
X84576Y-38641D01*
X84584Y-38684D01*
X84600Y-38726D01*
X84624Y-38763D01*
X84655Y-38795D01*
X84692Y-38820D01*
X84712Y-38829D01*
X84704Y-38848D01*
X84695Y-38891D01*
X84694Y-38936D01*
X84702Y-38980D01*
X84718Y-39021D01*
X84742Y-39058D01*
X84773Y-39090D01*
X84810Y-39115D01*
X84818Y-39119D01*
X84813Y-39133D01*
X84803Y-39176D01*
X84803Y-39221D01*
X84811Y-39264D01*
X84827Y-39305D01*
X84851Y-39343D01*
X84882Y-39375D01*
X84919Y-39400D01*
X84950Y-39414D01*
X84943Y-39420D01*
X84918Y-39457D01*
X84901Y-39498D01*
X84892Y-39541D01*
X84891Y-39557D01*
X84861Y-39556D01*
X84817Y-39565D01*
X84776Y-39581D01*
X84739Y-39606D01*
X84707Y-39637D01*
X84682Y-39673D01*
X84665Y-39714D01*
X84655Y-39758D01*
X84655Y-39802D01*
X84663Y-39846D01*
X84673Y-39871D01*
X84658Y-39877D01*
X84621Y-39901D01*
X84616Y-39906D01*
X84616Y-39465D01*
X84607Y-39422D01*
X84590Y-39381D01*
X84566Y-39344D01*
X84534Y-39312D01*
X84497Y-39288D01*
X84457Y-39270D01*
X84413Y-39261D01*
X84369Y-39261D01*
X84325Y-39269D01*
X84284Y-39286D01*
X84247Y-39310D01*
X84215Y-39341D01*
X84190Y-39378D01*
X84172Y-39419D01*
X84163Y-39462D01*
X84163Y-39507D01*
X84171Y-39550D01*
X84187Y-39592D01*
X84211Y-39629D01*
X84242Y-39661D01*
X84278Y-39686D01*
X84319Y-39704D01*
X84362Y-39714D01*
X84407Y-39714D01*
X84450Y-39707D01*
X84492Y-39691D01*
X84529Y-39667D01*
X84561Y-39636D01*
X84587Y-39600D01*
X84605Y-39559D01*
X84615Y-39516D01*
X84616Y-39465D01*
X84616Y-39906D01*
X84589Y-39932D01*
X84564Y-39969D01*
X84546Y-40009D01*
X84537Y-40053D01*
X84537Y-40097D01*
X84545Y-40141D01*
X84561Y-40182D01*
X84585Y-40220D01*
X84616Y-40251D01*
X84652Y-40277D01*
X84693Y-40295D01*
X84736Y-40304D01*
X84781Y-40305D01*
X84824Y-40297D01*
X84866Y-40281D01*
X84903Y-40257D01*
X84935Y-40227D01*
X84961Y-40191D01*
X84979Y-40150D01*
X84989Y-40107D01*
X84990Y-40056D01*
X84981Y-40012D01*
X84972Y-39991D01*
X84984Y-39986D01*
X84988Y-39983D01*
X85006Y-40011D01*
X85037Y-40043D01*
X85074Y-40068D01*
X85114Y-40086D01*
X85158Y-40095D01*
X85202Y-40096D01*
X85246Y-40089D01*
X85287Y-40073D01*
X85325Y-40049D01*
X85357Y-40018D01*
X85382Y-39982D01*
X85400Y-39941D01*
X85410Y-39898D01*
X85411Y-39847D01*
X85402Y-39804D01*
X85385Y-39763D01*
X85361Y-39726D01*
X85330Y-39694D01*
X85313Y-39683D01*
X85315Y-39679D01*
X85333Y-39638D01*
X85343Y-39595D01*
X85344Y-39551D01*
X85358Y-39549D01*
X85399Y-39533D01*
X85437Y-39509D01*
X85469Y-39478D01*
X85494Y-39442D01*
X85512Y-39401D01*
X85522Y-39358D01*
X85523Y-39307D01*
X85523Y-40803D01*
X85511Y-40801D01*
X85486Y-40801D01*
X85486Y-40599D01*
X85477Y-40556D01*
X85460Y-40515D01*
X85436Y-40478D01*
X85404Y-40446D01*
X85368Y-40421D01*
X85327Y-40404D01*
X85283Y-40395D01*
X85239Y-40395D01*
X85195Y-40403D01*
X85154Y-40420D01*
X85117Y-40444D01*
X85085Y-40475D01*
X85060Y-40512D01*
X85043Y-40553D01*
X85033Y-40596D01*
X85033Y-40641D01*
X85041Y-40684D01*
X85057Y-40726D01*
X85081Y-40763D01*
X85112Y-40795D01*
X85148Y-40820D01*
X85189Y-40838D01*
X85232Y-40847D01*
X85277Y-40848D01*
X85321Y-40841D01*
X85362Y-40825D01*
X85399Y-40801D01*
X85432Y-40770D01*
X85457Y-40734D01*
X85475Y-40693D01*
X85485Y-40650D01*
X85486Y-40599D01*
X85486Y-40801D01*
X85467Y-40801D01*
X85423Y-40809D01*
X85382Y-40825D01*
X85345Y-40850D01*
X85313Y-40881D01*
X85288Y-40917D01*
X85285Y-40925D01*
X85278Y-40919D01*
X85242Y-40894D01*
X85201Y-40877D01*
X85157Y-40868D01*
X85113Y-40867D01*
X85069Y-40876D01*
X85028Y-40892D01*
X84991Y-40917D01*
X84959Y-40948D01*
X84934Y-40984D01*
X84932Y-40990D01*
X84908Y-40966D01*
X84871Y-40941D01*
X84831Y-40924D01*
X84787Y-40915D01*
X84743Y-40915D01*
X84699Y-40923D01*
X84658Y-40940D01*
X84655Y-40942D01*
X84655Y-40588D01*
X84646Y-40544D01*
X84629Y-40503D01*
X84605Y-40466D01*
X84574Y-40434D01*
X84537Y-40410D01*
X84496Y-40392D01*
X84452Y-40384D01*
X84408Y-40383D01*
X84364Y-40392D01*
X84323Y-40408D01*
X84286Y-40432D01*
X84254Y-40464D01*
X84229Y-40500D01*
X84212Y-40541D01*
X84203Y-40584D01*
X84202Y-40620D01*
X84172Y-40619D01*
X84128Y-40628D01*
X84087Y-40644D01*
X84084Y-40646D01*
X84084Y-37792D01*
X84076Y-37749D01*
X84059Y-37708D01*
X84034Y-37671D01*
X84003Y-37639D01*
X83966Y-37614D01*
X83925Y-37597D01*
X83887Y-37589D01*
X83887Y-35824D01*
X83879Y-35780D01*
X83862Y-35739D01*
X83837Y-35702D01*
X83806Y-35671D01*
X83769Y-35646D01*
X83728Y-35629D01*
X83685Y-35620D01*
X83640Y-35619D01*
X83597Y-35628D01*
X83556Y-35644D01*
X83518Y-35669D01*
X83487Y-35700D01*
X83462Y-35736D01*
X83444Y-35777D01*
X83435Y-35821D01*
X83434Y-35865D01*
X83442Y-35909D01*
X83459Y-35950D01*
X83483Y-35987D01*
X83513Y-36019D01*
X83550Y-36045D01*
X83591Y-36062D01*
X83634Y-36072D01*
X83678Y-36073D01*
X83722Y-36065D01*
X83763Y-36049D01*
X83801Y-36025D01*
X83833Y-35995D01*
X83859Y-35958D01*
X83877Y-35918D01*
X83887Y-35874D01*
X83887Y-35824D01*
X83887Y-37589D01*
X83882Y-37588D01*
X83837Y-37588D01*
X83794Y-37596D01*
X83752Y-37613D01*
X83715Y-37637D01*
X83684Y-37668D01*
X83658Y-37705D01*
X83641Y-37746D01*
X83632Y-37789D01*
X83631Y-37833D01*
X83639Y-37877D01*
X83655Y-37918D01*
X83679Y-37956D01*
X83710Y-37988D01*
X83747Y-38013D01*
X83787Y-38031D01*
X83831Y-38040D01*
X83875Y-38041D01*
X83919Y-38034D01*
X83960Y-38018D01*
X83998Y-37994D01*
X84030Y-37963D01*
X84056Y-37927D01*
X84074Y-37886D01*
X84083Y-37843D01*
X84084Y-37792D01*
X84084Y-40646D01*
X84050Y-40669D01*
X84029Y-40689D01*
X84029Y-39438D01*
X84020Y-39394D01*
X84003Y-39353D01*
X83979Y-39316D01*
X83948Y-39285D01*
X83911Y-39260D01*
X83870Y-39243D01*
X83826Y-39234D01*
X83782Y-39234D01*
X83738Y-39242D01*
X83697Y-39259D01*
X83660Y-39283D01*
X83628Y-39314D01*
X83603Y-39351D01*
X83586Y-39391D01*
X83577Y-39435D01*
X83576Y-39479D01*
X83584Y-39523D01*
X83600Y-39564D01*
X83624Y-39601D01*
X83655Y-39633D01*
X83692Y-39659D01*
X83732Y-39676D01*
X83776Y-39686D01*
X83820Y-39687D01*
X83864Y-39679D01*
X83905Y-39663D01*
X83943Y-39639D01*
X83975Y-39609D01*
X84000Y-39572D01*
X84018Y-39532D01*
X84028Y-39489D01*
X84029Y-39438D01*
X84029Y-40689D01*
X84018Y-40700D01*
X83993Y-40736D01*
X83976Y-40777D01*
X83966Y-40821D01*
X83966Y-40865D01*
X83974Y-40909D01*
X83990Y-40950D01*
X84014Y-40987D01*
X84045Y-41019D01*
X84081Y-41045D01*
X84122Y-41062D01*
X84165Y-41072D01*
X84210Y-41073D01*
X84254Y-41065D01*
X84295Y-41049D01*
X84332Y-41025D01*
X84365Y-40995D01*
X84390Y-40958D01*
X84408Y-40918D01*
X84418Y-40874D01*
X84419Y-40836D01*
X84446Y-40837D01*
X84490Y-40829D01*
X84531Y-40813D01*
X84569Y-40789D01*
X84601Y-40758D01*
X84626Y-40722D01*
X84644Y-40682D01*
X84654Y-40638D01*
X84655Y-40588D01*
X84655Y-40942D01*
X84621Y-40964D01*
X84589Y-40995D01*
X84564Y-41032D01*
X84546Y-41072D01*
X84537Y-41116D01*
X84537Y-41160D01*
X84545Y-41204D01*
X84561Y-41245D01*
X84585Y-41283D01*
X84616Y-41314D01*
X84652Y-41340D01*
X84693Y-41358D01*
X84736Y-41367D01*
X84781Y-41368D01*
X84824Y-41360D01*
X84866Y-41344D01*
X84903Y-41320D01*
X84935Y-41290D01*
X84961Y-41254D01*
X84965Y-41245D01*
X84986Y-41267D01*
X85022Y-41293D01*
X85063Y-41310D01*
X85106Y-41320D01*
X85151Y-41321D01*
X85167Y-41318D01*
X85175Y-41361D01*
X85191Y-41403D01*
X85215Y-41440D01*
X85246Y-41472D01*
X85282Y-41497D01*
X85323Y-41515D01*
X85366Y-41525D01*
X85411Y-41526D01*
X85454Y-41518D01*
X85496Y-41502D01*
X85533Y-41478D01*
X85565Y-41447D01*
X85591Y-41411D01*
X85609Y-41371D01*
X85619Y-41327D01*
X85620Y-41277D01*
X85611Y-41233D01*
X85606Y-41220D01*
X85628Y-41206D01*
X85660Y-41176D01*
X85685Y-41139D01*
X85704Y-41099D01*
X85713Y-41056D01*
X85714Y-41005D01*
X85714Y-42116D01*
X85580Y-42116D01*
X85559Y-42120D01*
X85539Y-42128D01*
X85529Y-42135D01*
X85506Y-42135D01*
X85496Y-42129D01*
X85477Y-42121D01*
X85456Y-42116D01*
X85435Y-42116D01*
X85080Y-42116D01*
X85059Y-42120D01*
X85039Y-42128D01*
X85029Y-42135D01*
X85006Y-42135D01*
X84996Y-42129D01*
X84977Y-42121D01*
X84956Y-42116D01*
X84935Y-42116D01*
X84580Y-42116D01*
X84559Y-42120D01*
X84539Y-42128D01*
X84529Y-42135D01*
X84006Y-42135D01*
X83996Y-42129D01*
X83977Y-42121D01*
X83956Y-42116D01*
X83935Y-42116D01*
X83580Y-42116D01*
X83559Y-42120D01*
X83539Y-42128D01*
X83533Y-42133D01*
X83533Y-38324D01*
X83524Y-38280D01*
X83507Y-38239D01*
X83483Y-38202D01*
X83469Y-38189D01*
X83479Y-38180D01*
X83504Y-38143D01*
X83522Y-38103D01*
X83532Y-38060D01*
X83533Y-38009D01*
X83524Y-37965D01*
X83507Y-37924D01*
X83483Y-37887D01*
X83452Y-37856D01*
X83415Y-37831D01*
X83374Y-37814D01*
X83330Y-37805D01*
X83286Y-37804D01*
X83242Y-37813D01*
X83201Y-37829D01*
X83179Y-37844D01*
X83179Y-36414D01*
X83170Y-36371D01*
X83153Y-36330D01*
X83129Y-36293D01*
X83097Y-36261D01*
X83060Y-36236D01*
X83020Y-36219D01*
X82976Y-36210D01*
X82932Y-36210D01*
X82888Y-36218D01*
X82847Y-36235D01*
X82810Y-36259D01*
X82795Y-36274D01*
X82782Y-36261D01*
X82745Y-36236D01*
X82705Y-36219D01*
X82661Y-36210D01*
X82617Y-36210D01*
X82573Y-36218D01*
X82532Y-36235D01*
X82495Y-36259D01*
X82463Y-36290D01*
X82438Y-36327D01*
X82420Y-36368D01*
X82411Y-36411D01*
X82411Y-36456D01*
X82419Y-36499D01*
X82435Y-36540D01*
X82459Y-36578D01*
X82490Y-36610D01*
X82526Y-36635D01*
X82567Y-36653D01*
X82610Y-36662D01*
X82655Y-36663D01*
X82698Y-36656D01*
X82740Y-36640D01*
X82777Y-36616D01*
X82795Y-36599D01*
X82805Y-36610D01*
X82841Y-36635D01*
X82882Y-36653D01*
X82925Y-36662D01*
X82970Y-36663D01*
X83013Y-36656D01*
X83055Y-36640D01*
X83092Y-36616D01*
X83124Y-36585D01*
X83150Y-36549D01*
X83168Y-36508D01*
X83178Y-36465D01*
X83179Y-36414D01*
X83179Y-37844D01*
X83164Y-37854D01*
X83132Y-37885D01*
X83107Y-37921D01*
X83090Y-37962D01*
X83081Y-38006D01*
X83080Y-38050D01*
X83088Y-38094D01*
X83104Y-38135D01*
X83128Y-38172D01*
X83144Y-38188D01*
X83132Y-38200D01*
X83107Y-38236D01*
X83090Y-38277D01*
X83081Y-38321D01*
X83080Y-38365D01*
X83088Y-38409D01*
X83104Y-38450D01*
X83128Y-38487D01*
X83159Y-38519D01*
X83196Y-38545D01*
X83236Y-38562D01*
X83280Y-38572D01*
X83324Y-38573D01*
X83368Y-38565D01*
X83409Y-38549D01*
X83447Y-38525D01*
X83479Y-38495D01*
X83504Y-38458D01*
X83522Y-38418D01*
X83532Y-38374D01*
X83533Y-38324D01*
X83533Y-42133D01*
X83529Y-42135D01*
X83509Y-42135D01*
X83509Y-39308D01*
X83501Y-39264D01*
X83484Y-39223D01*
X83459Y-39186D01*
X83454Y-39181D01*
X83454Y-38777D01*
X83446Y-38733D01*
X83429Y-38692D01*
X83404Y-38655D01*
X83373Y-38623D01*
X83336Y-38599D01*
X83295Y-38581D01*
X83252Y-38572D01*
X83207Y-38572D01*
X83164Y-38580D01*
X83122Y-38597D01*
X83085Y-38621D01*
X83054Y-38652D01*
X83038Y-38676D01*
X83000Y-38660D01*
X82956Y-38651D01*
X82912Y-38651D01*
X82868Y-38659D01*
X82827Y-38676D01*
X82790Y-38700D01*
X82758Y-38731D01*
X82733Y-38768D01*
X82716Y-38809D01*
X82707Y-38852D01*
X82706Y-38896D01*
X82714Y-38940D01*
X82730Y-38981D01*
X82754Y-39019D01*
X82785Y-39051D01*
X82822Y-39076D01*
X82862Y-39094D01*
X82906Y-39103D01*
X82950Y-39104D01*
X82994Y-39097D01*
X83035Y-39080D01*
X83073Y-39057D01*
X83105Y-39026D01*
X83123Y-39000D01*
X83158Y-39015D01*
X83201Y-39025D01*
X83245Y-39026D01*
X83289Y-39018D01*
X83330Y-39002D01*
X83368Y-38978D01*
X83400Y-38947D01*
X83426Y-38911D01*
X83444Y-38871D01*
X83454Y-38827D01*
X83454Y-38777D01*
X83454Y-39181D01*
X83428Y-39155D01*
X83391Y-39130D01*
X83350Y-39113D01*
X83307Y-39104D01*
X83262Y-39104D01*
X83219Y-39112D01*
X83178Y-39129D01*
X83140Y-39153D01*
X83109Y-39184D01*
X83084Y-39221D01*
X83066Y-39261D01*
X83057Y-39305D01*
X83056Y-39349D01*
X83064Y-39393D01*
X83081Y-39434D01*
X83105Y-39472D01*
X83136Y-39503D01*
X83172Y-39529D01*
X83213Y-39547D01*
X83256Y-39556D01*
X83300Y-39557D01*
X83344Y-39549D01*
X83386Y-39533D01*
X83423Y-39509D01*
X83455Y-39479D01*
X83481Y-39443D01*
X83499Y-39402D01*
X83509Y-39359D01*
X83509Y-39308D01*
X83509Y-42135D01*
X83506Y-42135D01*
X83496Y-42129D01*
X83477Y-42121D01*
X83456Y-42116D01*
X83435Y-42116D01*
X83151Y-42116D01*
X83151Y-40690D01*
X83142Y-40646D01*
X83126Y-40605D01*
X83101Y-40568D01*
X83070Y-40537D01*
X83033Y-40512D01*
X82992Y-40495D01*
X82948Y-40486D01*
X82904Y-40486D01*
X82860Y-40494D01*
X82819Y-40511D01*
X82782Y-40535D01*
X82750Y-40566D01*
X82725Y-40603D01*
X82708Y-40643D01*
X82706Y-40651D01*
X82706Y-40162D01*
X82698Y-40119D01*
X82681Y-40078D01*
X82656Y-40041D01*
X82625Y-40009D01*
X82588Y-39984D01*
X82547Y-39967D01*
X82504Y-39958D01*
X82485Y-39958D01*
X82486Y-39918D01*
X82477Y-39875D01*
X82460Y-39834D01*
X82436Y-39797D01*
X82404Y-39765D01*
X82391Y-39756D01*
X82391Y-37556D01*
X82383Y-37512D01*
X82366Y-37471D01*
X82341Y-37434D01*
X82310Y-37403D01*
X82273Y-37378D01*
X82232Y-37361D01*
X82189Y-37352D01*
X82144Y-37352D01*
X82101Y-37360D01*
X82059Y-37377D01*
X82022Y-37401D01*
X82007Y-37416D01*
X81995Y-37403D01*
X81958Y-37378D01*
X81917Y-37361D01*
X81874Y-37352D01*
X81829Y-37352D01*
X81801Y-37357D01*
X81801Y-35647D01*
X81792Y-35603D01*
X81775Y-35562D01*
X81751Y-35525D01*
X81719Y-35494D01*
X81682Y-35469D01*
X81642Y-35451D01*
X81598Y-35443D01*
X81554Y-35442D01*
X81510Y-35451D01*
X81469Y-35467D01*
X81432Y-35492D01*
X81400Y-35523D01*
X81375Y-35559D01*
X81357Y-35600D01*
X81348Y-35643D01*
X81348Y-35688D01*
X81356Y-35731D01*
X81372Y-35773D01*
X81396Y-35810D01*
X81427Y-35842D01*
X81463Y-35867D01*
X81504Y-35885D01*
X81547Y-35895D01*
X81592Y-35896D01*
X81635Y-35888D01*
X81677Y-35872D01*
X81714Y-35848D01*
X81746Y-35817D01*
X81772Y-35781D01*
X81790Y-35741D01*
X81800Y-35697D01*
X81801Y-35647D01*
X81801Y-37357D01*
X81786Y-37360D01*
X81745Y-37377D01*
X81707Y-37401D01*
X81676Y-37432D01*
X81660Y-37455D01*
X81639Y-37441D01*
X81598Y-37424D01*
X81555Y-37415D01*
X81510Y-37415D01*
X81467Y-37423D01*
X81426Y-37440D01*
X81388Y-37464D01*
X81368Y-37484D01*
X81368Y-37221D01*
X81359Y-37178D01*
X81342Y-37137D01*
X81318Y-37100D01*
X81286Y-37068D01*
X81249Y-37043D01*
X81208Y-37026D01*
X81165Y-37017D01*
X81121Y-37017D01*
X81077Y-37025D01*
X81036Y-37042D01*
X80999Y-37066D01*
X80967Y-37097D01*
X80942Y-37134D01*
X80924Y-37175D01*
X80915Y-37218D01*
X80915Y-37263D01*
X80923Y-37306D01*
X80939Y-37348D01*
X80963Y-37385D01*
X80994Y-37417D01*
X81030Y-37442D01*
X81071Y-37460D01*
X81114Y-37469D01*
X81159Y-37470D01*
X81202Y-37463D01*
X81244Y-37447D01*
X81281Y-37423D01*
X81313Y-37392D01*
X81339Y-37356D01*
X81357Y-37315D01*
X81367Y-37272D01*
X81368Y-37221D01*
X81368Y-37484D01*
X81357Y-37495D01*
X81332Y-37532D01*
X81314Y-37572D01*
X81305Y-37616D01*
X81304Y-37660D01*
X81312Y-37704D01*
X81329Y-37745D01*
X81353Y-37783D01*
X81384Y-37814D01*
X81420Y-37840D01*
X81461Y-37858D01*
X81504Y-37867D01*
X81548Y-37868D01*
X81592Y-37860D01*
X81634Y-37844D01*
X81671Y-37820D01*
X81703Y-37790D01*
X81721Y-37764D01*
X81739Y-37777D01*
X81780Y-37795D01*
X81823Y-37804D01*
X81867Y-37805D01*
X81911Y-37797D01*
X81952Y-37781D01*
X81990Y-37757D01*
X82007Y-37741D01*
X82017Y-37751D01*
X82054Y-37777D01*
X82095Y-37795D01*
X82138Y-37804D01*
X82182Y-37805D01*
X82226Y-37797D01*
X82267Y-37781D01*
X82305Y-37757D01*
X82337Y-37727D01*
X82363Y-37691D01*
X82381Y-37650D01*
X82391Y-37607D01*
X82391Y-37556D01*
X82391Y-39756D01*
X82368Y-39740D01*
X82327Y-39723D01*
X82283Y-39714D01*
X82239Y-39714D01*
X82195Y-39722D01*
X82154Y-39739D01*
X82117Y-39763D01*
X82116Y-39764D01*
X82116Y-38088D01*
X82107Y-38044D01*
X82090Y-38003D01*
X82066Y-37966D01*
X82034Y-37934D01*
X81997Y-37910D01*
X81957Y-37892D01*
X81913Y-37884D01*
X81869Y-37883D01*
X81825Y-37892D01*
X81784Y-37908D01*
X81747Y-37932D01*
X81715Y-37964D01*
X81690Y-38000D01*
X81679Y-38026D01*
X81669Y-38022D01*
X81626Y-38013D01*
X81581Y-38013D01*
X81538Y-38021D01*
X81496Y-38038D01*
X81459Y-38062D01*
X81428Y-38093D01*
X81403Y-38130D01*
X81385Y-38171D01*
X81376Y-38214D01*
X81375Y-38259D01*
X81383Y-38302D01*
X81400Y-38344D01*
X81424Y-38381D01*
X81454Y-38413D01*
X81491Y-38438D01*
X81532Y-38456D01*
X81575Y-38466D01*
X81598Y-38466D01*
X81596Y-38474D01*
X81596Y-38519D01*
X81604Y-38562D01*
X81620Y-38603D01*
X81644Y-38641D01*
X81675Y-38673D01*
X81711Y-38698D01*
X81752Y-38716D01*
X81795Y-38725D01*
X81840Y-38726D01*
X81884Y-38719D01*
X81925Y-38703D01*
X81962Y-38679D01*
X81995Y-38648D01*
X82020Y-38612D01*
X82038Y-38571D01*
X82048Y-38528D01*
X82049Y-38477D01*
X82040Y-38434D01*
X82023Y-38393D01*
X81999Y-38356D01*
X81967Y-38324D01*
X81965Y-38323D01*
X81992Y-38313D01*
X82029Y-38289D01*
X82061Y-38258D01*
X82087Y-38222D01*
X82105Y-38182D01*
X82115Y-38138D01*
X82116Y-38088D01*
X82116Y-39764D01*
X82085Y-39794D01*
X82060Y-39831D01*
X82043Y-39872D01*
X82033Y-39915D01*
X82033Y-39959D01*
X82041Y-40003D01*
X82057Y-40044D01*
X82081Y-40082D01*
X82112Y-40114D01*
X82148Y-40139D01*
X82189Y-40157D01*
X82232Y-40166D01*
X82254Y-40167D01*
X82253Y-40204D01*
X82261Y-40247D01*
X82277Y-40289D01*
X82302Y-40326D01*
X82332Y-40358D01*
X82369Y-40383D01*
X82410Y-40401D01*
X82453Y-40410D01*
X82497Y-40411D01*
X82541Y-40404D01*
X82582Y-40388D01*
X82620Y-40364D01*
X82652Y-40333D01*
X82678Y-40297D01*
X82696Y-40256D01*
X82705Y-40213D01*
X82706Y-40162D01*
X82706Y-40651D01*
X82699Y-40687D01*
X82698Y-40731D01*
X82706Y-40775D01*
X82722Y-40816D01*
X82746Y-40853D01*
X82777Y-40885D01*
X82814Y-40911D01*
X82854Y-40928D01*
X82898Y-40938D01*
X82942Y-40939D01*
X82986Y-40931D01*
X83027Y-40915D01*
X83065Y-40891D01*
X83097Y-40861D01*
X83122Y-40824D01*
X83141Y-40784D01*
X83150Y-40741D01*
X83151Y-40690D01*
X83151Y-42116D01*
X83080Y-42116D01*
X83059Y-42120D01*
X83039Y-42128D01*
X83029Y-42135D01*
X82655Y-42135D01*
X82655Y-40670D01*
X82646Y-40627D01*
X82629Y-40586D01*
X82605Y-40549D01*
X82574Y-40517D01*
X82537Y-40492D01*
X82496Y-40475D01*
X82452Y-40466D01*
X82408Y-40466D01*
X82364Y-40474D01*
X82323Y-40491D01*
X82286Y-40515D01*
X82279Y-40522D01*
X82267Y-40509D01*
X82230Y-40484D01*
X82189Y-40467D01*
X82145Y-40458D01*
X82101Y-40458D01*
X82057Y-40466D01*
X82016Y-40483D01*
X81979Y-40507D01*
X81947Y-40538D01*
X81922Y-40575D01*
X81905Y-40616D01*
X81895Y-40659D01*
X81895Y-40704D01*
X81903Y-40747D01*
X81919Y-40789D01*
X81943Y-40826D01*
X81963Y-40846D01*
X81951Y-40857D01*
X81926Y-40894D01*
X81909Y-40935D01*
X81899Y-40978D01*
X81899Y-41022D01*
X81907Y-41066D01*
X81923Y-41107D01*
X81947Y-41145D01*
X81978Y-41177D01*
X82015Y-41202D01*
X82055Y-41220D01*
X82099Y-41229D01*
X82143Y-41230D01*
X82187Y-41223D01*
X82228Y-41206D01*
X82266Y-41183D01*
X82298Y-41152D01*
X82323Y-41116D01*
X82341Y-41075D01*
X82351Y-41032D01*
X82352Y-40981D01*
X82343Y-40938D01*
X82326Y-40897D01*
X82325Y-40894D01*
X82358Y-40909D01*
X82402Y-40918D01*
X82446Y-40919D01*
X82490Y-40912D01*
X82531Y-40895D01*
X82569Y-40872D01*
X82601Y-40841D01*
X82626Y-40805D01*
X82644Y-40764D01*
X82654Y-40721D01*
X82655Y-40670D01*
X82655Y-42135D01*
X81879Y-42135D01*
X81879Y-39328D01*
X81871Y-39284D01*
X81854Y-39243D01*
X81829Y-39206D01*
X81798Y-39175D01*
X81761Y-39150D01*
X81720Y-39133D01*
X81677Y-39124D01*
X81632Y-39123D01*
X81589Y-39132D01*
X81548Y-39148D01*
X81511Y-39173D01*
X81479Y-39204D01*
X81454Y-39240D01*
X81436Y-39281D01*
X81427Y-39325D01*
X81426Y-39369D01*
X81434Y-39413D01*
X81451Y-39454D01*
X81475Y-39491D01*
X81506Y-39523D01*
X81542Y-39548D01*
X81583Y-39566D01*
X81626Y-39576D01*
X81670Y-39577D01*
X81714Y-39569D01*
X81756Y-39553D01*
X81793Y-39529D01*
X81825Y-39499D01*
X81851Y-39462D01*
X81869Y-39422D01*
X81879Y-39378D01*
X81879Y-39328D01*
X81879Y-42135D01*
X81600Y-42135D01*
X81600Y-41056D01*
X81591Y-41012D01*
X81574Y-40971D01*
X81550Y-40934D01*
X81519Y-40903D01*
X81482Y-40878D01*
X81441Y-40861D01*
X81397Y-40852D01*
X81353Y-40852D01*
X81309Y-40860D01*
X81268Y-40877D01*
X81231Y-40901D01*
X81199Y-40932D01*
X81174Y-40969D01*
X81157Y-41009D01*
X81147Y-41053D01*
X81147Y-41097D01*
X81155Y-41141D01*
X81171Y-41182D01*
X81195Y-41220D01*
X81226Y-41251D01*
X81263Y-41277D01*
X81303Y-41295D01*
X81347Y-41304D01*
X81391Y-41305D01*
X81435Y-41297D01*
X81476Y-41281D01*
X81514Y-41257D01*
X81546Y-41227D01*
X81571Y-41191D01*
X81589Y-41150D01*
X81599Y-41107D01*
X81600Y-41056D01*
X81600Y-42135D01*
X80797Y-42135D01*
X80797Y-37729D01*
X80788Y-37686D01*
X80771Y-37645D01*
X80747Y-37608D01*
X80715Y-37576D01*
X80679Y-37551D01*
X80638Y-37534D01*
X80594Y-37525D01*
X80550Y-37525D01*
X80506Y-37533D01*
X80465Y-37550D01*
X80428Y-37574D01*
X80396Y-37605D01*
X80371Y-37642D01*
X80354Y-37683D01*
X80344Y-37726D01*
X80344Y-37771D01*
X80352Y-37814D01*
X80368Y-37855D01*
X80392Y-37893D01*
X80423Y-37925D01*
X80459Y-37950D01*
X80500Y-37968D01*
X80543Y-37977D01*
X80588Y-37978D01*
X80632Y-37971D01*
X80673Y-37955D01*
X80710Y-37931D01*
X80743Y-37900D01*
X80768Y-37864D01*
X80786Y-37823D01*
X80796Y-37780D01*
X80797Y-37729D01*
X80797Y-42135D01*
X80769Y-42135D01*
X80769Y-39710D01*
X80761Y-39666D01*
X80750Y-39639D01*
X80750Y-38662D01*
X80741Y-38619D01*
X80724Y-38578D01*
X80699Y-38541D01*
X80668Y-38509D01*
X80631Y-38484D01*
X80590Y-38467D01*
X80547Y-38458D01*
X80503Y-38458D01*
X80459Y-38466D01*
X80418Y-38483D01*
X80381Y-38507D01*
X80368Y-38520D01*
X80368Y-38139D01*
X80359Y-38095D01*
X80342Y-38054D01*
X80318Y-38017D01*
X80286Y-37986D01*
X80249Y-37961D01*
X80208Y-37944D01*
X80165Y-37935D01*
X80121Y-37934D01*
X80077Y-37943D01*
X80036Y-37959D01*
X79999Y-37984D01*
X79967Y-38015D01*
X79942Y-38051D01*
X79924Y-38092D01*
X79915Y-38136D01*
X79915Y-38180D01*
X79923Y-38224D01*
X79939Y-38265D01*
X79963Y-38302D01*
X79994Y-38334D01*
X80030Y-38359D01*
X80071Y-38377D01*
X80114Y-38387D01*
X80159Y-38388D01*
X80202Y-38380D01*
X80244Y-38364D01*
X80281Y-38340D01*
X80313Y-38310D01*
X80339Y-38273D01*
X80357Y-38233D01*
X80367Y-38189D01*
X80368Y-38139D01*
X80368Y-38520D01*
X80349Y-38538D01*
X80324Y-38574D01*
X80295Y-38562D01*
X80252Y-38553D01*
X80207Y-38552D01*
X80164Y-38561D01*
X80122Y-38577D01*
X80085Y-38602D01*
X80054Y-38633D01*
X80029Y-38669D01*
X80011Y-38710D01*
X80002Y-38754D01*
X80001Y-38798D01*
X80009Y-38842D01*
X80026Y-38883D01*
X80050Y-38920D01*
X80080Y-38952D01*
X80117Y-38978D01*
X80158Y-38995D01*
X80201Y-39005D01*
X80245Y-39006D01*
X80289Y-38998D01*
X80330Y-38982D01*
X80368Y-38958D01*
X80400Y-38928D01*
X80426Y-38891D01*
X80427Y-38889D01*
X80453Y-38901D01*
X80496Y-38910D01*
X80541Y-38911D01*
X80584Y-38904D01*
X80626Y-38888D01*
X80663Y-38864D01*
X80695Y-38833D01*
X80721Y-38797D01*
X80739Y-38756D01*
X80749Y-38713D01*
X80750Y-38662D01*
X80750Y-39639D01*
X80744Y-39625D01*
X80719Y-39588D01*
X80688Y-39557D01*
X80651Y-39532D01*
X80610Y-39514D01*
X80567Y-39506D01*
X80522Y-39505D01*
X80479Y-39514D01*
X80437Y-39530D01*
X80400Y-39555D01*
X80369Y-39586D01*
X80343Y-39622D01*
X80326Y-39663D01*
X80317Y-39706D01*
X80316Y-39751D01*
X80324Y-39794D01*
X80340Y-39836D01*
X80365Y-39873D01*
X80395Y-39905D01*
X80432Y-39930D01*
X80473Y-39948D01*
X80516Y-39958D01*
X80560Y-39959D01*
X80604Y-39951D01*
X80645Y-39935D01*
X80683Y-39911D01*
X80715Y-39880D01*
X80741Y-39844D01*
X80759Y-39804D01*
X80768Y-39760D01*
X80769Y-39710D01*
X80769Y-42135D01*
X78191Y-42135D01*
X78181Y-42128D01*
X78161Y-42120D01*
X78141Y-42116D01*
X78119Y-42116D01*
X77765Y-42116D01*
X77744Y-42120D01*
X77724Y-42128D01*
X77713Y-42135D01*
X77691Y-42135D01*
X77681Y-42128D01*
X77661Y-42120D01*
X77641Y-42116D01*
X77619Y-42116D01*
X77265Y-42116D01*
X77244Y-42120D01*
X77224Y-42128D01*
X77213Y-42135D01*
X73218Y-42135D01*
X73218Y-41956D01*
X73218Y-41958D01*
X73226Y-41978D01*
X73238Y-41995D01*
X73253Y-42010D01*
X73271Y-42022D01*
X73290Y-42030D01*
X73311Y-42035D01*
X73332Y-42035D01*
X73687Y-42035D01*
X73708Y-42031D01*
X73728Y-42023D01*
X73745Y-42011D01*
X73760Y-41996D01*
X73772Y-41978D01*
X73780Y-41959D01*
X73785Y-41938D01*
X73785Y-41917D01*
X73785Y-41562D01*
X73781Y-41541D01*
X73773Y-41521D01*
X73761Y-41504D01*
X73757Y-41500D01*
X73760Y-41496D01*
X73772Y-41478D01*
X73780Y-41459D01*
X73785Y-41438D01*
X73785Y-41417D01*
X73785Y-41062D01*
X73781Y-41041D01*
X73773Y-41021D01*
X73761Y-41004D01*
X73757Y-41000D01*
X73760Y-40996D01*
X73772Y-40978D01*
X73780Y-40959D01*
X73785Y-40938D01*
X73785Y-40917D01*
X73785Y-40562D01*
X73781Y-40541D01*
X73773Y-40521D01*
X73761Y-40504D01*
X73757Y-40500D01*
X73760Y-40496D01*
X73772Y-40478D01*
X73780Y-40459D01*
X73785Y-40438D01*
X73785Y-40417D01*
X73785Y-40062D01*
X73781Y-40041D01*
X73773Y-40021D01*
X73761Y-40004D01*
X73757Y-40000D01*
X73760Y-39996D01*
X73772Y-39978D01*
X73780Y-39959D01*
X73785Y-39938D01*
X73785Y-39917D01*
X73785Y-39562D01*
X73781Y-39541D01*
X73773Y-39521D01*
X73761Y-39504D01*
X73757Y-39500D01*
X73760Y-39496D01*
X73772Y-39478D01*
X73780Y-39459D01*
X73785Y-39438D01*
X73785Y-39417D01*
X73785Y-39062D01*
X73781Y-39041D01*
X73773Y-39021D01*
X73761Y-39004D01*
X73746Y-38989D01*
X73728Y-38977D01*
X73709Y-38969D01*
X73688Y-38964D01*
X73667Y-38964D01*
X73312Y-38964D01*
X73291Y-38968D01*
X73271Y-38976D01*
X73254Y-38988D01*
X73239Y-39003D01*
X73227Y-39021D01*
X73219Y-39040D01*
X73218Y-39043D01*
X73218Y-38825D01*
X73219Y-38825D01*
X73268Y-38841D01*
X73320Y-38847D01*
X73323Y-38847D01*
X73563Y-38847D01*
X73615Y-38842D01*
X73665Y-38827D01*
X73710Y-38803D01*
X73751Y-38770D01*
X73784Y-38730D01*
X73808Y-38684D01*
X73824Y-38635D01*
X73829Y-38583D01*
X73824Y-38531D01*
X73810Y-38482D01*
X73786Y-38436D01*
X73753Y-38395D01*
X73714Y-38362D01*
X73668Y-38337D01*
X73619Y-38321D01*
X73567Y-38316D01*
X73563Y-38315D01*
X73323Y-38315D01*
X73272Y-38321D01*
X73222Y-38336D01*
X73218Y-38338D01*
X73218Y-31975D01*
X73219Y-31975D01*
X73268Y-31991D01*
X73320Y-31997D01*
X73323Y-31997D01*
X73563Y-31997D01*
X73615Y-31992D01*
X73665Y-31977D01*
X73710Y-31953D01*
X73751Y-31920D01*
X73784Y-31880D01*
X73805Y-31840D01*
X74212Y-31840D01*
X74478Y-31840D01*
X74478Y-31459D01*
X74510Y-31439D01*
X74542Y-31408D01*
X74567Y-31372D01*
X74569Y-31368D01*
X74934Y-31368D01*
X74934Y-31369D01*
X74942Y-31413D01*
X74959Y-31454D01*
X74983Y-31491D01*
X75013Y-31523D01*
X75050Y-31548D01*
X75091Y-31566D01*
X75134Y-31576D01*
X75178Y-31577D01*
X75222Y-31569D01*
X75263Y-31553D01*
X75301Y-31529D01*
X75333Y-31499D01*
X75359Y-31462D01*
X75377Y-31422D01*
X75387Y-31378D01*
X75387Y-31368D01*
X75639Y-31368D01*
X75639Y-32124D01*
X75625Y-32133D01*
X75593Y-32164D01*
X75568Y-32201D01*
X75550Y-32242D01*
X75541Y-32285D01*
X75541Y-32330D01*
X75549Y-32373D01*
X75565Y-32415D01*
X75589Y-32452D01*
X75620Y-32484D01*
X75639Y-32497D01*
X75639Y-37864D01*
X75625Y-37873D01*
X75593Y-37904D01*
X75568Y-37941D01*
X75550Y-37982D01*
X75541Y-38025D01*
X75541Y-38070D01*
X75549Y-38113D01*
X75565Y-38155D01*
X75589Y-38192D01*
X75620Y-38224D01*
X75639Y-38237D01*
X75639Y-38789D01*
X74990Y-38789D01*
X74990Y-32832D01*
X74981Y-32788D01*
X74964Y-32747D01*
X74940Y-32710D01*
X74908Y-32679D01*
X74891Y-32667D01*
X74903Y-32659D01*
X74935Y-32628D01*
X74961Y-32592D01*
X74979Y-32552D01*
X74989Y-32508D01*
X74990Y-32458D01*
X74981Y-32414D01*
X74964Y-32373D01*
X74940Y-32336D01*
X74908Y-32305D01*
X74871Y-32280D01*
X74831Y-32263D01*
X74787Y-32254D01*
X74743Y-32253D01*
X74699Y-32262D01*
X74658Y-32278D01*
X74621Y-32303D01*
X74589Y-32334D01*
X74564Y-32370D01*
X74546Y-32411D01*
X74537Y-32454D01*
X74537Y-32499D01*
X74545Y-32543D01*
X74561Y-32584D01*
X74585Y-32621D01*
X74616Y-32653D01*
X74636Y-32667D01*
X74621Y-32677D01*
X74589Y-32708D01*
X74564Y-32744D01*
X74546Y-32785D01*
X74537Y-32828D01*
X74537Y-32873D01*
X74545Y-32917D01*
X74561Y-32958D01*
X74585Y-32995D01*
X74616Y-33027D01*
X74652Y-33052D01*
X74693Y-33070D01*
X74736Y-33080D01*
X74781Y-33081D01*
X74824Y-33073D01*
X74866Y-33057D01*
X74903Y-33033D01*
X74935Y-33002D01*
X74961Y-32966D01*
X74979Y-32926D01*
X74989Y-32882D01*
X74990Y-32832D01*
X74990Y-38789D01*
X74923Y-38789D01*
X74923Y-38206D01*
X74914Y-38162D01*
X74897Y-38121D01*
X74887Y-38106D01*
X74887Y-37729D01*
X74879Y-37686D01*
X74862Y-37645D01*
X74837Y-37608D01*
X74806Y-37576D01*
X74769Y-37551D01*
X74728Y-37534D01*
X74685Y-37525D01*
X74640Y-37525D01*
X74597Y-37533D01*
X74556Y-37550D01*
X74518Y-37574D01*
X74487Y-37605D01*
X74462Y-37642D01*
X74444Y-37683D01*
X74435Y-37726D01*
X74434Y-37771D01*
X74442Y-37814D01*
X74459Y-37855D01*
X74483Y-37893D01*
X74513Y-37925D01*
X74550Y-37950D01*
X74591Y-37968D01*
X74634Y-37977D01*
X74678Y-37978D01*
X74722Y-37971D01*
X74763Y-37955D01*
X74801Y-37931D01*
X74833Y-37900D01*
X74859Y-37864D01*
X74877Y-37823D01*
X74887Y-37780D01*
X74887Y-37729D01*
X74887Y-38106D01*
X74873Y-38084D01*
X74841Y-38053D01*
X74805Y-38028D01*
X74764Y-38011D01*
X74720Y-38002D01*
X74676Y-38001D01*
X74632Y-38010D01*
X74591Y-38026D01*
X74554Y-38051D01*
X74522Y-38082D01*
X74497Y-38118D01*
X74480Y-38159D01*
X74470Y-38202D01*
X74470Y-38247D01*
X74478Y-38291D01*
X74494Y-38332D01*
X74518Y-38369D01*
X74549Y-38401D01*
X74585Y-38426D01*
X74626Y-38444D01*
X74669Y-38454D01*
X74714Y-38455D01*
X74758Y-38447D01*
X74799Y-38431D01*
X74836Y-38407D01*
X74869Y-38376D01*
X74894Y-38340D01*
X74912Y-38300D01*
X74922Y-38256D01*
X74923Y-38206D01*
X74923Y-38789D01*
X74222Y-38789D01*
X74222Y-39950D01*
X74207Y-39960D01*
X74176Y-39991D01*
X74151Y-40028D01*
X74133Y-40069D01*
X74124Y-40112D01*
X74123Y-40156D01*
X74131Y-40200D01*
X74148Y-40241D01*
X74172Y-40279D01*
X74202Y-40311D01*
X74222Y-40324D01*
X74222Y-40974D01*
X74610Y-40974D01*
X74602Y-40994D01*
X74592Y-41037D01*
X74592Y-41082D01*
X74600Y-41125D01*
X74616Y-41166D01*
X74640Y-41204D01*
X74671Y-41236D01*
X74707Y-41261D01*
X74748Y-41279D01*
X74791Y-41288D01*
X74836Y-41289D01*
X74880Y-41282D01*
X74921Y-41266D01*
X74958Y-41242D01*
X74991Y-41211D01*
X75016Y-41175D01*
X75034Y-41134D01*
X75044Y-41091D01*
X75045Y-41040D01*
X75036Y-40997D01*
X75027Y-40974D01*
X77524Y-40974D01*
X77529Y-40980D01*
X77566Y-41005D01*
X77606Y-41023D01*
X77650Y-41032D01*
X77694Y-41033D01*
X77738Y-41026D01*
X77779Y-41010D01*
X77817Y-40986D01*
X77829Y-40974D01*
X78493Y-40974D01*
X78491Y-40978D01*
X78482Y-41021D01*
X78481Y-41066D01*
X78490Y-41109D01*
X78506Y-41151D01*
X78530Y-41188D01*
X78561Y-41220D01*
X78597Y-41245D01*
X78638Y-41263D01*
X78681Y-41273D01*
X78726Y-41274D01*
X78769Y-41266D01*
X78811Y-41250D01*
X78848Y-41226D01*
X78880Y-41195D01*
X78906Y-41159D01*
X78924Y-41119D01*
X78934Y-41075D01*
X78935Y-41025D01*
X78926Y-40981D01*
X78923Y-40974D01*
X79839Y-40974D01*
X79840Y-40980D01*
X79856Y-41021D01*
X79880Y-41058D01*
X79911Y-41090D01*
X79948Y-41115D01*
X79988Y-41133D01*
X80032Y-41143D01*
X80076Y-41144D01*
X80120Y-41136D01*
X80161Y-41120D01*
X80199Y-41096D01*
X80231Y-41065D01*
X80256Y-41029D01*
X80274Y-40989D01*
X80284Y-40945D01*
X80285Y-40895D01*
X80276Y-40851D01*
X80259Y-40810D01*
X80235Y-40773D01*
X80204Y-40742D01*
X80167Y-40717D01*
X80126Y-40700D01*
X80082Y-40691D01*
X80080Y-40691D01*
X80080Y-39025D01*
X80072Y-38981D01*
X80055Y-38940D01*
X80030Y-38903D01*
X79999Y-38871D01*
X79962Y-38847D01*
X79921Y-38829D01*
X79878Y-38821D01*
X79833Y-38820D01*
X79832Y-38820D01*
X79832Y-38796D01*
X79824Y-38753D01*
X79807Y-38712D01*
X79782Y-38675D01*
X79751Y-38643D01*
X79714Y-38618D01*
X79673Y-38601D01*
X79631Y-38593D01*
X79631Y-36336D01*
X79623Y-36292D01*
X79606Y-36251D01*
X79581Y-36214D01*
X79550Y-36182D01*
X79513Y-36158D01*
X79472Y-36140D01*
X79429Y-36132D01*
X79384Y-36131D01*
X79341Y-36140D01*
X79300Y-36156D01*
X79262Y-36180D01*
X79231Y-36212D01*
X79206Y-36248D01*
X79188Y-36289D01*
X79179Y-36332D01*
X79178Y-36377D01*
X79186Y-36420D01*
X79203Y-36462D01*
X79227Y-36499D01*
X79258Y-36531D01*
X79294Y-36556D01*
X79335Y-36574D01*
X79378Y-36584D01*
X79422Y-36585D01*
X79466Y-36577D01*
X79508Y-36561D01*
X79545Y-36537D01*
X79577Y-36506D01*
X79603Y-36470D01*
X79621Y-36430D01*
X79631Y-36386D01*
X79631Y-36336D01*
X79631Y-38593D01*
X79630Y-38592D01*
X79585Y-38592D01*
X79576Y-38594D01*
X79576Y-36840D01*
X79568Y-36796D01*
X79551Y-36755D01*
X79526Y-36718D01*
X79495Y-36686D01*
X79458Y-36662D01*
X79417Y-36644D01*
X79374Y-36635D01*
X79329Y-36635D01*
X79286Y-36643D01*
X79245Y-36660D01*
X79207Y-36684D01*
X79176Y-36715D01*
X79151Y-36752D01*
X79133Y-36793D01*
X79124Y-36836D01*
X79123Y-36881D01*
X79131Y-36924D01*
X79148Y-36966D01*
X79172Y-37003D01*
X79202Y-37035D01*
X79239Y-37060D01*
X79280Y-37078D01*
X79323Y-37088D01*
X79367Y-37089D01*
X79411Y-37081D01*
X79452Y-37065D01*
X79490Y-37041D01*
X79522Y-37010D01*
X79548Y-36974D01*
X79566Y-36934D01*
X79576Y-36890D01*
X79576Y-36840D01*
X79576Y-38594D01*
X79542Y-38600D01*
X79500Y-38617D01*
X79463Y-38641D01*
X79432Y-38672D01*
X79406Y-38709D01*
X79389Y-38750D01*
X79380Y-38793D01*
X79379Y-38837D01*
X79387Y-38881D01*
X79403Y-38922D01*
X79428Y-38960D01*
X79458Y-38992D01*
X79495Y-39017D01*
X79536Y-39035D01*
X79579Y-39044D01*
X79623Y-39045D01*
X79627Y-39044D01*
X79627Y-39066D01*
X79635Y-39109D01*
X79652Y-39151D01*
X79676Y-39188D01*
X79694Y-39208D01*
X79688Y-39212D01*
X79656Y-39243D01*
X79631Y-39280D01*
X79613Y-39320D01*
X79604Y-39364D01*
X79604Y-39408D01*
X79612Y-39452D01*
X79628Y-39493D01*
X79652Y-39531D01*
X79683Y-39562D01*
X79719Y-39588D01*
X79760Y-39606D01*
X79803Y-39615D01*
X79848Y-39616D01*
X79891Y-39608D01*
X79933Y-39592D01*
X79970Y-39569D01*
X80002Y-39538D01*
X80028Y-39502D01*
X80046Y-39461D01*
X80056Y-39418D01*
X80057Y-39367D01*
X80048Y-39324D01*
X80031Y-39282D01*
X80006Y-39245D01*
X79990Y-39229D01*
X79994Y-39226D01*
X80026Y-39195D01*
X80052Y-39159D01*
X80070Y-39119D01*
X80080Y-39075D01*
X80080Y-39025D01*
X80080Y-40691D01*
X80038Y-40690D01*
X79994Y-40699D01*
X79953Y-40715D01*
X79950Y-40717D01*
X79950Y-40127D01*
X78848Y-40127D01*
X78848Y-32155D01*
X79919Y-32155D01*
X79928Y-32168D01*
X79958Y-32200D01*
X79995Y-32226D01*
X80036Y-32243D01*
X80079Y-32253D01*
X80123Y-32254D01*
X80167Y-32246D01*
X80208Y-32230D01*
X80246Y-32206D01*
X80278Y-32176D01*
X80289Y-32161D01*
X80294Y-32168D01*
X80325Y-32200D01*
X80361Y-32226D01*
X80402Y-32243D01*
X80445Y-32253D01*
X80489Y-32254D01*
X80533Y-32246D01*
X80575Y-32230D01*
X80612Y-32206D01*
X80644Y-32176D01*
X80659Y-32155D01*
X80725Y-32155D01*
X80746Y-32188D01*
X80777Y-32220D01*
X80814Y-32245D01*
X80854Y-32263D01*
X80898Y-32273D01*
X80942Y-32274D01*
X80986Y-32266D01*
X81027Y-32250D01*
X81065Y-32226D01*
X81097Y-32195D01*
X81122Y-32159D01*
X81124Y-32155D01*
X81740Y-32155D01*
X81731Y-32175D01*
X81722Y-32218D01*
X81722Y-32263D01*
X81730Y-32306D01*
X81746Y-32348D01*
X81770Y-32385D01*
X81801Y-32417D01*
X81837Y-32442D01*
X81878Y-32460D01*
X81921Y-32469D01*
X81966Y-32470D01*
X82009Y-32463D01*
X82051Y-32447D01*
X82088Y-32423D01*
X82121Y-32392D01*
X82146Y-32356D01*
X82164Y-32315D01*
X82174Y-32272D01*
X82174Y-32254D01*
X82182Y-32254D01*
X82226Y-32246D01*
X82267Y-32230D01*
X82305Y-32206D01*
X82337Y-32176D01*
X82352Y-32155D01*
X82628Y-32155D01*
X82627Y-32184D01*
X82635Y-32228D01*
X82652Y-32269D01*
X82676Y-32306D01*
X82706Y-32338D01*
X82743Y-32363D01*
X82784Y-32381D01*
X82827Y-32391D01*
X82871Y-32392D01*
X82915Y-32384D01*
X82956Y-32368D01*
X82994Y-32344D01*
X83026Y-32313D01*
X83052Y-32277D01*
X83070Y-32237D01*
X83080Y-32193D01*
X83080Y-32155D01*
X83218Y-32155D01*
X83218Y-32184D01*
X83226Y-32228D01*
X83242Y-32269D01*
X83266Y-32306D01*
X83297Y-32338D01*
X83333Y-32363D01*
X83374Y-32381D01*
X83417Y-32391D01*
X83462Y-32392D01*
X83506Y-32384D01*
X83547Y-32368D01*
X83584Y-32344D01*
X83617Y-32313D01*
X83642Y-32277D01*
X83660Y-32237D01*
X83670Y-32193D01*
X83671Y-32155D01*
X83934Y-32155D01*
X83955Y-32188D01*
X83986Y-32220D01*
X84022Y-32245D01*
X84025Y-32246D01*
X84025Y-33001D01*
X83197Y-33001D01*
X83220Y-32993D01*
X83258Y-32969D01*
X83290Y-32938D01*
X83315Y-32902D01*
X83333Y-32861D01*
X83343Y-32818D01*
X83344Y-32767D01*
X83335Y-32724D01*
X83318Y-32683D01*
X83294Y-32646D01*
X83262Y-32614D01*
X83226Y-32589D01*
X83185Y-32572D01*
X83141Y-32563D01*
X83097Y-32563D01*
X83053Y-32571D01*
X83012Y-32588D01*
X82975Y-32612D01*
X82943Y-32643D01*
X82918Y-32680D01*
X82901Y-32721D01*
X82891Y-32764D01*
X82891Y-32809D01*
X82899Y-32852D01*
X82915Y-32893D01*
X82939Y-32931D01*
X82970Y-32963D01*
X83007Y-32988D01*
X83037Y-33001D01*
X80939Y-33001D01*
X80949Y-32998D01*
X80986Y-32974D01*
X81018Y-32943D01*
X81044Y-32907D01*
X81062Y-32867D01*
X81072Y-32823D01*
X81072Y-32773D01*
X81064Y-32729D01*
X81047Y-32688D01*
X81022Y-32651D01*
X80991Y-32620D01*
X80954Y-32595D01*
X80913Y-32577D01*
X80870Y-32569D01*
X80825Y-32568D01*
X80782Y-32577D01*
X80741Y-32593D01*
X80703Y-32617D01*
X80672Y-32649D01*
X80647Y-32685D01*
X80629Y-32726D01*
X80620Y-32769D01*
X80619Y-32814D01*
X80627Y-32857D01*
X80644Y-32899D01*
X80668Y-32936D01*
X80699Y-32968D01*
X80735Y-32993D01*
X80754Y-33001D01*
X80462Y-33001D01*
X80462Y-32490D01*
X79379Y-32490D01*
X79379Y-34320D01*
X79366Y-34286D01*
X79341Y-34249D01*
X79310Y-34218D01*
X79273Y-34193D01*
X79232Y-34176D01*
X79189Y-34167D01*
X79144Y-34167D01*
X79101Y-34175D01*
X79059Y-34192D01*
X79022Y-34216D01*
X78991Y-34247D01*
X78966Y-34284D01*
X78948Y-34324D01*
X78939Y-34368D01*
X78938Y-34412D01*
X78946Y-34456D01*
X78963Y-34497D01*
X78987Y-34534D01*
X79017Y-34566D01*
X79054Y-34592D01*
X79095Y-34610D01*
X79138Y-34619D01*
X79182Y-34620D01*
X79226Y-34612D01*
X79267Y-34596D01*
X79305Y-34572D01*
X79337Y-34542D01*
X79363Y-34506D01*
X79379Y-34468D01*
X79379Y-34804D01*
X79357Y-34809D01*
X79315Y-34825D01*
X79278Y-34850D01*
X79247Y-34881D01*
X79221Y-34917D01*
X79204Y-34958D01*
X79195Y-35002D01*
X79194Y-35046D01*
X79202Y-35090D01*
X79218Y-35131D01*
X79242Y-35168D01*
X79273Y-35200D01*
X79310Y-35226D01*
X79350Y-35243D01*
X79379Y-35250D01*
X79379Y-35478D01*
X79357Y-35482D01*
X79315Y-35499D01*
X79278Y-35523D01*
X79247Y-35554D01*
X79221Y-35591D01*
X79204Y-35632D01*
X79195Y-35675D01*
X79194Y-35719D01*
X79202Y-35763D01*
X79218Y-35804D01*
X79242Y-35842D01*
X79273Y-35874D01*
X79310Y-35899D01*
X79350Y-35917D01*
X79394Y-35926D01*
X79438Y-35927D01*
X79482Y-35919D01*
X79523Y-35903D01*
X79561Y-35880D01*
X79593Y-35849D01*
X79619Y-35813D01*
X79637Y-35772D01*
X79644Y-35738D01*
X80206Y-35738D01*
X80206Y-35759D01*
X80214Y-35802D01*
X80230Y-35844D01*
X80254Y-35881D01*
X80285Y-35913D01*
X80322Y-35938D01*
X80362Y-35956D01*
X80406Y-35966D01*
X80450Y-35966D01*
X80494Y-35959D01*
X80535Y-35943D01*
X80573Y-35919D01*
X80605Y-35888D01*
X80630Y-35852D01*
X80648Y-35811D01*
X80658Y-35768D01*
X80659Y-35738D01*
X80659Y-35738D01*
X80659Y-35718D01*
X80659Y-35717D01*
X80659Y-35717D01*
X80659Y-35169D01*
X80660Y-35166D01*
X80670Y-35122D01*
X80671Y-35072D01*
X80662Y-35028D01*
X80659Y-35020D01*
X80659Y-34478D01*
X81413Y-34478D01*
X81415Y-34487D01*
X81431Y-34529D01*
X81455Y-34566D01*
X81486Y-34598D01*
X81522Y-34623D01*
X81563Y-34641D01*
X81606Y-34651D01*
X81651Y-34651D01*
X81695Y-34644D01*
X81736Y-34628D01*
X81773Y-34604D01*
X81806Y-34573D01*
X81831Y-34537D01*
X81849Y-34496D01*
X81853Y-34478D01*
X83667Y-34478D01*
X83654Y-34483D01*
X83617Y-34507D01*
X83585Y-34538D01*
X83560Y-34575D01*
X83543Y-34616D01*
X83533Y-34659D01*
X83533Y-34704D01*
X83541Y-34747D01*
X83557Y-34789D01*
X83581Y-34826D01*
X83612Y-34858D01*
X83648Y-34883D01*
X83689Y-34901D01*
X83732Y-34910D01*
X83777Y-34911D01*
X83821Y-34904D01*
X83862Y-34888D01*
X83899Y-34864D01*
X83932Y-34833D01*
X83957Y-34797D01*
X83975Y-34756D01*
X83985Y-34713D01*
X83986Y-34662D01*
X83977Y-34619D01*
X83960Y-34578D01*
X83936Y-34541D01*
X83904Y-34509D01*
X83868Y-34484D01*
X83852Y-34478D01*
X85099Y-34478D01*
X85092Y-34488D01*
X85074Y-34529D01*
X85065Y-34573D01*
X85064Y-34617D01*
X85072Y-34661D01*
X85089Y-34702D01*
X85113Y-34739D01*
X85143Y-34771D01*
X85180Y-34796D01*
X85221Y-34814D01*
X85246Y-34820D01*
X85246Y-35620D01*
X85215Y-35619D01*
X85171Y-35628D01*
X85130Y-35644D01*
X85093Y-35669D01*
X85061Y-35700D01*
X85036Y-35736D01*
X85019Y-35777D01*
X85010Y-35821D01*
X85009Y-35865D01*
X85017Y-35909D01*
X85033Y-35950D01*
X85057Y-35987D01*
X85088Y-36019D01*
X85125Y-36045D01*
X85165Y-36062D01*
X85209Y-36072D01*
X85246Y-36073D01*
X85246Y-36344D01*
X85223Y-36348D01*
X85182Y-36365D01*
X85144Y-36389D01*
X85113Y-36420D01*
X85088Y-36457D01*
X85070Y-36498D01*
X85061Y-36541D01*
X85060Y-36585D01*
X85068Y-36629D01*
X85085Y-36670D01*
X85109Y-36708D01*
X85138Y-36739D01*
X85113Y-36755D01*
X85081Y-36786D01*
X85056Y-36823D01*
X85039Y-36864D01*
X85029Y-36907D01*
X85029Y-36952D01*
X85037Y-36995D01*
X85053Y-37037D01*
X85077Y-37074D01*
X85108Y-37106D01*
X85144Y-37131D01*
X85185Y-37149D01*
X85228Y-37158D01*
X85273Y-37159D01*
X85317Y-37152D01*
X85358Y-37136D01*
X85383Y-37120D01*
X85384Y-37120D01*
X85391Y-37134D01*
X85391Y-37135D01*
X85392Y-37135D01*
X85401Y-37147D01*
X85411Y-37159D01*
X85412Y-37161D01*
X85412Y-37161D01*
X85412Y-37161D01*
X85413Y-37161D01*
X85515Y-37263D01*
X85527Y-37273D01*
X85539Y-37283D01*
X85540Y-37284D01*
X85540Y-37284D01*
X85554Y-37292D01*
X85567Y-37299D01*
X85568Y-37299D01*
X85569Y-37300D01*
X85584Y-37304D01*
X85599Y-37309D01*
X85599Y-37309D01*
X85600Y-37309D01*
X85616Y-37311D01*
X85631Y-37312D01*
X85633Y-37312D01*
X85633Y-37312D01*
X85633Y-37312D01*
X85633Y-37312D01*
X86030Y-37312D01*
X86015Y-37348D01*
X86006Y-37391D01*
X86005Y-37436D01*
X86013Y-37480D01*
X86029Y-37521D01*
X86054Y-37558D01*
X86084Y-37590D01*
X86121Y-37615D01*
X86161Y-37633D01*
X86205Y-37643D01*
X86249Y-37644D01*
X86293Y-37636D01*
X86334Y-37620D01*
X86372Y-37596D01*
X86404Y-37565D01*
X86430Y-37529D01*
X86448Y-37489D01*
X86449Y-37483D01*
X86463Y-37517D01*
X86487Y-37554D01*
X86517Y-37586D01*
X86554Y-37611D01*
X86595Y-37629D01*
X86638Y-37639D01*
X86682Y-37640D01*
X86726Y-37632D01*
X86767Y-37616D01*
X86805Y-37592D01*
X86837Y-37562D01*
X86863Y-37525D01*
X86881Y-37485D01*
X86891Y-37441D01*
X86891Y-37391D01*
X86883Y-37347D01*
X86866Y-37306D01*
X86841Y-37269D01*
X86818Y-37246D01*
X87211Y-37246D01*
X87214Y-37259D01*
X87230Y-37300D01*
X87254Y-37338D01*
X87285Y-37370D01*
X87301Y-37381D01*
X87287Y-37415D01*
X87277Y-37458D01*
X87277Y-37503D01*
X87285Y-37546D01*
X87301Y-37588D01*
X87305Y-37593D01*
X87298Y-37598D01*
X87266Y-37629D01*
X87241Y-37666D01*
X87224Y-37706D01*
X87214Y-37750D01*
X87214Y-37794D01*
X87222Y-37838D01*
X87238Y-37879D01*
X87262Y-37916D01*
X87293Y-37948D01*
X87329Y-37974D01*
X87370Y-37991D01*
X87414Y-38001D01*
X87458Y-38002D01*
X87502Y-37994D01*
X87543Y-37978D01*
X87580Y-37954D01*
X87613Y-37924D01*
X87638Y-37887D01*
X87656Y-37847D01*
X87666Y-37804D01*
X87667Y-37753D01*
X87658Y-37709D01*
X87641Y-37668D01*
X87639Y-37666D01*
X87643Y-37663D01*
X87676Y-37632D01*
X87701Y-37596D01*
X87719Y-37556D01*
X87729Y-37512D01*
X87730Y-37462D01*
X87721Y-37418D01*
X87704Y-37377D01*
X87680Y-37340D01*
X87648Y-37308D01*
X87635Y-37299D01*
X87648Y-37268D01*
X87658Y-37225D01*
X87659Y-37174D01*
X87650Y-37131D01*
X87633Y-37090D01*
X87609Y-37053D01*
X87578Y-37021D01*
X87541Y-36996D01*
X87500Y-36979D01*
X87456Y-36970D01*
X87443Y-36970D01*
X87433Y-36960D01*
X87431Y-36958D01*
X87986Y-36958D01*
X87986Y-36960D01*
X87994Y-36980D01*
X88001Y-36990D01*
X88001Y-37013D01*
X87995Y-37023D01*
X87987Y-37042D01*
X87982Y-37063D01*
X87982Y-37084D01*
X87982Y-37439D01*
X87986Y-37460D01*
X87994Y-37480D01*
X88001Y-37490D01*
X88001Y-37513D01*
X87995Y-37523D01*
X87987Y-37542D01*
X87982Y-37563D01*
X87982Y-37584D01*
X87982Y-37939D01*
X87986Y-37960D01*
X87994Y-37980D01*
X88001Y-37990D01*
X88001Y-38012D01*
X87995Y-38023D01*
X87986Y-38042D01*
X87982Y-38063D01*
X87982Y-38084D01*
X87982Y-38282D01*
X87956Y-38277D01*
X87912Y-38277D01*
X87868Y-38285D01*
X87827Y-38302D01*
X87790Y-38326D01*
X87758Y-38357D01*
X87733Y-38394D01*
X87716Y-38435D01*
X87707Y-38478D01*
X87706Y-38522D01*
X87714Y-38566D01*
X87730Y-38607D01*
X87754Y-38645D01*
X87785Y-38677D01*
X87822Y-38702D01*
X87862Y-38720D01*
X87906Y-38729D01*
X87950Y-38730D01*
X87982Y-38725D01*
X87982Y-38939D01*
X87986Y-38960D01*
X87994Y-38980D01*
X88001Y-38991D01*
X88001Y-39012D01*
X87995Y-39023D01*
X87986Y-39042D01*
X87982Y-39063D01*
X87982Y-39084D01*
X87982Y-39439D01*
X87986Y-39460D01*
X87994Y-39480D01*
X88001Y-39491D01*
X88001Y-39694D01*
X87971Y-39694D01*
X87927Y-39703D01*
X87886Y-39719D01*
X87849Y-39743D01*
X87817Y-39775D01*
X87792Y-39811D01*
X87775Y-39852D01*
X87766Y-39895D01*
X87765Y-39940D01*
X87773Y-39983D01*
X87789Y-40025D01*
X87813Y-40062D01*
X87844Y-40094D01*
X87881Y-40119D01*
X87921Y-40137D01*
X87965Y-40147D01*
X88001Y-40147D01*
X88001Y-42135D01*
X88001Y-42135D01*
G37*
G54D17*
X88001Y-42135D02*
X87536Y-42135D01*
X87526Y-42125D01*
X87505Y-42111D01*
X87482Y-42101D01*
X87457Y-42097D01*
X87305Y-42097D01*
X87273Y-42129D01*
X87273Y-42135D01*
X87262Y-42135D01*
X87262Y-42129D01*
X87230Y-42097D01*
X87078Y-42097D01*
X87053Y-42101D01*
X87030Y-42111D01*
X87009Y-42125D01*
X87002Y-42132D01*
X86996Y-42129D01*
X86977Y-42121D01*
X86956Y-42116D01*
X86953Y-42116D01*
X86964Y-42112D01*
X87002Y-42088D01*
X87034Y-42058D01*
X87059Y-42021D01*
X87078Y-41981D01*
X87087Y-41937D01*
X87088Y-41887D01*
X87079Y-41843D01*
X87068Y-41816D01*
X87068Y-37843D01*
X87060Y-37800D01*
X87043Y-37759D01*
X87018Y-37722D01*
X86987Y-37690D01*
X86950Y-37666D01*
X86909Y-37648D01*
X86866Y-37639D01*
X86821Y-37639D01*
X86778Y-37647D01*
X86737Y-37664D01*
X86699Y-37688D01*
X86668Y-37719D01*
X86643Y-37756D01*
X86625Y-37797D01*
X86616Y-37840D01*
X86615Y-37885D01*
X86623Y-37925D01*
X86597Y-37899D01*
X86560Y-37874D01*
X86520Y-37857D01*
X86476Y-37848D01*
X86432Y-37848D01*
X86388Y-37856D01*
X86347Y-37873D01*
X86310Y-37897D01*
X86278Y-37928D01*
X86253Y-37965D01*
X86235Y-38006D01*
X86226Y-38049D01*
X86226Y-38093D01*
X86234Y-38137D01*
X86250Y-38178D01*
X86274Y-38216D01*
X86305Y-38248D01*
X86341Y-38273D01*
X86382Y-38291D01*
X86425Y-38300D01*
X86470Y-38301D01*
X86513Y-38293D01*
X86555Y-38277D01*
X86592Y-38254D01*
X86624Y-38223D01*
X86650Y-38187D01*
X86668Y-38146D01*
X86678Y-38103D01*
X86679Y-38052D01*
X86671Y-38015D01*
X86695Y-38039D01*
X86731Y-38064D01*
X86772Y-38082D01*
X86815Y-38092D01*
X86859Y-38092D01*
X86903Y-38085D01*
X86945Y-38069D01*
X86982Y-38045D01*
X87014Y-38014D01*
X87040Y-37978D01*
X87058Y-37937D01*
X87068Y-37894D01*
X87068Y-37843D01*
X87068Y-41816D01*
X87063Y-41802D01*
X87038Y-41765D01*
X87007Y-41734D01*
X86970Y-41709D01*
X86929Y-41692D01*
X86885Y-41683D01*
X86841Y-41682D01*
X86797Y-41691D01*
X86756Y-41707D01*
X86719Y-41732D01*
X86687Y-41763D01*
X86662Y-41799D01*
X86645Y-41840D01*
X86636Y-41884D01*
X86635Y-41928D01*
X86643Y-41972D01*
X86659Y-42013D01*
X86683Y-42050D01*
X86714Y-42082D01*
X86751Y-42108D01*
X86771Y-42116D01*
X86580Y-42116D01*
X86559Y-42120D01*
X86539Y-42128D01*
X86529Y-42135D01*
X86513Y-42135D01*
X86513Y-40946D01*
X86505Y-40906D01*
X86505Y-38670D01*
X86497Y-38627D01*
X86480Y-38586D01*
X86455Y-38549D01*
X86424Y-38517D01*
X86387Y-38492D01*
X86346Y-38475D01*
X86303Y-38466D01*
X86258Y-38466D01*
X86215Y-38474D01*
X86174Y-38491D01*
X86136Y-38515D01*
X86105Y-38546D01*
X86080Y-38583D01*
X86062Y-38624D01*
X86053Y-38667D01*
X86052Y-38711D01*
X86060Y-38755D01*
X86073Y-38787D01*
X86050Y-38810D01*
X86025Y-38847D01*
X86007Y-38887D01*
X85998Y-38931D01*
X85997Y-38975D01*
X86005Y-39019D01*
X86022Y-39060D01*
X86046Y-39097D01*
X86076Y-39129D01*
X86113Y-39155D01*
X86154Y-39173D01*
X86197Y-39182D01*
X86241Y-39183D01*
X86285Y-39175D01*
X86326Y-39159D01*
X86364Y-39135D01*
X86396Y-39105D01*
X86422Y-39069D01*
X86440Y-39028D01*
X86450Y-38985D01*
X86450Y-38934D01*
X86442Y-38890D01*
X86430Y-38862D01*
X86451Y-38841D01*
X86477Y-38805D01*
X86495Y-38764D01*
X86505Y-38721D01*
X86505Y-38670D01*
X86505Y-40906D01*
X86505Y-40902D01*
X86488Y-40861D01*
X86463Y-40824D01*
X86432Y-40793D01*
X86395Y-40768D01*
X86354Y-40751D01*
X86311Y-40742D01*
X86266Y-40741D01*
X86223Y-40750D01*
X86182Y-40766D01*
X86144Y-40791D01*
X86113Y-40822D01*
X86088Y-40858D01*
X86070Y-40899D01*
X86061Y-40943D01*
X86060Y-40987D01*
X86068Y-41031D01*
X86085Y-41072D01*
X86109Y-41109D01*
X86139Y-41141D01*
X86176Y-41167D01*
X86217Y-41184D01*
X86260Y-41194D01*
X86304Y-41195D01*
X86348Y-41187D01*
X86389Y-41171D01*
X86427Y-41147D01*
X86459Y-41117D01*
X86485Y-41080D01*
X86503Y-41040D01*
X86513Y-40997D01*
X86513Y-40946D01*
X86513Y-42135D01*
X86506Y-42135D01*
X86496Y-42129D01*
X86477Y-42121D01*
X86456Y-42116D01*
X86435Y-42116D01*
X86080Y-42116D01*
X86059Y-42120D01*
X86039Y-42128D01*
X86029Y-42135D01*
X86006Y-42135D01*
X85996Y-42129D01*
X85977Y-42121D01*
X85956Y-42116D01*
X85935Y-42116D01*
X85714Y-42116D01*
X85714Y-41005D01*
X85705Y-40961D01*
X85689Y-40920D01*
X85664Y-40883D01*
X85633Y-40852D01*
X85596Y-40827D01*
X85555Y-40810D01*
X85523Y-40803D01*
X85523Y-39307D01*
X85514Y-39264D01*
X85497Y-39223D01*
X85473Y-39186D01*
X85455Y-39168D01*
X85458Y-39165D01*
X85483Y-39129D01*
X85501Y-39088D01*
X85511Y-39045D01*
X85512Y-38994D01*
X85503Y-38951D01*
X85486Y-38910D01*
X85462Y-38873D01*
X85430Y-38841D01*
X85394Y-38816D01*
X85353Y-38799D01*
X85309Y-38790D01*
X85265Y-38790D01*
X85221Y-38798D01*
X85180Y-38815D01*
X85143Y-38839D01*
X85136Y-38846D01*
X85122Y-38810D01*
X85097Y-38773D01*
X85080Y-38756D01*
X85093Y-38765D01*
X85134Y-38783D01*
X85177Y-38792D01*
X85222Y-38793D01*
X85265Y-38786D01*
X85307Y-38769D01*
X85344Y-38746D01*
X85376Y-38715D01*
X85402Y-38679D01*
X85420Y-38638D01*
X85430Y-38595D01*
X85431Y-38544D01*
X85422Y-38501D01*
X85405Y-38460D01*
X85381Y-38423D01*
X85349Y-38391D01*
X85312Y-38366D01*
X85271Y-38349D01*
X85228Y-38340D01*
X85184Y-38340D01*
X85147Y-38347D01*
X85147Y-38048D01*
X85139Y-38005D01*
X85122Y-37964D01*
X85097Y-37927D01*
X85066Y-37895D01*
X85029Y-37870D01*
X85028Y-37870D01*
X85038Y-37847D01*
X85048Y-37804D01*
X85049Y-37753D01*
X85040Y-37709D01*
X85023Y-37668D01*
X84999Y-37631D01*
X84985Y-37618D01*
X84995Y-37609D01*
X85020Y-37572D01*
X85038Y-37532D01*
X85048Y-37489D01*
X85049Y-37438D01*
X85040Y-37394D01*
X85023Y-37353D01*
X84999Y-37316D01*
X84967Y-37285D01*
X84931Y-37260D01*
X84890Y-37243D01*
X84846Y-37234D01*
X84802Y-37234D01*
X84758Y-37242D01*
X84717Y-37259D01*
X84680Y-37283D01*
X84648Y-37314D01*
X84623Y-37351D01*
X84606Y-37391D01*
X84596Y-37435D01*
X84596Y-37479D01*
X84604Y-37523D01*
X84620Y-37564D01*
X84644Y-37601D01*
X84660Y-37618D01*
X84648Y-37629D01*
X84623Y-37666D01*
X84606Y-37706D01*
X84596Y-37750D01*
X84596Y-37794D01*
X84604Y-37838D01*
X84620Y-37879D01*
X84644Y-37916D01*
X84675Y-37948D01*
X84711Y-37974D01*
X84715Y-37975D01*
X84704Y-38002D01*
X84695Y-38045D01*
X84694Y-38089D01*
X84702Y-38133D01*
X84718Y-38174D01*
X84742Y-38212D01*
X84773Y-38244D01*
X84810Y-38269D01*
X84850Y-38287D01*
X84894Y-38296D01*
X84938Y-38297D01*
X84982Y-38289D01*
X85023Y-38273D01*
X85061Y-38250D01*
X85093Y-38219D01*
X85119Y-38183D01*
X85137Y-38142D01*
X85146Y-38099D01*
X85147Y-38048D01*
X85147Y-38347D01*
X85140Y-38348D01*
X85099Y-38365D01*
X85062Y-38389D01*
X85030Y-38420D01*
X85005Y-38457D01*
X84989Y-38493D01*
X84979Y-38478D01*
X84948Y-38446D01*
X84911Y-38421D01*
X84870Y-38404D01*
X84826Y-38395D01*
X84782Y-38395D01*
X84738Y-38403D01*
X84697Y-38420D01*
X84660Y-38444D01*
X84628Y-38475D01*
X84603Y-38512D01*
X84586Y-38553D01*
X84577Y-38596D01*
X84576Y-38641D01*
X84584Y-38684D01*
X84600Y-38726D01*
X84624Y-38763D01*
X84655Y-38795D01*
X84692Y-38820D01*
X84712Y-38829D01*
X84704Y-38848D01*
X84695Y-38891D01*
X84694Y-38936D01*
X84702Y-38980D01*
X84718Y-39021D01*
X84742Y-39058D01*
X84773Y-39090D01*
X84810Y-39115D01*
X84818Y-39119D01*
X84813Y-39133D01*
X84803Y-39176D01*
X84803Y-39221D01*
X84811Y-39264D01*
X84827Y-39305D01*
X84851Y-39343D01*
X84882Y-39375D01*
X84919Y-39400D01*
X84950Y-39414D01*
X84943Y-39420D01*
X84918Y-39457D01*
X84901Y-39498D01*
X84892Y-39541D01*
X84891Y-39557D01*
X84861Y-39556D01*
X84817Y-39565D01*
X84776Y-39581D01*
X84739Y-39606D01*
X84707Y-39637D01*
X84682Y-39673D01*
X84665Y-39714D01*
X84655Y-39758D01*
X84655Y-39802D01*
X84663Y-39846D01*
X84673Y-39871D01*
X84658Y-39877D01*
X84621Y-39901D01*
X84616Y-39906D01*
X84616Y-39465D01*
X84607Y-39422D01*
X84590Y-39381D01*
X84566Y-39344D01*
X84534Y-39312D01*
X84497Y-39288D01*
X84457Y-39270D01*
X84413Y-39261D01*
X84369Y-39261D01*
X84325Y-39269D01*
X84284Y-39286D01*
X84247Y-39310D01*
X84215Y-39341D01*
X84190Y-39378D01*
X84172Y-39419D01*
X84163Y-39462D01*
X84163Y-39507D01*
X84171Y-39550D01*
X84187Y-39592D01*
X84211Y-39629D01*
X84242Y-39661D01*
X84278Y-39686D01*
X84319Y-39704D01*
X84362Y-39714D01*
X84407Y-39714D01*
X84450Y-39707D01*
X84492Y-39691D01*
X84529Y-39667D01*
X84561Y-39636D01*
X84587Y-39600D01*
X84605Y-39559D01*
X84615Y-39516D01*
X84616Y-39465D01*
X84616Y-39906D01*
X84589Y-39932D01*
X84564Y-39969D01*
X84546Y-40009D01*
X84537Y-40053D01*
X84537Y-40097D01*
X84545Y-40141D01*
X84561Y-40182D01*
X84585Y-40220D01*
X84616Y-40251D01*
X84652Y-40277D01*
X84693Y-40295D01*
X84736Y-40304D01*
X84781Y-40305D01*
X84824Y-40297D01*
X84866Y-40281D01*
X84903Y-40257D01*
X84935Y-40227D01*
X84961Y-40191D01*
X84979Y-40150D01*
X84989Y-40107D01*
X84990Y-40056D01*
X84981Y-40012D01*
X84972Y-39991D01*
X84984Y-39986D01*
X84988Y-39983D01*
X85006Y-40011D01*
X85037Y-40043D01*
X85074Y-40068D01*
X85114Y-40086D01*
X85158Y-40095D01*
X85202Y-40096D01*
X85246Y-40089D01*
X85287Y-40073D01*
X85325Y-40049D01*
X85357Y-40018D01*
X85382Y-39982D01*
X85400Y-39941D01*
X85410Y-39898D01*
X85411Y-39847D01*
X85402Y-39804D01*
X85385Y-39763D01*
X85361Y-39726D01*
X85330Y-39694D01*
X85313Y-39683D01*
X85315Y-39679D01*
X85333Y-39638D01*
X85343Y-39595D01*
X85344Y-39551D01*
X85358Y-39549D01*
X85399Y-39533D01*
X85437Y-39509D01*
X85469Y-39478D01*
X85494Y-39442D01*
X85512Y-39401D01*
X85522Y-39358D01*
X85523Y-39307D01*
X85523Y-40803D01*
X85511Y-40801D01*
X85486Y-40801D01*
X85486Y-40599D01*
X85477Y-40556D01*
X85460Y-40515D01*
X85436Y-40478D01*
X85404Y-40446D01*
X85368Y-40421D01*
X85327Y-40404D01*
X85283Y-40395D01*
X85239Y-40395D01*
X85195Y-40403D01*
X85154Y-40420D01*
X85117Y-40444D01*
X85085Y-40475D01*
X85060Y-40512D01*
X85043Y-40553D01*
X85033Y-40596D01*
X85033Y-40641D01*
X85041Y-40684D01*
X85057Y-40726D01*
X85081Y-40763D01*
X85112Y-40795D01*
X85148Y-40820D01*
X85189Y-40838D01*
X85232Y-40847D01*
X85277Y-40848D01*
X85321Y-40841D01*
X85362Y-40825D01*
X85399Y-40801D01*
X85432Y-40770D01*
X85457Y-40734D01*
X85475Y-40693D01*
X85485Y-40650D01*
X85486Y-40599D01*
X85486Y-40801D01*
X85467Y-40801D01*
X85423Y-40809D01*
X85382Y-40825D01*
X85345Y-40850D01*
X85313Y-40881D01*
X85288Y-40917D01*
X85285Y-40925D01*
X85278Y-40919D01*
X85242Y-40894D01*
X85201Y-40877D01*
X85157Y-40868D01*
X85113Y-40867D01*
X85069Y-40876D01*
X85028Y-40892D01*
X84991Y-40917D01*
X84959Y-40948D01*
X84934Y-40984D01*
X84932Y-40990D01*
X84908Y-40966D01*
X84871Y-40941D01*
X84831Y-40924D01*
X84787Y-40915D01*
X84743Y-40915D01*
X84699Y-40923D01*
X84658Y-40940D01*
X84655Y-40942D01*
X84655Y-40588D01*
X84646Y-40544D01*
X84629Y-40503D01*
X84605Y-40466D01*
X84574Y-40434D01*
X84537Y-40410D01*
X84496Y-40392D01*
X84452Y-40384D01*
X84408Y-40383D01*
X84364Y-40392D01*
X84323Y-40408D01*
X84286Y-40432D01*
X84254Y-40464D01*
X84229Y-40500D01*
X84212Y-40541D01*
X84203Y-40584D01*
X84202Y-40620D01*
X84172Y-40619D01*
X84128Y-40628D01*
X84087Y-40644D01*
X84084Y-40646D01*
X84084Y-37792D01*
X84076Y-37749D01*
X84059Y-37708D01*
X84034Y-37671D01*
X84003Y-37639D01*
X83966Y-37614D01*
X83925Y-37597D01*
X83887Y-37589D01*
X83887Y-35824D01*
X83879Y-35780D01*
X83862Y-35739D01*
X83837Y-35702D01*
X83806Y-35671D01*
X83769Y-35646D01*
X83728Y-35629D01*
X83685Y-35620D01*
X83640Y-35619D01*
X83597Y-35628D01*
X83556Y-35644D01*
X83518Y-35669D01*
X83487Y-35700D01*
X83462Y-35736D01*
X83444Y-35777D01*
X83435Y-35821D01*
X83434Y-35865D01*
X83442Y-35909D01*
X83459Y-35950D01*
X83483Y-35987D01*
X83513Y-36019D01*
X83550Y-36045D01*
X83591Y-36062D01*
X83634Y-36072D01*
X83678Y-36073D01*
X83722Y-36065D01*
X83763Y-36049D01*
X83801Y-36025D01*
X83833Y-35995D01*
X83859Y-35958D01*
X83877Y-35918D01*
X83887Y-35874D01*
X83887Y-35824D01*
X83887Y-37589D01*
X83882Y-37588D01*
X83837Y-37588D01*
X83794Y-37596D01*
X83752Y-37613D01*
X83715Y-37637D01*
X83684Y-37668D01*
X83658Y-37705D01*
X83641Y-37746D01*
X83632Y-37789D01*
X83631Y-37833D01*
X83639Y-37877D01*
X83655Y-37918D01*
X83679Y-37956D01*
X83710Y-37988D01*
X83747Y-38013D01*
X83787Y-38031D01*
X83831Y-38040D01*
X83875Y-38041D01*
X83919Y-38034D01*
X83960Y-38018D01*
X83998Y-37994D01*
X84030Y-37963D01*
X84056Y-37927D01*
X84074Y-37886D01*
X84083Y-37843D01*
X84084Y-37792D01*
X84084Y-40646D01*
X84050Y-40669D01*
X84029Y-40689D01*
X84029Y-39438D01*
X84020Y-39394D01*
X84003Y-39353D01*
X83979Y-39316D01*
X83948Y-39285D01*
X83911Y-39260D01*
X83870Y-39243D01*
X83826Y-39234D01*
X83782Y-39234D01*
X83738Y-39242D01*
X83697Y-39259D01*
X83660Y-39283D01*
X83628Y-39314D01*
X83603Y-39351D01*
X83586Y-39391D01*
X83577Y-39435D01*
X83576Y-39479D01*
X83584Y-39523D01*
X83600Y-39564D01*
X83624Y-39601D01*
X83655Y-39633D01*
X83692Y-39659D01*
X83732Y-39676D01*
X83776Y-39686D01*
X83820Y-39687D01*
X83864Y-39679D01*
X83905Y-39663D01*
X83943Y-39639D01*
X83975Y-39609D01*
X84000Y-39572D01*
X84018Y-39532D01*
X84028Y-39489D01*
X84029Y-39438D01*
X84029Y-40689D01*
X84018Y-40700D01*
X83993Y-40736D01*
X83976Y-40777D01*
X83966Y-40821D01*
X83966Y-40865D01*
X83974Y-40909D01*
X83990Y-40950D01*
X84014Y-40987D01*
X84045Y-41019D01*
X84081Y-41045D01*
X84122Y-41062D01*
X84165Y-41072D01*
X84210Y-41073D01*
X84254Y-41065D01*
X84295Y-41049D01*
X84332Y-41025D01*
X84365Y-40995D01*
X84390Y-40958D01*
X84408Y-40918D01*
X84418Y-40874D01*
X84419Y-40836D01*
X84446Y-40837D01*
X84490Y-40829D01*
X84531Y-40813D01*
X84569Y-40789D01*
X84601Y-40758D01*
X84626Y-40722D01*
X84644Y-40682D01*
X84654Y-40638D01*
X84655Y-40588D01*
X84655Y-40942D01*
X84621Y-40964D01*
X84589Y-40995D01*
X84564Y-41032D01*
X84546Y-41072D01*
X84537Y-41116D01*
X84537Y-41160D01*
X84545Y-41204D01*
X84561Y-41245D01*
X84585Y-41283D01*
X84616Y-41314D01*
X84652Y-41340D01*
X84693Y-41358D01*
X84736Y-41367D01*
X84781Y-41368D01*
X84824Y-41360D01*
X84866Y-41344D01*
X84903Y-41320D01*
X84935Y-41290D01*
X84961Y-41254D01*
X84965Y-41245D01*
X84986Y-41267D01*
X85022Y-41293D01*
X85063Y-41310D01*
X85106Y-41320D01*
X85151Y-41321D01*
X85167Y-41318D01*
X85175Y-41361D01*
X85191Y-41403D01*
X85215Y-41440D01*
X85246Y-41472D01*
X85282Y-41497D01*
X85323Y-41515D01*
X85366Y-41525D01*
X85411Y-41526D01*
X85454Y-41518D01*
X85496Y-41502D01*
X85533Y-41478D01*
X85565Y-41447D01*
X85591Y-41411D01*
X85609Y-41371D01*
X85619Y-41327D01*
X85620Y-41277D01*
X85611Y-41233D01*
X85606Y-41220D01*
X85628Y-41206D01*
X85660Y-41176D01*
X85685Y-41139D01*
X85704Y-41099D01*
X85713Y-41056D01*
X85714Y-41005D01*
X85714Y-42116D01*
X85580Y-42116D01*
X85559Y-42120D01*
X85539Y-42128D01*
X85529Y-42135D01*
X85506Y-42135D01*
X85496Y-42129D01*
X85477Y-42121D01*
X85456Y-42116D01*
X85435Y-42116D01*
X85080Y-42116D01*
X85059Y-42120D01*
X85039Y-42128D01*
X85029Y-42135D01*
X85006Y-42135D01*
X84996Y-42129D01*
X84977Y-42121D01*
X84956Y-42116D01*
X84935Y-42116D01*
X84580Y-42116D01*
X84559Y-42120D01*
X84539Y-42128D01*
X84529Y-42135D01*
X84006Y-42135D01*
X83996Y-42129D01*
X83977Y-42121D01*
X83956Y-42116D01*
X83935Y-42116D01*
X83580Y-42116D01*
X83559Y-42120D01*
X83539Y-42128D01*
X83533Y-42133D01*
X83533Y-38324D01*
X83524Y-38280D01*
X83507Y-38239D01*
X83483Y-38202D01*
X83469Y-38189D01*
X83479Y-38180D01*
X83504Y-38143D01*
X83522Y-38103D01*
X83532Y-38060D01*
X83533Y-38009D01*
X83524Y-37965D01*
X83507Y-37924D01*
X83483Y-37887D01*
X83452Y-37856D01*
X83415Y-37831D01*
X83374Y-37814D01*
X83330Y-37805D01*
X83286Y-37804D01*
X83242Y-37813D01*
X83201Y-37829D01*
X83179Y-37844D01*
X83179Y-36414D01*
X83170Y-36371D01*
X83153Y-36330D01*
X83129Y-36293D01*
X83097Y-36261D01*
X83060Y-36236D01*
X83020Y-36219D01*
X82976Y-36210D01*
X82932Y-36210D01*
X82888Y-36218D01*
X82847Y-36235D01*
X82810Y-36259D01*
X82795Y-36274D01*
X82782Y-36261D01*
X82745Y-36236D01*
X82705Y-36219D01*
X82661Y-36210D01*
X82617Y-36210D01*
X82573Y-36218D01*
X82532Y-36235D01*
X82495Y-36259D01*
X82463Y-36290D01*
X82438Y-36327D01*
X82420Y-36368D01*
X82411Y-36411D01*
X82411Y-36456D01*
X82419Y-36499D01*
X82435Y-36540D01*
X82459Y-36578D01*
X82490Y-36610D01*
X82526Y-36635D01*
X82567Y-36653D01*
X82610Y-36662D01*
X82655Y-36663D01*
X82698Y-36656D01*
X82740Y-36640D01*
X82777Y-36616D01*
X82795Y-36599D01*
X82805Y-36610D01*
X82841Y-36635D01*
X82882Y-36653D01*
X82925Y-36662D01*
X82970Y-36663D01*
X83013Y-36656D01*
X83055Y-36640D01*
X83092Y-36616D01*
X83124Y-36585D01*
X83150Y-36549D01*
X83168Y-36508D01*
X83178Y-36465D01*
X83179Y-36414D01*
X83179Y-37844D01*
X83164Y-37854D01*
X83132Y-37885D01*
X83107Y-37921D01*
X83090Y-37962D01*
X83081Y-38006D01*
X83080Y-38050D01*
X83088Y-38094D01*
X83104Y-38135D01*
X83128Y-38172D01*
X83144Y-38188D01*
X83132Y-38200D01*
X83107Y-38236D01*
X83090Y-38277D01*
X83081Y-38321D01*
X83080Y-38365D01*
X83088Y-38409D01*
X83104Y-38450D01*
X83128Y-38487D01*
X83159Y-38519D01*
X83196Y-38545D01*
X83236Y-38562D01*
X83280Y-38572D01*
X83324Y-38573D01*
X83368Y-38565D01*
X83409Y-38549D01*
X83447Y-38525D01*
X83479Y-38495D01*
X83504Y-38458D01*
X83522Y-38418D01*
X83532Y-38374D01*
X83533Y-38324D01*
X83533Y-42133D01*
X83529Y-42135D01*
X83509Y-42135D01*
X83509Y-39308D01*
X83501Y-39264D01*
X83484Y-39223D01*
X83459Y-39186D01*
X83454Y-39181D01*
X83454Y-38777D01*
X83446Y-38733D01*
X83429Y-38692D01*
X83404Y-38655D01*
X83373Y-38623D01*
X83336Y-38599D01*
X83295Y-38581D01*
X83252Y-38572D01*
X83207Y-38572D01*
X83164Y-38580D01*
X83122Y-38597D01*
X83085Y-38621D01*
X83054Y-38652D01*
X83038Y-38676D01*
X83000Y-38660D01*
X82956Y-38651D01*
X82912Y-38651D01*
X82868Y-38659D01*
X82827Y-38676D01*
X82790Y-38700D01*
X82758Y-38731D01*
X82733Y-38768D01*
X82716Y-38809D01*
X82707Y-38852D01*
X82706Y-38896D01*
X82714Y-38940D01*
X82730Y-38981D01*
X82754Y-39019D01*
X82785Y-39051D01*
X82822Y-39076D01*
X82862Y-39094D01*
X82906Y-39103D01*
X82950Y-39104D01*
X82994Y-39097D01*
X83035Y-39080D01*
X83073Y-39057D01*
X83105Y-39026D01*
X83123Y-39000D01*
X83158Y-39015D01*
X83201Y-39025D01*
X83245Y-39026D01*
X83289Y-39018D01*
X83330Y-39002D01*
X83368Y-38978D01*
X83400Y-38947D01*
X83426Y-38911D01*
X83444Y-38871D01*
X83454Y-38827D01*
X83454Y-38777D01*
X83454Y-39181D01*
X83428Y-39155D01*
X83391Y-39130D01*
X83350Y-39113D01*
X83307Y-39104D01*
X83262Y-39104D01*
X83219Y-39112D01*
X83178Y-39129D01*
X83140Y-39153D01*
X83109Y-39184D01*
X83084Y-39221D01*
X83066Y-39261D01*
X83057Y-39305D01*
X83056Y-39349D01*
X83064Y-39393D01*
X83081Y-39434D01*
X83105Y-39472D01*
X83136Y-39503D01*
X83172Y-39529D01*
X83213Y-39547D01*
X83256Y-39556D01*
X83300Y-39557D01*
X83344Y-39549D01*
X83386Y-39533D01*
X83423Y-39509D01*
X83455Y-39479D01*
X83481Y-39443D01*
X83499Y-39402D01*
X83509Y-39359D01*
X83509Y-39308D01*
X83509Y-42135D01*
X83506Y-42135D01*
X83496Y-42129D01*
X83477Y-42121D01*
X83456Y-42116D01*
X83435Y-42116D01*
X83151Y-42116D01*
X83151Y-40690D01*
X83142Y-40646D01*
X83126Y-40605D01*
X83101Y-40568D01*
X83070Y-40537D01*
X83033Y-40512D01*
X82992Y-40495D01*
X82948Y-40486D01*
X82904Y-40486D01*
X82860Y-40494D01*
X82819Y-40511D01*
X82782Y-40535D01*
X82750Y-40566D01*
X82725Y-40603D01*
X82708Y-40643D01*
X82706Y-40651D01*
X82706Y-40162D01*
X82698Y-40119D01*
X82681Y-40078D01*
X82656Y-40041D01*
X82625Y-40009D01*
X82588Y-39984D01*
X82547Y-39967D01*
X82504Y-39958D01*
X82485Y-39958D01*
X82486Y-39918D01*
X82477Y-39875D01*
X82460Y-39834D01*
X82436Y-39797D01*
X82404Y-39765D01*
X82391Y-39756D01*
X82391Y-37556D01*
X82383Y-37512D01*
X82366Y-37471D01*
X82341Y-37434D01*
X82310Y-37403D01*
X82273Y-37378D01*
X82232Y-37361D01*
X82189Y-37352D01*
X82144Y-37352D01*
X82101Y-37360D01*
X82059Y-37377D01*
X82022Y-37401D01*
X82007Y-37416D01*
X81995Y-37403D01*
X81958Y-37378D01*
X81917Y-37361D01*
X81874Y-37352D01*
X81829Y-37352D01*
X81801Y-37357D01*
X81801Y-35647D01*
X81792Y-35603D01*
X81775Y-35562D01*
X81751Y-35525D01*
X81719Y-35494D01*
X81682Y-35469D01*
X81642Y-35451D01*
X81598Y-35443D01*
X81554Y-35442D01*
X81510Y-35451D01*
X81469Y-35467D01*
X81432Y-35492D01*
X81400Y-35523D01*
X81375Y-35559D01*
X81357Y-35600D01*
X81348Y-35643D01*
X81348Y-35688D01*
X81356Y-35731D01*
X81372Y-35773D01*
X81396Y-35810D01*
X81427Y-35842D01*
X81463Y-35867D01*
X81504Y-35885D01*
X81547Y-35895D01*
X81592Y-35896D01*
X81635Y-35888D01*
X81677Y-35872D01*
X81714Y-35848D01*
X81746Y-35817D01*
X81772Y-35781D01*
X81790Y-35741D01*
X81800Y-35697D01*
X81801Y-35647D01*
X81801Y-37357D01*
X81786Y-37360D01*
X81745Y-37377D01*
X81707Y-37401D01*
X81676Y-37432D01*
X81660Y-37455D01*
X81639Y-37441D01*
X81598Y-37424D01*
X81555Y-37415D01*
X81510Y-37415D01*
X81467Y-37423D01*
X81426Y-37440D01*
X81388Y-37464D01*
X81368Y-37484D01*
X81368Y-37221D01*
X81359Y-37178D01*
X81342Y-37137D01*
X81318Y-37100D01*
X81286Y-37068D01*
X81249Y-37043D01*
X81208Y-37026D01*
X81165Y-37017D01*
X81121Y-37017D01*
X81077Y-37025D01*
X81036Y-37042D01*
X80999Y-37066D01*
X80967Y-37097D01*
X80942Y-37134D01*
X80924Y-37175D01*
X80915Y-37218D01*
X80915Y-37263D01*
X80923Y-37306D01*
X80939Y-37348D01*
X80963Y-37385D01*
X80994Y-37417D01*
X81030Y-37442D01*
X81071Y-37460D01*
X81114Y-37469D01*
X81159Y-37470D01*
X81202Y-37463D01*
X81244Y-37447D01*
X81281Y-37423D01*
X81313Y-37392D01*
X81339Y-37356D01*
X81357Y-37315D01*
X81367Y-37272D01*
X81368Y-37221D01*
X81368Y-37484D01*
X81357Y-37495D01*
X81332Y-37532D01*
X81314Y-37572D01*
X81305Y-37616D01*
X81304Y-37660D01*
X81312Y-37704D01*
X81329Y-37745D01*
X81353Y-37783D01*
X81384Y-37814D01*
X81420Y-37840D01*
X81461Y-37858D01*
X81504Y-37867D01*
X81548Y-37868D01*
X81592Y-37860D01*
X81634Y-37844D01*
X81671Y-37820D01*
X81703Y-37790D01*
X81721Y-37764D01*
X81739Y-37777D01*
X81780Y-37795D01*
X81823Y-37804D01*
X81867Y-37805D01*
X81911Y-37797D01*
X81952Y-37781D01*
X81990Y-37757D01*
X82007Y-37741D01*
X82017Y-37751D01*
X82054Y-37777D01*
X82095Y-37795D01*
X82138Y-37804D01*
X82182Y-37805D01*
X82226Y-37797D01*
X82267Y-37781D01*
X82305Y-37757D01*
X82337Y-37727D01*
X82363Y-37691D01*
X82381Y-37650D01*
X82391Y-37607D01*
X82391Y-37556D01*
X82391Y-39756D01*
X82368Y-39740D01*
X82327Y-39723D01*
X82283Y-39714D01*
X82239Y-39714D01*
X82195Y-39722D01*
X82154Y-39739D01*
X82117Y-39763D01*
X82116Y-39764D01*
X82116Y-38088D01*
X82107Y-38044D01*
X82090Y-38003D01*
X82066Y-37966D01*
X82034Y-37934D01*
X81997Y-37910D01*
X81957Y-37892D01*
X81913Y-37884D01*
X81869Y-37883D01*
X81825Y-37892D01*
X81784Y-37908D01*
X81747Y-37932D01*
X81715Y-37964D01*
X81690Y-38000D01*
X81679Y-38026D01*
X81669Y-38022D01*
X81626Y-38013D01*
X81581Y-38013D01*
X81538Y-38021D01*
X81496Y-38038D01*
X81459Y-38062D01*
X81428Y-38093D01*
X81403Y-38130D01*
X81385Y-38171D01*
X81376Y-38214D01*
X81375Y-38259D01*
X81383Y-38302D01*
X81400Y-38344D01*
X81424Y-38381D01*
X81454Y-38413D01*
X81491Y-38438D01*
X81532Y-38456D01*
X81575Y-38466D01*
X81598Y-38466D01*
X81596Y-38474D01*
X81596Y-38519D01*
X81604Y-38562D01*
X81620Y-38603D01*
X81644Y-38641D01*
X81675Y-38673D01*
X81711Y-38698D01*
X81752Y-38716D01*
X81795Y-38725D01*
X81840Y-38726D01*
X81884Y-38719D01*
X81925Y-38703D01*
X81962Y-38679D01*
X81995Y-38648D01*
X82020Y-38612D01*
X82038Y-38571D01*
X82048Y-38528D01*
X82049Y-38477D01*
X82040Y-38434D01*
X82023Y-38393D01*
X81999Y-38356D01*
X81967Y-38324D01*
X81965Y-38323D01*
X81992Y-38313D01*
X82029Y-38289D01*
X82061Y-38258D01*
X82087Y-38222D01*
X82105Y-38182D01*
X82115Y-38138D01*
X82116Y-38088D01*
X82116Y-39764D01*
X82085Y-39794D01*
X82060Y-39831D01*
X82043Y-39872D01*
X82033Y-39915D01*
X82033Y-39959D01*
X82041Y-40003D01*
X82057Y-40044D01*
X82081Y-40082D01*
X82112Y-40114D01*
X82148Y-40139D01*
X82189Y-40157D01*
X82232Y-40166D01*
X82254Y-40167D01*
X82253Y-40204D01*
X82261Y-40247D01*
X82277Y-40289D01*
X82302Y-40326D01*
X82332Y-40358D01*
X82369Y-40383D01*
X82410Y-40401D01*
X82453Y-40410D01*
X82497Y-40411D01*
X82541Y-40404D01*
X82582Y-40388D01*
X82620Y-40364D01*
X82652Y-40333D01*
X82678Y-40297D01*
X82696Y-40256D01*
X82705Y-40213D01*
X82706Y-40162D01*
X82706Y-40651D01*
X82699Y-40687D01*
X82698Y-40731D01*
X82706Y-40775D01*
X82722Y-40816D01*
X82746Y-40853D01*
X82777Y-40885D01*
X82814Y-40911D01*
X82854Y-40928D01*
X82898Y-40938D01*
X82942Y-40939D01*
X82986Y-40931D01*
X83027Y-40915D01*
X83065Y-40891D01*
X83097Y-40861D01*
X83122Y-40824D01*
X83141Y-40784D01*
X83150Y-40741D01*
X83151Y-40690D01*
X83151Y-42116D01*
X83080Y-42116D01*
X83059Y-42120D01*
X83039Y-42128D01*
X83029Y-42135D01*
X82655Y-42135D01*
X82655Y-40670D01*
X82646Y-40627D01*
X82629Y-40586D01*
X82605Y-40549D01*
X82574Y-40517D01*
X82537Y-40492D01*
X82496Y-40475D01*
X82452Y-40466D01*
X82408Y-40466D01*
X82364Y-40474D01*
X82323Y-40491D01*
X82286Y-40515D01*
X82279Y-40522D01*
X82267Y-40509D01*
X82230Y-40484D01*
X82189Y-40467D01*
X82145Y-40458D01*
X82101Y-40458D01*
X82057Y-40466D01*
X82016Y-40483D01*
X81979Y-40507D01*
X81947Y-40538D01*
X81922Y-40575D01*
X81905Y-40616D01*
X81895Y-40659D01*
X81895Y-40704D01*
X81903Y-40747D01*
X81919Y-40789D01*
X81943Y-40826D01*
X81963Y-40846D01*
X81951Y-40857D01*
X81926Y-40894D01*
X81909Y-40935D01*
X81899Y-40978D01*
X81899Y-41022D01*
X81907Y-41066D01*
X81923Y-41107D01*
X81947Y-41145D01*
X81978Y-41177D01*
X82015Y-41202D01*
X82055Y-41220D01*
X82099Y-41229D01*
X82143Y-41230D01*
X82187Y-41223D01*
X82228Y-41206D01*
X82266Y-41183D01*
X82298Y-41152D01*
X82323Y-41116D01*
X82341Y-41075D01*
X82351Y-41032D01*
X82352Y-40981D01*
X82343Y-40938D01*
X82326Y-40897D01*
X82325Y-40894D01*
X82358Y-40909D01*
X82402Y-40918D01*
X82446Y-40919D01*
X82490Y-40912D01*
X82531Y-40895D01*
X82569Y-40872D01*
X82601Y-40841D01*
X82626Y-40805D01*
X82644Y-40764D01*
X82654Y-40721D01*
X82655Y-40670D01*
X82655Y-42135D01*
X81879Y-42135D01*
X81879Y-39328D01*
X81871Y-39284D01*
X81854Y-39243D01*
X81829Y-39206D01*
X81798Y-39175D01*
X81761Y-39150D01*
X81720Y-39133D01*
X81677Y-39124D01*
X81632Y-39123D01*
X81589Y-39132D01*
X81548Y-39148D01*
X81511Y-39173D01*
X81479Y-39204D01*
X81454Y-39240D01*
X81436Y-39281D01*
X81427Y-39325D01*
X81426Y-39369D01*
X81434Y-39413D01*
X81451Y-39454D01*
X81475Y-39491D01*
X81506Y-39523D01*
X81542Y-39548D01*
X81583Y-39566D01*
X81626Y-39576D01*
X81670Y-39577D01*
X81714Y-39569D01*
X81756Y-39553D01*
X81793Y-39529D01*
X81825Y-39499D01*
X81851Y-39462D01*
X81869Y-39422D01*
X81879Y-39378D01*
X81879Y-39328D01*
X81879Y-42135D01*
X81600Y-42135D01*
X81600Y-41056D01*
X81591Y-41012D01*
X81574Y-40971D01*
X81550Y-40934D01*
X81519Y-40903D01*
X81482Y-40878D01*
X81441Y-40861D01*
X81397Y-40852D01*
X81353Y-40852D01*
X81309Y-40860D01*
X81268Y-40877D01*
X81231Y-40901D01*
X81199Y-40932D01*
X81174Y-40969D01*
X81157Y-41009D01*
X81147Y-41053D01*
X81147Y-41097D01*
X81155Y-41141D01*
X81171Y-41182D01*
X81195Y-41220D01*
X81226Y-41251D01*
X81263Y-41277D01*
X81303Y-41295D01*
X81347Y-41304D01*
X81391Y-41305D01*
X81435Y-41297D01*
X81476Y-41281D01*
X81514Y-41257D01*
X81546Y-41227D01*
X81571Y-41191D01*
X81589Y-41150D01*
X81599Y-41107D01*
X81600Y-41056D01*
X81600Y-42135D01*
X80797Y-42135D01*
X80797Y-37729D01*
X80788Y-37686D01*
X80771Y-37645D01*
X80747Y-37608D01*
X80715Y-37576D01*
X80679Y-37551D01*
X80638Y-37534D01*
X80594Y-37525D01*
X80550Y-37525D01*
X80506Y-37533D01*
X80465Y-37550D01*
X80428Y-37574D01*
X80396Y-37605D01*
X80371Y-37642D01*
X80354Y-37683D01*
X80344Y-37726D01*
X80344Y-37771D01*
X80352Y-37814D01*
X80368Y-37855D01*
X80392Y-37893D01*
X80423Y-37925D01*
X80459Y-37950D01*
X80500Y-37968D01*
X80543Y-37977D01*
X80588Y-37978D01*
X80632Y-37971D01*
X80673Y-37955D01*
X80710Y-37931D01*
X80743Y-37900D01*
X80768Y-37864D01*
X80786Y-37823D01*
X80796Y-37780D01*
X80797Y-37729D01*
X80797Y-42135D01*
X80769Y-42135D01*
X80769Y-39710D01*
X80761Y-39666D01*
X80750Y-39639D01*
X80750Y-38662D01*
X80741Y-38619D01*
X80724Y-38578D01*
X80699Y-38541D01*
X80668Y-38509D01*
X80631Y-38484D01*
X80590Y-38467D01*
X80547Y-38458D01*
X80503Y-38458D01*
X80459Y-38466D01*
X80418Y-38483D01*
X80381Y-38507D01*
X80368Y-38520D01*
X80368Y-38139D01*
X80359Y-38095D01*
X80342Y-38054D01*
X80318Y-38017D01*
X80286Y-37986D01*
X80249Y-37961D01*
X80208Y-37944D01*
X80165Y-37935D01*
X80121Y-37934D01*
X80077Y-37943D01*
X80036Y-37959D01*
X79999Y-37984D01*
X79967Y-38015D01*
X79942Y-38051D01*
X79924Y-38092D01*
X79915Y-38136D01*
X79915Y-38180D01*
X79923Y-38224D01*
X79939Y-38265D01*
X79963Y-38302D01*
X79994Y-38334D01*
X80030Y-38359D01*
X80071Y-38377D01*
X80114Y-38387D01*
X80159Y-38388D01*
X80202Y-38380D01*
X80244Y-38364D01*
X80281Y-38340D01*
X80313Y-38310D01*
X80339Y-38273D01*
X80357Y-38233D01*
X80367Y-38189D01*
X80368Y-38139D01*
X80368Y-38520D01*
X80349Y-38538D01*
X80324Y-38574D01*
X80295Y-38562D01*
X80252Y-38553D01*
X80207Y-38552D01*
X80164Y-38561D01*
X80122Y-38577D01*
X80085Y-38602D01*
X80054Y-38633D01*
X80029Y-38669D01*
X80011Y-38710D01*
X80002Y-38754D01*
X80001Y-38798D01*
X80009Y-38842D01*
X80026Y-38883D01*
X80050Y-38920D01*
X80080Y-38952D01*
X80117Y-38978D01*
X80158Y-38995D01*
X80201Y-39005D01*
X80245Y-39006D01*
X80289Y-38998D01*
X80330Y-38982D01*
X80368Y-38958D01*
X80400Y-38928D01*
X80426Y-38891D01*
X80427Y-38889D01*
X80453Y-38901D01*
X80496Y-38910D01*
X80541Y-38911D01*
X80584Y-38904D01*
X80626Y-38888D01*
X80663Y-38864D01*
X80695Y-38833D01*
X80721Y-38797D01*
X80739Y-38756D01*
X80749Y-38713D01*
X80750Y-38662D01*
X80750Y-39639D01*
X80744Y-39625D01*
X80719Y-39588D01*
X80688Y-39557D01*
X80651Y-39532D01*
X80610Y-39514D01*
X80567Y-39506D01*
X80522Y-39505D01*
X80479Y-39514D01*
X80437Y-39530D01*
X80400Y-39555D01*
X80369Y-39586D01*
X80343Y-39622D01*
X80326Y-39663D01*
X80317Y-39706D01*
X80316Y-39751D01*
X80324Y-39794D01*
X80340Y-39836D01*
X80365Y-39873D01*
X80395Y-39905D01*
X80432Y-39930D01*
X80473Y-39948D01*
X80516Y-39958D01*
X80560Y-39959D01*
X80604Y-39951D01*
X80645Y-39935D01*
X80683Y-39911D01*
X80715Y-39880D01*
X80741Y-39844D01*
X80759Y-39804D01*
X80768Y-39760D01*
X80769Y-39710D01*
X80769Y-42135D01*
X78191Y-42135D01*
X78181Y-42128D01*
X78161Y-42120D01*
X78141Y-42116D01*
X78119Y-42116D01*
X77765Y-42116D01*
X77744Y-42120D01*
X77724Y-42128D01*
X77713Y-42135D01*
X77691Y-42135D01*
X77681Y-42128D01*
X77661Y-42120D01*
X77641Y-42116D01*
X77619Y-42116D01*
X77265Y-42116D01*
X77244Y-42120D01*
X77224Y-42128D01*
X77213Y-42135D01*
X73218Y-42135D01*
X73218Y-41956D01*
X73218Y-41958D01*
X73226Y-41978D01*
X73238Y-41995D01*
X73253Y-42010D01*
X73271Y-42022D01*
X73290Y-42030D01*
X73311Y-42035D01*
X73332Y-42035D01*
X73687Y-42035D01*
X73708Y-42031D01*
X73728Y-42023D01*
X73745Y-42011D01*
X73760Y-41996D01*
X73772Y-41978D01*
X73780Y-41959D01*
X73785Y-41938D01*
X73785Y-41917D01*
X73785Y-41562D01*
X73781Y-41541D01*
X73773Y-41521D01*
X73761Y-41504D01*
X73757Y-41500D01*
X73760Y-41496D01*
X73772Y-41478D01*
X73780Y-41459D01*
X73785Y-41438D01*
X73785Y-41417D01*
X73785Y-41062D01*
X73781Y-41041D01*
X73773Y-41021D01*
X73761Y-41004D01*
X73757Y-41000D01*
X73760Y-40996D01*
X73772Y-40978D01*
X73780Y-40959D01*
X73785Y-40938D01*
X73785Y-40917D01*
X73785Y-40562D01*
X73781Y-40541D01*
X73773Y-40521D01*
X73761Y-40504D01*
X73757Y-40500D01*
X73760Y-40496D01*
X73772Y-40478D01*
X73780Y-40459D01*
X73785Y-40438D01*
X73785Y-40417D01*
X73785Y-40062D01*
X73781Y-40041D01*
X73773Y-40021D01*
X73761Y-40004D01*
X73757Y-40000D01*
X73760Y-39996D01*
X73772Y-39978D01*
X73780Y-39959D01*
X73785Y-39938D01*
X73785Y-39917D01*
X73785Y-39562D01*
X73781Y-39541D01*
X73773Y-39521D01*
X73761Y-39504D01*
X73757Y-39500D01*
X73760Y-39496D01*
X73772Y-39478D01*
X73780Y-39459D01*
X73785Y-39438D01*
X73785Y-39417D01*
X73785Y-39062D01*
X73781Y-39041D01*
X73773Y-39021D01*
X73761Y-39004D01*
X73746Y-38989D01*
X73728Y-38977D01*
X73709Y-38969D01*
X73688Y-38964D01*
X73667Y-38964D01*
X73312Y-38964D01*
X73291Y-38968D01*
X73271Y-38976D01*
X73254Y-38988D01*
X73239Y-39003D01*
X73227Y-39021D01*
X73219Y-39040D01*
X73218Y-39043D01*
X73218Y-38825D01*
X73219Y-38825D01*
X73268Y-38841D01*
X73320Y-38847D01*
X73323Y-38847D01*
X73563Y-38847D01*
X73615Y-38842D01*
X73665Y-38827D01*
X73710Y-38803D01*
X73751Y-38770D01*
X73784Y-38730D01*
X73808Y-38684D01*
X73824Y-38635D01*
X73829Y-38583D01*
X73824Y-38531D01*
X73810Y-38482D01*
X73786Y-38436D01*
X73753Y-38395D01*
X73714Y-38362D01*
X73668Y-38337D01*
X73619Y-38321D01*
X73567Y-38316D01*
X73563Y-38315D01*
X73323Y-38315D01*
X73272Y-38321D01*
X73222Y-38336D01*
X73218Y-38338D01*
X73218Y-31975D01*
X73219Y-31975D01*
X73268Y-31991D01*
X73320Y-31997D01*
X73323Y-31997D01*
X73563Y-31997D01*
X73615Y-31992D01*
X73665Y-31977D01*
X73710Y-31953D01*
X73751Y-31920D01*
X73784Y-31880D01*
X73805Y-31840D01*
X74212Y-31840D01*
X74478Y-31840D01*
X74478Y-31459D01*
X74510Y-31439D01*
X74542Y-31408D01*
X74567Y-31372D01*
X74569Y-31368D01*
X74934Y-31368D01*
X74934Y-31369D01*
X74942Y-31413D01*
X74959Y-31454D01*
X74983Y-31491D01*
X75013Y-31523D01*
X75050Y-31548D01*
X75091Y-31566D01*
X75134Y-31576D01*
X75178Y-31577D01*
X75222Y-31569D01*
X75263Y-31553D01*
X75301Y-31529D01*
X75333Y-31499D01*
X75359Y-31462D01*
X75377Y-31422D01*
X75387Y-31378D01*
X75387Y-31368D01*
X75639Y-31368D01*
X75639Y-32124D01*
X75625Y-32133D01*
X75593Y-32164D01*
X75568Y-32201D01*
X75550Y-32242D01*
X75541Y-32285D01*
X75541Y-32330D01*
X75549Y-32373D01*
X75565Y-32415D01*
X75589Y-32452D01*
X75620Y-32484D01*
X75639Y-32497D01*
X75639Y-37864D01*
X75625Y-37873D01*
X75593Y-37904D01*
X75568Y-37941D01*
X75550Y-37982D01*
X75541Y-38025D01*
X75541Y-38070D01*
X75549Y-38113D01*
X75565Y-38155D01*
X75589Y-38192D01*
X75620Y-38224D01*
X75639Y-38237D01*
X75639Y-38789D01*
X74990Y-38789D01*
X74990Y-32832D01*
X74981Y-32788D01*
X74964Y-32747D01*
X74940Y-32710D01*
X74908Y-32679D01*
X74891Y-32667D01*
X74903Y-32659D01*
X74935Y-32628D01*
X74961Y-32592D01*
X74979Y-32552D01*
X74989Y-32508D01*
X74990Y-32458D01*
X74981Y-32414D01*
X74964Y-32373D01*
X74940Y-32336D01*
X74908Y-32305D01*
X74871Y-32280D01*
X74831Y-32263D01*
X74787Y-32254D01*
X74743Y-32253D01*
X74699Y-32262D01*
X74658Y-32278D01*
X74621Y-32303D01*
X74589Y-32334D01*
X74564Y-32370D01*
X74546Y-32411D01*
X74537Y-32454D01*
X74537Y-32499D01*
X74545Y-32543D01*
X74561Y-32584D01*
X74585Y-32621D01*
X74616Y-32653D01*
X74636Y-32667D01*
X74621Y-32677D01*
X74589Y-32708D01*
X74564Y-32744D01*
X74546Y-32785D01*
X74537Y-32828D01*
X74537Y-32873D01*
X74545Y-32917D01*
X74561Y-32958D01*
X74585Y-32995D01*
X74616Y-33027D01*
X74652Y-33052D01*
X74693Y-33070D01*
X74736Y-33080D01*
X74781Y-33081D01*
X74824Y-33073D01*
X74866Y-33057D01*
X74903Y-33033D01*
X74935Y-33002D01*
X74961Y-32966D01*
X74979Y-32926D01*
X74989Y-32882D01*
X74990Y-32832D01*
X74990Y-38789D01*
X74923Y-38789D01*
X74923Y-38206D01*
X74914Y-38162D01*
X74897Y-38121D01*
X74887Y-38106D01*
X74887Y-37729D01*
X74879Y-37686D01*
X74862Y-37645D01*
X74837Y-37608D01*
X74806Y-37576D01*
X74769Y-37551D01*
X74728Y-37534D01*
X74685Y-37525D01*
X74640Y-37525D01*
X74597Y-37533D01*
X74556Y-37550D01*
X74518Y-37574D01*
X74487Y-37605D01*
X74462Y-37642D01*
X74444Y-37683D01*
X74435Y-37726D01*
X74434Y-37771D01*
X74442Y-37814D01*
X74459Y-37855D01*
X74483Y-37893D01*
X74513Y-37925D01*
X74550Y-37950D01*
X74591Y-37968D01*
X74634Y-37977D01*
X74678Y-37978D01*
X74722Y-37971D01*
X74763Y-37955D01*
X74801Y-37931D01*
X74833Y-37900D01*
X74859Y-37864D01*
X74877Y-37823D01*
X74887Y-37780D01*
X74887Y-37729D01*
X74887Y-38106D01*
X74873Y-38084D01*
X74841Y-38053D01*
X74805Y-38028D01*
X74764Y-38011D01*
X74720Y-38002D01*
X74676Y-38001D01*
X74632Y-38010D01*
X74591Y-38026D01*
X74554Y-38051D01*
X74522Y-38082D01*
X74497Y-38118D01*
X74480Y-38159D01*
X74470Y-38202D01*
X74470Y-38247D01*
X74478Y-38291D01*
X74494Y-38332D01*
X74518Y-38369D01*
X74549Y-38401D01*
X74585Y-38426D01*
X74626Y-38444D01*
X74669Y-38454D01*
X74714Y-38455D01*
X74758Y-38447D01*
X74799Y-38431D01*
X74836Y-38407D01*
X74869Y-38376D01*
X74894Y-38340D01*
X74912Y-38300D01*
X74922Y-38256D01*
X74923Y-38206D01*
X74923Y-38789D01*
X74222Y-38789D01*
X74222Y-39950D01*
X74207Y-39960D01*
X74176Y-39991D01*
X74151Y-40028D01*
X74133Y-40069D01*
X74124Y-40112D01*
X74123Y-40156D01*
X74131Y-40200D01*
X74148Y-40241D01*
X74172Y-40279D01*
X74202Y-40311D01*
X74222Y-40324D01*
X74222Y-40974D01*
X74610Y-40974D01*
X74602Y-40994D01*
X74592Y-41037D01*
X74592Y-41082D01*
X74600Y-41125D01*
X74616Y-41166D01*
X74640Y-41204D01*
X74671Y-41236D01*
X74707Y-41261D01*
X74748Y-41279D01*
X74791Y-41288D01*
X74836Y-41289D01*
X74880Y-41282D01*
X74921Y-41266D01*
X74958Y-41242D01*
X74991Y-41211D01*
X75016Y-41175D01*
X75034Y-41134D01*
X75044Y-41091D01*
X75045Y-41040D01*
X75036Y-40997D01*
X75027Y-40974D01*
X77524Y-40974D01*
X77529Y-40980D01*
X77566Y-41005D01*
X77606Y-41023D01*
X77650Y-41032D01*
X77694Y-41033D01*
X77738Y-41026D01*
X77779Y-41010D01*
X77817Y-40986D01*
X77829Y-40974D01*
X78493Y-40974D01*
X78491Y-40978D01*
X78482Y-41021D01*
X78481Y-41066D01*
X78490Y-41109D01*
X78506Y-41151D01*
X78530Y-41188D01*
X78561Y-41220D01*
X78597Y-41245D01*
X78638Y-41263D01*
X78681Y-41273D01*
X78726Y-41274D01*
X78769Y-41266D01*
X78811Y-41250D01*
X78848Y-41226D01*
X78880Y-41195D01*
X78906Y-41159D01*
X78924Y-41119D01*
X78934Y-41075D01*
X78935Y-41025D01*
X78926Y-40981D01*
X78923Y-40974D01*
X79839Y-40974D01*
X79840Y-40980D01*
X79856Y-41021D01*
X79880Y-41058D01*
X79911Y-41090D01*
X79948Y-41115D01*
X79988Y-41133D01*
X80032Y-41143D01*
X80076Y-41144D01*
X80120Y-41136D01*
X80161Y-41120D01*
X80199Y-41096D01*
X80231Y-41065D01*
X80256Y-41029D01*
X80274Y-40989D01*
X80284Y-40945D01*
X80285Y-40895D01*
X80276Y-40851D01*
X80259Y-40810D01*
X80235Y-40773D01*
X80204Y-40742D01*
X80167Y-40717D01*
X80126Y-40700D01*
X80082Y-40691D01*
X80080Y-40691D01*
X80080Y-39025D01*
X80072Y-38981D01*
X80055Y-38940D01*
X80030Y-38903D01*
X79999Y-38871D01*
X79962Y-38847D01*
X79921Y-38829D01*
X79878Y-38821D01*
X79833Y-38820D01*
X79832Y-38820D01*
X79832Y-38796D01*
X79824Y-38753D01*
X79807Y-38712D01*
X79782Y-38675D01*
X79751Y-38643D01*
X79714Y-38618D01*
X79673Y-38601D01*
X79631Y-38593D01*
X79631Y-36336D01*
X79623Y-36292D01*
X79606Y-36251D01*
X79581Y-36214D01*
X79550Y-36182D01*
X79513Y-36158D01*
X79472Y-36140D01*
X79429Y-36132D01*
X79384Y-36131D01*
X79341Y-36140D01*
X79300Y-36156D01*
X79262Y-36180D01*
X79231Y-36212D01*
X79206Y-36248D01*
X79188Y-36289D01*
X79179Y-36332D01*
X79178Y-36377D01*
X79186Y-36420D01*
X79203Y-36462D01*
X79227Y-36499D01*
X79258Y-36531D01*
X79294Y-36556D01*
X79335Y-36574D01*
X79378Y-36584D01*
X79422Y-36585D01*
X79466Y-36577D01*
X79508Y-36561D01*
X79545Y-36537D01*
X79577Y-36506D01*
X79603Y-36470D01*
X79621Y-36430D01*
X79631Y-36386D01*
X79631Y-36336D01*
X79631Y-38593D01*
X79630Y-38592D01*
X79585Y-38592D01*
X79576Y-38594D01*
X79576Y-36840D01*
X79568Y-36796D01*
X79551Y-36755D01*
X79526Y-36718D01*
X79495Y-36686D01*
X79458Y-36662D01*
X79417Y-36644D01*
X79374Y-36635D01*
X79329Y-36635D01*
X79286Y-36643D01*
X79245Y-36660D01*
X79207Y-36684D01*
X79176Y-36715D01*
X79151Y-36752D01*
X79133Y-36793D01*
X79124Y-36836D01*
X79123Y-36881D01*
X79131Y-36924D01*
X79148Y-36966D01*
X79172Y-37003D01*
X79202Y-37035D01*
X79239Y-37060D01*
X79280Y-37078D01*
X79323Y-37088D01*
X79367Y-37089D01*
X79411Y-37081D01*
X79452Y-37065D01*
X79490Y-37041D01*
X79522Y-37010D01*
X79548Y-36974D01*
X79566Y-36934D01*
X79576Y-36890D01*
X79576Y-36840D01*
X79576Y-38594D01*
X79542Y-38600D01*
X79500Y-38617D01*
X79463Y-38641D01*
X79432Y-38672D01*
X79406Y-38709D01*
X79389Y-38750D01*
X79380Y-38793D01*
X79379Y-38837D01*
X79387Y-38881D01*
X79403Y-38922D01*
X79428Y-38960D01*
X79458Y-38992D01*
X79495Y-39017D01*
X79536Y-39035D01*
X79579Y-39044D01*
X79623Y-39045D01*
X79627Y-39044D01*
X79627Y-39066D01*
X79635Y-39109D01*
X79652Y-39151D01*
X79676Y-39188D01*
X79694Y-39208D01*
X79688Y-39212D01*
X79656Y-39243D01*
X79631Y-39280D01*
X79613Y-39320D01*
X79604Y-39364D01*
X79604Y-39408D01*
X79612Y-39452D01*
X79628Y-39493D01*
X79652Y-39531D01*
X79683Y-39562D01*
X79719Y-39588D01*
X79760Y-39606D01*
X79803Y-39615D01*
X79848Y-39616D01*
X79891Y-39608D01*
X79933Y-39592D01*
X79970Y-39569D01*
X80002Y-39538D01*
X80028Y-39502D01*
X80046Y-39461D01*
X80056Y-39418D01*
X80057Y-39367D01*
X80048Y-39324D01*
X80031Y-39282D01*
X80006Y-39245D01*
X79990Y-39229D01*
X79994Y-39226D01*
X80026Y-39195D01*
X80052Y-39159D01*
X80070Y-39119D01*
X80080Y-39075D01*
X80080Y-39025D01*
X80080Y-40691D01*
X80038Y-40690D01*
X79994Y-40699D01*
X79953Y-40715D01*
X79950Y-40717D01*
X79950Y-40127D01*
X78848Y-40127D01*
X78848Y-32155D01*
X79919Y-32155D01*
X79928Y-32168D01*
X79958Y-32200D01*
X79995Y-32226D01*
X80036Y-32243D01*
X80079Y-32253D01*
X80123Y-32254D01*
X80167Y-32246D01*
X80208Y-32230D01*
X80246Y-32206D01*
X80278Y-32176D01*
X80289Y-32161D01*
X80294Y-32168D01*
X80325Y-32200D01*
X80361Y-32226D01*
X80402Y-32243D01*
X80445Y-32253D01*
X80489Y-32254D01*
X80533Y-32246D01*
X80575Y-32230D01*
X80612Y-32206D01*
X80644Y-32176D01*
X80659Y-32155D01*
X80725Y-32155D01*
X80746Y-32188D01*
X80777Y-32220D01*
X80814Y-32245D01*
X80854Y-32263D01*
X80898Y-32273D01*
X80942Y-32274D01*
X80986Y-32266D01*
X81027Y-32250D01*
X81065Y-32226D01*
X81097Y-32195D01*
X81122Y-32159D01*
X81124Y-32155D01*
X81740Y-32155D01*
X81731Y-32175D01*
X81722Y-32218D01*
X81722Y-32263D01*
X81730Y-32306D01*
X81746Y-32348D01*
X81770Y-32385D01*
X81801Y-32417D01*
X81837Y-32442D01*
X81878Y-32460D01*
X81921Y-32469D01*
X81966Y-32470D01*
X82009Y-32463D01*
X82051Y-32447D01*
X82088Y-32423D01*
X82121Y-32392D01*
X82146Y-32356D01*
X82164Y-32315D01*
X82174Y-32272D01*
X82174Y-32254D01*
X82182Y-32254D01*
X82226Y-32246D01*
X82267Y-32230D01*
X82305Y-32206D01*
X82337Y-32176D01*
X82352Y-32155D01*
X82628Y-32155D01*
X82627Y-32184D01*
X82635Y-32228D01*
X82652Y-32269D01*
X82676Y-32306D01*
X82706Y-32338D01*
X82743Y-32363D01*
X82784Y-32381D01*
X82827Y-32391D01*
X82871Y-32392D01*
X82915Y-32384D01*
X82956Y-32368D01*
X82994Y-32344D01*
X83026Y-32313D01*
X83052Y-32277D01*
X83070Y-32237D01*
X83080Y-32193D01*
X83080Y-32155D01*
X83218Y-32155D01*
X83218Y-32184D01*
X83226Y-32228D01*
X83242Y-32269D01*
X83266Y-32306D01*
X83297Y-32338D01*
X83333Y-32363D01*
X83374Y-32381D01*
X83417Y-32391D01*
X83462Y-32392D01*
X83506Y-32384D01*
X83547Y-32368D01*
X83584Y-32344D01*
X83617Y-32313D01*
X83642Y-32277D01*
X83660Y-32237D01*
X83670Y-32193D01*
X83671Y-32155D01*
X83934Y-32155D01*
X83955Y-32188D01*
X83986Y-32220D01*
X84022Y-32245D01*
X84025Y-32246D01*
X84025Y-33001D01*
X83197Y-33001D01*
X83220Y-32993D01*
X83258Y-32969D01*
X83290Y-32938D01*
X83315Y-32902D01*
X83333Y-32861D01*
X83343Y-32818D01*
X83344Y-32767D01*
X83335Y-32724D01*
X83318Y-32683D01*
X83294Y-32646D01*
X83262Y-32614D01*
X83226Y-32589D01*
X83185Y-32572D01*
X83141Y-32563D01*
X83097Y-32563D01*
X83053Y-32571D01*
X83012Y-32588D01*
X82975Y-32612D01*
X82943Y-32643D01*
X82918Y-32680D01*
X82901Y-32721D01*
X82891Y-32764D01*
X82891Y-32809D01*
X82899Y-32852D01*
X82915Y-32893D01*
X82939Y-32931D01*
X82970Y-32963D01*
X83007Y-32988D01*
X83037Y-33001D01*
X80939Y-33001D01*
X80949Y-32998D01*
X80986Y-32974D01*
X81018Y-32943D01*
X81044Y-32907D01*
X81062Y-32867D01*
X81072Y-32823D01*
X81072Y-32773D01*
X81064Y-32729D01*
X81047Y-32688D01*
X81022Y-32651D01*
X80991Y-32620D01*
X80954Y-32595D01*
X80913Y-32577D01*
X80870Y-32569D01*
X80825Y-32568D01*
X80782Y-32577D01*
X80741Y-32593D01*
X80703Y-32617D01*
X80672Y-32649D01*
X80647Y-32685D01*
X80629Y-32726D01*
X80620Y-32769D01*
X80619Y-32814D01*
X80627Y-32857D01*
X80644Y-32899D01*
X80668Y-32936D01*
X80699Y-32968D01*
X80735Y-32993D01*
X80754Y-33001D01*
X80462Y-33001D01*
X80462Y-32490D01*
X79379Y-32490D01*
X79379Y-34320D01*
X79366Y-34286D01*
X79341Y-34249D01*
X79310Y-34218D01*
X79273Y-34193D01*
X79232Y-34176D01*
X79189Y-34167D01*
X79144Y-34167D01*
X79101Y-34175D01*
X79059Y-34192D01*
X79022Y-34216D01*
X78991Y-34247D01*
X78966Y-34284D01*
X78948Y-34324D01*
X78939Y-34368D01*
X78938Y-34412D01*
X78946Y-34456D01*
X78963Y-34497D01*
X78987Y-34534D01*
X79017Y-34566D01*
X79054Y-34592D01*
X79095Y-34610D01*
X79138Y-34619D01*
X79182Y-34620D01*
X79226Y-34612D01*
X79267Y-34596D01*
X79305Y-34572D01*
X79337Y-34542D01*
X79363Y-34506D01*
X79379Y-34468D01*
X79379Y-34804D01*
X79357Y-34809D01*
X79315Y-34825D01*
X79278Y-34850D01*
X79247Y-34881D01*
X79221Y-34917D01*
X79204Y-34958D01*
X79195Y-35002D01*
X79194Y-35046D01*
X79202Y-35090D01*
X79218Y-35131D01*
X79242Y-35168D01*
X79273Y-35200D01*
X79310Y-35226D01*
X79350Y-35243D01*
X79379Y-35250D01*
X79379Y-35478D01*
X79357Y-35482D01*
X79315Y-35499D01*
X79278Y-35523D01*
X79247Y-35554D01*
X79221Y-35591D01*
X79204Y-35632D01*
X79195Y-35675D01*
X79194Y-35719D01*
X79202Y-35763D01*
X79218Y-35804D01*
X79242Y-35842D01*
X79273Y-35874D01*
X79310Y-35899D01*
X79350Y-35917D01*
X79394Y-35926D01*
X79438Y-35927D01*
X79482Y-35919D01*
X79523Y-35903D01*
X79561Y-35880D01*
X79593Y-35849D01*
X79619Y-35813D01*
X79637Y-35772D01*
X79644Y-35738D01*
X80206Y-35738D01*
X80206Y-35759D01*
X80214Y-35802D01*
X80230Y-35844D01*
X80254Y-35881D01*
X80285Y-35913D01*
X80322Y-35938D01*
X80362Y-35956D01*
X80406Y-35966D01*
X80450Y-35966D01*
X80494Y-35959D01*
X80535Y-35943D01*
X80573Y-35919D01*
X80605Y-35888D01*
X80630Y-35852D01*
X80648Y-35811D01*
X80658Y-35768D01*
X80659Y-35738D01*
X80659Y-35738D01*
X80659Y-35718D01*
X80659Y-35717D01*
X80659Y-35717D01*
X80659Y-35169D01*
X80660Y-35166D01*
X80670Y-35122D01*
X80671Y-35072D01*
X80662Y-35028D01*
X80659Y-35020D01*
X80659Y-34478D01*
X81413Y-34478D01*
X81415Y-34487D01*
X81431Y-34529D01*
X81455Y-34566D01*
X81486Y-34598D01*
X81522Y-34623D01*
X81563Y-34641D01*
X81606Y-34651D01*
X81651Y-34651D01*
X81695Y-34644D01*
X81736Y-34628D01*
X81773Y-34604D01*
X81806Y-34573D01*
X81831Y-34537D01*
X81849Y-34496D01*
X81853Y-34478D01*
X83667Y-34478D01*
X83654Y-34483D01*
X83617Y-34507D01*
X83585Y-34538D01*
X83560Y-34575D01*
X83543Y-34616D01*
X83533Y-34659D01*
X83533Y-34704D01*
X83541Y-34747D01*
X83557Y-34789D01*
X83581Y-34826D01*
X83612Y-34858D01*
X83648Y-34883D01*
X83689Y-34901D01*
X83732Y-34910D01*
X83777Y-34911D01*
X83821Y-34904D01*
X83862Y-34888D01*
X83899Y-34864D01*
X83932Y-34833D01*
X83957Y-34797D01*
X83975Y-34756D01*
X83985Y-34713D01*
X83986Y-34662D01*
X83977Y-34619D01*
X83960Y-34578D01*
X83936Y-34541D01*
X83904Y-34509D01*
X83868Y-34484D01*
X83852Y-34478D01*
X85099Y-34478D01*
X85092Y-34488D01*
X85074Y-34529D01*
X85065Y-34573D01*
X85064Y-34617D01*
X85072Y-34661D01*
X85089Y-34702D01*
X85113Y-34739D01*
X85143Y-34771D01*
X85180Y-34796D01*
X85221Y-34814D01*
X85246Y-34820D01*
X85246Y-35620D01*
X85215Y-35619D01*
X85171Y-35628D01*
X85130Y-35644D01*
X85093Y-35669D01*
X85061Y-35700D01*
X85036Y-35736D01*
X85019Y-35777D01*
X85010Y-35821D01*
X85009Y-35865D01*
X85017Y-35909D01*
X85033Y-35950D01*
X85057Y-35987D01*
X85088Y-36019D01*
X85125Y-36045D01*
X85165Y-36062D01*
X85209Y-36072D01*
X85246Y-36073D01*
X85246Y-36344D01*
X85223Y-36348D01*
X85182Y-36365D01*
X85144Y-36389D01*
X85113Y-36420D01*
X85088Y-36457D01*
X85070Y-36498D01*
X85061Y-36541D01*
X85060Y-36585D01*
X85068Y-36629D01*
X85085Y-36670D01*
X85109Y-36708D01*
X85138Y-36739D01*
X85113Y-36755D01*
X85081Y-36786D01*
X85056Y-36823D01*
X85039Y-36864D01*
X85029Y-36907D01*
X85029Y-36952D01*
X85037Y-36995D01*
X85053Y-37037D01*
X85077Y-37074D01*
X85108Y-37106D01*
X85144Y-37131D01*
X85185Y-37149D01*
X85228Y-37158D01*
X85273Y-37159D01*
X85317Y-37152D01*
X85358Y-37136D01*
X85383Y-37120D01*
X85384Y-37120D01*
X85391Y-37134D01*
X85391Y-37135D01*
X85392Y-37135D01*
X85401Y-37147D01*
X85411Y-37159D01*
X85412Y-37161D01*
X85412Y-37161D01*
X85412Y-37161D01*
X85413Y-37161D01*
X85515Y-37263D01*
X85527Y-37273D01*
X85539Y-37283D01*
X85540Y-37284D01*
X85540Y-37284D01*
X85554Y-37292D01*
X85567Y-37299D01*
X85568Y-37299D01*
X85569Y-37300D01*
X85584Y-37304D01*
X85599Y-37309D01*
X85599Y-37309D01*
X85600Y-37309D01*
X85616Y-37311D01*
X85631Y-37312D01*
X85633Y-37312D01*
X85633Y-37312D01*
X85633Y-37312D01*
X85633Y-37312D01*
X86030Y-37312D01*
X86015Y-37348D01*
X86006Y-37391D01*
X86005Y-37436D01*
X86013Y-37480D01*
X86029Y-37521D01*
X86054Y-37558D01*
X86084Y-37590D01*
X86121Y-37615D01*
X86161Y-37633D01*
X86205Y-37643D01*
X86249Y-37644D01*
X86293Y-37636D01*
X86334Y-37620D01*
X86372Y-37596D01*
X86404Y-37565D01*
X86430Y-37529D01*
X86448Y-37489D01*
X86449Y-37483D01*
X86463Y-37517D01*
X86487Y-37554D01*
X86517Y-37586D01*
X86554Y-37611D01*
X86595Y-37629D01*
X86638Y-37639D01*
X86682Y-37640D01*
X86726Y-37632D01*
X86767Y-37616D01*
X86805Y-37592D01*
X86837Y-37562D01*
X86863Y-37525D01*
X86881Y-37485D01*
X86891Y-37441D01*
X86891Y-37391D01*
X86883Y-37347D01*
X86866Y-37306D01*
X86841Y-37269D01*
X86818Y-37246D01*
X87211Y-37246D01*
X87214Y-37259D01*
X87230Y-37300D01*
X87254Y-37338D01*
X87285Y-37370D01*
X87301Y-37381D01*
X87287Y-37415D01*
X87277Y-37458D01*
X87277Y-37503D01*
X87285Y-37546D01*
X87301Y-37588D01*
X87305Y-37593D01*
X87298Y-37598D01*
X87266Y-37629D01*
X87241Y-37666D01*
X87224Y-37706D01*
X87214Y-37750D01*
X87214Y-37794D01*
X87222Y-37838D01*
X87238Y-37879D01*
X87262Y-37916D01*
X87293Y-37948D01*
X87329Y-37974D01*
X87370Y-37991D01*
X87414Y-38001D01*
X87458Y-38002D01*
X87502Y-37994D01*
X87543Y-37978D01*
X87580Y-37954D01*
X87613Y-37924D01*
X87638Y-37887D01*
X87656Y-37847D01*
X87666Y-37804D01*
X87667Y-37753D01*
X87658Y-37709D01*
X87641Y-37668D01*
X87639Y-37666D01*
X87643Y-37663D01*
X87676Y-37632D01*
X87701Y-37596D01*
X87719Y-37556D01*
X87729Y-37512D01*
X87730Y-37462D01*
X87721Y-37418D01*
X87704Y-37377D01*
X87680Y-37340D01*
X87648Y-37308D01*
X87635Y-37299D01*
X87648Y-37268D01*
X87658Y-37225D01*
X87659Y-37174D01*
X87650Y-37131D01*
X87633Y-37090D01*
X87609Y-37053D01*
X87578Y-37021D01*
X87541Y-36996D01*
X87500Y-36979D01*
X87456Y-36970D01*
X87443Y-36970D01*
X87433Y-36960D01*
X87431Y-36958D01*
X87986Y-36958D01*
X87986Y-36960D01*
X87994Y-36980D01*
X88001Y-36990D01*
X88001Y-37013D01*
X87995Y-37023D01*
X87987Y-37042D01*
X87982Y-37063D01*
X87982Y-37084D01*
X87982Y-37439D01*
X87986Y-37460D01*
X87994Y-37480D01*
X88001Y-37490D01*
X88001Y-37513D01*
X87995Y-37523D01*
X87987Y-37542D01*
X87982Y-37563D01*
X87982Y-37584D01*
X87982Y-37939D01*
X87986Y-37960D01*
X87994Y-37980D01*
X88001Y-37990D01*
X88001Y-38012D01*
X87995Y-38023D01*
X87986Y-38042D01*
X87982Y-38063D01*
X87982Y-38084D01*
X87982Y-38282D01*
X87956Y-38277D01*
X87912Y-38277D01*
X87868Y-38285D01*
X87827Y-38302D01*
X87790Y-38326D01*
X87758Y-38357D01*
X87733Y-38394D01*
X87716Y-38435D01*
X87707Y-38478D01*
X87706Y-38522D01*
X87714Y-38566D01*
X87730Y-38607D01*
X87754Y-38645D01*
X87785Y-38677D01*
X87822Y-38702D01*
X87862Y-38720D01*
X87906Y-38729D01*
X87950Y-38730D01*
X87982Y-38725D01*
X87982Y-38939D01*
X87986Y-38960D01*
X87994Y-38980D01*
X88001Y-38991D01*
X88001Y-39012D01*
X87995Y-39023D01*
X87986Y-39042D01*
X87982Y-39063D01*
X87982Y-39084D01*
X87982Y-39439D01*
X87986Y-39460D01*
X87994Y-39480D01*
X88001Y-39491D01*
X88001Y-39694D01*
X87971Y-39694D01*
X87927Y-39703D01*
X87886Y-39719D01*
X87849Y-39743D01*
X87817Y-39775D01*
X87792Y-39811D01*
X87775Y-39852D01*
X87766Y-39895D01*
X87765Y-39940D01*
X87773Y-39983D01*
X87789Y-40025D01*
X87813Y-40062D01*
X87844Y-40094D01*
X87881Y-40119D01*
X87921Y-40137D01*
X87965Y-40147D01*
X88001Y-40147D01*
X88001Y-42135D01*
G54D10*
G36*
X85246Y-34222D02*
X81928Y-34222D01*
X81928Y-33898D01*
X81919Y-33855D01*
X81902Y-33814D01*
X81878Y-33777D01*
X81846Y-33745D01*
X81810Y-33720D01*
X81769Y-33703D01*
X81725Y-33694D01*
X81681Y-33694D01*
X81637Y-33702D01*
X81596Y-33719D01*
X81559Y-33743D01*
X81527Y-33774D01*
X81502Y-33811D01*
X81485Y-33852D01*
X81475Y-33895D01*
X81475Y-33940D01*
X81483Y-33983D01*
X81499Y-34024D01*
X81523Y-34062D01*
X81554Y-34094D01*
X81591Y-34119D01*
X81631Y-34137D01*
X81675Y-34146D01*
X81719Y-34147D01*
X81763Y-34140D01*
X81804Y-34124D01*
X81842Y-34100D01*
X81874Y-34069D01*
X81899Y-34033D01*
X81917Y-33992D01*
X81927Y-33949D01*
X81928Y-33898D01*
X81928Y-34222D01*
X81735Y-34222D01*
X81701Y-34207D01*
X81657Y-34198D01*
X81613Y-34198D01*
X81569Y-34206D01*
X81531Y-34222D01*
X80403Y-34222D01*
X80403Y-34871D01*
X80380Y-34876D01*
X80339Y-34892D01*
X80302Y-34917D01*
X80270Y-34948D01*
X80245Y-34984D01*
X80228Y-35025D01*
X80218Y-35069D01*
X80218Y-35113D01*
X80226Y-35157D01*
X80242Y-35198D01*
X80266Y-35235D01*
X80297Y-35267D01*
X80333Y-35293D01*
X80374Y-35310D01*
X80403Y-35317D01*
X80403Y-35482D01*
X79635Y-35482D01*
X79635Y-35102D01*
X79637Y-35099D01*
X79646Y-35056D01*
X79647Y-35005D01*
X79639Y-34961D01*
X79635Y-34954D01*
X79635Y-32746D01*
X80206Y-32746D01*
X80206Y-33257D01*
X84637Y-33257D01*
X84656Y-33286D01*
X84674Y-33305D01*
X84672Y-33306D01*
X84640Y-33338D01*
X84615Y-33374D01*
X84598Y-33415D01*
X84588Y-33458D01*
X84588Y-33503D01*
X84596Y-33546D01*
X84612Y-33588D01*
X84636Y-33625D01*
X84667Y-33657D01*
X84703Y-33682D01*
X84744Y-33700D01*
X84788Y-33710D01*
X84832Y-33711D01*
X84876Y-33703D01*
X84917Y-33687D01*
X84955Y-33663D01*
X84987Y-33632D01*
X85012Y-33596D01*
X85030Y-33556D01*
X85040Y-33512D01*
X85041Y-33462D01*
X85032Y-33418D01*
X85015Y-33377D01*
X84991Y-33340D01*
X84975Y-33324D01*
X85006Y-33294D01*
X85032Y-33258D01*
X85032Y-33257D01*
X85246Y-33257D01*
X85246Y-34222D01*
X85246Y-34222D01*
G37*
G54D17*
X85246Y-34222D02*
X81928Y-34222D01*
X81928Y-33898D01*
X81919Y-33855D01*
X81902Y-33814D01*
X81878Y-33777D01*
X81846Y-33745D01*
X81810Y-33720D01*
X81769Y-33703D01*
X81725Y-33694D01*
X81681Y-33694D01*
X81637Y-33702D01*
X81596Y-33719D01*
X81559Y-33743D01*
X81527Y-33774D01*
X81502Y-33811D01*
X81485Y-33852D01*
X81475Y-33895D01*
X81475Y-33940D01*
X81483Y-33983D01*
X81499Y-34024D01*
X81523Y-34062D01*
X81554Y-34094D01*
X81591Y-34119D01*
X81631Y-34137D01*
X81675Y-34146D01*
X81719Y-34147D01*
X81763Y-34140D01*
X81804Y-34124D01*
X81842Y-34100D01*
X81874Y-34069D01*
X81899Y-34033D01*
X81917Y-33992D01*
X81927Y-33949D01*
X81928Y-33898D01*
X81928Y-34222D01*
X81735Y-34222D01*
X81701Y-34207D01*
X81657Y-34198D01*
X81613Y-34198D01*
X81569Y-34206D01*
X81531Y-34222D01*
X80403Y-34222D01*
X80403Y-34871D01*
X80380Y-34876D01*
X80339Y-34892D01*
X80302Y-34917D01*
X80270Y-34948D01*
X80245Y-34984D01*
X80228Y-35025D01*
X80218Y-35069D01*
X80218Y-35113D01*
X80226Y-35157D01*
X80242Y-35198D01*
X80266Y-35235D01*
X80297Y-35267D01*
X80333Y-35293D01*
X80374Y-35310D01*
X80403Y-35317D01*
X80403Y-35482D01*
X79635Y-35482D01*
X79635Y-35102D01*
X79637Y-35099D01*
X79646Y-35056D01*
X79647Y-35005D01*
X79639Y-34961D01*
X79635Y-34954D01*
X79635Y-32746D01*
X80206Y-32746D01*
X80206Y-33257D01*
X84637Y-33257D01*
X84656Y-33286D01*
X84674Y-33305D01*
X84672Y-33306D01*
X84640Y-33338D01*
X84615Y-33374D01*
X84598Y-33415D01*
X84588Y-33458D01*
X84588Y-33503D01*
X84596Y-33546D01*
X84612Y-33588D01*
X84636Y-33625D01*
X84667Y-33657D01*
X84703Y-33682D01*
X84744Y-33700D01*
X84788Y-33710D01*
X84832Y-33711D01*
X84876Y-33703D01*
X84917Y-33687D01*
X84955Y-33663D01*
X84987Y-33632D01*
X85012Y-33596D01*
X85030Y-33556D01*
X85040Y-33512D01*
X85041Y-33462D01*
X85032Y-33418D01*
X85015Y-33377D01*
X84991Y-33340D01*
X84975Y-33324D01*
X85006Y-33294D01*
X85032Y-33258D01*
X85032Y-33257D01*
X85246Y-33257D01*
X85246Y-34222D01*
G54D10*
G36*
X85246Y-33001D02*
X85010Y-33001D01*
X85010Y-33001D01*
X84979Y-32970D01*
X84942Y-32945D01*
X84901Y-32928D01*
X84858Y-32919D01*
X84814Y-32919D01*
X84770Y-32927D01*
X84729Y-32944D01*
X84692Y-32968D01*
X84660Y-32999D01*
X84658Y-33001D01*
X84281Y-33001D01*
X84281Y-32219D01*
X84306Y-32195D01*
X84331Y-32159D01*
X84349Y-32119D01*
X84359Y-32075D01*
X84360Y-32025D01*
X84351Y-31981D01*
X84334Y-31940D01*
X84310Y-31903D01*
X84278Y-31871D01*
X84242Y-31847D01*
X84201Y-31829D01*
X84157Y-31821D01*
X84113Y-31820D01*
X84069Y-31829D01*
X84028Y-31845D01*
X83991Y-31869D01*
X83961Y-31899D01*
X82352Y-31899D01*
X82341Y-31883D01*
X82310Y-31852D01*
X82273Y-31827D01*
X82232Y-31810D01*
X82189Y-31801D01*
X82144Y-31801D01*
X82101Y-31809D01*
X82059Y-31825D01*
X82022Y-31850D01*
X81991Y-31881D01*
X81978Y-31899D01*
X81097Y-31899D01*
X81070Y-31871D01*
X81033Y-31847D01*
X80992Y-31829D01*
X80948Y-31821D01*
X80904Y-31820D01*
X80860Y-31829D01*
X80819Y-31845D01*
X80782Y-31869D01*
X80752Y-31899D01*
X80659Y-31899D01*
X80648Y-31883D01*
X80617Y-31852D01*
X80580Y-31827D01*
X80539Y-31810D01*
X80496Y-31801D01*
X80451Y-31801D01*
X80408Y-31809D01*
X80367Y-31825D01*
X80329Y-31850D01*
X80298Y-31881D01*
X80289Y-31894D01*
X80282Y-31883D01*
X80251Y-31852D01*
X80214Y-31827D01*
X80173Y-31810D01*
X80130Y-31801D01*
X80085Y-31801D01*
X80042Y-31809D01*
X80000Y-31825D01*
X79963Y-31850D01*
X79932Y-31881D01*
X79919Y-31899D01*
X78592Y-31899D01*
X78592Y-40383D01*
X79694Y-40383D01*
X79694Y-40718D01*
X78275Y-40718D01*
X78275Y-40594D01*
X78277Y-40592D01*
X78309Y-40562D01*
X78335Y-40525D01*
X78353Y-40485D01*
X78363Y-40441D01*
X78364Y-40391D01*
X78355Y-40347D01*
X78338Y-40306D01*
X78314Y-40269D01*
X78282Y-40238D01*
X78257Y-40221D01*
X78257Y-31703D01*
X78258Y-31702D01*
X78290Y-31672D01*
X78315Y-31635D01*
X78333Y-31595D01*
X78343Y-31552D01*
X78344Y-31501D01*
X78335Y-31457D01*
X78318Y-31416D01*
X78294Y-31379D01*
X78282Y-31368D01*
X78366Y-31368D01*
X78371Y-31397D01*
X78388Y-31438D01*
X78412Y-31475D01*
X78443Y-31507D01*
X78479Y-31533D01*
X78520Y-31550D01*
X78563Y-31560D01*
X78608Y-31561D01*
X78651Y-31553D01*
X78693Y-31537D01*
X78730Y-31513D01*
X78762Y-31483D01*
X78788Y-31447D01*
X78806Y-31406D01*
X78815Y-31368D01*
X80262Y-31368D01*
X80265Y-31385D01*
X80281Y-31426D01*
X80305Y-31464D01*
X80336Y-31496D01*
X80373Y-31521D01*
X80413Y-31539D01*
X80457Y-31548D01*
X80501Y-31549D01*
X80545Y-31541D01*
X80586Y-31525D01*
X80624Y-31502D01*
X80656Y-31471D01*
X80682Y-31435D01*
X80700Y-31394D01*
X80706Y-31368D01*
X81446Y-31368D01*
X81455Y-31381D01*
X81486Y-31413D01*
X81522Y-31438D01*
X81563Y-31456D01*
X81606Y-31466D01*
X81651Y-31466D01*
X81695Y-31459D01*
X81736Y-31443D01*
X81773Y-31419D01*
X81780Y-31412D01*
X81781Y-31413D01*
X81818Y-31438D01*
X81858Y-31456D01*
X81902Y-31466D01*
X81946Y-31466D01*
X81990Y-31459D01*
X82031Y-31443D01*
X82069Y-31419D01*
X82096Y-31393D01*
X82096Y-31393D01*
X82133Y-31419D01*
X82173Y-31436D01*
X82217Y-31446D01*
X82261Y-31447D01*
X82305Y-31439D01*
X82346Y-31423D01*
X82384Y-31399D01*
X82401Y-31383D01*
X82411Y-31393D01*
X82448Y-31419D01*
X82488Y-31436D01*
X82532Y-31446D01*
X82576Y-31447D01*
X82620Y-31439D01*
X82661Y-31423D01*
X82699Y-31399D01*
X82731Y-31369D01*
X82731Y-31368D01*
X82736Y-31378D01*
X82742Y-31390D01*
X82743Y-31390D01*
X82743Y-31391D01*
X82751Y-31401D01*
X82759Y-31411D01*
X82760Y-31412D01*
X82760Y-31412D01*
X82760Y-31412D01*
X82760Y-31412D01*
X82973Y-31624D01*
X82983Y-31633D01*
X82993Y-31641D01*
X82993Y-31641D01*
X82994Y-31642D01*
X83005Y-31648D01*
X83016Y-31654D01*
X83017Y-31654D01*
X83017Y-31654D01*
X83030Y-31658D01*
X83042Y-31662D01*
X83042Y-31662D01*
X83043Y-31662D01*
X83056Y-31663D01*
X83068Y-31665D01*
X83070Y-31665D01*
X83070Y-31665D01*
X83070Y-31665D01*
X83070Y-31665D01*
X83322Y-31665D01*
X83335Y-31664D01*
X83348Y-31663D01*
X83348Y-31662D01*
X83349Y-31662D01*
X83361Y-31659D01*
X83374Y-31655D01*
X83374Y-31655D01*
X83375Y-31654D01*
X83386Y-31648D01*
X83397Y-31643D01*
X83398Y-31642D01*
X83399Y-31642D01*
X83408Y-31634D01*
X83418Y-31626D01*
X83419Y-31625D01*
X83419Y-31625D01*
X83419Y-31625D01*
X83420Y-31624D01*
X83677Y-31368D01*
X84531Y-31368D01*
X84530Y-31369D01*
X84505Y-31406D01*
X84487Y-31446D01*
X84478Y-31490D01*
X84478Y-31534D01*
X84486Y-31578D01*
X84502Y-31619D01*
X84526Y-31657D01*
X84557Y-31688D01*
X84593Y-31714D01*
X84634Y-31732D01*
X84677Y-31741D01*
X84722Y-31742D01*
X84743Y-31738D01*
X84758Y-31777D01*
X84782Y-31814D01*
X84813Y-31846D01*
X84849Y-31871D01*
X84890Y-31889D01*
X84933Y-31899D01*
X84978Y-31900D01*
X85021Y-31892D01*
X85063Y-31876D01*
X85100Y-31852D01*
X85118Y-31835D01*
X85128Y-31846D01*
X85164Y-31871D01*
X85205Y-31889D01*
X85246Y-31898D01*
X85246Y-33001D01*
X85246Y-33001D01*
G37*
G54D17*
X85246Y-33001D02*
X85010Y-33001D01*
X85010Y-33001D01*
X84979Y-32970D01*
X84942Y-32945D01*
X84901Y-32928D01*
X84858Y-32919D01*
X84814Y-32919D01*
X84770Y-32927D01*
X84729Y-32944D01*
X84692Y-32968D01*
X84660Y-32999D01*
X84658Y-33001D01*
X84281Y-33001D01*
X84281Y-32219D01*
X84306Y-32195D01*
X84331Y-32159D01*
X84349Y-32119D01*
X84359Y-32075D01*
X84360Y-32025D01*
X84351Y-31981D01*
X84334Y-31940D01*
X84310Y-31903D01*
X84278Y-31871D01*
X84242Y-31847D01*
X84201Y-31829D01*
X84157Y-31821D01*
X84113Y-31820D01*
X84069Y-31829D01*
X84028Y-31845D01*
X83991Y-31869D01*
X83961Y-31899D01*
X82352Y-31899D01*
X82341Y-31883D01*
X82310Y-31852D01*
X82273Y-31827D01*
X82232Y-31810D01*
X82189Y-31801D01*
X82144Y-31801D01*
X82101Y-31809D01*
X82059Y-31825D01*
X82022Y-31850D01*
X81991Y-31881D01*
X81978Y-31899D01*
X81097Y-31899D01*
X81070Y-31871D01*
X81033Y-31847D01*
X80992Y-31829D01*
X80948Y-31821D01*
X80904Y-31820D01*
X80860Y-31829D01*
X80819Y-31845D01*
X80782Y-31869D01*
X80752Y-31899D01*
X80659Y-31899D01*
X80648Y-31883D01*
X80617Y-31852D01*
X80580Y-31827D01*
X80539Y-31810D01*
X80496Y-31801D01*
X80451Y-31801D01*
X80408Y-31809D01*
X80367Y-31825D01*
X80329Y-31850D01*
X80298Y-31881D01*
X80289Y-31894D01*
X80282Y-31883D01*
X80251Y-31852D01*
X80214Y-31827D01*
X80173Y-31810D01*
X80130Y-31801D01*
X80085Y-31801D01*
X80042Y-31809D01*
X80000Y-31825D01*
X79963Y-31850D01*
X79932Y-31881D01*
X79919Y-31899D01*
X78592Y-31899D01*
X78592Y-40383D01*
X79694Y-40383D01*
X79694Y-40718D01*
X78275Y-40718D01*
X78275Y-40594D01*
X78277Y-40592D01*
X78309Y-40562D01*
X78335Y-40525D01*
X78353Y-40485D01*
X78363Y-40441D01*
X78364Y-40391D01*
X78355Y-40347D01*
X78338Y-40306D01*
X78314Y-40269D01*
X78282Y-40238D01*
X78257Y-40221D01*
X78257Y-31703D01*
X78258Y-31702D01*
X78290Y-31672D01*
X78315Y-31635D01*
X78333Y-31595D01*
X78343Y-31552D01*
X78344Y-31501D01*
X78335Y-31457D01*
X78318Y-31416D01*
X78294Y-31379D01*
X78282Y-31368D01*
X78366Y-31368D01*
X78371Y-31397D01*
X78388Y-31438D01*
X78412Y-31475D01*
X78443Y-31507D01*
X78479Y-31533D01*
X78520Y-31550D01*
X78563Y-31560D01*
X78608Y-31561D01*
X78651Y-31553D01*
X78693Y-31537D01*
X78730Y-31513D01*
X78762Y-31483D01*
X78788Y-31447D01*
X78806Y-31406D01*
X78815Y-31368D01*
X80262Y-31368D01*
X80265Y-31385D01*
X80281Y-31426D01*
X80305Y-31464D01*
X80336Y-31496D01*
X80373Y-31521D01*
X80413Y-31539D01*
X80457Y-31548D01*
X80501Y-31549D01*
X80545Y-31541D01*
X80586Y-31525D01*
X80624Y-31502D01*
X80656Y-31471D01*
X80682Y-31435D01*
X80700Y-31394D01*
X80706Y-31368D01*
X81446Y-31368D01*
X81455Y-31381D01*
X81486Y-31413D01*
X81522Y-31438D01*
X81563Y-31456D01*
X81606Y-31466D01*
X81651Y-31466D01*
X81695Y-31459D01*
X81736Y-31443D01*
X81773Y-31419D01*
X81780Y-31412D01*
X81781Y-31413D01*
X81818Y-31438D01*
X81858Y-31456D01*
X81902Y-31466D01*
X81946Y-31466D01*
X81990Y-31459D01*
X82031Y-31443D01*
X82069Y-31419D01*
X82096Y-31393D01*
X82096Y-31393D01*
X82133Y-31419D01*
X82173Y-31436D01*
X82217Y-31446D01*
X82261Y-31447D01*
X82305Y-31439D01*
X82346Y-31423D01*
X82384Y-31399D01*
X82401Y-31383D01*
X82411Y-31393D01*
X82448Y-31419D01*
X82488Y-31436D01*
X82532Y-31446D01*
X82576Y-31447D01*
X82620Y-31439D01*
X82661Y-31423D01*
X82699Y-31399D01*
X82731Y-31369D01*
X82731Y-31368D01*
X82736Y-31378D01*
X82742Y-31390D01*
X82743Y-31390D01*
X82743Y-31391D01*
X82751Y-31401D01*
X82759Y-31411D01*
X82760Y-31412D01*
X82760Y-31412D01*
X82760Y-31412D01*
X82760Y-31412D01*
X82973Y-31624D01*
X82983Y-31633D01*
X82993Y-31641D01*
X82993Y-31641D01*
X82994Y-31642D01*
X83005Y-31648D01*
X83016Y-31654D01*
X83017Y-31654D01*
X83017Y-31654D01*
X83030Y-31658D01*
X83042Y-31662D01*
X83042Y-31662D01*
X83043Y-31662D01*
X83056Y-31663D01*
X83068Y-31665D01*
X83070Y-31665D01*
X83070Y-31665D01*
X83070Y-31665D01*
X83070Y-31665D01*
X83322Y-31665D01*
X83335Y-31664D01*
X83348Y-31663D01*
X83348Y-31662D01*
X83349Y-31662D01*
X83361Y-31659D01*
X83374Y-31655D01*
X83374Y-31655D01*
X83375Y-31654D01*
X83386Y-31648D01*
X83397Y-31643D01*
X83398Y-31642D01*
X83399Y-31642D01*
X83408Y-31634D01*
X83418Y-31626D01*
X83419Y-31625D01*
X83419Y-31625D01*
X83419Y-31625D01*
X83420Y-31624D01*
X83677Y-31368D01*
X84531Y-31368D01*
X84530Y-31369D01*
X84505Y-31406D01*
X84487Y-31446D01*
X84478Y-31490D01*
X84478Y-31534D01*
X84486Y-31578D01*
X84502Y-31619D01*
X84526Y-31657D01*
X84557Y-31688D01*
X84593Y-31714D01*
X84634Y-31732D01*
X84677Y-31741D01*
X84722Y-31742D01*
X84743Y-31738D01*
X84758Y-31777D01*
X84782Y-31814D01*
X84813Y-31846D01*
X84849Y-31871D01*
X84890Y-31889D01*
X84933Y-31899D01*
X84978Y-31900D01*
X85021Y-31892D01*
X85063Y-31876D01*
X85100Y-31852D01*
X85118Y-31835D01*
X85128Y-31846D01*
X85164Y-31871D01*
X85205Y-31889D01*
X85246Y-31898D01*
X85246Y-33001D01*
G54D10*
G36*
X78001Y-40231D02*
X77995Y-40236D01*
X77963Y-40267D01*
X77938Y-40303D01*
X77920Y-40344D01*
X77911Y-40388D01*
X77911Y-40432D01*
X77919Y-40476D01*
X77935Y-40517D01*
X77959Y-40554D01*
X77990Y-40586D01*
X78000Y-40593D01*
X78000Y-40718D01*
X77885Y-40718D01*
X77878Y-40700D01*
X77864Y-40679D01*
X77864Y-38599D01*
X77855Y-38556D01*
X77838Y-38515D01*
X77814Y-38478D01*
X77782Y-38446D01*
X77745Y-38421D01*
X77705Y-38404D01*
X77661Y-38395D01*
X77617Y-38395D01*
X77573Y-38403D01*
X77532Y-38420D01*
X77495Y-38444D01*
X77463Y-38475D01*
X77438Y-38512D01*
X77420Y-38553D01*
X77411Y-38596D01*
X77411Y-38641D01*
X77419Y-38684D01*
X77435Y-38726D01*
X77459Y-38763D01*
X77490Y-38795D01*
X77526Y-38820D01*
X77567Y-38838D01*
X77610Y-38847D01*
X77655Y-38848D01*
X77698Y-38841D01*
X77740Y-38825D01*
X77777Y-38801D01*
X77809Y-38770D01*
X77835Y-38734D01*
X77853Y-38693D01*
X77863Y-38650D01*
X77864Y-38599D01*
X77864Y-40679D01*
X77853Y-40663D01*
X77822Y-40631D01*
X77785Y-40606D01*
X77744Y-40589D01*
X77700Y-40580D01*
X77656Y-40580D01*
X77612Y-40588D01*
X77571Y-40605D01*
X77534Y-40629D01*
X77502Y-40660D01*
X77477Y-40697D01*
X77468Y-40718D01*
X76998Y-40718D01*
X76998Y-39859D01*
X76989Y-39816D01*
X76972Y-39775D01*
X76947Y-39738D01*
X76919Y-39709D01*
X76919Y-38265D01*
X76910Y-38221D01*
X76893Y-38180D01*
X76869Y-38143D01*
X76837Y-38112D01*
X76801Y-38087D01*
X76760Y-38070D01*
X76716Y-38061D01*
X76672Y-38060D01*
X76628Y-38069D01*
X76587Y-38085D01*
X76550Y-38110D01*
X76518Y-38141D01*
X76493Y-38177D01*
X76476Y-38218D01*
X76466Y-38262D01*
X76466Y-38306D01*
X76474Y-38350D01*
X76490Y-38391D01*
X76514Y-38428D01*
X76545Y-38460D01*
X76581Y-38485D01*
X76622Y-38503D01*
X76665Y-38513D01*
X76710Y-38514D01*
X76754Y-38506D01*
X76795Y-38490D01*
X76832Y-38466D01*
X76865Y-38436D01*
X76890Y-38399D01*
X76908Y-38359D01*
X76918Y-38315D01*
X76919Y-38265D01*
X76919Y-39709D01*
X76916Y-39706D01*
X76879Y-39681D01*
X76838Y-39664D01*
X76795Y-39655D01*
X76751Y-39655D01*
X76707Y-39663D01*
X76666Y-39680D01*
X76629Y-39704D01*
X76597Y-39735D01*
X76572Y-39772D01*
X76554Y-39813D01*
X76545Y-39856D01*
X76544Y-39900D01*
X76552Y-39944D01*
X76569Y-39985D01*
X76593Y-40023D01*
X76595Y-40025D01*
X76577Y-40042D01*
X76552Y-40079D01*
X76535Y-40120D01*
X76525Y-40163D01*
X76525Y-40208D01*
X76533Y-40251D01*
X76549Y-40292D01*
X76573Y-40330D01*
X76604Y-40362D01*
X76640Y-40387D01*
X76681Y-40405D01*
X76725Y-40414D01*
X76769Y-40415D01*
X76813Y-40408D01*
X76854Y-40392D01*
X76892Y-40368D01*
X76924Y-40337D01*
X76949Y-40301D01*
X76967Y-40260D01*
X76977Y-40217D01*
X76978Y-40166D01*
X76969Y-40123D01*
X76952Y-40082D01*
X76928Y-40045D01*
X76943Y-40030D01*
X76969Y-39994D01*
X76987Y-39953D01*
X76997Y-39910D01*
X76998Y-39859D01*
X76998Y-40718D01*
X76407Y-40718D01*
X76407Y-38265D01*
X76398Y-38221D01*
X76381Y-38180D01*
X76357Y-38143D01*
X76326Y-38112D01*
X76289Y-38087D01*
X76248Y-38070D01*
X76204Y-38061D01*
X76160Y-38060D01*
X76116Y-38069D01*
X76075Y-38085D01*
X76038Y-38110D01*
X76006Y-38141D01*
X75981Y-38177D01*
X75964Y-38218D01*
X75955Y-38262D01*
X75954Y-38306D01*
X75962Y-38350D01*
X75978Y-38391D01*
X76002Y-38428D01*
X76033Y-38460D01*
X76070Y-38485D01*
X76110Y-38503D01*
X76154Y-38513D01*
X76198Y-38514D01*
X76242Y-38506D01*
X76283Y-38490D01*
X76321Y-38466D01*
X76353Y-38436D01*
X76378Y-38399D01*
X76396Y-38359D01*
X76406Y-38315D01*
X76407Y-38265D01*
X76407Y-40718D01*
X75866Y-40718D01*
X75159Y-40718D01*
X75159Y-39332D01*
X75150Y-39288D01*
X75133Y-39247D01*
X75109Y-39210D01*
X75078Y-39179D01*
X75041Y-39154D01*
X75000Y-39137D01*
X74956Y-39128D01*
X74912Y-39127D01*
X74868Y-39136D01*
X74827Y-39152D01*
X74790Y-39177D01*
X74758Y-39208D01*
X74733Y-39244D01*
X74716Y-39285D01*
X74707Y-39328D01*
X74706Y-39373D01*
X74714Y-39417D01*
X74730Y-39458D01*
X74754Y-39495D01*
X74785Y-39527D01*
X74822Y-39552D01*
X74862Y-39570D01*
X74906Y-39580D01*
X74950Y-39581D01*
X74994Y-39573D01*
X75035Y-39557D01*
X75073Y-39533D01*
X75105Y-39502D01*
X75130Y-39466D01*
X75148Y-39426D01*
X75158Y-39382D01*
X75159Y-39332D01*
X75159Y-40718D01*
X74478Y-40718D01*
X74478Y-40324D01*
X74490Y-40317D01*
X74522Y-40286D01*
X74548Y-40250D01*
X74566Y-40209D01*
X74576Y-40166D01*
X74576Y-40115D01*
X74568Y-40072D01*
X74551Y-40031D01*
X74526Y-39994D01*
X74495Y-39962D01*
X74478Y-39951D01*
X74478Y-39045D01*
X75895Y-39045D01*
X75895Y-38238D01*
X75907Y-38230D01*
X75939Y-38199D01*
X75965Y-38163D01*
X75983Y-38122D01*
X75993Y-38079D01*
X75994Y-38028D01*
X75985Y-37985D01*
X75968Y-37944D01*
X75943Y-37907D01*
X75912Y-37875D01*
X75895Y-37864D01*
X75895Y-32497D01*
X75907Y-32490D01*
X75939Y-32459D01*
X75965Y-32423D01*
X75983Y-32382D01*
X75993Y-32339D01*
X75994Y-32288D01*
X75985Y-32245D01*
X75968Y-32204D01*
X75943Y-32167D01*
X75912Y-32135D01*
X75895Y-32124D01*
X75895Y-31368D01*
X77953Y-31368D01*
X77943Y-31377D01*
X77918Y-31414D01*
X77901Y-31454D01*
X77892Y-31498D01*
X77891Y-31542D01*
X77899Y-31586D01*
X77915Y-31627D01*
X77939Y-31664D01*
X77970Y-31696D01*
X78001Y-31718D01*
X78001Y-40231D01*
X78001Y-40231D01*
G37*
G54D17*
X78001Y-40231D02*
X77995Y-40236D01*
X77963Y-40267D01*
X77938Y-40303D01*
X77920Y-40344D01*
X77911Y-40388D01*
X77911Y-40432D01*
X77919Y-40476D01*
X77935Y-40517D01*
X77959Y-40554D01*
X77990Y-40586D01*
X78000Y-40593D01*
X78000Y-40718D01*
X77885Y-40718D01*
X77878Y-40700D01*
X77864Y-40679D01*
X77864Y-38599D01*
X77855Y-38556D01*
X77838Y-38515D01*
X77814Y-38478D01*
X77782Y-38446D01*
X77745Y-38421D01*
X77705Y-38404D01*
X77661Y-38395D01*
X77617Y-38395D01*
X77573Y-38403D01*
X77532Y-38420D01*
X77495Y-38444D01*
X77463Y-38475D01*
X77438Y-38512D01*
X77420Y-38553D01*
X77411Y-38596D01*
X77411Y-38641D01*
X77419Y-38684D01*
X77435Y-38726D01*
X77459Y-38763D01*
X77490Y-38795D01*
X77526Y-38820D01*
X77567Y-38838D01*
X77610Y-38847D01*
X77655Y-38848D01*
X77698Y-38841D01*
X77740Y-38825D01*
X77777Y-38801D01*
X77809Y-38770D01*
X77835Y-38734D01*
X77853Y-38693D01*
X77863Y-38650D01*
X77864Y-38599D01*
X77864Y-40679D01*
X77853Y-40663D01*
X77822Y-40631D01*
X77785Y-40606D01*
X77744Y-40589D01*
X77700Y-40580D01*
X77656Y-40580D01*
X77612Y-40588D01*
X77571Y-40605D01*
X77534Y-40629D01*
X77502Y-40660D01*
X77477Y-40697D01*
X77468Y-40718D01*
X76998Y-40718D01*
X76998Y-39859D01*
X76989Y-39816D01*
X76972Y-39775D01*
X76947Y-39738D01*
X76919Y-39709D01*
X76919Y-38265D01*
X76910Y-38221D01*
X76893Y-38180D01*
X76869Y-38143D01*
X76837Y-38112D01*
X76801Y-38087D01*
X76760Y-38070D01*
X76716Y-38061D01*
X76672Y-38060D01*
X76628Y-38069D01*
X76587Y-38085D01*
X76550Y-38110D01*
X76518Y-38141D01*
X76493Y-38177D01*
X76476Y-38218D01*
X76466Y-38262D01*
X76466Y-38306D01*
X76474Y-38350D01*
X76490Y-38391D01*
X76514Y-38428D01*
X76545Y-38460D01*
X76581Y-38485D01*
X76622Y-38503D01*
X76665Y-38513D01*
X76710Y-38514D01*
X76754Y-38506D01*
X76795Y-38490D01*
X76832Y-38466D01*
X76865Y-38436D01*
X76890Y-38399D01*
X76908Y-38359D01*
X76918Y-38315D01*
X76919Y-38265D01*
X76919Y-39709D01*
X76916Y-39706D01*
X76879Y-39681D01*
X76838Y-39664D01*
X76795Y-39655D01*
X76751Y-39655D01*
X76707Y-39663D01*
X76666Y-39680D01*
X76629Y-39704D01*
X76597Y-39735D01*
X76572Y-39772D01*
X76554Y-39813D01*
X76545Y-39856D01*
X76544Y-39900D01*
X76552Y-39944D01*
X76569Y-39985D01*
X76593Y-40023D01*
X76595Y-40025D01*
X76577Y-40042D01*
X76552Y-40079D01*
X76535Y-40120D01*
X76525Y-40163D01*
X76525Y-40208D01*
X76533Y-40251D01*
X76549Y-40292D01*
X76573Y-40330D01*
X76604Y-40362D01*
X76640Y-40387D01*
X76681Y-40405D01*
X76725Y-40414D01*
X76769Y-40415D01*
X76813Y-40408D01*
X76854Y-40392D01*
X76892Y-40368D01*
X76924Y-40337D01*
X76949Y-40301D01*
X76967Y-40260D01*
X76977Y-40217D01*
X76978Y-40166D01*
X76969Y-40123D01*
X76952Y-40082D01*
X76928Y-40045D01*
X76943Y-40030D01*
X76969Y-39994D01*
X76987Y-39953D01*
X76997Y-39910D01*
X76998Y-39859D01*
X76998Y-40718D01*
X76407Y-40718D01*
X76407Y-38265D01*
X76398Y-38221D01*
X76381Y-38180D01*
X76357Y-38143D01*
X76326Y-38112D01*
X76289Y-38087D01*
X76248Y-38070D01*
X76204Y-38061D01*
X76160Y-38060D01*
X76116Y-38069D01*
X76075Y-38085D01*
X76038Y-38110D01*
X76006Y-38141D01*
X75981Y-38177D01*
X75964Y-38218D01*
X75955Y-38262D01*
X75954Y-38306D01*
X75962Y-38350D01*
X75978Y-38391D01*
X76002Y-38428D01*
X76033Y-38460D01*
X76070Y-38485D01*
X76110Y-38503D01*
X76154Y-38513D01*
X76198Y-38514D01*
X76242Y-38506D01*
X76283Y-38490D01*
X76321Y-38466D01*
X76353Y-38436D01*
X76378Y-38399D01*
X76396Y-38359D01*
X76406Y-38315D01*
X76407Y-38265D01*
X76407Y-40718D01*
X75866Y-40718D01*
X75159Y-40718D01*
X75159Y-39332D01*
X75150Y-39288D01*
X75133Y-39247D01*
X75109Y-39210D01*
X75078Y-39179D01*
X75041Y-39154D01*
X75000Y-39137D01*
X74956Y-39128D01*
X74912Y-39127D01*
X74868Y-39136D01*
X74827Y-39152D01*
X74790Y-39177D01*
X74758Y-39208D01*
X74733Y-39244D01*
X74716Y-39285D01*
X74707Y-39328D01*
X74706Y-39373D01*
X74714Y-39417D01*
X74730Y-39458D01*
X74754Y-39495D01*
X74785Y-39527D01*
X74822Y-39552D01*
X74862Y-39570D01*
X74906Y-39580D01*
X74950Y-39581D01*
X74994Y-39573D01*
X75035Y-39557D01*
X75073Y-39533D01*
X75105Y-39502D01*
X75130Y-39466D01*
X75148Y-39426D01*
X75158Y-39382D01*
X75159Y-39332D01*
X75159Y-40718D01*
X74478Y-40718D01*
X74478Y-40324D01*
X74490Y-40317D01*
X74522Y-40286D01*
X74548Y-40250D01*
X74566Y-40209D01*
X74576Y-40166D01*
X74576Y-40115D01*
X74568Y-40072D01*
X74551Y-40031D01*
X74526Y-39994D01*
X74495Y-39962D01*
X74478Y-39951D01*
X74478Y-39045D01*
X75895Y-39045D01*
X75895Y-38238D01*
X75907Y-38230D01*
X75939Y-38199D01*
X75965Y-38163D01*
X75983Y-38122D01*
X75993Y-38079D01*
X75994Y-38028D01*
X75985Y-37985D01*
X75968Y-37944D01*
X75943Y-37907D01*
X75912Y-37875D01*
X75895Y-37864D01*
X75895Y-32497D01*
X75907Y-32490D01*
X75939Y-32459D01*
X75965Y-32423D01*
X75983Y-32382D01*
X75993Y-32339D01*
X75994Y-32288D01*
X75985Y-32245D01*
X75968Y-32204D01*
X75943Y-32167D01*
X75912Y-32135D01*
X75895Y-32124D01*
X75895Y-31368D01*
X77953Y-31368D01*
X77943Y-31377D01*
X77918Y-31414D01*
X77901Y-31454D01*
X77892Y-31498D01*
X77891Y-31542D01*
X77899Y-31586D01*
X77915Y-31627D01*
X77939Y-31664D01*
X77970Y-31696D01*
X78001Y-31718D01*
X78001Y-40231D01*
M02*
