G04 (created by PCBNEW (2013-jul-07)-stable) date su 14. joulukuuta 2014 12.55.18*
%MOIN*%
G04 Gerber Fmt 3.4, Leading zero omitted, Abs format*
%FSLAX34Y34*%
G01*
G70*
G90*
G04 APERTURE LIST*
%ADD10C,0.005*%
%ADD11C,0.0019685*%
%ADD12C,0.00787402*%
%ADD13C,0.011811*%
G04 APERTURE END LIST*
G54D10*
G54D11*
X79035Y-44291D02*
X78641Y-42401D01*
X82185Y-44291D02*
X79035Y-44291D01*
X82578Y-42401D02*
X82185Y-44291D01*
X79035Y-27362D02*
X78641Y-29251D01*
X82185Y-27362D02*
X79035Y-27362D01*
X82578Y-29251D02*
X82185Y-27362D01*
X72952Y-42401D02*
X72952Y-29251D01*
X88267Y-42401D02*
X72952Y-42401D01*
X88267Y-29251D02*
X88267Y-42401D01*
X72952Y-29251D02*
X88267Y-29251D01*
G54D12*
X74291Y-40078D02*
X74409Y-40196D01*
X74409Y-40078D02*
X74291Y-40196D01*
X74311Y-31200D02*
X74429Y-31318D01*
X74429Y-31200D02*
X74311Y-31318D01*
X74547Y-31433D02*
X74665Y-31551D01*
X74665Y-31433D02*
X74547Y-31551D01*
X74602Y-37692D02*
X74720Y-37811D01*
X74720Y-37692D02*
X74602Y-37811D01*
X74606Y-30507D02*
X74724Y-30625D01*
X74724Y-30507D02*
X74606Y-30625D01*
X74637Y-38169D02*
X74755Y-38287D01*
X74755Y-38169D02*
X74637Y-38287D01*
X74704Y-32421D02*
X74822Y-32539D01*
X74822Y-32421D02*
X74704Y-32539D01*
X74704Y-32795D02*
X74822Y-32913D01*
X74822Y-32795D02*
X74704Y-32913D01*
X74744Y-40059D02*
X74862Y-40177D01*
X74862Y-40059D02*
X74744Y-40177D01*
X74759Y-41003D02*
X74877Y-41122D01*
X74877Y-41003D02*
X74759Y-41122D01*
X74830Y-30507D02*
X74948Y-30625D01*
X74948Y-30507D02*
X74830Y-30625D01*
X74874Y-39295D02*
X74992Y-39413D01*
X74992Y-39295D02*
X74874Y-39413D01*
X75059Y-40059D02*
X75177Y-40177D01*
X75177Y-40059D02*
X75059Y-40177D01*
X75102Y-31291D02*
X75220Y-31409D01*
X75220Y-31291D02*
X75102Y-31409D01*
X75232Y-30354D02*
X75350Y-30472D01*
X75350Y-30354D02*
X75232Y-30472D01*
X75374Y-31523D02*
X75492Y-31641D01*
X75492Y-31523D02*
X75374Y-31641D01*
X75708Y-32251D02*
X75826Y-32370D01*
X75826Y-32251D02*
X75708Y-32370D01*
X75708Y-37992D02*
X75826Y-38110D01*
X75826Y-37992D02*
X75708Y-38110D01*
X76122Y-38228D02*
X76240Y-38346D01*
X76240Y-38228D02*
X76122Y-38346D01*
X76633Y-38228D02*
X76751Y-38346D01*
X76751Y-38228D02*
X76633Y-38346D01*
X76692Y-40129D02*
X76811Y-40248D01*
X76811Y-40129D02*
X76692Y-40248D01*
X76712Y-39822D02*
X76830Y-39940D01*
X76830Y-39822D02*
X76712Y-39940D01*
X76771Y-30846D02*
X76889Y-30964D01*
X76889Y-30846D02*
X76771Y-30964D01*
X76870Y-31468D02*
X76988Y-31586D01*
X76988Y-31468D02*
X76870Y-31586D01*
X77055Y-30397D02*
X77173Y-30515D01*
X77173Y-30397D02*
X77055Y-30515D01*
X77224Y-31476D02*
X77342Y-31594D01*
X77342Y-31476D02*
X77224Y-31594D01*
X77578Y-38562D02*
X77696Y-38681D01*
X77696Y-38562D02*
X77578Y-38681D01*
X77578Y-39547D02*
X77696Y-39665D01*
X77696Y-39547D02*
X77578Y-39665D01*
X77618Y-40748D02*
X77736Y-40866D01*
X77736Y-40748D02*
X77618Y-40866D01*
X78059Y-31464D02*
X78177Y-31582D01*
X78177Y-31464D02*
X78059Y-31582D01*
X78078Y-40354D02*
X78196Y-40472D01*
X78196Y-40354D02*
X78078Y-40472D01*
X78531Y-31275D02*
X78649Y-31393D01*
X78649Y-31275D02*
X78531Y-31393D01*
X78649Y-40988D02*
X78767Y-41106D01*
X78767Y-40988D02*
X78649Y-41106D01*
X79106Y-34334D02*
X79224Y-34452D01*
X79224Y-34334D02*
X79106Y-34452D01*
X79291Y-36803D02*
X79409Y-36921D01*
X79409Y-36803D02*
X79291Y-36921D01*
X79346Y-36299D02*
X79464Y-36417D01*
X79464Y-36299D02*
X79346Y-36417D01*
X79362Y-34968D02*
X79480Y-35086D01*
X79480Y-34968D02*
X79362Y-35086D01*
X79362Y-35641D02*
X79480Y-35759D01*
X79480Y-35641D02*
X79362Y-35759D01*
X79547Y-38759D02*
X79665Y-38877D01*
X79665Y-38759D02*
X79547Y-38877D01*
X79586Y-40610D02*
X79704Y-40728D01*
X79704Y-40610D02*
X79586Y-40728D01*
X79606Y-32814D02*
X79724Y-32933D01*
X79724Y-32814D02*
X79606Y-32933D01*
X79771Y-39330D02*
X79889Y-39448D01*
X79889Y-39330D02*
X79771Y-39448D01*
X79795Y-38988D02*
X79913Y-39106D01*
X79913Y-38988D02*
X79795Y-39106D01*
X80000Y-40858D02*
X80118Y-40976D01*
X80118Y-40858D02*
X80000Y-40976D01*
X80047Y-31968D02*
X80165Y-32086D01*
X80165Y-31968D02*
X80047Y-32086D01*
X80082Y-38102D02*
X80200Y-38220D01*
X80200Y-38102D02*
X80082Y-38220D01*
X80169Y-38720D02*
X80287Y-38838D01*
X80287Y-38720D02*
X80169Y-38838D01*
X80354Y-35374D02*
X80472Y-35492D01*
X80472Y-35374D02*
X80354Y-35492D01*
X80374Y-35681D02*
X80492Y-35799D01*
X80492Y-35681D02*
X80374Y-35799D01*
X80385Y-35035D02*
X80503Y-35153D01*
X80503Y-35035D02*
X80385Y-35153D01*
X80413Y-31968D02*
X80531Y-32086D01*
X80531Y-31968D02*
X80413Y-32086D01*
X80425Y-31263D02*
X80543Y-31381D01*
X80543Y-31263D02*
X80425Y-31381D01*
X80433Y-30610D02*
X80551Y-30728D01*
X80551Y-30610D02*
X80433Y-30728D01*
X80464Y-38625D02*
X80582Y-38744D01*
X80582Y-38625D02*
X80464Y-38744D01*
X80484Y-39673D02*
X80602Y-39791D01*
X80602Y-39673D02*
X80484Y-39791D01*
X80511Y-37692D02*
X80629Y-37811D01*
X80629Y-37692D02*
X80511Y-37811D01*
X80787Y-32736D02*
X80905Y-32854D01*
X80905Y-32736D02*
X80787Y-32854D01*
X80866Y-31988D02*
X80984Y-32106D01*
X80984Y-31988D02*
X80866Y-32106D01*
X80925Y-36515D02*
X81043Y-36633D01*
X81043Y-36515D02*
X80925Y-36633D01*
X81082Y-37185D02*
X81200Y-37303D01*
X81200Y-37185D02*
X81082Y-37303D01*
X81314Y-41019D02*
X81433Y-41137D01*
X81433Y-41019D02*
X81314Y-41137D01*
X81472Y-37582D02*
X81590Y-37700D01*
X81590Y-37582D02*
X81472Y-37700D01*
X81515Y-35610D02*
X81633Y-35728D01*
X81633Y-35610D02*
X81515Y-35728D01*
X81515Y-40728D02*
X81633Y-40846D01*
X81633Y-40728D02*
X81515Y-40846D01*
X81543Y-38181D02*
X81661Y-38299D01*
X81661Y-38181D02*
X81543Y-38299D01*
X81574Y-31181D02*
X81692Y-31299D01*
X81692Y-31181D02*
X81574Y-31299D01*
X81574Y-34366D02*
X81692Y-34484D01*
X81692Y-34366D02*
X81574Y-34484D01*
X81594Y-39291D02*
X81712Y-39409D01*
X81712Y-39291D02*
X81594Y-39409D01*
X81642Y-33861D02*
X81761Y-33980D01*
X81761Y-33861D02*
X81642Y-33980D01*
X81763Y-38440D02*
X81881Y-38559D01*
X81881Y-38440D02*
X81763Y-38559D01*
X81791Y-37519D02*
X81909Y-37637D01*
X81909Y-37519D02*
X81791Y-37637D01*
X81830Y-38051D02*
X81948Y-38169D01*
X81948Y-38051D02*
X81830Y-38169D01*
X81870Y-31181D02*
X81988Y-31299D01*
X81988Y-31181D02*
X81870Y-31299D01*
X81889Y-32185D02*
X82007Y-32303D01*
X82007Y-32185D02*
X81889Y-32303D01*
X82062Y-40625D02*
X82181Y-40744D01*
X82181Y-40625D02*
X82062Y-40744D01*
X82066Y-40944D02*
X82185Y-41062D01*
X82185Y-40944D02*
X82066Y-41062D01*
X82106Y-31968D02*
X82224Y-32086D01*
X82224Y-31968D02*
X82106Y-32086D01*
X82106Y-37519D02*
X82224Y-37637D01*
X82224Y-37519D02*
X82106Y-37637D01*
X82185Y-31161D02*
X82303Y-31279D01*
X82303Y-31161D02*
X82185Y-31279D01*
X82200Y-39881D02*
X82318Y-40000D01*
X82318Y-39881D02*
X82200Y-40000D01*
X82370Y-40633D02*
X82488Y-40751D01*
X82488Y-40633D02*
X82370Y-40751D01*
X82421Y-40125D02*
X82539Y-40244D01*
X82539Y-40125D02*
X82421Y-40244D01*
X82500Y-31161D02*
X82618Y-31279D01*
X82618Y-31161D02*
X82500Y-31279D01*
X82500Y-32736D02*
X82618Y-32854D01*
X82618Y-32736D02*
X82500Y-32854D01*
X82578Y-36377D02*
X82696Y-36496D01*
X82696Y-36377D02*
X82578Y-36496D01*
X82795Y-32106D02*
X82913Y-32224D01*
X82913Y-32106D02*
X82795Y-32224D01*
X82866Y-40653D02*
X82984Y-40771D01*
X82984Y-40653D02*
X82866Y-40771D01*
X82874Y-38818D02*
X82992Y-38937D01*
X82992Y-38818D02*
X82874Y-38937D01*
X82893Y-36377D02*
X83011Y-36496D01*
X83011Y-36377D02*
X82893Y-36496D01*
X83058Y-32730D02*
X83177Y-32849D01*
X83177Y-32730D02*
X83058Y-32849D01*
X83169Y-38740D02*
X83287Y-38858D01*
X83287Y-38740D02*
X83169Y-38858D01*
X83224Y-39271D02*
X83342Y-39389D01*
X83342Y-39271D02*
X83224Y-39389D01*
X83248Y-37972D02*
X83366Y-38090D01*
X83366Y-37972D02*
X83248Y-38090D01*
X83248Y-38287D02*
X83366Y-38405D01*
X83366Y-38287D02*
X83248Y-38405D01*
X83385Y-32106D02*
X83503Y-32224D01*
X83503Y-32106D02*
X83385Y-32224D01*
X83405Y-31003D02*
X83523Y-31122D01*
X83523Y-31003D02*
X83405Y-31122D01*
X83602Y-35787D02*
X83720Y-35905D01*
X83720Y-35787D02*
X83602Y-35905D01*
X83700Y-34625D02*
X83818Y-34744D01*
X83818Y-34625D02*
X83700Y-34744D01*
X83728Y-30838D02*
X83846Y-30956D01*
X83846Y-30838D02*
X83728Y-30956D01*
X83744Y-39401D02*
X83862Y-39519D01*
X83862Y-39401D02*
X83744Y-39519D01*
X83799Y-37755D02*
X83917Y-37874D01*
X83917Y-37755D02*
X83799Y-37874D01*
X84035Y-30826D02*
X84153Y-30944D01*
X84153Y-30826D02*
X84035Y-30944D01*
X84074Y-31988D02*
X84192Y-32106D01*
X84192Y-31988D02*
X84074Y-32106D01*
X84133Y-40787D02*
X84251Y-40905D01*
X84251Y-40787D02*
X84133Y-40905D01*
X84330Y-39429D02*
X84448Y-39547D01*
X84448Y-39429D02*
X84330Y-39547D01*
X84350Y-30303D02*
X84468Y-30421D01*
X84468Y-30303D02*
X84350Y-30421D01*
X84350Y-30826D02*
X84468Y-30944D01*
X84468Y-30826D02*
X84350Y-30944D01*
X84370Y-40551D02*
X84488Y-40669D01*
X84488Y-40551D02*
X84370Y-40669D01*
X84625Y-29625D02*
X84744Y-29744D01*
X84744Y-29625D02*
X84625Y-29744D01*
X84645Y-31456D02*
X84763Y-31574D01*
X84763Y-31456D02*
X84645Y-31574D01*
X84704Y-40019D02*
X84822Y-40137D01*
X84822Y-40019D02*
X84704Y-40137D01*
X84704Y-41082D02*
X84822Y-41200D01*
X84822Y-41082D02*
X84704Y-41200D01*
X84744Y-38562D02*
X84862Y-38681D01*
X84862Y-38562D02*
X84744Y-38681D01*
X84755Y-33425D02*
X84874Y-33543D01*
X84874Y-33425D02*
X84755Y-33543D01*
X84755Y-34062D02*
X84874Y-34181D01*
X84874Y-34062D02*
X84755Y-34181D01*
X84763Y-32381D02*
X84881Y-32500D01*
X84881Y-32381D02*
X84763Y-32500D01*
X84763Y-37401D02*
X84881Y-37519D01*
X84881Y-37401D02*
X84763Y-37519D01*
X84763Y-37716D02*
X84881Y-37834D01*
X84881Y-37716D02*
X84763Y-37834D01*
X84775Y-33086D02*
X84893Y-33204D01*
X84893Y-33086D02*
X84775Y-33204D01*
X84822Y-39724D02*
X84940Y-39842D01*
X84940Y-39724D02*
X84822Y-39842D01*
X84862Y-38011D02*
X84980Y-38129D01*
X84980Y-38011D02*
X84862Y-38129D01*
X84862Y-38858D02*
X84980Y-38976D01*
X84980Y-38858D02*
X84862Y-38976D01*
X84901Y-31614D02*
X85019Y-31732D01*
X85019Y-31614D02*
X84901Y-31732D01*
X84960Y-30334D02*
X85078Y-30452D01*
X85078Y-30334D02*
X84960Y-30452D01*
X84970Y-39142D02*
X85089Y-39261D01*
X85089Y-39142D02*
X84970Y-39261D01*
X85019Y-29606D02*
X85137Y-29724D01*
X85137Y-29606D02*
X85019Y-29724D01*
X85059Y-39507D02*
X85177Y-39625D01*
X85177Y-39507D02*
X85059Y-39625D01*
X85074Y-41035D02*
X85192Y-41153D01*
X85192Y-41035D02*
X85074Y-41153D01*
X85125Y-39811D02*
X85244Y-39929D01*
X85244Y-39811D02*
X85125Y-39929D01*
X85145Y-38507D02*
X85263Y-38625D01*
X85263Y-38507D02*
X85145Y-38625D01*
X85149Y-35271D02*
X85267Y-35389D01*
X85267Y-35271D02*
X85149Y-35389D01*
X85177Y-35787D02*
X85295Y-35905D01*
X85295Y-35787D02*
X85177Y-35905D01*
X85196Y-36874D02*
X85314Y-36992D01*
X85314Y-36874D02*
X85196Y-36992D01*
X85200Y-40562D02*
X85318Y-40681D01*
X85318Y-40562D02*
X85200Y-40681D01*
X85216Y-31614D02*
X85334Y-31732D01*
X85334Y-31614D02*
X85216Y-31732D01*
X85216Y-41830D02*
X85334Y-41948D01*
X85334Y-41830D02*
X85216Y-41948D01*
X85226Y-38957D02*
X85345Y-39076D01*
X85345Y-38957D02*
X85226Y-39076D01*
X85228Y-36507D02*
X85346Y-36625D01*
X85346Y-36507D02*
X85228Y-36625D01*
X85232Y-34539D02*
X85350Y-34657D01*
X85350Y-34539D02*
X85232Y-34657D01*
X85237Y-39270D02*
X85356Y-39389D01*
X85356Y-39270D02*
X85237Y-39389D01*
X85334Y-41240D02*
X85452Y-41358D01*
X85452Y-41240D02*
X85334Y-41358D01*
X85429Y-40968D02*
X85547Y-41086D01*
X85547Y-40968D02*
X85429Y-41086D01*
X85433Y-30826D02*
X85551Y-30944D01*
X85551Y-30826D02*
X85433Y-30944D01*
X85472Y-31437D02*
X85590Y-31555D01*
X85590Y-31437D02*
X85472Y-31555D01*
X86165Y-38897D02*
X86283Y-39015D01*
X86283Y-38897D02*
X86165Y-39015D01*
X86173Y-37358D02*
X86291Y-37476D01*
X86291Y-37358D02*
X86173Y-37476D01*
X86185Y-33165D02*
X86303Y-33283D01*
X86303Y-33165D02*
X86185Y-33283D01*
X86188Y-33673D02*
X86307Y-33791D01*
X86307Y-33673D02*
X86188Y-33791D01*
X86196Y-36842D02*
X86314Y-36960D01*
X86314Y-36842D02*
X86196Y-36960D01*
X86200Y-36259D02*
X86318Y-36377D01*
X86318Y-36259D02*
X86200Y-36377D01*
X86220Y-35177D02*
X86338Y-35295D01*
X86338Y-35177D02*
X86220Y-35295D01*
X86220Y-38633D02*
X86338Y-38751D01*
X86338Y-38633D02*
X86220Y-38751D01*
X86224Y-31937D02*
X86342Y-32055D01*
X86342Y-31937D02*
X86224Y-32055D01*
X86228Y-40909D02*
X86346Y-41027D01*
X86346Y-40909D02*
X86228Y-41027D01*
X86232Y-35511D02*
X86350Y-35629D01*
X86350Y-35511D02*
X86232Y-35629D01*
X86232Y-35913D02*
X86350Y-36031D01*
X86350Y-35913D02*
X86232Y-36031D01*
X86240Y-34114D02*
X86358Y-34232D01*
X86358Y-34114D02*
X86240Y-34232D01*
X86255Y-32661D02*
X86374Y-32779D01*
X86374Y-32661D02*
X86255Y-32779D01*
X86393Y-38015D02*
X86511Y-38133D01*
X86511Y-38015D02*
X86393Y-38133D01*
X86429Y-34421D02*
X86547Y-34539D01*
X86547Y-34421D02*
X86429Y-34539D01*
X86606Y-37354D02*
X86724Y-37472D01*
X86724Y-37354D02*
X86606Y-37472D01*
X86633Y-36555D02*
X86751Y-36673D01*
X86751Y-36555D02*
X86633Y-36673D01*
X86700Y-38102D02*
X86818Y-38220D01*
X86818Y-38102D02*
X86700Y-38220D01*
X86751Y-29980D02*
X86870Y-30098D01*
X86870Y-29980D02*
X86751Y-30098D01*
X86783Y-37807D02*
X86901Y-37925D01*
X86901Y-37807D02*
X86783Y-37925D01*
X86803Y-41850D02*
X86921Y-41968D01*
X86921Y-41850D02*
X86803Y-41968D01*
X87129Y-30677D02*
X87248Y-30795D01*
X87248Y-30677D02*
X87129Y-30795D01*
X87185Y-33208D02*
X87303Y-33326D01*
X87303Y-33208D02*
X87185Y-33326D01*
X87204Y-35759D02*
X87322Y-35877D01*
X87322Y-35759D02*
X87204Y-35877D01*
X87374Y-37137D02*
X87492Y-37255D01*
X87492Y-37137D02*
X87374Y-37255D01*
X87381Y-37716D02*
X87500Y-37834D01*
X87500Y-37716D02*
X87381Y-37834D01*
X87444Y-37425D02*
X87562Y-37543D01*
X87562Y-37425D02*
X87444Y-37543D01*
X87531Y-29901D02*
X87649Y-30019D01*
X87649Y-29901D02*
X87531Y-30019D01*
X87846Y-32976D02*
X87964Y-33094D01*
X87964Y-32976D02*
X87846Y-33094D01*
X87874Y-38444D02*
X87992Y-38562D01*
X87992Y-38444D02*
X87874Y-38562D01*
X87933Y-39862D02*
X88051Y-39980D01*
X88051Y-39862D02*
X87933Y-39980D01*
X73522Y-31731D02*
G75*
G03X73522Y-31731I-78J0D01*
G74*
G01*
X73562Y-31692D02*
X73325Y-31692D01*
X73562Y-31770D02*
X73325Y-31770D01*
X73325Y-31692D02*
G75*
G03X73325Y-31770I0J-39D01*
G74*
G01*
X73562Y-31770D02*
G75*
G03X73562Y-31692I0J39D01*
G74*
G01*
X73522Y-38581D02*
G75*
G03X73522Y-38581I-78J0D01*
G74*
G01*
X73562Y-38542D02*
X73325Y-38542D01*
X73562Y-38620D02*
X73325Y-38620D01*
X73325Y-38542D02*
G75*
G03X73325Y-38620I0J-39D01*
G74*
G01*
X73562Y-38620D02*
G75*
G03X73562Y-38542I0J39D01*
G74*
G01*
X73425Y-29775D02*
X73425Y-30011D01*
X73307Y-29893D02*
X73543Y-29893D01*
X73425Y-30275D02*
X73425Y-30511D01*
X73307Y-30393D02*
X73543Y-30393D01*
X73425Y-30775D02*
X73425Y-31011D01*
X73307Y-30893D02*
X73543Y-30893D01*
X73500Y-39131D02*
X73500Y-39368D01*
X73381Y-39250D02*
X73618Y-39250D01*
X73500Y-39631D02*
X73500Y-39868D01*
X73381Y-39750D02*
X73618Y-39750D01*
X73500Y-40131D02*
X73500Y-40368D01*
X73381Y-40250D02*
X73618Y-40250D01*
X73500Y-40631D02*
X73500Y-40868D01*
X73381Y-40750D02*
X73618Y-40750D01*
X87755Y-30433D02*
X87755Y-30669D01*
X87637Y-30551D02*
X87874Y-30551D01*
X73050Y-30349D02*
X73050Y-30154D01*
X72855Y-30154D01*
X72855Y-30349D01*
X73050Y-30349D01*
X73050Y-30849D02*
X73050Y-30654D01*
X72855Y-30654D01*
X72855Y-30849D01*
X73050Y-30849D01*
X73050Y-40998D02*
X73050Y-40803D01*
X72855Y-40803D01*
X72855Y-40998D01*
X73050Y-40998D01*
X73050Y-41498D02*
X73050Y-41303D01*
X72855Y-41303D01*
X72855Y-41498D01*
X73050Y-41498D01*
X73597Y-41347D02*
X73597Y-41152D01*
X73402Y-41152D01*
X73402Y-41347D01*
X73597Y-41347D01*
X73597Y-41847D02*
X73597Y-41652D01*
X73402Y-41652D01*
X73402Y-41847D01*
X73597Y-41847D01*
X77550Y-42499D02*
X77550Y-42303D01*
X77355Y-42303D01*
X77355Y-42499D01*
X77550Y-42499D01*
X78050Y-42499D02*
X78050Y-42303D01*
X77855Y-42303D01*
X77855Y-42499D01*
X78050Y-42499D01*
X83365Y-29349D02*
X83365Y-29154D01*
X83170Y-29154D01*
X83170Y-29349D01*
X83365Y-29349D01*
X83365Y-42499D02*
X83365Y-42304D01*
X83170Y-42304D01*
X83170Y-42499D01*
X83365Y-42499D01*
X83865Y-29349D02*
X83865Y-29154D01*
X83670Y-29154D01*
X83670Y-29349D01*
X83865Y-29349D01*
X83865Y-42499D02*
X83865Y-42304D01*
X83670Y-42304D01*
X83670Y-42499D01*
X83865Y-42499D01*
X84365Y-29349D02*
X84365Y-29154D01*
X84170Y-29154D01*
X84170Y-29349D01*
X84365Y-29349D01*
X84865Y-29349D02*
X84865Y-29154D01*
X84670Y-29154D01*
X84670Y-29349D01*
X84865Y-29349D01*
X84865Y-42499D02*
X84865Y-42304D01*
X84670Y-42304D01*
X84670Y-42499D01*
X84865Y-42499D01*
X85365Y-29349D02*
X85365Y-29154D01*
X85170Y-29154D01*
X85170Y-29349D01*
X85365Y-29349D01*
X85365Y-42499D02*
X85365Y-42304D01*
X85170Y-42304D01*
X85170Y-42499D01*
X85365Y-42499D01*
X85865Y-29349D02*
X85865Y-29154D01*
X85670Y-29154D01*
X85670Y-29349D01*
X85865Y-29349D01*
X85865Y-42499D02*
X85865Y-42304D01*
X85670Y-42304D01*
X85670Y-42499D01*
X85865Y-42499D01*
X86365Y-29349D02*
X86365Y-29154D01*
X86170Y-29154D01*
X86170Y-29349D01*
X86365Y-29349D01*
X86365Y-42499D02*
X86365Y-42304D01*
X86170Y-42304D01*
X86170Y-42499D01*
X86365Y-42499D01*
X86865Y-29349D02*
X86865Y-29154D01*
X86670Y-29154D01*
X86670Y-29349D01*
X86865Y-29349D01*
X86865Y-42499D02*
X86865Y-42304D01*
X86670Y-42304D01*
X86670Y-42499D01*
X86865Y-42499D01*
X87365Y-29349D02*
X87365Y-29154D01*
X87170Y-29154D01*
X87170Y-29349D01*
X87365Y-29349D01*
X87365Y-42499D02*
X87365Y-42304D01*
X87170Y-42304D01*
X87170Y-42499D01*
X87365Y-42499D01*
X88365Y-38349D02*
X88365Y-38154D01*
X88170Y-38154D01*
X88170Y-38349D01*
X88365Y-38349D01*
X88365Y-30349D02*
X88365Y-30154D01*
X88170Y-30154D01*
X88170Y-30349D01*
X88365Y-30349D01*
X88365Y-30849D02*
X88365Y-30654D01*
X88170Y-30654D01*
X88170Y-30849D01*
X88365Y-30849D01*
X88365Y-31349D02*
X88365Y-31154D01*
X88170Y-31154D01*
X88170Y-31349D01*
X88365Y-31349D01*
X88365Y-31849D02*
X88365Y-31654D01*
X88170Y-31654D01*
X88170Y-31849D01*
X88365Y-31849D01*
X88365Y-32349D02*
X88365Y-32154D01*
X88170Y-32154D01*
X88170Y-32349D01*
X88365Y-32349D01*
X88365Y-32849D02*
X88365Y-32654D01*
X88170Y-32654D01*
X88170Y-32849D01*
X88365Y-32849D01*
X88365Y-33349D02*
X88365Y-33154D01*
X88170Y-33154D01*
X88170Y-33349D01*
X88365Y-33349D01*
X88365Y-33849D02*
X88365Y-33654D01*
X88170Y-33654D01*
X88170Y-33849D01*
X88365Y-33849D01*
X88365Y-35349D02*
X88365Y-35154D01*
X88170Y-35154D01*
X88170Y-35349D01*
X88365Y-35349D01*
X88365Y-35849D02*
X88365Y-35654D01*
X88170Y-35654D01*
X88170Y-35849D01*
X88365Y-35849D01*
X88365Y-36349D02*
X88365Y-36154D01*
X88170Y-36154D01*
X88170Y-36349D01*
X88365Y-36349D01*
X88365Y-36849D02*
X88365Y-36654D01*
X88170Y-36654D01*
X88170Y-36849D01*
X88365Y-36849D01*
X88365Y-37349D02*
X88365Y-37154D01*
X88170Y-37154D01*
X88170Y-37349D01*
X88365Y-37349D01*
X88365Y-37849D02*
X88365Y-37654D01*
X88170Y-37654D01*
X88170Y-37849D01*
X88365Y-37849D01*
X72952Y-39539D02*
X73090Y-39401D01*
X72952Y-39263D01*
X72814Y-39401D01*
X72952Y-39539D01*
X77452Y-29389D02*
X77590Y-29251D01*
X77452Y-29113D01*
X77314Y-29251D01*
X77452Y-29389D01*
X77952Y-29389D02*
X78090Y-29251D01*
X77952Y-29113D01*
X77814Y-29251D01*
X77952Y-29389D01*
X88267Y-38889D02*
X88405Y-38751D01*
X88267Y-38613D01*
X88129Y-38751D01*
X88267Y-38889D01*
X88267Y-39389D02*
X88405Y-39251D01*
X88267Y-39113D01*
X88129Y-39251D01*
X88267Y-39389D01*
X82480Y-30433D02*
X82874Y-30826D01*
X82874Y-30433D02*
X82480Y-30826D01*
X82874Y-30629D02*
G75*
G03X82874Y-30629I-196J0D01*
G74*
G01*
X80019Y-27755D02*
X81200Y-28936D01*
X81200Y-27755D02*
X80019Y-28936D01*
X80610Y-27755D02*
X80610Y-28936D01*
X80019Y-28346D02*
X81200Y-28346D01*
X80019Y-42716D02*
X81200Y-43897D01*
X81200Y-42716D02*
X80019Y-43897D01*
X80610Y-42716D02*
X80610Y-43897D01*
X80019Y-43307D02*
X81200Y-43307D01*
G54D13*
X74011Y-46078D02*
X74011Y-44897D01*
X74292Y-44897D01*
X74461Y-44953D01*
X74573Y-45066D01*
X74630Y-45178D01*
X74686Y-45403D01*
X74686Y-45572D01*
X74630Y-45797D01*
X74573Y-45909D01*
X74461Y-46022D01*
X74292Y-46078D01*
X74011Y-46078D01*
X75192Y-46078D02*
X75192Y-45291D01*
X75192Y-45516D02*
X75248Y-45403D01*
X75305Y-45347D01*
X75417Y-45291D01*
X75530Y-45291D01*
X75923Y-46078D02*
X75923Y-45291D01*
X75923Y-44897D02*
X75867Y-44953D01*
X75923Y-45009D01*
X75980Y-44953D01*
X75923Y-44897D01*
X75923Y-45009D01*
X76654Y-46078D02*
X76542Y-46022D01*
X76486Y-45909D01*
X76486Y-44897D01*
X77273Y-46078D02*
X77161Y-46022D01*
X77104Y-45909D01*
X77104Y-44897D01*
X78623Y-46078D02*
X78623Y-44897D01*
X79017Y-45741D01*
X79410Y-44897D01*
X79410Y-46078D01*
X80479Y-46078D02*
X80479Y-45459D01*
X80423Y-45347D01*
X80310Y-45291D01*
X80085Y-45291D01*
X79973Y-45347D01*
X80479Y-46022D02*
X80366Y-46078D01*
X80085Y-46078D01*
X79973Y-46022D01*
X79917Y-45909D01*
X79917Y-45797D01*
X79973Y-45684D01*
X80085Y-45628D01*
X80366Y-45628D01*
X80479Y-45572D01*
X81041Y-45291D02*
X81041Y-46472D01*
X81041Y-45347D02*
X81154Y-45291D01*
X81379Y-45291D01*
X81491Y-45347D01*
X81548Y-45403D01*
X81604Y-45516D01*
X81604Y-45853D01*
X81548Y-45965D01*
X81491Y-46022D01*
X81379Y-46078D01*
X81154Y-46078D01*
X81041Y-46022D01*
X82110Y-45965D02*
X82166Y-46022D01*
X82110Y-46078D01*
X82054Y-46022D01*
X82110Y-45965D01*
X82110Y-46078D01*
X82110Y-45347D02*
X82166Y-45403D01*
X82110Y-45459D01*
X82054Y-45403D01*
X82110Y-45347D01*
X82110Y-45459D01*
X72824Y-48021D02*
X72942Y-48139D01*
X72942Y-48021D02*
X72824Y-48139D01*
X74236Y-47377D02*
X74348Y-47377D01*
X74461Y-47433D01*
X74517Y-47490D01*
X74573Y-47602D01*
X74630Y-47827D01*
X74630Y-48108D01*
X74573Y-48333D01*
X74517Y-48446D01*
X74461Y-48502D01*
X74348Y-48558D01*
X74236Y-48558D01*
X74124Y-48502D01*
X74067Y-48446D01*
X74011Y-48333D01*
X73955Y-48108D01*
X73955Y-47827D01*
X74011Y-47602D01*
X74067Y-47490D01*
X74124Y-47433D01*
X74236Y-47377D01*
X75136Y-48446D02*
X75192Y-48502D01*
X75136Y-48558D01*
X75080Y-48502D01*
X75136Y-48446D01*
X75136Y-48558D01*
X75586Y-47377D02*
X76317Y-47377D01*
X75923Y-47827D01*
X76092Y-47827D01*
X76205Y-47883D01*
X76261Y-47940D01*
X76317Y-48052D01*
X76317Y-48333D01*
X76261Y-48446D01*
X76205Y-48502D01*
X76092Y-48558D01*
X75755Y-48558D01*
X75642Y-48502D01*
X75586Y-48446D01*
X77048Y-47377D02*
X77161Y-47377D01*
X77273Y-47433D01*
X77329Y-47490D01*
X77386Y-47602D01*
X77442Y-47827D01*
X77442Y-48108D01*
X77386Y-48333D01*
X77329Y-48446D01*
X77273Y-48502D01*
X77161Y-48558D01*
X77048Y-48558D01*
X76936Y-48502D01*
X76879Y-48446D01*
X76823Y-48333D01*
X76767Y-48108D01*
X76767Y-47827D01*
X76823Y-47602D01*
X76879Y-47490D01*
X76936Y-47433D01*
X77048Y-47377D01*
X77948Y-48558D02*
X77948Y-47771D01*
X77948Y-47883D02*
X78004Y-47827D01*
X78117Y-47771D01*
X78285Y-47771D01*
X78398Y-47827D01*
X78454Y-47940D01*
X78454Y-48558D01*
X78454Y-47940D02*
X78510Y-47827D01*
X78623Y-47771D01*
X78792Y-47771D01*
X78904Y-47827D01*
X78960Y-47940D01*
X78960Y-48558D01*
X79523Y-48558D02*
X79523Y-47771D01*
X79523Y-47883D02*
X79579Y-47827D01*
X79692Y-47771D01*
X79860Y-47771D01*
X79973Y-47827D01*
X80029Y-47940D01*
X80029Y-48558D01*
X80029Y-47940D02*
X80085Y-47827D01*
X80198Y-47771D01*
X80366Y-47771D01*
X80479Y-47827D01*
X80535Y-47940D01*
X80535Y-48558D01*
X82841Y-47321D02*
X81829Y-48839D01*
X84360Y-47377D02*
X84472Y-47377D01*
X84585Y-47433D01*
X84641Y-47490D01*
X84697Y-47602D01*
X84753Y-47827D01*
X84753Y-48108D01*
X84697Y-48333D01*
X84641Y-48446D01*
X84585Y-48502D01*
X84472Y-48558D01*
X84360Y-48558D01*
X84247Y-48502D01*
X84191Y-48446D01*
X84135Y-48333D01*
X84079Y-48108D01*
X84079Y-47827D01*
X84135Y-47602D01*
X84191Y-47490D01*
X84247Y-47433D01*
X84360Y-47377D01*
X85260Y-48446D02*
X85316Y-48502D01*
X85260Y-48558D01*
X85203Y-48502D01*
X85260Y-48446D01*
X85260Y-48558D01*
X86047Y-47377D02*
X86160Y-47377D01*
X86272Y-47433D01*
X86328Y-47490D01*
X86384Y-47602D01*
X86441Y-47827D01*
X86441Y-48108D01*
X86384Y-48333D01*
X86328Y-48446D01*
X86272Y-48502D01*
X86160Y-48558D01*
X86047Y-48558D01*
X85935Y-48502D01*
X85878Y-48446D01*
X85822Y-48333D01*
X85766Y-48108D01*
X85766Y-47827D01*
X85822Y-47602D01*
X85878Y-47490D01*
X85935Y-47433D01*
X86047Y-47377D01*
X87566Y-48558D02*
X86891Y-48558D01*
X87228Y-48558D02*
X87228Y-47377D01*
X87116Y-47546D01*
X87003Y-47658D01*
X86891Y-47715D01*
X88016Y-47490D02*
X88072Y-47433D01*
X88184Y-47377D01*
X88465Y-47377D01*
X88578Y-47433D01*
X88634Y-47490D01*
X88690Y-47602D01*
X88690Y-47715D01*
X88634Y-47883D01*
X87959Y-48558D01*
X88690Y-48558D01*
X89140Y-47377D02*
X89140Y-47602D01*
X89590Y-47377D02*
X89590Y-47602D01*
X91334Y-49008D02*
X91278Y-48952D01*
X91165Y-48783D01*
X91109Y-48671D01*
X91053Y-48502D01*
X90996Y-48221D01*
X90996Y-47996D01*
X91053Y-47715D01*
X91109Y-47546D01*
X91165Y-47433D01*
X91278Y-47265D01*
X91334Y-47208D01*
X92402Y-48558D02*
X91728Y-48558D01*
X92065Y-48558D02*
X92065Y-47377D01*
X91953Y-47546D01*
X91840Y-47658D01*
X91728Y-47715D01*
X92796Y-47377D02*
X93584Y-47377D01*
X93077Y-48558D01*
X94540Y-47377D02*
X94315Y-47377D01*
X94202Y-47433D01*
X94146Y-47490D01*
X94034Y-47658D01*
X93977Y-47883D01*
X93977Y-48333D01*
X94034Y-48446D01*
X94090Y-48502D01*
X94202Y-48558D01*
X94427Y-48558D01*
X94540Y-48502D01*
X94596Y-48446D01*
X94652Y-48333D01*
X94652Y-48052D01*
X94596Y-47940D01*
X94540Y-47883D01*
X94427Y-47827D01*
X94202Y-47827D01*
X94090Y-47883D01*
X94034Y-47940D01*
X93977Y-48052D01*
X96058Y-48558D02*
X96058Y-47377D01*
X96564Y-48558D02*
X96564Y-47940D01*
X96508Y-47827D01*
X96396Y-47771D01*
X96227Y-47771D01*
X96115Y-47827D01*
X96058Y-47883D01*
X97296Y-48558D02*
X97183Y-48502D01*
X97127Y-48446D01*
X97071Y-48333D01*
X97071Y-47996D01*
X97127Y-47883D01*
X97183Y-47827D01*
X97296Y-47771D01*
X97464Y-47771D01*
X97577Y-47827D01*
X97633Y-47883D01*
X97689Y-47996D01*
X97689Y-48333D01*
X97633Y-48446D01*
X97577Y-48502D01*
X97464Y-48558D01*
X97296Y-48558D01*
X98364Y-48558D02*
X98252Y-48502D01*
X98196Y-48390D01*
X98196Y-47377D01*
X99264Y-48502D02*
X99152Y-48558D01*
X98927Y-48558D01*
X98814Y-48502D01*
X98758Y-48390D01*
X98758Y-47940D01*
X98814Y-47827D01*
X98927Y-47771D01*
X99152Y-47771D01*
X99264Y-47827D01*
X99320Y-47940D01*
X99320Y-48052D01*
X98758Y-48165D01*
X99770Y-48502D02*
X99883Y-48558D01*
X100108Y-48558D01*
X100220Y-48502D01*
X100276Y-48390D01*
X100276Y-48333D01*
X100220Y-48221D01*
X100108Y-48165D01*
X99939Y-48165D01*
X99827Y-48108D01*
X99770Y-47996D01*
X99770Y-47940D01*
X99827Y-47827D01*
X99939Y-47771D01*
X100108Y-47771D01*
X100220Y-47827D01*
X100670Y-49008D02*
X100726Y-48952D01*
X100839Y-48783D01*
X100895Y-48671D01*
X100951Y-48502D01*
X101008Y-48221D01*
X101008Y-47996D01*
X100951Y-47715D01*
X100895Y-47546D01*
X100839Y-47433D01*
X100726Y-47265D01*
X100670Y-47208D01*
G54D12*
X72942Y-49639D02*
G75*
G03X72942Y-49639I-78J0D01*
G74*
G01*
G54D13*
X74236Y-48936D02*
X74348Y-48936D01*
X74461Y-48992D01*
X74517Y-49049D01*
X74573Y-49161D01*
X74630Y-49386D01*
X74630Y-49667D01*
X74573Y-49892D01*
X74517Y-50005D01*
X74461Y-50061D01*
X74348Y-50117D01*
X74236Y-50117D01*
X74124Y-50061D01*
X74067Y-50005D01*
X74011Y-49892D01*
X73955Y-49667D01*
X73955Y-49386D01*
X74011Y-49161D01*
X74067Y-49049D01*
X74124Y-48992D01*
X74236Y-48936D01*
X75136Y-50005D02*
X75192Y-50061D01*
X75136Y-50117D01*
X75080Y-50061D01*
X75136Y-50005D01*
X75136Y-50117D01*
X76205Y-49330D02*
X76205Y-50117D01*
X75923Y-48880D02*
X75642Y-49724D01*
X76373Y-49724D01*
X77048Y-48936D02*
X77161Y-48936D01*
X77273Y-48992D01*
X77329Y-49049D01*
X77386Y-49161D01*
X77442Y-49386D01*
X77442Y-49667D01*
X77386Y-49892D01*
X77329Y-50005D01*
X77273Y-50061D01*
X77161Y-50117D01*
X77048Y-50117D01*
X76936Y-50061D01*
X76879Y-50005D01*
X76823Y-49892D01*
X76767Y-49667D01*
X76767Y-49386D01*
X76823Y-49161D01*
X76879Y-49049D01*
X76936Y-48992D01*
X77048Y-48936D01*
X77948Y-50117D02*
X77948Y-49330D01*
X77948Y-49442D02*
X78004Y-49386D01*
X78117Y-49330D01*
X78285Y-49330D01*
X78398Y-49386D01*
X78454Y-49499D01*
X78454Y-50117D01*
X78454Y-49499D02*
X78510Y-49386D01*
X78623Y-49330D01*
X78792Y-49330D01*
X78904Y-49386D01*
X78960Y-49499D01*
X78960Y-50117D01*
X79523Y-50117D02*
X79523Y-49330D01*
X79523Y-49442D02*
X79579Y-49386D01*
X79692Y-49330D01*
X79860Y-49330D01*
X79973Y-49386D01*
X80029Y-49499D01*
X80029Y-50117D01*
X80029Y-49499D02*
X80085Y-49386D01*
X80198Y-49330D01*
X80366Y-49330D01*
X80479Y-49386D01*
X80535Y-49499D01*
X80535Y-50117D01*
X82841Y-48880D02*
X81829Y-50399D01*
X84360Y-48936D02*
X84472Y-48936D01*
X84585Y-48992D01*
X84641Y-49049D01*
X84697Y-49161D01*
X84753Y-49386D01*
X84753Y-49667D01*
X84697Y-49892D01*
X84641Y-50005D01*
X84585Y-50061D01*
X84472Y-50117D01*
X84360Y-50117D01*
X84247Y-50061D01*
X84191Y-50005D01*
X84135Y-49892D01*
X84079Y-49667D01*
X84079Y-49386D01*
X84135Y-49161D01*
X84191Y-49049D01*
X84247Y-48992D01*
X84360Y-48936D01*
X85260Y-50005D02*
X85316Y-50061D01*
X85260Y-50117D01*
X85203Y-50061D01*
X85260Y-50005D01*
X85260Y-50117D01*
X86047Y-48936D02*
X86160Y-48936D01*
X86272Y-48992D01*
X86328Y-49049D01*
X86384Y-49161D01*
X86441Y-49386D01*
X86441Y-49667D01*
X86384Y-49892D01*
X86328Y-50005D01*
X86272Y-50061D01*
X86160Y-50117D01*
X86047Y-50117D01*
X85935Y-50061D01*
X85878Y-50005D01*
X85822Y-49892D01*
X85766Y-49667D01*
X85766Y-49386D01*
X85822Y-49161D01*
X85878Y-49049D01*
X85935Y-48992D01*
X86047Y-48936D01*
X87566Y-50117D02*
X86891Y-50117D01*
X87228Y-50117D02*
X87228Y-48936D01*
X87116Y-49105D01*
X87003Y-49217D01*
X86891Y-49274D01*
X88578Y-48936D02*
X88353Y-48936D01*
X88241Y-48992D01*
X88184Y-49049D01*
X88072Y-49217D01*
X88016Y-49442D01*
X88016Y-49892D01*
X88072Y-50005D01*
X88128Y-50061D01*
X88241Y-50117D01*
X88465Y-50117D01*
X88578Y-50061D01*
X88634Y-50005D01*
X88690Y-49892D01*
X88690Y-49611D01*
X88634Y-49499D01*
X88578Y-49442D01*
X88465Y-49386D01*
X88241Y-49386D01*
X88128Y-49442D01*
X88072Y-49499D01*
X88016Y-49611D01*
X89140Y-48936D02*
X89140Y-49161D01*
X89590Y-48936D02*
X89590Y-49161D01*
X91334Y-50567D02*
X91278Y-50511D01*
X91165Y-50342D01*
X91109Y-50230D01*
X91053Y-50061D01*
X90996Y-49780D01*
X90996Y-49555D01*
X91053Y-49274D01*
X91109Y-49105D01*
X91165Y-48992D01*
X91278Y-48824D01*
X91334Y-48767D01*
X92009Y-48936D02*
X92121Y-48936D01*
X92234Y-48992D01*
X92290Y-49049D01*
X92346Y-49161D01*
X92402Y-49386D01*
X92402Y-49667D01*
X92346Y-49892D01*
X92290Y-50005D01*
X92234Y-50061D01*
X92121Y-50117D01*
X92009Y-50117D01*
X91896Y-50061D01*
X91840Y-50005D01*
X91784Y-49892D01*
X91728Y-49667D01*
X91728Y-49386D01*
X91784Y-49161D01*
X91840Y-49049D01*
X91896Y-48992D01*
X92009Y-48936D01*
X93809Y-50117D02*
X93809Y-48936D01*
X94315Y-50117D02*
X94315Y-49499D01*
X94258Y-49386D01*
X94146Y-49330D01*
X93977Y-49330D01*
X93865Y-49386D01*
X93809Y-49442D01*
X95046Y-50117D02*
X94933Y-50061D01*
X94877Y-50005D01*
X94821Y-49892D01*
X94821Y-49555D01*
X94877Y-49442D01*
X94933Y-49386D01*
X95046Y-49330D01*
X95215Y-49330D01*
X95327Y-49386D01*
X95383Y-49442D01*
X95440Y-49555D01*
X95440Y-49892D01*
X95383Y-50005D01*
X95327Y-50061D01*
X95215Y-50117D01*
X95046Y-50117D01*
X96115Y-50117D02*
X96002Y-50061D01*
X95946Y-49949D01*
X95946Y-48936D01*
X97014Y-50061D02*
X96902Y-50117D01*
X96677Y-50117D01*
X96564Y-50061D01*
X96508Y-49949D01*
X96508Y-49499D01*
X96564Y-49386D01*
X96677Y-49330D01*
X96902Y-49330D01*
X97014Y-49386D01*
X97071Y-49499D01*
X97071Y-49611D01*
X96508Y-49724D01*
X97521Y-50061D02*
X97633Y-50117D01*
X97858Y-50117D01*
X97971Y-50061D01*
X98027Y-49949D01*
X98027Y-49892D01*
X97971Y-49780D01*
X97858Y-49724D01*
X97689Y-49724D01*
X97577Y-49667D01*
X97521Y-49555D01*
X97521Y-49499D01*
X97577Y-49386D01*
X97689Y-49330D01*
X97858Y-49330D01*
X97971Y-49386D01*
X99433Y-49667D02*
X100333Y-49667D01*
X99883Y-50117D02*
X99883Y-49217D01*
X101739Y-49049D02*
X101795Y-48992D01*
X101908Y-48936D01*
X102189Y-48936D01*
X102301Y-48992D01*
X102357Y-49049D01*
X102414Y-49161D01*
X102414Y-49274D01*
X102357Y-49442D01*
X101683Y-50117D01*
X102414Y-50117D01*
X103764Y-50061D02*
X103876Y-50117D01*
X104101Y-50117D01*
X104214Y-50061D01*
X104270Y-49949D01*
X104270Y-49892D01*
X104214Y-49780D01*
X104101Y-49724D01*
X103932Y-49724D01*
X103820Y-49667D01*
X103764Y-49555D01*
X103764Y-49499D01*
X103820Y-49386D01*
X103932Y-49330D01*
X104101Y-49330D01*
X104214Y-49386D01*
X104945Y-50117D02*
X104832Y-50061D01*
X104776Y-49949D01*
X104776Y-48936D01*
X105563Y-50117D02*
X105451Y-50061D01*
X105395Y-50005D01*
X105338Y-49892D01*
X105338Y-49555D01*
X105395Y-49442D01*
X105451Y-49386D01*
X105563Y-49330D01*
X105732Y-49330D01*
X105845Y-49386D01*
X105901Y-49442D01*
X105957Y-49555D01*
X105957Y-49892D01*
X105901Y-50005D01*
X105845Y-50061D01*
X105732Y-50117D01*
X105563Y-50117D01*
X106294Y-49330D02*
X106744Y-49330D01*
X106463Y-48936D02*
X106463Y-49949D01*
X106519Y-50061D01*
X106632Y-50117D01*
X106744Y-50117D01*
X107082Y-50061D02*
X107194Y-50117D01*
X107419Y-50117D01*
X107532Y-50061D01*
X107588Y-49949D01*
X107588Y-49892D01*
X107532Y-49780D01*
X107419Y-49724D01*
X107251Y-49724D01*
X107138Y-49667D01*
X107082Y-49555D01*
X107082Y-49499D01*
X107138Y-49386D01*
X107251Y-49330D01*
X107419Y-49330D01*
X107532Y-49386D01*
X107982Y-50567D02*
X108038Y-50511D01*
X108151Y-50342D01*
X108207Y-50230D01*
X108263Y-50061D01*
X108319Y-49780D01*
X108319Y-49555D01*
X108263Y-49274D01*
X108207Y-49105D01*
X108151Y-48992D01*
X108038Y-48824D01*
X107982Y-48767D01*
X72824Y-51080D02*
X72824Y-51316D01*
X72706Y-51198D02*
X72942Y-51198D01*
X74236Y-50495D02*
X74348Y-50495D01*
X74461Y-50552D01*
X74517Y-50608D01*
X74573Y-50720D01*
X74630Y-50945D01*
X74630Y-51226D01*
X74573Y-51451D01*
X74517Y-51564D01*
X74461Y-51620D01*
X74348Y-51676D01*
X74236Y-51676D01*
X74124Y-51620D01*
X74067Y-51564D01*
X74011Y-51451D01*
X73955Y-51226D01*
X73955Y-50945D01*
X74011Y-50720D01*
X74067Y-50608D01*
X74124Y-50552D01*
X74236Y-50495D01*
X75136Y-51564D02*
X75192Y-51620D01*
X75136Y-51676D01*
X75080Y-51620D01*
X75136Y-51564D01*
X75136Y-51676D01*
X76205Y-50495D02*
X75980Y-50495D01*
X75867Y-50552D01*
X75811Y-50608D01*
X75698Y-50776D01*
X75642Y-51001D01*
X75642Y-51451D01*
X75698Y-51564D01*
X75755Y-51620D01*
X75867Y-51676D01*
X76092Y-51676D01*
X76205Y-51620D01*
X76261Y-51564D01*
X76317Y-51451D01*
X76317Y-51170D01*
X76261Y-51058D01*
X76205Y-51001D01*
X76092Y-50945D01*
X75867Y-50945D01*
X75755Y-51001D01*
X75698Y-51058D01*
X75642Y-51170D01*
X77048Y-50495D02*
X77161Y-50495D01*
X77273Y-50552D01*
X77329Y-50608D01*
X77386Y-50720D01*
X77442Y-50945D01*
X77442Y-51226D01*
X77386Y-51451D01*
X77329Y-51564D01*
X77273Y-51620D01*
X77161Y-51676D01*
X77048Y-51676D01*
X76936Y-51620D01*
X76879Y-51564D01*
X76823Y-51451D01*
X76767Y-51226D01*
X76767Y-50945D01*
X76823Y-50720D01*
X76879Y-50608D01*
X76936Y-50552D01*
X77048Y-50495D01*
X77948Y-51676D02*
X77948Y-50889D01*
X77948Y-51001D02*
X78004Y-50945D01*
X78117Y-50889D01*
X78285Y-50889D01*
X78398Y-50945D01*
X78454Y-51058D01*
X78454Y-51676D01*
X78454Y-51058D02*
X78510Y-50945D01*
X78623Y-50889D01*
X78792Y-50889D01*
X78904Y-50945D01*
X78960Y-51058D01*
X78960Y-51676D01*
X79523Y-51676D02*
X79523Y-50889D01*
X79523Y-51001D02*
X79579Y-50945D01*
X79692Y-50889D01*
X79860Y-50889D01*
X79973Y-50945D01*
X80029Y-51058D01*
X80029Y-51676D01*
X80029Y-51058D02*
X80085Y-50945D01*
X80198Y-50889D01*
X80366Y-50889D01*
X80479Y-50945D01*
X80535Y-51058D01*
X80535Y-51676D01*
X82841Y-50439D02*
X81829Y-51958D01*
X84360Y-50495D02*
X84472Y-50495D01*
X84585Y-50552D01*
X84641Y-50608D01*
X84697Y-50720D01*
X84753Y-50945D01*
X84753Y-51226D01*
X84697Y-51451D01*
X84641Y-51564D01*
X84585Y-51620D01*
X84472Y-51676D01*
X84360Y-51676D01*
X84247Y-51620D01*
X84191Y-51564D01*
X84135Y-51451D01*
X84079Y-51226D01*
X84079Y-50945D01*
X84135Y-50720D01*
X84191Y-50608D01*
X84247Y-50552D01*
X84360Y-50495D01*
X85260Y-51564D02*
X85316Y-51620D01*
X85260Y-51676D01*
X85203Y-51620D01*
X85260Y-51564D01*
X85260Y-51676D01*
X86047Y-50495D02*
X86160Y-50495D01*
X86272Y-50552D01*
X86328Y-50608D01*
X86384Y-50720D01*
X86441Y-50945D01*
X86441Y-51226D01*
X86384Y-51451D01*
X86328Y-51564D01*
X86272Y-51620D01*
X86160Y-51676D01*
X86047Y-51676D01*
X85935Y-51620D01*
X85878Y-51564D01*
X85822Y-51451D01*
X85766Y-51226D01*
X85766Y-50945D01*
X85822Y-50720D01*
X85878Y-50608D01*
X85935Y-50552D01*
X86047Y-50495D01*
X86891Y-50608D02*
X86947Y-50552D01*
X87059Y-50495D01*
X87341Y-50495D01*
X87453Y-50552D01*
X87509Y-50608D01*
X87566Y-50720D01*
X87566Y-50833D01*
X87509Y-51001D01*
X86834Y-51676D01*
X87566Y-51676D01*
X88578Y-50889D02*
X88578Y-51676D01*
X88297Y-50439D02*
X88016Y-51283D01*
X88747Y-51283D01*
X89140Y-50495D02*
X89140Y-50720D01*
X89590Y-50495D02*
X89590Y-50720D01*
X91334Y-52126D02*
X91278Y-52070D01*
X91165Y-51901D01*
X91109Y-51789D01*
X91053Y-51620D01*
X90996Y-51339D01*
X90996Y-51114D01*
X91053Y-50833D01*
X91109Y-50664D01*
X91165Y-50552D01*
X91278Y-50383D01*
X91334Y-50327D01*
X91953Y-51001D02*
X91840Y-50945D01*
X91784Y-50889D01*
X91728Y-50776D01*
X91728Y-50720D01*
X91784Y-50608D01*
X91840Y-50552D01*
X91953Y-50495D01*
X92178Y-50495D01*
X92290Y-50552D01*
X92346Y-50608D01*
X92402Y-50720D01*
X92402Y-50776D01*
X92346Y-50889D01*
X92290Y-50945D01*
X92178Y-51001D01*
X91953Y-51001D01*
X91840Y-51058D01*
X91784Y-51114D01*
X91728Y-51226D01*
X91728Y-51451D01*
X91784Y-51564D01*
X91840Y-51620D01*
X91953Y-51676D01*
X92178Y-51676D01*
X92290Y-51620D01*
X92346Y-51564D01*
X92402Y-51451D01*
X92402Y-51226D01*
X92346Y-51114D01*
X92290Y-51058D01*
X92178Y-51001D01*
X93809Y-51676D02*
X93809Y-50495D01*
X94315Y-51676D02*
X94315Y-51058D01*
X94258Y-50945D01*
X94146Y-50889D01*
X93977Y-50889D01*
X93865Y-50945D01*
X93809Y-51001D01*
X95046Y-51676D02*
X94933Y-51620D01*
X94877Y-51564D01*
X94821Y-51451D01*
X94821Y-51114D01*
X94877Y-51001D01*
X94933Y-50945D01*
X95046Y-50889D01*
X95215Y-50889D01*
X95327Y-50945D01*
X95383Y-51001D01*
X95440Y-51114D01*
X95440Y-51451D01*
X95383Y-51564D01*
X95327Y-51620D01*
X95215Y-51676D01*
X95046Y-51676D01*
X96115Y-51676D02*
X96002Y-51620D01*
X95946Y-51508D01*
X95946Y-50495D01*
X97014Y-51620D02*
X96902Y-51676D01*
X96677Y-51676D01*
X96564Y-51620D01*
X96508Y-51508D01*
X96508Y-51058D01*
X96564Y-50945D01*
X96677Y-50889D01*
X96902Y-50889D01*
X97014Y-50945D01*
X97071Y-51058D01*
X97071Y-51170D01*
X96508Y-51283D01*
X97521Y-51620D02*
X97633Y-51676D01*
X97858Y-51676D01*
X97971Y-51620D01*
X98027Y-51508D01*
X98027Y-51451D01*
X97971Y-51339D01*
X97858Y-51283D01*
X97689Y-51283D01*
X97577Y-51226D01*
X97521Y-51114D01*
X97521Y-51058D01*
X97577Y-50945D01*
X97689Y-50889D01*
X97858Y-50889D01*
X97971Y-50945D01*
X98420Y-52126D02*
X98477Y-52070D01*
X98589Y-51901D01*
X98645Y-51789D01*
X98702Y-51620D01*
X98758Y-51339D01*
X98758Y-51114D01*
X98702Y-50833D01*
X98645Y-50664D01*
X98589Y-50552D01*
X98477Y-50383D01*
X98420Y-50327D01*
G54D12*
X72902Y-52855D02*
X72902Y-52660D01*
X72707Y-52660D01*
X72707Y-52855D01*
X72902Y-52855D01*
G54D13*
X74236Y-52054D02*
X74348Y-52054D01*
X74461Y-52111D01*
X74517Y-52167D01*
X74573Y-52279D01*
X74630Y-52504D01*
X74630Y-52785D01*
X74573Y-53010D01*
X74517Y-53123D01*
X74461Y-53179D01*
X74348Y-53235D01*
X74236Y-53235D01*
X74124Y-53179D01*
X74067Y-53123D01*
X74011Y-53010D01*
X73955Y-52785D01*
X73955Y-52504D01*
X74011Y-52279D01*
X74067Y-52167D01*
X74124Y-52111D01*
X74236Y-52054D01*
X75136Y-53123D02*
X75192Y-53179D01*
X75136Y-53235D01*
X75080Y-53179D01*
X75136Y-53123D01*
X75136Y-53235D01*
X75586Y-52054D02*
X76373Y-52054D01*
X75867Y-53235D01*
X77048Y-52054D02*
X77161Y-52054D01*
X77273Y-52111D01*
X77329Y-52167D01*
X77386Y-52279D01*
X77442Y-52504D01*
X77442Y-52785D01*
X77386Y-53010D01*
X77329Y-53123D01*
X77273Y-53179D01*
X77161Y-53235D01*
X77048Y-53235D01*
X76936Y-53179D01*
X76879Y-53123D01*
X76823Y-53010D01*
X76767Y-52785D01*
X76767Y-52504D01*
X76823Y-52279D01*
X76879Y-52167D01*
X76936Y-52111D01*
X77048Y-52054D01*
X77948Y-53235D02*
X77948Y-52448D01*
X77948Y-52561D02*
X78004Y-52504D01*
X78117Y-52448D01*
X78285Y-52448D01*
X78398Y-52504D01*
X78454Y-52617D01*
X78454Y-53235D01*
X78454Y-52617D02*
X78510Y-52504D01*
X78623Y-52448D01*
X78792Y-52448D01*
X78904Y-52504D01*
X78960Y-52617D01*
X78960Y-53235D01*
X79523Y-53235D02*
X79523Y-52448D01*
X79523Y-52561D02*
X79579Y-52504D01*
X79692Y-52448D01*
X79860Y-52448D01*
X79973Y-52504D01*
X80029Y-52617D01*
X80029Y-53235D01*
X80029Y-52617D02*
X80085Y-52504D01*
X80198Y-52448D01*
X80366Y-52448D01*
X80479Y-52504D01*
X80535Y-52617D01*
X80535Y-53235D01*
X82841Y-51998D02*
X81829Y-53517D01*
X84360Y-52054D02*
X84472Y-52054D01*
X84585Y-52111D01*
X84641Y-52167D01*
X84697Y-52279D01*
X84753Y-52504D01*
X84753Y-52785D01*
X84697Y-53010D01*
X84641Y-53123D01*
X84585Y-53179D01*
X84472Y-53235D01*
X84360Y-53235D01*
X84247Y-53179D01*
X84191Y-53123D01*
X84135Y-53010D01*
X84079Y-52785D01*
X84079Y-52504D01*
X84135Y-52279D01*
X84191Y-52167D01*
X84247Y-52111D01*
X84360Y-52054D01*
X85260Y-53123D02*
X85316Y-53179D01*
X85260Y-53235D01*
X85203Y-53179D01*
X85260Y-53123D01*
X85260Y-53235D01*
X86047Y-52054D02*
X86160Y-52054D01*
X86272Y-52111D01*
X86328Y-52167D01*
X86384Y-52279D01*
X86441Y-52504D01*
X86441Y-52785D01*
X86384Y-53010D01*
X86328Y-53123D01*
X86272Y-53179D01*
X86160Y-53235D01*
X86047Y-53235D01*
X85935Y-53179D01*
X85878Y-53123D01*
X85822Y-53010D01*
X85766Y-52785D01*
X85766Y-52504D01*
X85822Y-52279D01*
X85878Y-52167D01*
X85935Y-52111D01*
X86047Y-52054D01*
X86891Y-52167D02*
X86947Y-52111D01*
X87059Y-52054D01*
X87341Y-52054D01*
X87453Y-52111D01*
X87509Y-52167D01*
X87566Y-52279D01*
X87566Y-52392D01*
X87509Y-52561D01*
X86834Y-53235D01*
X87566Y-53235D01*
X88241Y-52561D02*
X88128Y-52504D01*
X88072Y-52448D01*
X88016Y-52336D01*
X88016Y-52279D01*
X88072Y-52167D01*
X88128Y-52111D01*
X88241Y-52054D01*
X88465Y-52054D01*
X88578Y-52111D01*
X88634Y-52167D01*
X88690Y-52279D01*
X88690Y-52336D01*
X88634Y-52448D01*
X88578Y-52504D01*
X88465Y-52561D01*
X88241Y-52561D01*
X88128Y-52617D01*
X88072Y-52673D01*
X88016Y-52785D01*
X88016Y-53010D01*
X88072Y-53123D01*
X88128Y-53179D01*
X88241Y-53235D01*
X88465Y-53235D01*
X88578Y-53179D01*
X88634Y-53123D01*
X88690Y-53010D01*
X88690Y-52785D01*
X88634Y-52673D01*
X88578Y-52617D01*
X88465Y-52561D01*
X89140Y-52054D02*
X89140Y-52279D01*
X89590Y-52054D02*
X89590Y-52279D01*
X91334Y-53685D02*
X91278Y-53629D01*
X91165Y-53460D01*
X91109Y-53348D01*
X91053Y-53179D01*
X90996Y-52898D01*
X90996Y-52673D01*
X91053Y-52392D01*
X91109Y-52223D01*
X91165Y-52111D01*
X91278Y-51942D01*
X91334Y-51886D01*
X92290Y-52448D02*
X92290Y-53235D01*
X92009Y-51998D02*
X91728Y-52842D01*
X92459Y-52842D01*
X93134Y-52054D02*
X93246Y-52054D01*
X93359Y-52111D01*
X93415Y-52167D01*
X93471Y-52279D01*
X93527Y-52504D01*
X93527Y-52785D01*
X93471Y-53010D01*
X93415Y-53123D01*
X93359Y-53179D01*
X93246Y-53235D01*
X93134Y-53235D01*
X93021Y-53179D01*
X92965Y-53123D01*
X92909Y-53010D01*
X92852Y-52785D01*
X92852Y-52504D01*
X92909Y-52279D01*
X92965Y-52167D01*
X93021Y-52111D01*
X93134Y-52054D01*
X94933Y-53235D02*
X94933Y-52054D01*
X95440Y-53235D02*
X95440Y-52617D01*
X95383Y-52504D01*
X95271Y-52448D01*
X95102Y-52448D01*
X94990Y-52504D01*
X94933Y-52561D01*
X96171Y-53235D02*
X96058Y-53179D01*
X96002Y-53123D01*
X95946Y-53010D01*
X95946Y-52673D01*
X96002Y-52561D01*
X96058Y-52504D01*
X96171Y-52448D01*
X96339Y-52448D01*
X96452Y-52504D01*
X96508Y-52561D01*
X96564Y-52673D01*
X96564Y-53010D01*
X96508Y-53123D01*
X96452Y-53179D01*
X96339Y-53235D01*
X96171Y-53235D01*
X97239Y-53235D02*
X97127Y-53179D01*
X97071Y-53067D01*
X97071Y-52054D01*
X98139Y-53179D02*
X98027Y-53235D01*
X97802Y-53235D01*
X97689Y-53179D01*
X97633Y-53067D01*
X97633Y-52617D01*
X97689Y-52504D01*
X97802Y-52448D01*
X98027Y-52448D01*
X98139Y-52504D01*
X98196Y-52617D01*
X98196Y-52729D01*
X97633Y-52842D01*
X98645Y-53179D02*
X98758Y-53235D01*
X98983Y-53235D01*
X99095Y-53179D01*
X99152Y-53067D01*
X99152Y-53010D01*
X99095Y-52898D01*
X98983Y-52842D01*
X98814Y-52842D01*
X98702Y-52785D01*
X98645Y-52673D01*
X98645Y-52617D01*
X98702Y-52504D01*
X98814Y-52448D01*
X98983Y-52448D01*
X99095Y-52504D01*
X99545Y-53685D02*
X99602Y-53629D01*
X99714Y-53460D01*
X99770Y-53348D01*
X99827Y-53179D01*
X99883Y-52898D01*
X99883Y-52673D01*
X99827Y-52392D01*
X99770Y-52223D01*
X99714Y-52111D01*
X99602Y-51942D01*
X99545Y-51886D01*
G54D12*
X72804Y-54454D02*
X72942Y-54316D01*
X72804Y-54178D01*
X72666Y-54316D01*
X72804Y-54454D01*
G54D13*
X74236Y-53613D02*
X74348Y-53613D01*
X74461Y-53670D01*
X74517Y-53726D01*
X74573Y-53838D01*
X74630Y-54063D01*
X74630Y-54345D01*
X74573Y-54570D01*
X74517Y-54682D01*
X74461Y-54738D01*
X74348Y-54794D01*
X74236Y-54794D01*
X74124Y-54738D01*
X74067Y-54682D01*
X74011Y-54570D01*
X73955Y-54345D01*
X73955Y-54063D01*
X74011Y-53838D01*
X74067Y-53726D01*
X74124Y-53670D01*
X74236Y-53613D01*
X75136Y-54682D02*
X75192Y-54738D01*
X75136Y-54794D01*
X75080Y-54738D01*
X75136Y-54682D01*
X75136Y-54794D01*
X75586Y-53613D02*
X76373Y-53613D01*
X75867Y-54794D01*
X77048Y-53613D02*
X77161Y-53613D01*
X77273Y-53670D01*
X77329Y-53726D01*
X77386Y-53838D01*
X77442Y-54063D01*
X77442Y-54345D01*
X77386Y-54570D01*
X77329Y-54682D01*
X77273Y-54738D01*
X77161Y-54794D01*
X77048Y-54794D01*
X76936Y-54738D01*
X76879Y-54682D01*
X76823Y-54570D01*
X76767Y-54345D01*
X76767Y-54063D01*
X76823Y-53838D01*
X76879Y-53726D01*
X76936Y-53670D01*
X77048Y-53613D01*
X77948Y-54794D02*
X77948Y-54007D01*
X77948Y-54120D02*
X78004Y-54063D01*
X78117Y-54007D01*
X78285Y-54007D01*
X78398Y-54063D01*
X78454Y-54176D01*
X78454Y-54794D01*
X78454Y-54176D02*
X78510Y-54063D01*
X78623Y-54007D01*
X78792Y-54007D01*
X78904Y-54063D01*
X78960Y-54176D01*
X78960Y-54794D01*
X79523Y-54794D02*
X79523Y-54007D01*
X79523Y-54120D02*
X79579Y-54063D01*
X79692Y-54007D01*
X79860Y-54007D01*
X79973Y-54063D01*
X80029Y-54176D01*
X80029Y-54794D01*
X80029Y-54176D02*
X80085Y-54063D01*
X80198Y-54007D01*
X80366Y-54007D01*
X80479Y-54063D01*
X80535Y-54176D01*
X80535Y-54794D01*
X82841Y-53557D02*
X81829Y-55076D01*
X84360Y-53613D02*
X84472Y-53613D01*
X84585Y-53670D01*
X84641Y-53726D01*
X84697Y-53838D01*
X84753Y-54063D01*
X84753Y-54345D01*
X84697Y-54570D01*
X84641Y-54682D01*
X84585Y-54738D01*
X84472Y-54794D01*
X84360Y-54794D01*
X84247Y-54738D01*
X84191Y-54682D01*
X84135Y-54570D01*
X84079Y-54345D01*
X84079Y-54063D01*
X84135Y-53838D01*
X84191Y-53726D01*
X84247Y-53670D01*
X84360Y-53613D01*
X85260Y-54682D02*
X85316Y-54738D01*
X85260Y-54794D01*
X85203Y-54738D01*
X85260Y-54682D01*
X85260Y-54794D01*
X86047Y-53613D02*
X86160Y-53613D01*
X86272Y-53670D01*
X86328Y-53726D01*
X86384Y-53838D01*
X86441Y-54063D01*
X86441Y-54345D01*
X86384Y-54570D01*
X86328Y-54682D01*
X86272Y-54738D01*
X86160Y-54794D01*
X86047Y-54794D01*
X85935Y-54738D01*
X85878Y-54682D01*
X85822Y-54570D01*
X85766Y-54345D01*
X85766Y-54063D01*
X85822Y-53838D01*
X85878Y-53726D01*
X85935Y-53670D01*
X86047Y-53613D01*
X86891Y-53726D02*
X86947Y-53670D01*
X87059Y-53613D01*
X87341Y-53613D01*
X87453Y-53670D01*
X87509Y-53726D01*
X87566Y-53838D01*
X87566Y-53951D01*
X87509Y-54120D01*
X86834Y-54794D01*
X87566Y-54794D01*
X88241Y-54120D02*
X88128Y-54063D01*
X88072Y-54007D01*
X88016Y-53895D01*
X88016Y-53838D01*
X88072Y-53726D01*
X88128Y-53670D01*
X88241Y-53613D01*
X88465Y-53613D01*
X88578Y-53670D01*
X88634Y-53726D01*
X88690Y-53838D01*
X88690Y-53895D01*
X88634Y-54007D01*
X88578Y-54063D01*
X88465Y-54120D01*
X88241Y-54120D01*
X88128Y-54176D01*
X88072Y-54232D01*
X88016Y-54345D01*
X88016Y-54570D01*
X88072Y-54682D01*
X88128Y-54738D01*
X88241Y-54794D01*
X88465Y-54794D01*
X88578Y-54738D01*
X88634Y-54682D01*
X88690Y-54570D01*
X88690Y-54345D01*
X88634Y-54232D01*
X88578Y-54176D01*
X88465Y-54120D01*
X89140Y-53613D02*
X89140Y-53838D01*
X89590Y-53613D02*
X89590Y-53838D01*
X91334Y-55244D02*
X91278Y-55188D01*
X91165Y-55019D01*
X91109Y-54907D01*
X91053Y-54738D01*
X90996Y-54457D01*
X90996Y-54232D01*
X91053Y-53951D01*
X91109Y-53782D01*
X91165Y-53670D01*
X91278Y-53501D01*
X91334Y-53445D01*
X92346Y-53613D02*
X91784Y-53613D01*
X91728Y-54176D01*
X91784Y-54120D01*
X91896Y-54063D01*
X92178Y-54063D01*
X92290Y-54120D01*
X92346Y-54176D01*
X92402Y-54288D01*
X92402Y-54570D01*
X92346Y-54682D01*
X92290Y-54738D01*
X92178Y-54794D01*
X91896Y-54794D01*
X91784Y-54738D01*
X91728Y-54682D01*
X93809Y-54794D02*
X93809Y-53613D01*
X94315Y-54794D02*
X94315Y-54176D01*
X94258Y-54063D01*
X94146Y-54007D01*
X93977Y-54007D01*
X93865Y-54063D01*
X93809Y-54120D01*
X95046Y-54794D02*
X94933Y-54738D01*
X94877Y-54682D01*
X94821Y-54570D01*
X94821Y-54232D01*
X94877Y-54120D01*
X94933Y-54063D01*
X95046Y-54007D01*
X95215Y-54007D01*
X95327Y-54063D01*
X95383Y-54120D01*
X95440Y-54232D01*
X95440Y-54570D01*
X95383Y-54682D01*
X95327Y-54738D01*
X95215Y-54794D01*
X95046Y-54794D01*
X96115Y-54794D02*
X96002Y-54738D01*
X95946Y-54626D01*
X95946Y-53613D01*
X97014Y-54738D02*
X96902Y-54794D01*
X96677Y-54794D01*
X96564Y-54738D01*
X96508Y-54626D01*
X96508Y-54176D01*
X96564Y-54063D01*
X96677Y-54007D01*
X96902Y-54007D01*
X97014Y-54063D01*
X97071Y-54176D01*
X97071Y-54288D01*
X96508Y-54401D01*
X97521Y-54738D02*
X97633Y-54794D01*
X97858Y-54794D01*
X97971Y-54738D01*
X98027Y-54626D01*
X98027Y-54570D01*
X97971Y-54457D01*
X97858Y-54401D01*
X97689Y-54401D01*
X97577Y-54345D01*
X97521Y-54232D01*
X97521Y-54176D01*
X97577Y-54063D01*
X97689Y-54007D01*
X97858Y-54007D01*
X97971Y-54063D01*
X98420Y-55244D02*
X98477Y-55188D01*
X98589Y-55019D01*
X98645Y-54907D01*
X98702Y-54738D01*
X98758Y-54457D01*
X98758Y-54232D01*
X98702Y-53951D01*
X98645Y-53782D01*
X98589Y-53670D01*
X98477Y-53501D01*
X98420Y-53445D01*
X72549Y-55679D02*
X72942Y-56072D01*
X72942Y-55679D02*
X72549Y-56072D01*
G54D12*
X72942Y-55875D02*
G75*
G03X72942Y-55875I-196J0D01*
G74*
G01*
G54D13*
X74630Y-56354D02*
X73955Y-56354D01*
X74292Y-56354D02*
X74292Y-55172D01*
X74180Y-55341D01*
X74067Y-55454D01*
X73955Y-55510D01*
X75136Y-56241D02*
X75192Y-56297D01*
X75136Y-56354D01*
X75080Y-56297D01*
X75136Y-56241D01*
X75136Y-56354D01*
X75923Y-55172D02*
X76036Y-55172D01*
X76148Y-55229D01*
X76205Y-55285D01*
X76261Y-55397D01*
X76317Y-55622D01*
X76317Y-55904D01*
X76261Y-56129D01*
X76205Y-56241D01*
X76148Y-56297D01*
X76036Y-56354D01*
X75923Y-56354D01*
X75811Y-56297D01*
X75755Y-56241D01*
X75698Y-56129D01*
X75642Y-55904D01*
X75642Y-55622D01*
X75698Y-55397D01*
X75755Y-55285D01*
X75811Y-55229D01*
X75923Y-55172D01*
X77048Y-55172D02*
X77161Y-55172D01*
X77273Y-55229D01*
X77329Y-55285D01*
X77386Y-55397D01*
X77442Y-55622D01*
X77442Y-55904D01*
X77386Y-56129D01*
X77329Y-56241D01*
X77273Y-56297D01*
X77161Y-56354D01*
X77048Y-56354D01*
X76936Y-56297D01*
X76879Y-56241D01*
X76823Y-56129D01*
X76767Y-55904D01*
X76767Y-55622D01*
X76823Y-55397D01*
X76879Y-55285D01*
X76936Y-55229D01*
X77048Y-55172D01*
X77948Y-56354D02*
X77948Y-55566D01*
X77948Y-55679D02*
X78004Y-55622D01*
X78117Y-55566D01*
X78285Y-55566D01*
X78398Y-55622D01*
X78454Y-55735D01*
X78454Y-56354D01*
X78454Y-55735D02*
X78510Y-55622D01*
X78623Y-55566D01*
X78792Y-55566D01*
X78904Y-55622D01*
X78960Y-55735D01*
X78960Y-56354D01*
X79523Y-56354D02*
X79523Y-55566D01*
X79523Y-55679D02*
X79579Y-55622D01*
X79692Y-55566D01*
X79860Y-55566D01*
X79973Y-55622D01*
X80029Y-55735D01*
X80029Y-56354D01*
X80029Y-55735D02*
X80085Y-55622D01*
X80198Y-55566D01*
X80366Y-55566D01*
X80479Y-55622D01*
X80535Y-55735D01*
X80535Y-56354D01*
X82841Y-55116D02*
X81829Y-56635D01*
X84360Y-55172D02*
X84472Y-55172D01*
X84585Y-55229D01*
X84641Y-55285D01*
X84697Y-55397D01*
X84753Y-55622D01*
X84753Y-55904D01*
X84697Y-56129D01*
X84641Y-56241D01*
X84585Y-56297D01*
X84472Y-56354D01*
X84360Y-56354D01*
X84247Y-56297D01*
X84191Y-56241D01*
X84135Y-56129D01*
X84079Y-55904D01*
X84079Y-55622D01*
X84135Y-55397D01*
X84191Y-55285D01*
X84247Y-55229D01*
X84360Y-55172D01*
X85260Y-56241D02*
X85316Y-56297D01*
X85260Y-56354D01*
X85203Y-56297D01*
X85260Y-56241D01*
X85260Y-56354D01*
X86047Y-55172D02*
X86160Y-55172D01*
X86272Y-55229D01*
X86328Y-55285D01*
X86384Y-55397D01*
X86441Y-55622D01*
X86441Y-55904D01*
X86384Y-56129D01*
X86328Y-56241D01*
X86272Y-56297D01*
X86160Y-56354D01*
X86047Y-56354D01*
X85935Y-56297D01*
X85878Y-56241D01*
X85822Y-56129D01*
X85766Y-55904D01*
X85766Y-55622D01*
X85822Y-55397D01*
X85878Y-55285D01*
X85935Y-55229D01*
X86047Y-55172D01*
X86834Y-55172D02*
X87566Y-55172D01*
X87172Y-55622D01*
X87341Y-55622D01*
X87453Y-55679D01*
X87509Y-55735D01*
X87566Y-55847D01*
X87566Y-56129D01*
X87509Y-56241D01*
X87453Y-56297D01*
X87341Y-56354D01*
X87003Y-56354D01*
X86891Y-56297D01*
X86834Y-56241D01*
X88128Y-56354D02*
X88353Y-56354D01*
X88465Y-56297D01*
X88522Y-56241D01*
X88634Y-56072D01*
X88690Y-55847D01*
X88690Y-55397D01*
X88634Y-55285D01*
X88578Y-55229D01*
X88465Y-55172D01*
X88241Y-55172D01*
X88128Y-55229D01*
X88072Y-55285D01*
X88016Y-55397D01*
X88016Y-55679D01*
X88072Y-55791D01*
X88128Y-55847D01*
X88241Y-55904D01*
X88465Y-55904D01*
X88578Y-55847D01*
X88634Y-55791D01*
X88690Y-55679D01*
X89140Y-55172D02*
X89140Y-55397D01*
X89590Y-55172D02*
X89590Y-55397D01*
X91334Y-56803D02*
X91278Y-56747D01*
X91165Y-56579D01*
X91109Y-56466D01*
X91053Y-56297D01*
X90996Y-56016D01*
X90996Y-55791D01*
X91053Y-55510D01*
X91109Y-55341D01*
X91165Y-55229D01*
X91278Y-55060D01*
X91334Y-55004D01*
X92402Y-56354D02*
X91728Y-56354D01*
X92065Y-56354D02*
X92065Y-55172D01*
X91953Y-55341D01*
X91840Y-55454D01*
X91728Y-55510D01*
X93809Y-56354D02*
X93809Y-55172D01*
X94315Y-56354D02*
X94315Y-55735D01*
X94258Y-55622D01*
X94146Y-55566D01*
X93977Y-55566D01*
X93865Y-55622D01*
X93809Y-55679D01*
X95046Y-56354D02*
X94933Y-56297D01*
X94877Y-56241D01*
X94821Y-56129D01*
X94821Y-55791D01*
X94877Y-55679D01*
X94933Y-55622D01*
X95046Y-55566D01*
X95215Y-55566D01*
X95327Y-55622D01*
X95383Y-55679D01*
X95440Y-55791D01*
X95440Y-56129D01*
X95383Y-56241D01*
X95327Y-56297D01*
X95215Y-56354D01*
X95046Y-56354D01*
X96115Y-56354D02*
X96002Y-56297D01*
X95946Y-56185D01*
X95946Y-55172D01*
X97014Y-56297D02*
X96902Y-56354D01*
X96677Y-56354D01*
X96564Y-56297D01*
X96508Y-56185D01*
X96508Y-55735D01*
X96564Y-55622D01*
X96677Y-55566D01*
X96902Y-55566D01*
X97014Y-55622D01*
X97071Y-55735D01*
X97071Y-55847D01*
X96508Y-55960D01*
X97464Y-56803D02*
X97521Y-56747D01*
X97633Y-56579D01*
X97689Y-56466D01*
X97746Y-56297D01*
X97802Y-56016D01*
X97802Y-55791D01*
X97746Y-55510D01*
X97689Y-55341D01*
X97633Y-55229D01*
X97521Y-55060D01*
X97464Y-55004D01*
X71761Y-56844D02*
X72942Y-58025D01*
X72942Y-56844D02*
X71761Y-58025D01*
X72352Y-56844D02*
X72352Y-58025D01*
X71761Y-57435D02*
X72942Y-57435D01*
X73899Y-56732D02*
X74630Y-56732D01*
X74236Y-57181D01*
X74405Y-57181D01*
X74517Y-57238D01*
X74573Y-57294D01*
X74630Y-57406D01*
X74630Y-57688D01*
X74573Y-57800D01*
X74517Y-57856D01*
X74405Y-57913D01*
X74067Y-57913D01*
X73955Y-57856D01*
X73899Y-57800D01*
X75136Y-57800D02*
X75192Y-57856D01*
X75136Y-57913D01*
X75080Y-57856D01*
X75136Y-57800D01*
X75136Y-57913D01*
X75923Y-56732D02*
X76036Y-56732D01*
X76148Y-56788D01*
X76205Y-56844D01*
X76261Y-56956D01*
X76317Y-57181D01*
X76317Y-57463D01*
X76261Y-57688D01*
X76205Y-57800D01*
X76148Y-57856D01*
X76036Y-57913D01*
X75923Y-57913D01*
X75811Y-57856D01*
X75755Y-57800D01*
X75698Y-57688D01*
X75642Y-57463D01*
X75642Y-57181D01*
X75698Y-56956D01*
X75755Y-56844D01*
X75811Y-56788D01*
X75923Y-56732D01*
X77048Y-56732D02*
X77161Y-56732D01*
X77273Y-56788D01*
X77329Y-56844D01*
X77386Y-56956D01*
X77442Y-57181D01*
X77442Y-57463D01*
X77386Y-57688D01*
X77329Y-57800D01*
X77273Y-57856D01*
X77161Y-57913D01*
X77048Y-57913D01*
X76936Y-57856D01*
X76879Y-57800D01*
X76823Y-57688D01*
X76767Y-57463D01*
X76767Y-57181D01*
X76823Y-56956D01*
X76879Y-56844D01*
X76936Y-56788D01*
X77048Y-56732D01*
X77948Y-57913D02*
X77948Y-57125D01*
X77948Y-57238D02*
X78004Y-57181D01*
X78117Y-57125D01*
X78285Y-57125D01*
X78398Y-57181D01*
X78454Y-57294D01*
X78454Y-57913D01*
X78454Y-57294D02*
X78510Y-57181D01*
X78623Y-57125D01*
X78792Y-57125D01*
X78904Y-57181D01*
X78960Y-57294D01*
X78960Y-57913D01*
X79523Y-57913D02*
X79523Y-57125D01*
X79523Y-57238D02*
X79579Y-57181D01*
X79692Y-57125D01*
X79860Y-57125D01*
X79973Y-57181D01*
X80029Y-57294D01*
X80029Y-57913D01*
X80029Y-57294D02*
X80085Y-57181D01*
X80198Y-57125D01*
X80366Y-57125D01*
X80479Y-57181D01*
X80535Y-57294D01*
X80535Y-57913D01*
X82841Y-56675D02*
X81829Y-58194D01*
X84360Y-56732D02*
X84472Y-56732D01*
X84585Y-56788D01*
X84641Y-56844D01*
X84697Y-56956D01*
X84753Y-57181D01*
X84753Y-57463D01*
X84697Y-57688D01*
X84641Y-57800D01*
X84585Y-57856D01*
X84472Y-57913D01*
X84360Y-57913D01*
X84247Y-57856D01*
X84191Y-57800D01*
X84135Y-57688D01*
X84079Y-57463D01*
X84079Y-57181D01*
X84135Y-56956D01*
X84191Y-56844D01*
X84247Y-56788D01*
X84360Y-56732D01*
X85260Y-57800D02*
X85316Y-57856D01*
X85260Y-57913D01*
X85203Y-57856D01*
X85260Y-57800D01*
X85260Y-57913D01*
X86441Y-57913D02*
X85766Y-57913D01*
X86103Y-57913D02*
X86103Y-56732D01*
X85991Y-56900D01*
X85878Y-57013D01*
X85766Y-57069D01*
X87566Y-57913D02*
X86891Y-57913D01*
X87228Y-57913D02*
X87228Y-56732D01*
X87116Y-56900D01*
X87003Y-57013D01*
X86891Y-57069D01*
X88241Y-57238D02*
X88128Y-57181D01*
X88072Y-57125D01*
X88016Y-57013D01*
X88016Y-56956D01*
X88072Y-56844D01*
X88128Y-56788D01*
X88241Y-56732D01*
X88465Y-56732D01*
X88578Y-56788D01*
X88634Y-56844D01*
X88690Y-56956D01*
X88690Y-57013D01*
X88634Y-57125D01*
X88578Y-57181D01*
X88465Y-57238D01*
X88241Y-57238D01*
X88128Y-57294D01*
X88072Y-57350D01*
X88016Y-57463D01*
X88016Y-57688D01*
X88072Y-57800D01*
X88128Y-57856D01*
X88241Y-57913D01*
X88465Y-57913D01*
X88578Y-57856D01*
X88634Y-57800D01*
X88690Y-57688D01*
X88690Y-57463D01*
X88634Y-57350D01*
X88578Y-57294D01*
X88465Y-57238D01*
X89140Y-56732D02*
X89140Y-56956D01*
X89590Y-56732D02*
X89590Y-56956D01*
X91334Y-58363D02*
X91278Y-58306D01*
X91165Y-58138D01*
X91109Y-58025D01*
X91053Y-57856D01*
X90996Y-57575D01*
X90996Y-57350D01*
X91053Y-57069D01*
X91109Y-56900D01*
X91165Y-56788D01*
X91278Y-56619D01*
X91334Y-56563D01*
X91728Y-56844D02*
X91784Y-56788D01*
X91896Y-56732D01*
X92178Y-56732D01*
X92290Y-56788D01*
X92346Y-56844D01*
X92402Y-56956D01*
X92402Y-57069D01*
X92346Y-57238D01*
X91671Y-57913D01*
X92402Y-57913D01*
X93809Y-57913D02*
X93809Y-56732D01*
X94315Y-57913D02*
X94315Y-57294D01*
X94258Y-57181D01*
X94146Y-57125D01*
X93977Y-57125D01*
X93865Y-57181D01*
X93809Y-57238D01*
X95046Y-57913D02*
X94933Y-57856D01*
X94877Y-57800D01*
X94821Y-57688D01*
X94821Y-57350D01*
X94877Y-57238D01*
X94933Y-57181D01*
X95046Y-57125D01*
X95215Y-57125D01*
X95327Y-57181D01*
X95383Y-57238D01*
X95440Y-57350D01*
X95440Y-57688D01*
X95383Y-57800D01*
X95327Y-57856D01*
X95215Y-57913D01*
X95046Y-57913D01*
X96115Y-57913D02*
X96002Y-57856D01*
X95946Y-57744D01*
X95946Y-56732D01*
X97014Y-57856D02*
X96902Y-57913D01*
X96677Y-57913D01*
X96564Y-57856D01*
X96508Y-57744D01*
X96508Y-57294D01*
X96564Y-57181D01*
X96677Y-57125D01*
X96902Y-57125D01*
X97014Y-57181D01*
X97071Y-57294D01*
X97071Y-57406D01*
X96508Y-57519D01*
X97521Y-57856D02*
X97633Y-57913D01*
X97858Y-57913D01*
X97971Y-57856D01*
X98027Y-57744D01*
X98027Y-57688D01*
X97971Y-57575D01*
X97858Y-57519D01*
X97689Y-57519D01*
X97577Y-57463D01*
X97521Y-57350D01*
X97521Y-57294D01*
X97577Y-57181D01*
X97689Y-57125D01*
X97858Y-57125D01*
X97971Y-57181D01*
X98420Y-58363D02*
X98477Y-58306D01*
X98589Y-58138D01*
X98645Y-58025D01*
X98702Y-57856D01*
X98758Y-57575D01*
X98758Y-57350D01*
X98702Y-57069D01*
X98645Y-56900D01*
X98589Y-56788D01*
X98477Y-56619D01*
X98420Y-56563D01*
M02*
