G04 (created by PCBNEW (2013-jul-07)-stable) date su 14. joulukuuta 2014 12.55.15*
%MOIN*%
G04 Gerber Fmt 3.4, Leading zero omitted, Abs format*
%FSLAX34Y34*%
G01*
G70*
G90*
G04 APERTURE LIST*
%ADD10C,0.000787402*%
%ADD11R,0.0306126X0.0268126*%
%ADD12R,0.0268126X0.0306126*%
%ADD13R,0.0149606X0.0622047*%
%ADD14R,0.0464567X0.0464567*%
%ADD15R,0.0622047X0.0464567*%
%ADD16R,0.0292126X0.0192126*%
%ADD17R,0.0209126X0.0228126*%
%ADD18R,0.0268126X0.0149126*%
%ADD19R,0.0504126X0.0110126*%
%ADD20R,0.0110126X0.0504126*%
%ADD21R,0.00807087X0.0228346*%
%ADD22R,0.0192126X0.0292126*%
%ADD23R,0.0464126X0.0543126*%
%ADD24R,0.0583126X0.0189126*%
%ADD25R,0.0583126X0.0228126*%
%ADD26R,0.0307126X0.0583126*%
%ADD27O,0.0543307X0.0307087*%
%ADD28R,0.0385827X0.0779528*%
%ADD29R,0.0582677X0.0385827*%
%ADD30R,0.0425197X0.0503937*%
%ADD31R,0.00984252X0.0204724*%
%ADD32R,0.015748X0.0440945*%
%ADD33R,0.0267717X0.0503937*%
%ADD34R,0.0188976X0.0110236*%
%ADD35R,0.00708661X0.0346457*%
%ADD36R,0.00708661X0.00708661*%
%ADD37R,0.0440945X0.057874*%
G04 APERTURE END LIST*
G54D10*
G54D11*
X81929Y-36102D03*
X81929Y-35550D03*
X80905Y-41259D03*
X80905Y-41811D03*
X86299Y-41850D03*
X86299Y-41298D03*
X84291Y-36220D03*
X84291Y-35668D03*
G54D12*
X87164Y-38661D03*
X87716Y-38661D03*
G54D11*
X85748Y-41850D03*
X85748Y-41298D03*
G54D12*
X81260Y-34803D03*
X80708Y-34803D03*
G54D11*
X87322Y-34920D03*
X87322Y-35472D03*
X87244Y-33542D03*
X87244Y-34094D03*
X87244Y-32164D03*
X87244Y-32716D03*
G54D12*
X80708Y-36850D03*
X81260Y-36850D03*
G54D11*
X85118Y-35472D03*
X85118Y-34920D03*
X85118Y-34094D03*
X85118Y-33542D03*
X85118Y-32716D03*
X85118Y-32164D03*
X79251Y-41811D03*
X79251Y-41259D03*
X80354Y-41259D03*
X80354Y-41811D03*
X82480Y-35709D03*
X82480Y-35157D03*
G54D12*
X87716Y-41496D03*
X87164Y-41496D03*
G54D11*
X78425Y-29842D03*
X78425Y-30394D03*
G54D12*
X87164Y-39212D03*
X87716Y-39212D03*
X76524Y-31385D03*
X75972Y-31385D03*
X74803Y-39724D03*
X74251Y-39724D03*
X79960Y-32952D03*
X80512Y-32952D03*
G54D11*
X79606Y-29842D03*
X79606Y-30394D03*
X80196Y-29842D03*
X80196Y-30394D03*
X80787Y-30394D03*
X80787Y-29842D03*
G54D12*
X77834Y-41811D03*
X78386Y-41811D03*
G54D13*
X76161Y-40688D03*
X75905Y-40688D03*
X75649Y-40688D03*
X75393Y-40688D03*
X75137Y-40688D03*
G54D14*
X75314Y-41751D03*
X75984Y-41751D03*
G54D15*
X74389Y-40688D03*
X76909Y-40688D03*
G54D14*
X74271Y-41751D03*
X77027Y-41751D03*
G54D16*
X85866Y-36614D03*
X86653Y-36988D03*
X86653Y-36240D03*
G54D11*
X87755Y-34094D03*
X87755Y-33542D03*
X87755Y-32716D03*
X87755Y-32164D03*
X87204Y-36890D03*
X87204Y-36338D03*
X86653Y-38661D03*
X86653Y-39213D03*
G54D12*
X78621Y-39311D03*
X79173Y-39311D03*
X78621Y-39822D03*
X79173Y-39822D03*
X79173Y-40334D03*
X78621Y-40334D03*
X79587Y-30944D03*
X79035Y-30944D03*
X80216Y-30944D03*
X80768Y-30944D03*
G54D11*
X81377Y-30394D03*
X81377Y-29842D03*
G54D12*
X80708Y-34251D03*
X81260Y-34251D03*
G54D11*
X83740Y-32441D03*
X83740Y-31889D03*
G54D12*
X78150Y-31141D03*
X77598Y-31141D03*
X87164Y-38070D03*
X87716Y-38070D03*
X87716Y-37480D03*
X87164Y-37480D03*
X77834Y-41259D03*
X78386Y-41259D03*
G54D11*
X79015Y-29842D03*
X79015Y-30394D03*
X82559Y-31889D03*
X82559Y-32441D03*
X83149Y-32441D03*
X83149Y-31889D03*
G54D17*
X74459Y-30836D03*
X75138Y-30836D03*
X74459Y-29596D03*
X75138Y-29596D03*
G54D18*
X74803Y-30875D03*
X74803Y-29557D03*
G54D19*
X85728Y-40177D03*
X85728Y-39980D03*
X85728Y-39783D03*
X85728Y-39586D03*
X85728Y-39389D03*
X85728Y-40767D03*
X85728Y-40571D03*
X85728Y-40374D03*
G54D20*
X84861Y-36948D03*
X84665Y-36948D03*
X84468Y-36948D03*
X84271Y-36948D03*
X84074Y-36948D03*
X83877Y-36948D03*
X83680Y-36948D03*
X83483Y-36948D03*
G54D19*
X81043Y-37815D03*
X81043Y-38011D03*
X81043Y-38208D03*
X81043Y-38405D03*
X81043Y-38602D03*
X81043Y-38799D03*
X81043Y-38996D03*
X81043Y-39193D03*
G54D20*
X81909Y-41634D03*
X82105Y-41634D03*
X82302Y-41634D03*
X82499Y-41634D03*
X82696Y-41634D03*
X82893Y-41634D03*
X83090Y-41634D03*
X83287Y-41634D03*
G54D19*
X85728Y-39193D03*
X85728Y-38996D03*
X85728Y-38799D03*
G54D20*
X83287Y-36948D03*
X83090Y-36948D03*
X82893Y-36948D03*
G54D19*
X81043Y-39389D03*
X81043Y-39586D03*
X81043Y-39783D03*
G54D20*
X83483Y-41634D03*
X83680Y-41634D03*
X83877Y-41634D03*
G54D19*
X85728Y-38602D03*
X85728Y-38405D03*
X85728Y-38208D03*
X85728Y-38011D03*
X85728Y-37815D03*
G54D20*
X82696Y-36948D03*
X82499Y-36948D03*
X82302Y-36948D03*
X82105Y-36948D03*
X81909Y-36948D03*
G54D19*
X81043Y-39980D03*
X81043Y-40177D03*
X81043Y-40374D03*
X81043Y-40571D03*
X81043Y-40767D03*
G54D20*
X84074Y-41634D03*
X84271Y-41634D03*
X84468Y-41634D03*
X84665Y-41634D03*
X84861Y-41634D03*
G54D21*
X81299Y-35472D03*
X81141Y-35472D03*
X80984Y-35472D03*
X80826Y-35472D03*
X80669Y-35472D03*
X80669Y-36181D03*
X80826Y-36181D03*
X80984Y-36181D03*
X81141Y-36181D03*
X81299Y-36181D03*
G54D22*
X78012Y-39066D03*
X77262Y-39066D03*
X77637Y-40066D03*
X77637Y-39066D03*
X77262Y-40066D03*
X78012Y-40066D03*
G54D23*
X87617Y-40787D03*
X87617Y-39921D03*
X86948Y-39921D03*
X86948Y-40787D03*
G54D24*
X79958Y-33521D03*
X79958Y-33856D03*
G54D25*
X79958Y-34190D03*
X79958Y-34623D03*
X79958Y-35056D03*
X79958Y-35490D03*
X79958Y-35923D03*
X79958Y-36356D03*
X79958Y-36789D03*
X79958Y-37222D03*
G54D26*
X76687Y-38876D03*
X76187Y-38876D03*
X74187Y-38876D03*
X75687Y-38876D03*
X75187Y-38876D03*
X74687Y-38876D03*
G54D27*
X73443Y-31731D03*
X73443Y-38581D03*
G54D28*
X79665Y-38188D03*
X79665Y-32125D03*
G54D29*
X79173Y-31535D03*
G54D16*
X86720Y-35571D03*
X86720Y-34821D03*
X85720Y-35571D03*
X86720Y-35196D03*
X85720Y-34821D03*
X86720Y-34193D03*
X86720Y-33443D03*
X85720Y-34193D03*
X86720Y-33818D03*
X85720Y-33443D03*
X86720Y-32815D03*
X86720Y-32065D03*
X85720Y-32815D03*
X86720Y-32440D03*
X85720Y-32065D03*
X76783Y-29743D03*
X76783Y-30493D03*
X77783Y-29743D03*
X76783Y-30118D03*
X77783Y-30493D03*
G54D11*
X84448Y-33188D03*
X84448Y-33740D03*
X82362Y-33740D03*
X82362Y-33188D03*
G54D16*
X83925Y-33839D03*
X83925Y-33089D03*
X82925Y-33839D03*
X83925Y-33464D03*
X82925Y-33089D03*
G54D30*
X87716Y-36279D03*
G54D31*
X83779Y-31177D03*
X83937Y-31177D03*
X84094Y-31177D03*
X84251Y-31177D03*
X84409Y-31177D03*
X84566Y-31177D03*
X84724Y-31177D03*
X84881Y-31177D03*
X85039Y-31177D03*
X85196Y-31177D03*
X85354Y-31177D03*
X85511Y-31177D03*
X85511Y-30082D03*
X85354Y-30082D03*
X85196Y-30082D03*
X85039Y-30082D03*
X84881Y-30082D03*
X84724Y-30082D03*
X84566Y-30082D03*
X84409Y-30082D03*
X84251Y-30082D03*
X84094Y-30082D03*
X83937Y-30082D03*
X83779Y-30082D03*
G54D32*
X86000Y-30629D03*
X83291Y-30629D03*
G54D11*
X83031Y-35709D03*
X83031Y-35157D03*
G54D17*
X76318Y-29596D03*
X75639Y-29596D03*
X76318Y-30836D03*
X75639Y-30836D03*
G54D18*
X75974Y-29557D03*
X75974Y-30875D03*
G54D33*
X86744Y-41464D03*
G54D34*
X86783Y-41661D03*
G54D35*
X86645Y-41543D03*
G54D36*
X86763Y-41523D03*
X86724Y-41405D03*
G54D35*
X86842Y-41385D03*
G54D34*
X86704Y-41267D03*
G54D37*
X86692Y-30521D03*
M02*
