G04 (created by PCBNEW (2013-jul-07)-stable) date su 14. joulukuuta 2014 12.55.15*
%MOIN*%
G04 Gerber Fmt 3.4, Leading zero omitted, Abs format*
%FSLAX34Y34*%
G01*
G70*
G90*
G04 APERTURE LIST*
%ADD10C,0.000787402*%
%ADD11C,0.00590551*%
%ADD12R,0.0377622X0.0377622*%
%ADD13R,0.100762X0.0968622*%
%ADD14R,0.0299622X0.0337622*%
%ADD15R,0.0337622X0.0299622*%
%ADD16R,0.0259622X0.0574803*%
%ADD17R,0.0574803X0.0259622*%
%ADD18R,0.0417323X0.0437008*%
%ADD19R,0.0358268X0.0889764*%
%ADD20C,0.0535433*%
%ADD21O,0.0574803X0.0338583*%
%ADD22C,0.0317*%
%ADD23C,0.159843*%
%ADD24R,0.0535433X0.0299213*%
%ADD25R,0.0141732X0.0220472*%
%ADD26R,0.0377953X0.0102362*%
%ADD27R,0.0102362X0.0102362*%
G04 APERTURE END LIST*
G54D10*
G54D11*
X73639Y-32431D02*
X73452Y-32323D01*
X73639Y-32206D02*
X73245Y-32255D01*
X73245Y-32405D01*
X73264Y-32440D01*
X73283Y-32457D01*
X73320Y-32471D01*
X73377Y-32464D01*
X73414Y-32440D01*
X73433Y-32419D01*
X73452Y-32379D01*
X73452Y-32229D01*
X73377Y-32801D02*
X73639Y-32768D01*
X73377Y-32633D02*
X73583Y-32607D01*
X73620Y-32621D01*
X73639Y-32656D01*
X73639Y-32712D01*
X73620Y-32752D01*
X73602Y-32773D01*
X73377Y-33157D02*
X73639Y-33125D01*
X73377Y-32989D02*
X73583Y-32963D01*
X73620Y-32977D01*
X73639Y-33012D01*
X73639Y-33068D01*
X73620Y-33108D01*
X73602Y-33129D01*
X73377Y-33307D02*
X73639Y-33368D01*
X73377Y-33495D01*
X73639Y-33612D02*
X73377Y-33645D01*
X73245Y-33661D02*
X73264Y-33640D01*
X73283Y-33657D01*
X73264Y-33678D01*
X73245Y-33661D01*
X73283Y-33657D01*
X73245Y-33793D02*
X73245Y-34018D01*
X73639Y-33856D02*
X73245Y-33905D01*
X73639Y-34100D02*
X73377Y-34132D01*
X73452Y-34123D02*
X73414Y-34146D01*
X73395Y-34168D01*
X73377Y-34207D01*
X73377Y-34245D01*
X73639Y-34512D02*
X73433Y-34538D01*
X73395Y-34524D01*
X73377Y-34489D01*
X73377Y-34414D01*
X73395Y-34374D01*
X73620Y-34514D02*
X73639Y-34475D01*
X73639Y-34381D01*
X73620Y-34346D01*
X73583Y-34332D01*
X73545Y-34336D01*
X73508Y-34360D01*
X73489Y-34400D01*
X73489Y-34493D01*
X73470Y-34533D01*
X73620Y-34871D02*
X73639Y-34831D01*
X73639Y-34756D01*
X73620Y-34721D01*
X73602Y-34704D01*
X73564Y-34690D01*
X73452Y-34704D01*
X73414Y-34728D01*
X73395Y-34749D01*
X73377Y-34789D01*
X73377Y-34864D01*
X73395Y-34899D01*
X73639Y-35037D02*
X73245Y-35086D01*
X73489Y-35093D02*
X73639Y-35187D01*
X73377Y-35220D02*
X73527Y-35051D01*
X73620Y-35508D02*
X73639Y-35468D01*
X73639Y-35393D01*
X73620Y-35358D01*
X73583Y-35344D01*
X73433Y-35363D01*
X73395Y-35386D01*
X73377Y-35426D01*
X73377Y-35501D01*
X73395Y-35536D01*
X73433Y-35550D01*
X73470Y-35545D01*
X73508Y-35353D01*
X73639Y-35693D02*
X73377Y-35726D01*
X73452Y-35717D02*
X73414Y-35740D01*
X73395Y-35761D01*
X73377Y-35801D01*
X73377Y-35838D01*
X73639Y-36462D02*
X73452Y-36354D01*
X73639Y-36237D02*
X73245Y-36286D01*
X73245Y-36436D01*
X73264Y-36471D01*
X73283Y-36488D01*
X73320Y-36502D01*
X73377Y-36495D01*
X73414Y-36471D01*
X73433Y-36450D01*
X73452Y-36410D01*
X73452Y-36260D01*
X73620Y-36783D02*
X73639Y-36743D01*
X73639Y-36668D01*
X73620Y-36633D01*
X73583Y-36619D01*
X73433Y-36638D01*
X73395Y-36661D01*
X73377Y-36701D01*
X73377Y-36776D01*
X73395Y-36811D01*
X73433Y-36825D01*
X73470Y-36820D01*
X73508Y-36628D01*
X73377Y-36963D02*
X73639Y-37024D01*
X73377Y-37151D01*
X73602Y-37273D02*
X73620Y-37289D01*
X73639Y-37268D01*
X73620Y-37252D01*
X73602Y-37273D01*
X73639Y-37268D01*
X73602Y-37685D02*
X73620Y-37664D01*
X73639Y-37605D01*
X73639Y-37568D01*
X73620Y-37514D01*
X73583Y-37481D01*
X73545Y-37467D01*
X73470Y-37458D01*
X73414Y-37465D01*
X73339Y-37493D01*
X73302Y-37516D01*
X73264Y-37559D01*
X73245Y-37617D01*
X73245Y-37655D01*
X73264Y-37708D01*
X73283Y-37725D01*
X73245Y-37861D02*
X73245Y-38105D01*
X73395Y-37955D01*
X73395Y-38011D01*
X73414Y-38046D01*
X73433Y-38062D01*
X73470Y-38076D01*
X73564Y-38065D01*
X73602Y-38041D01*
X73620Y-38020D01*
X73639Y-37980D01*
X73639Y-37868D01*
X73620Y-37833D01*
X73602Y-37816D01*
G54D12*
X73500Y-41250D03*
X73500Y-41750D03*
X73425Y-30893D03*
X73425Y-30393D03*
X73425Y-29893D03*
X73500Y-40250D03*
X73500Y-40750D03*
X73500Y-39750D03*
X73500Y-39250D03*
G54D13*
X87007Y-35157D03*
X87007Y-32559D03*
X87007Y-36496D03*
X87007Y-39094D03*
G54D14*
X87244Y-39921D03*
X86692Y-39921D03*
X86693Y-31653D03*
X86141Y-31653D03*
X87244Y-40393D03*
X86692Y-40393D03*
X87756Y-31653D03*
X87204Y-31653D03*
G54D15*
X86141Y-40630D03*
X86141Y-40078D03*
G54D14*
X86693Y-31181D03*
X86141Y-31181D03*
X87756Y-31181D03*
X87204Y-31181D03*
G54D12*
X87755Y-30551D03*
G54D16*
X83661Y-41653D03*
X83267Y-41652D03*
X82874Y-41652D03*
X82480Y-41652D03*
X82086Y-41652D03*
X81692Y-41652D03*
X81299Y-41652D03*
X80905Y-41652D03*
X80511Y-41652D03*
X80118Y-41652D03*
X79724Y-41652D03*
X79330Y-41652D03*
X78937Y-41652D03*
X78543Y-41652D03*
X78149Y-41652D03*
X77755Y-41652D03*
X77362Y-41652D03*
X76968Y-41652D03*
X76574Y-41652D03*
X76181Y-41652D03*
G54D17*
X74094Y-39565D03*
X74094Y-39171D03*
X74094Y-38777D03*
X74094Y-38384D03*
X74094Y-37990D03*
X74094Y-37596D03*
X74094Y-37203D03*
X74094Y-36809D03*
X74094Y-36415D03*
X74094Y-36022D03*
X74094Y-35628D03*
X74094Y-35234D03*
X74094Y-34840D03*
X74094Y-34447D03*
X74094Y-34053D03*
X74094Y-33659D03*
X74094Y-33266D03*
X74094Y-32872D03*
X74094Y-32478D03*
X74094Y-32085D03*
G54D16*
X76181Y-29998D03*
X76575Y-29998D03*
X76968Y-29998D03*
X77362Y-29998D03*
X77756Y-29998D03*
X78150Y-29998D03*
X78543Y-29998D03*
X78937Y-29998D03*
X79331Y-29998D03*
X79724Y-29998D03*
X80118Y-29998D03*
X80512Y-29998D03*
X80905Y-29998D03*
X81299Y-29998D03*
X81693Y-29998D03*
X82087Y-29998D03*
X82480Y-29998D03*
X82874Y-29998D03*
X83268Y-29998D03*
X83661Y-29998D03*
G54D17*
X85748Y-32086D03*
X85748Y-32479D03*
X85748Y-32873D03*
X85748Y-33267D03*
X85748Y-33660D03*
X85748Y-34054D03*
X85748Y-34448D03*
X85748Y-34841D03*
X85748Y-35235D03*
X85748Y-35629D03*
X85748Y-36023D03*
X85748Y-36416D03*
X85748Y-36810D03*
X85748Y-37204D03*
X85748Y-37597D03*
X85748Y-37991D03*
X85748Y-38385D03*
X85748Y-38778D03*
X85748Y-39172D03*
X85748Y-39566D03*
G54D18*
X86692Y-41013D03*
G54D19*
X86151Y-41614D03*
X87234Y-41614D03*
G54D18*
X86692Y-30639D03*
G54D19*
X87234Y-30039D03*
X86151Y-30039D03*
G54D20*
X82677Y-30629D03*
G54D21*
X73443Y-31731D03*
X73443Y-38581D03*
G54D22*
X75236Y-29685D03*
X87755Y-40787D03*
G54D12*
X88268Y-36252D03*
X88268Y-35752D03*
X88268Y-35252D03*
X87268Y-42402D03*
X86768Y-42402D03*
X87268Y-29252D03*
X88268Y-31752D03*
X88268Y-31252D03*
X83768Y-42402D03*
X83268Y-42402D03*
X88268Y-33752D03*
X85768Y-29252D03*
X88268Y-32752D03*
X88268Y-32252D03*
X88268Y-33252D03*
X85768Y-42402D03*
X85268Y-42402D03*
X84768Y-29252D03*
X83768Y-29252D03*
X84268Y-29252D03*
X88268Y-30752D03*
X88268Y-30252D03*
X85268Y-29252D03*
X86268Y-42402D03*
X86768Y-29252D03*
X84768Y-42402D03*
X72953Y-30252D03*
X72953Y-30752D03*
X88268Y-37752D03*
X72953Y-40901D03*
X72953Y-41401D03*
X86268Y-29252D03*
X83268Y-29252D03*
X88268Y-36752D03*
X88268Y-37252D03*
G54D23*
X80610Y-28346D03*
X80610Y-43307D03*
G54D12*
X77452Y-42401D03*
X77952Y-42401D03*
G54D24*
X74488Y-29645D03*
G54D25*
X74685Y-29685D03*
G54D26*
X74566Y-29547D03*
G54D27*
X74547Y-29665D03*
X74429Y-29625D03*
G54D26*
X74409Y-29744D03*
G54D25*
X74291Y-29606D03*
G54D12*
X88267Y-38251D03*
X88267Y-39251D03*
X88267Y-38751D03*
X77452Y-29251D03*
X72952Y-39401D03*
X77952Y-29251D03*
M02*
