M48
;DRILL file {Pcbnew (2013-jul-07)-stable} date su 14. joulukuuta 2014 12.55.17
;FORMAT={-:-/ absolute / metric / decimal}
FMAT,2
METRIC,TZ
T1C0.300
T2C0.399
T3C0.600
T4C0.701
T5C0.701
T6C1.000
T7C3.000
%
G90
G05
M71
T1
X188.85Y-101.95
X188.9Y-79.4
X189.5Y-79.99
X189.64Y-95.89
X189.65Y-77.64
X189.73Y-97.1
X189.9Y-82.5
X189.9Y-83.45
X190.Y-101.9
X190.04Y-104.3
X190.22Y-77.64
X190.33Y-99.96
X190.8Y-101.9
X190.91Y-79.63
X191.24Y-77.25
X191.6Y-80.22
X192.45Y-82.07
X192.45Y-96.65
X193.5Y-97.25
X194.8Y-97.25
X194.95Y-102.08
X195.Y-101.3
X195.15Y-78.5
X195.4Y-80.08
X195.87Y-77.36
X196.3Y-80.1
X197.2Y-98.1
X197.2Y-100.6
X197.3Y-103.65
X198.42Y-80.07
X198.47Y-102.65
X199.62Y-79.59
X199.92Y-104.26
X201.08Y-87.36
X201.55Y-93.63
X201.69Y-92.35
X201.73Y-88.97
X201.73Y-90.68
X202.2Y-98.6
X202.3Y-103.3
X202.35Y-83.5
X202.77Y-100.05
X202.83Y-99.18
X203.35Y-103.93
X203.47Y-81.35
X203.56Y-96.93
X203.78Y-98.5
X204.25Y-90.
X204.3Y-90.78
X204.33Y-89.14
X204.4Y-81.35
X204.43Y-79.56
X204.45Y-77.9
X204.53Y-98.26
X204.58Y-100.92
X204.65Y-95.89
X205.35Y-83.3
X205.55Y-81.4
X205.7Y-92.899
X206.1Y-94.6
X206.69Y-104.34
X207.09Y-95.61
X207.2Y-90.6
X207.2Y-103.6
X207.27Y-97.13
X207.35Y-79.35
X207.35Y-87.44
X207.4Y-99.95
X207.523Y-86.159
X207.83Y-97.79
X207.9Y-95.45
X208.Y-96.8
X208.1Y-79.35
X208.15Y-81.9
X208.59Y-103.34
X208.6Y-104.15
X208.7Y-81.35
X208.7Y-95.45
X208.9Y-79.3
X208.94Y-101.45
X209.37Y-103.36
X209.5Y-102.07
X209.7Y-79.3
X209.7Y-83.3
X209.9Y-92.55
X210.45Y-81.7
X210.63Y-103.41
X210.65Y-98.75
X210.7Y-92.55
X211.12Y-83.287
X211.4Y-98.55
X211.54Y-99.9
X211.6Y-96.6
X211.6Y-97.4
X211.95Y-81.7
X212.Y-78.9
X212.5Y-91.05
X212.75Y-88.1
X212.82Y-78.48
X212.86Y-100.23
X213.Y-96.05
X213.6Y-78.45
X213.7Y-81.4
X213.85Y-103.75
X214.35Y-100.3
X214.4Y-77.12
X214.4Y-78.45
X214.45Y-103.15
X215.1Y-75.4
X215.15Y-80.05
X215.3Y-101.8
X215.3Y-104.5
X215.4Y-98.1
X215.43Y-85.05
X215.43Y-86.67
X215.45Y-82.4
X215.45Y-95.15
X215.45Y-95.95
X215.48Y-84.19
X215.6Y-101.05
X215.7Y-96.7
X215.7Y-98.85
X215.8Y-80.45
X215.95Y-77.2
X215.976Y-99.573
X216.1Y-75.35
X216.2Y-100.5
X216.24Y-104.38
X216.37Y-101.27
X216.42Y-97.96
X216.43Y-89.74
X216.5Y-91.05
X216.55Y-93.81
X216.56Y-103.18
X216.6Y-80.45
X216.6Y-106.4
X216.626Y-99.103
X216.63Y-92.88
X216.64Y-87.88
X216.654Y-99.898
X216.9Y-104.9
X217.14Y-104.21
X217.15Y-78.45
X217.25Y-80.
X219.01Y-98.95
X219.03Y-95.04
X219.06Y-84.39
X219.07Y-85.68
X219.09Y-93.73
X219.1Y-92.25
X219.15Y-89.5
X219.15Y-98.28
X219.16Y-81.27
X219.17Y-104.06
X219.18Y-90.35
X219.18Y-91.37
X219.2Y-86.8
X219.24Y-83.11
X219.59Y-96.71
X219.68Y-87.58
X220.13Y-95.03
X220.2Y-93.
X220.37Y-96.93
X220.5Y-76.3
X220.58Y-96.18
X220.63Y-106.45
X221.46Y-78.07
X221.6Y-84.5
X221.65Y-90.98
X222.08Y-94.48
X222.1Y-95.95
X222.26Y-95.21
X222.48Y-76.1
X223.28Y-83.91
X223.35Y-97.8
X223.5Y-101.4
T3
X186.5Y-75.93
X186.5Y-77.2
X186.5Y-78.47
X186.69Y-99.695
X186.69Y-100.965
X186.69Y-102.235
X186.69Y-103.505
X222.9Y-77.6
T4
X185.301Y-76.84
X185.301Y-78.11
X185.301Y-103.889
X185.301Y-105.159
X186.69Y-104.775
X186.69Y-106.045
X196.73Y-107.7
X198.Y-107.7
X211.501Y-74.3
X211.501Y-107.701
X212.771Y-74.3
X212.771Y-107.701
X214.041Y-74.3
X215.311Y-74.3
X215.311Y-107.701
X216.581Y-74.3
X216.581Y-107.701
X217.851Y-74.3
X217.851Y-107.701
X219.121Y-74.3
X219.121Y-107.701
X220.391Y-74.3
X220.391Y-107.701
X221.661Y-74.3
X221.661Y-107.701
X224.2Y-97.16
X224.201Y-76.84
X224.201Y-78.11
X224.201Y-79.38
X224.201Y-80.65
X224.201Y-81.92
X224.201Y-83.19
X224.201Y-84.46
X224.201Y-85.73
X224.201Y-89.54
X224.201Y-90.81
X224.201Y-92.08
X224.201Y-93.35
X224.201Y-94.62
X224.201Y-95.89
T5
X185.3Y-100.08
X196.73Y-74.3
X198.Y-74.3
X224.2Y-98.43
X224.2Y-99.7
T6
X210.Y-77.8
T7
X204.75Y-72.
X204.75Y-110.
T2
X186.848Y-80.599G85X186.247Y-80.599
G05
X186.848Y-97.998G85X186.247Y-97.998
G05
T0
M30
