G04 (created by PCBNEW (2013-jul-07)-stable) date su 14. joulukuuta 2014 12.55.15*
%MOIN*%
G04 Gerber Fmt 3.4, Leading zero omitted, Abs format*
%FSLAX34Y34*%
G01*
G70*
G90*
G04 APERTURE LIST*
%ADD10C,0.000787402*%
%ADD11C,0.00393701*%
%ADD12C,0.0001*%
%ADD13R,0.0377622X0.0377622*%
%ADD14R,0.0337622X0.0299622*%
%ADD15R,0.0299622X0.0337622*%
%ADD16R,0.0181102X0.0653543*%
%ADD17R,0.0496063X0.0496063*%
%ADD18R,0.0653543X0.0496063*%
%ADD19R,0.0323622X0.0223622*%
%ADD20R,0.0240622X0.0259622*%
%ADD21R,0.0299622X0.0180622*%
%ADD22R,0.0535622X0.0141622*%
%ADD23R,0.0141622X0.0535622*%
%ADD24R,0.0112205X0.0259843*%
%ADD25R,0.0775591X0.0293307*%
%ADD26R,0.0223622X0.0323622*%
%ADD27R,0.0495622X0.0574622*%
%ADD28C,0.0535433*%
%ADD29R,0.0614622X0.0220622*%
%ADD30R,0.0614622X0.0259622*%
%ADD31R,0.0338622X0.0614622*%
%ADD32O,0.0574803X0.0338583*%
%ADD33R,0.0417323X0.0811024*%
%ADD34R,0.0614173X0.0417323*%
%ADD35C,0.0317*%
%ADD36R,0.0456693X0.0811024*%
%ADD37C,0.159843*%
%ADD38R,0.0114173X0.0220472*%
%ADD39R,0.0173228X0.0456693*%
%ADD40R,0.0299213X0.0535433*%
%ADD41R,0.0220472X0.0141732*%
%ADD42R,0.0102362X0.0377953*%
%ADD43R,0.0102362X0.0102362*%
%ADD44R,0.0476378X0.0830709*%
G04 APERTURE END LIST*
G54D10*
G54D11*
X76183Y-33751D02*
X76204Y-33733D01*
X76244Y-33714D01*
X76337Y-33714D01*
X76373Y-33733D01*
X76389Y-33751D01*
X76403Y-33789D01*
X76398Y-33826D01*
X76373Y-33883D01*
X76119Y-34108D01*
X76363Y-34108D01*
X76656Y-33714D02*
X76694Y-33714D01*
X76729Y-33733D01*
X76745Y-33751D01*
X76759Y-33789D01*
X76769Y-33864D01*
X76757Y-33958D01*
X76729Y-34033D01*
X76705Y-34070D01*
X76684Y-34089D01*
X76644Y-34108D01*
X76607Y-34108D01*
X76572Y-34089D01*
X76555Y-34070D01*
X76541Y-34033D01*
X76532Y-33958D01*
X76544Y-33864D01*
X76572Y-33789D01*
X76595Y-33751D01*
X76616Y-33733D01*
X76656Y-33714D01*
X77113Y-34108D02*
X76888Y-34108D01*
X77001Y-34108D02*
X77050Y-33714D01*
X77005Y-33770D01*
X76963Y-33808D01*
X76923Y-33826D01*
X77519Y-33714D02*
X77331Y-33714D01*
X77289Y-33901D01*
X77310Y-33883D01*
X77350Y-33864D01*
X77444Y-33864D01*
X77479Y-33883D01*
X77495Y-33901D01*
X77509Y-33939D01*
X77497Y-34033D01*
X77474Y-34070D01*
X77453Y-34089D01*
X77413Y-34108D01*
X77319Y-34108D01*
X77284Y-34089D01*
X77268Y-34070D01*
X74758Y-36296D02*
X74797Y-35981D01*
X74863Y-35981D01*
X74900Y-35996D01*
X74923Y-36026D01*
X74932Y-36056D01*
X74938Y-36116D01*
X74932Y-36161D01*
X74912Y-36221D01*
X74895Y-36251D01*
X74865Y-36281D01*
X74823Y-36296D01*
X74758Y-36296D01*
X75140Y-36281D02*
X75112Y-36296D01*
X75060Y-36296D01*
X75035Y-36281D01*
X75026Y-36251D01*
X75041Y-36131D01*
X75058Y-36101D01*
X75086Y-36086D01*
X75138Y-36086D01*
X75163Y-36101D01*
X75172Y-36131D01*
X75168Y-36161D01*
X75033Y-36191D01*
X75258Y-36281D02*
X75283Y-36296D01*
X75335Y-36296D01*
X75363Y-36281D01*
X75380Y-36251D01*
X75382Y-36236D01*
X75373Y-36206D01*
X75348Y-36191D01*
X75309Y-36191D01*
X75285Y-36176D01*
X75275Y-36146D01*
X75277Y-36131D01*
X75294Y-36101D01*
X75322Y-36086D01*
X75362Y-36086D01*
X75386Y-36101D01*
X75493Y-36296D02*
X75519Y-36086D01*
X75532Y-35981D02*
X75517Y-35996D01*
X75528Y-36011D01*
X75543Y-35996D01*
X75532Y-35981D01*
X75528Y-36011D01*
X75768Y-36086D02*
X75736Y-36341D01*
X75720Y-36371D01*
X75705Y-36386D01*
X75676Y-36401D01*
X75637Y-36401D01*
X75613Y-36386D01*
X75744Y-36281D02*
X75716Y-36296D01*
X75663Y-36296D01*
X75639Y-36281D01*
X75628Y-36266D01*
X75618Y-36236D01*
X75630Y-36146D01*
X75646Y-36116D01*
X75661Y-36101D01*
X75690Y-36086D01*
X75742Y-36086D01*
X75766Y-36101D01*
X75900Y-36086D02*
X75873Y-36296D01*
X75896Y-36116D02*
X75911Y-36101D01*
X75939Y-36086D01*
X75978Y-36086D01*
X76003Y-36101D01*
X76012Y-36131D01*
X75991Y-36296D01*
X76126Y-36266D02*
X76138Y-36281D01*
X76123Y-36296D01*
X76111Y-36281D01*
X76126Y-36266D01*
X76123Y-36296D01*
X76147Y-36101D02*
X76158Y-36116D01*
X76143Y-36131D01*
X76132Y-36116D01*
X76147Y-36101D01*
X76143Y-36131D01*
X74889Y-36777D02*
X74758Y-36777D01*
X74797Y-36462D01*
X75099Y-36777D02*
X75120Y-36612D01*
X75110Y-36582D01*
X75086Y-36567D01*
X75033Y-36567D01*
X75005Y-36582D01*
X75101Y-36762D02*
X75073Y-36777D01*
X75007Y-36777D01*
X74983Y-36762D01*
X74973Y-36732D01*
X74977Y-36702D01*
X74994Y-36672D01*
X75022Y-36657D01*
X75088Y-36657D01*
X75116Y-36642D01*
X75375Y-36567D02*
X75348Y-36777D01*
X75257Y-36567D02*
X75236Y-36732D01*
X75245Y-36762D01*
X75270Y-36777D01*
X75309Y-36777D01*
X75337Y-36762D01*
X75352Y-36747D01*
X75480Y-36777D02*
X75506Y-36567D01*
X75498Y-36627D02*
X75515Y-36597D01*
X75530Y-36582D01*
X75558Y-36567D01*
X75585Y-36567D01*
X75650Y-36777D02*
X75676Y-36567D01*
X75690Y-36462D02*
X75675Y-36477D01*
X75686Y-36492D01*
X75701Y-36477D01*
X75690Y-36462D01*
X75686Y-36492D01*
X76110Y-36462D02*
X76081Y-36687D01*
X76063Y-36732D01*
X76033Y-36762D01*
X75991Y-36777D01*
X75965Y-36777D01*
X76320Y-36777D02*
X76340Y-36612D01*
X76331Y-36582D01*
X76306Y-36567D01*
X76254Y-36567D01*
X76226Y-36582D01*
X76321Y-36762D02*
X76293Y-36777D01*
X76228Y-36777D01*
X76203Y-36762D01*
X76194Y-36732D01*
X76198Y-36702D01*
X76215Y-36672D01*
X76243Y-36657D01*
X76308Y-36657D01*
X76336Y-36642D01*
X76241Y-36462D02*
X76252Y-36477D01*
X76237Y-36492D01*
X76226Y-36477D01*
X76241Y-36462D01*
X76237Y-36492D01*
X76346Y-36462D02*
X76357Y-36477D01*
X76342Y-36492D01*
X76331Y-36477D01*
X76346Y-36462D01*
X76342Y-36492D01*
X76451Y-36777D02*
X76477Y-36567D01*
X76473Y-36597D02*
X76488Y-36582D01*
X76516Y-36567D01*
X76556Y-36567D01*
X76580Y-36582D01*
X76589Y-36612D01*
X76569Y-36777D01*
X76589Y-36612D02*
X76606Y-36582D01*
X76634Y-36567D01*
X76674Y-36567D01*
X76698Y-36582D01*
X76708Y-36612D01*
X76687Y-36777D01*
X76807Y-36762D02*
X76831Y-36777D01*
X76884Y-36777D01*
X76912Y-36762D01*
X76929Y-36732D01*
X76931Y-36717D01*
X76921Y-36687D01*
X76897Y-36672D01*
X76858Y-36672D01*
X76833Y-36657D01*
X76824Y-36627D01*
X76826Y-36612D01*
X76843Y-36582D01*
X76871Y-36567D01*
X76910Y-36567D01*
X76934Y-36582D01*
X77159Y-36777D02*
X77180Y-36612D01*
X77171Y-36582D01*
X77146Y-36567D01*
X77094Y-36567D01*
X77066Y-36582D01*
X77161Y-36762D02*
X77133Y-36777D01*
X77068Y-36777D01*
X77043Y-36762D01*
X77034Y-36732D01*
X77038Y-36702D01*
X77054Y-36672D01*
X77083Y-36657D01*
X77148Y-36657D01*
X77176Y-36642D01*
X77081Y-36462D02*
X77092Y-36477D01*
X77077Y-36492D01*
X77066Y-36477D01*
X77081Y-36462D01*
X77077Y-36492D01*
X77186Y-36462D02*
X77197Y-36477D01*
X77182Y-36492D01*
X77171Y-36477D01*
X77186Y-36462D01*
X77182Y-36492D01*
X74758Y-37257D02*
X74784Y-37047D01*
X74777Y-37107D02*
X74793Y-37077D01*
X74808Y-37062D01*
X74837Y-37047D01*
X74863Y-37047D01*
X75073Y-37047D02*
X75047Y-37257D01*
X74955Y-37047D02*
X74934Y-37212D01*
X74943Y-37242D01*
X74968Y-37257D01*
X75007Y-37257D01*
X75035Y-37242D01*
X75050Y-37227D01*
X75322Y-37047D02*
X75296Y-37257D01*
X75204Y-37047D02*
X75183Y-37212D01*
X75193Y-37242D01*
X75217Y-37257D01*
X75257Y-37257D01*
X75285Y-37242D01*
X75300Y-37227D01*
X75427Y-37047D02*
X75467Y-37257D01*
X75558Y-37047D01*
X75637Y-37257D02*
X75663Y-37047D01*
X75676Y-36942D02*
X75661Y-36957D01*
X75673Y-36972D01*
X75688Y-36957D01*
X75676Y-36942D01*
X75673Y-36972D01*
X75755Y-37047D02*
X75860Y-37047D01*
X75808Y-36942D02*
X75774Y-37212D01*
X75783Y-37242D01*
X75808Y-37257D01*
X75834Y-37257D01*
X75926Y-37257D02*
X75952Y-37047D01*
X75945Y-37107D02*
X75961Y-37077D01*
X75976Y-37062D01*
X76005Y-37047D01*
X76031Y-37047D01*
X76215Y-37257D02*
X76235Y-37092D01*
X76226Y-37062D01*
X76201Y-37047D01*
X76149Y-37047D01*
X76121Y-37062D01*
X76216Y-37242D02*
X76188Y-37257D01*
X76123Y-37257D01*
X76098Y-37242D01*
X76089Y-37212D01*
X76093Y-37182D01*
X76110Y-37152D01*
X76138Y-37137D01*
X76203Y-37137D01*
X76231Y-37122D01*
X76466Y-37242D02*
X76438Y-37257D01*
X76385Y-37257D01*
X76361Y-37242D01*
X76350Y-37227D01*
X76340Y-37197D01*
X76351Y-37107D01*
X76368Y-37077D01*
X76383Y-37062D01*
X76411Y-37047D01*
X76464Y-37047D01*
X76488Y-37062D01*
X76582Y-37257D02*
X76621Y-36942D01*
X76623Y-37137D02*
X76687Y-37257D01*
X76713Y-37047D02*
X76593Y-37167D01*
X76912Y-37242D02*
X76884Y-37257D01*
X76831Y-37257D01*
X76807Y-37242D01*
X76798Y-37212D01*
X76813Y-37092D01*
X76829Y-37062D01*
X76858Y-37047D01*
X76910Y-37047D01*
X76934Y-37062D01*
X76944Y-37092D01*
X76940Y-37122D01*
X76805Y-37152D01*
X77041Y-37257D02*
X77068Y-37047D01*
X77060Y-37107D02*
X77077Y-37077D01*
X77092Y-37062D01*
X77120Y-37047D01*
X77146Y-37047D01*
X77216Y-37227D02*
X77227Y-37242D01*
X77212Y-37257D01*
X77201Y-37242D01*
X77216Y-37227D01*
X77212Y-37257D01*
X77330Y-37047D02*
X77435Y-37047D01*
X77343Y-37257D02*
X77377Y-36987D01*
X77394Y-36957D01*
X77422Y-36942D01*
X77448Y-36942D01*
X77501Y-37257D02*
X77527Y-37047D01*
X77540Y-36942D02*
X77525Y-36957D01*
X77536Y-36972D01*
X77551Y-36957D01*
X77540Y-36942D01*
X77536Y-36972D01*
G54D12*
G36*
X76382Y-35624D02*
X76381Y-35630D01*
X76379Y-35633D01*
X76372Y-35635D01*
X76359Y-35639D01*
X76342Y-35644D01*
X76333Y-35646D01*
X76304Y-35651D01*
X76270Y-35655D01*
X76234Y-35657D01*
X76197Y-35657D01*
X76164Y-35656D01*
X76137Y-35653D01*
X76092Y-35642D01*
X76054Y-35627D01*
X76019Y-35607D01*
X75987Y-35581D01*
X75976Y-35570D01*
X75947Y-35537D01*
X75924Y-35501D01*
X75907Y-35461D01*
X75897Y-35416D01*
X75891Y-35366D01*
X75890Y-35329D01*
X75892Y-35276D01*
X75900Y-35230D01*
X75913Y-35188D01*
X75933Y-35150D01*
X75959Y-35114D01*
X75980Y-35090D01*
X76019Y-35055D01*
X76061Y-35029D01*
X76106Y-35010D01*
X76156Y-34998D01*
X76210Y-34995D01*
X76231Y-34995D01*
X76254Y-34997D01*
X76279Y-35000D01*
X76304Y-35004D01*
X76328Y-35009D01*
X76348Y-35013D01*
X76362Y-35018D01*
X76365Y-35020D01*
X76367Y-35023D01*
X76368Y-35030D01*
X76366Y-35042D01*
X76362Y-35060D01*
X76358Y-35076D01*
X76353Y-35096D01*
X76348Y-35113D01*
X76345Y-35125D01*
X76343Y-35130D01*
X76338Y-35130D01*
X76327Y-35128D01*
X76317Y-35125D01*
X76275Y-35117D01*
X76233Y-35115D01*
X76194Y-35118D01*
X76158Y-35126D01*
X76126Y-35139D01*
X76100Y-35157D01*
X76091Y-35166D01*
X76072Y-35191D01*
X76058Y-35219D01*
X76049Y-35250D01*
X76043Y-35286D01*
X76042Y-35329D01*
X76042Y-35362D01*
X76045Y-35389D01*
X76049Y-35411D01*
X76056Y-35432D01*
X76063Y-35449D01*
X76080Y-35478D01*
X76101Y-35500D01*
X76127Y-35517D01*
X76160Y-35529D01*
X76167Y-35530D01*
X76187Y-35534D01*
X76212Y-35535D01*
X76242Y-35536D01*
X76272Y-35535D01*
X76301Y-35533D01*
X76325Y-35529D01*
X76330Y-35528D01*
X76346Y-35525D01*
X76358Y-35523D01*
X76364Y-35523D01*
X76365Y-35523D01*
X76366Y-35528D01*
X76369Y-35539D01*
X76372Y-35556D01*
X76376Y-35577D01*
X76380Y-35599D01*
X76382Y-35615D01*
X76382Y-35624D01*
X76382Y-35624D01*
X76382Y-35624D01*
G37*
G36*
X77553Y-35315D02*
X77552Y-35341D01*
X77549Y-35366D01*
X77390Y-35366D01*
X77390Y-35260D01*
X77390Y-35250D01*
X77389Y-35239D01*
X77386Y-35225D01*
X77384Y-35218D01*
X77370Y-35187D01*
X77351Y-35161D01*
X77326Y-35143D01*
X77297Y-35132D01*
X77265Y-35129D01*
X77242Y-35131D01*
X77211Y-35140D01*
X77185Y-35157D01*
X77164Y-35181D01*
X77149Y-35212D01*
X77139Y-35246D01*
X77136Y-35260D01*
X77263Y-35260D01*
X77390Y-35260D01*
X77390Y-35366D01*
X77339Y-35366D01*
X77288Y-35366D01*
X77246Y-35366D01*
X77211Y-35367D01*
X77182Y-35367D01*
X77160Y-35368D01*
X77143Y-35369D01*
X77131Y-35371D01*
X77123Y-35373D01*
X77118Y-35377D01*
X77116Y-35381D01*
X77115Y-35386D01*
X77116Y-35393D01*
X77117Y-35400D01*
X77117Y-35401D01*
X77127Y-35435D01*
X77144Y-35465D01*
X77168Y-35491D01*
X77199Y-35512D01*
X77226Y-35524D01*
X77252Y-35530D01*
X77284Y-35534D01*
X77321Y-35536D01*
X77360Y-35536D01*
X77399Y-35533D01*
X77436Y-35527D01*
X77460Y-35522D01*
X77479Y-35518D01*
X77489Y-35517D01*
X77492Y-35519D01*
X77493Y-35525D01*
X77495Y-35538D01*
X77498Y-35555D01*
X77501Y-35572D01*
X77504Y-35592D01*
X77506Y-35609D01*
X77506Y-35620D01*
X77506Y-35624D01*
X77499Y-35628D01*
X77486Y-35632D01*
X77467Y-35637D01*
X77444Y-35642D01*
X77419Y-35647D01*
X77394Y-35651D01*
X77389Y-35652D01*
X77344Y-35657D01*
X77299Y-35658D01*
X77255Y-35657D01*
X77217Y-35652D01*
X77216Y-35652D01*
X77164Y-35638D01*
X77116Y-35618D01*
X77075Y-35592D01*
X77040Y-35559D01*
X77012Y-35521D01*
X76990Y-35476D01*
X76974Y-35427D01*
X76966Y-35372D01*
X76965Y-35333D01*
X76968Y-35274D01*
X76978Y-35219D01*
X76996Y-35170D01*
X77021Y-35126D01*
X77053Y-35086D01*
X77070Y-35069D01*
X77109Y-35039D01*
X77153Y-35016D01*
X77200Y-35002D01*
X77251Y-34995D01*
X77284Y-34995D01*
X77335Y-35002D01*
X77382Y-35015D01*
X77424Y-35036D01*
X77461Y-35065D01*
X77493Y-35100D01*
X77512Y-35129D01*
X77523Y-35152D01*
X77532Y-35180D01*
X77540Y-35213D01*
X77547Y-35249D01*
X77551Y-35283D01*
X77553Y-35315D01*
X77553Y-35315D01*
X77553Y-35315D01*
G37*
G36*
X75832Y-35626D02*
X75790Y-35633D01*
X75736Y-35642D01*
X75682Y-35648D01*
X75670Y-35649D01*
X75670Y-35525D01*
X75670Y-35452D01*
X75670Y-35380D01*
X75658Y-35376D01*
X75644Y-35374D01*
X75624Y-35373D01*
X75600Y-35373D01*
X75575Y-35374D01*
X75551Y-35376D01*
X75530Y-35378D01*
X75517Y-35381D01*
X75494Y-35393D01*
X75477Y-35409D01*
X75466Y-35428D01*
X75462Y-35449D01*
X75463Y-35470D01*
X75471Y-35490D01*
X75485Y-35507D01*
X75505Y-35519D01*
X75518Y-35524D01*
X75533Y-35526D01*
X75553Y-35528D01*
X75577Y-35530D01*
X75603Y-35530D01*
X75626Y-35530D01*
X75646Y-35528D01*
X75654Y-35527D01*
X75670Y-35525D01*
X75670Y-35649D01*
X75629Y-35652D01*
X75580Y-35654D01*
X75534Y-35654D01*
X75495Y-35651D01*
X75473Y-35648D01*
X75437Y-35640D01*
X75407Y-35630D01*
X75382Y-35618D01*
X75360Y-35602D01*
X75340Y-35582D01*
X75339Y-35581D01*
X75318Y-35554D01*
X75305Y-35523D01*
X75298Y-35487D01*
X75297Y-35455D01*
X75299Y-35419D01*
X75308Y-35389D01*
X75322Y-35362D01*
X75341Y-35339D01*
X75365Y-35317D01*
X75391Y-35301D01*
X75421Y-35288D01*
X75440Y-35282D01*
X75499Y-35271D01*
X75562Y-35267D01*
X75628Y-35271D01*
X75662Y-35276D01*
X75676Y-35277D01*
X75685Y-35272D01*
X75690Y-35262D01*
X75692Y-35245D01*
X75691Y-35229D01*
X75685Y-35195D01*
X75673Y-35166D01*
X75655Y-35143D01*
X75630Y-35127D01*
X75599Y-35115D01*
X75561Y-35110D01*
X75539Y-35109D01*
X75518Y-35110D01*
X75493Y-35112D01*
X75465Y-35114D01*
X75438Y-35118D01*
X75413Y-35121D01*
X75393Y-35125D01*
X75379Y-35129D01*
X75370Y-35131D01*
X75360Y-35132D01*
X75346Y-35130D01*
X75327Y-35127D01*
X75321Y-35126D01*
X75293Y-35122D01*
X75265Y-35119D01*
X75235Y-35119D01*
X75207Y-35120D01*
X75182Y-35122D01*
X75160Y-35126D01*
X75145Y-35131D01*
X75138Y-35137D01*
X75137Y-35142D01*
X75136Y-35156D01*
X75136Y-35176D01*
X75135Y-35203D01*
X75135Y-35236D01*
X75135Y-35273D01*
X75134Y-35315D01*
X75134Y-35359D01*
X75134Y-35392D01*
X75134Y-35641D01*
X75059Y-35641D01*
X74983Y-35641D01*
X74983Y-35342D01*
X74983Y-35043D01*
X75004Y-35037D01*
X75017Y-35033D01*
X75035Y-35028D01*
X75058Y-35022D01*
X75081Y-35016D01*
X75083Y-35015D01*
X75104Y-35010D01*
X75121Y-35006D01*
X75136Y-35004D01*
X75152Y-35002D01*
X75170Y-35001D01*
X75193Y-35001D01*
X75222Y-35001D01*
X75225Y-35001D01*
X75261Y-35001D01*
X75290Y-35002D01*
X75313Y-35004D01*
X75331Y-35006D01*
X75342Y-35008D01*
X75356Y-35012D01*
X75367Y-35013D01*
X75378Y-35013D01*
X75391Y-35012D01*
X75409Y-35010D01*
X75428Y-35006D01*
X75455Y-35002D01*
X75480Y-34999D01*
X75508Y-34997D01*
X75541Y-34996D01*
X75560Y-34996D01*
X75596Y-34997D01*
X75625Y-34998D01*
X75650Y-35001D01*
X75672Y-35005D01*
X75692Y-35012D01*
X75714Y-35021D01*
X75718Y-35023D01*
X75740Y-35036D01*
X75763Y-35055D01*
X75784Y-35076D01*
X75801Y-35098D01*
X75805Y-35106D01*
X75810Y-35118D01*
X75815Y-35129D01*
X75819Y-35142D01*
X75823Y-35156D01*
X75825Y-35172D01*
X75827Y-35192D01*
X75829Y-35215D01*
X75830Y-35243D01*
X75831Y-35277D01*
X75831Y-35318D01*
X75832Y-35366D01*
X75832Y-35413D01*
X75832Y-35626D01*
X75832Y-35626D01*
X75832Y-35626D01*
G37*
G36*
X75192Y-34927D02*
X75066Y-34927D01*
X75028Y-34928D01*
X74999Y-34928D01*
X74976Y-34928D01*
X74959Y-34929D01*
X74948Y-34930D01*
X74940Y-34931D01*
X74935Y-34933D01*
X74933Y-34935D01*
X74931Y-34936D01*
X74930Y-34940D01*
X74929Y-34946D01*
X74928Y-34954D01*
X74928Y-34966D01*
X74927Y-34982D01*
X74927Y-35002D01*
X74926Y-35028D01*
X74926Y-35059D01*
X74926Y-35096D01*
X74926Y-35140D01*
X74926Y-35192D01*
X74926Y-35251D01*
X74926Y-35291D01*
X74926Y-35641D01*
X74846Y-35641D01*
X74766Y-35641D01*
X74766Y-35291D01*
X74766Y-35227D01*
X74766Y-35171D01*
X74766Y-35122D01*
X74766Y-35081D01*
X74766Y-35046D01*
X74765Y-35017D01*
X74765Y-34994D01*
X74764Y-34975D01*
X74764Y-34961D01*
X74763Y-34951D01*
X74762Y-34943D01*
X74761Y-34938D01*
X74760Y-34935D01*
X74759Y-34935D01*
X74756Y-34932D01*
X74751Y-34931D01*
X74743Y-34930D01*
X74730Y-34929D01*
X74713Y-34928D01*
X74689Y-34928D01*
X74658Y-34927D01*
X74624Y-34927D01*
X74496Y-34927D01*
X74496Y-34861D01*
X74496Y-34794D01*
X74844Y-34794D01*
X75192Y-34794D01*
X75192Y-34861D01*
X75192Y-34927D01*
X75192Y-34927D01*
X75192Y-34927D01*
G37*
G36*
X77018Y-35641D02*
X76935Y-35641D01*
X76852Y-35641D01*
X76824Y-35598D01*
X76784Y-35538D01*
X76746Y-35484D01*
X76708Y-35436D01*
X76672Y-35397D01*
X76672Y-35396D01*
X76653Y-35377D01*
X76638Y-35363D01*
X76627Y-35354D01*
X76620Y-35350D01*
X76614Y-35348D01*
X76607Y-35349D01*
X76601Y-35350D01*
X76597Y-35353D01*
X76594Y-35358D01*
X76591Y-35367D01*
X76590Y-35381D01*
X76589Y-35400D01*
X76588Y-35425D01*
X76588Y-35456D01*
X76588Y-35496D01*
X76588Y-35502D01*
X76588Y-35641D01*
X76515Y-35641D01*
X76442Y-35641D01*
X76442Y-35183D01*
X76442Y-34725D01*
X76480Y-34720D01*
X76501Y-34717D01*
X76522Y-34714D01*
X76539Y-34711D01*
X76541Y-34710D01*
X76557Y-34707D01*
X76571Y-34704D01*
X76576Y-34703D01*
X76588Y-34700D01*
X76588Y-34969D01*
X76588Y-35025D01*
X76588Y-35073D01*
X76588Y-35113D01*
X76588Y-35146D01*
X76589Y-35173D01*
X76589Y-35195D01*
X76590Y-35212D01*
X76590Y-35224D01*
X76591Y-35233D01*
X76592Y-35239D01*
X76594Y-35242D01*
X76595Y-35244D01*
X76607Y-35250D01*
X76620Y-35249D01*
X76631Y-35243D01*
X76638Y-35237D01*
X76649Y-35224D01*
X76665Y-35207D01*
X76683Y-35187D01*
X76703Y-35165D01*
X76724Y-35141D01*
X76745Y-35117D01*
X76764Y-35095D01*
X76782Y-35074D01*
X76796Y-35057D01*
X76834Y-35012D01*
X76915Y-35012D01*
X76997Y-35012D01*
X76988Y-35022D01*
X76946Y-35069D01*
X76909Y-35111D01*
X76875Y-35148D01*
X76844Y-35182D01*
X76815Y-35212D01*
X76792Y-35236D01*
X76776Y-35254D01*
X76765Y-35267D01*
X76759Y-35277D01*
X76756Y-35283D01*
X76756Y-35284D01*
X76759Y-35292D01*
X76766Y-35304D01*
X76779Y-35320D01*
X76798Y-35341D01*
X76836Y-35384D01*
X76873Y-35429D01*
X76909Y-35474D01*
X76941Y-35518D01*
X76970Y-35559D01*
X76994Y-35597D01*
X77011Y-35627D01*
X77018Y-35641D01*
X77018Y-35641D01*
X77018Y-35641D01*
G37*
G36*
X77996Y-35018D02*
X77996Y-35022D01*
X77994Y-35034D01*
X77991Y-35050D01*
X77988Y-35068D01*
X77984Y-35088D01*
X77980Y-35105D01*
X77977Y-35119D01*
X77974Y-35128D01*
X77974Y-35130D01*
X77969Y-35130D01*
X77958Y-35128D01*
X77942Y-35125D01*
X77935Y-35124D01*
X77909Y-35121D01*
X77882Y-35119D01*
X77853Y-35119D01*
X77826Y-35120D01*
X77802Y-35123D01*
X77782Y-35127D01*
X77767Y-35132D01*
X77761Y-35137D01*
X77761Y-35142D01*
X77760Y-35156D01*
X77760Y-35176D01*
X77759Y-35203D01*
X77759Y-35236D01*
X77758Y-35273D01*
X77758Y-35315D01*
X77758Y-35359D01*
X77758Y-35392D01*
X77758Y-35641D01*
X77683Y-35641D01*
X77607Y-35641D01*
X77608Y-35341D01*
X77610Y-35040D01*
X77661Y-35026D01*
X77705Y-35015D01*
X77743Y-35007D01*
X77777Y-35002D01*
X77811Y-35000D01*
X77847Y-34999D01*
X77871Y-35000D01*
X77900Y-35002D01*
X77929Y-35004D01*
X77954Y-35007D01*
X77974Y-35011D01*
X77989Y-35014D01*
X77996Y-35018D01*
X77996Y-35018D01*
X77996Y-35018D01*
G37*
G36*
X76490Y-34661D02*
X76454Y-34664D01*
X76426Y-34667D01*
X76405Y-34671D01*
X76392Y-34676D01*
X76384Y-34683D01*
X76384Y-34684D01*
X76383Y-34691D01*
X76381Y-34705D01*
X76381Y-34727D01*
X76380Y-34754D01*
X76380Y-34787D01*
X76380Y-34807D01*
X76380Y-34923D01*
X76370Y-34925D01*
X76342Y-34929D01*
X76310Y-34933D01*
X76274Y-34935D01*
X76237Y-34935D01*
X76202Y-34935D01*
X76171Y-34933D01*
X76151Y-34930D01*
X76105Y-34918D01*
X76065Y-34900D01*
X76031Y-34876D01*
X76008Y-34851D01*
X75993Y-34829D01*
X75982Y-34807D01*
X75973Y-34781D01*
X75965Y-34750D01*
X75963Y-34741D01*
X75961Y-34731D01*
X75959Y-34720D01*
X75958Y-34708D01*
X75956Y-34694D01*
X75956Y-34678D01*
X75955Y-34658D01*
X75954Y-34634D01*
X75954Y-34604D01*
X75954Y-34567D01*
X75954Y-34524D01*
X75954Y-34494D01*
X75954Y-34289D01*
X76027Y-34289D01*
X76100Y-34289D01*
X76100Y-34457D01*
X76100Y-34518D01*
X76101Y-34571D01*
X76102Y-34616D01*
X76104Y-34655D01*
X76107Y-34687D01*
X76111Y-34714D01*
X76116Y-34736D01*
X76122Y-34754D01*
X76130Y-34769D01*
X76139Y-34780D01*
X76150Y-34790D01*
X76162Y-34798D01*
X76170Y-34802D01*
X76181Y-34807D01*
X76190Y-34810D01*
X76200Y-34812D01*
X76214Y-34814D01*
X76231Y-34814D01*
X76253Y-34814D01*
X76285Y-34813D01*
X76309Y-34810D01*
X76326Y-34807D01*
X76337Y-34802D01*
X76341Y-34798D01*
X76341Y-34792D01*
X76342Y-34779D01*
X76342Y-34758D01*
X76343Y-34731D01*
X76343Y-34699D01*
X76344Y-34661D01*
X76344Y-34620D01*
X76344Y-34575D01*
X76344Y-34541D01*
X76344Y-34289D01*
X76417Y-34289D01*
X76490Y-34289D01*
X76490Y-34475D01*
X76490Y-34661D01*
X76490Y-34661D01*
X76490Y-34661D01*
G37*
G36*
X77093Y-34901D02*
X77076Y-34905D01*
X77045Y-34912D01*
X77008Y-34919D01*
X76967Y-34925D01*
X76924Y-34930D01*
X76884Y-34934D01*
X76847Y-34936D01*
X76829Y-34936D01*
X76805Y-34935D01*
X76779Y-34933D01*
X76756Y-34930D01*
X76750Y-34929D01*
X76727Y-34924D01*
X76702Y-34916D01*
X76682Y-34908D01*
X76650Y-34892D01*
X76650Y-34770D01*
X76650Y-34734D01*
X76650Y-34706D01*
X76649Y-34684D01*
X76649Y-34668D01*
X76648Y-34657D01*
X76647Y-34650D01*
X76645Y-34645D01*
X76643Y-34641D01*
X76641Y-34639D01*
X76633Y-34633D01*
X76624Y-34631D01*
X76611Y-34632D01*
X76594Y-34637D01*
X76579Y-34641D01*
X76567Y-34643D01*
X76562Y-34644D01*
X76552Y-34644D01*
X76552Y-34467D01*
X76552Y-34289D01*
X76627Y-34289D01*
X76702Y-34289D01*
X76704Y-34496D01*
X76705Y-34704D01*
X76717Y-34736D01*
X76728Y-34762D01*
X76740Y-34780D01*
X76756Y-34793D01*
X76776Y-34804D01*
X76786Y-34808D01*
X76796Y-34811D01*
X76808Y-34813D01*
X76824Y-34813D01*
X76846Y-34814D01*
X76857Y-34813D01*
X76886Y-34813D01*
X76907Y-34811D01*
X76922Y-34808D01*
X76932Y-34804D01*
X76938Y-34798D01*
X76939Y-34797D01*
X76940Y-34792D01*
X76940Y-34779D01*
X76941Y-34758D01*
X76941Y-34731D01*
X76942Y-34699D01*
X76942Y-34661D01*
X76942Y-34620D01*
X76942Y-34575D01*
X76942Y-34541D01*
X76942Y-34289D01*
X77018Y-34289D01*
X77093Y-34289D01*
X77093Y-34595D01*
X77093Y-34901D01*
X77093Y-34901D01*
X77093Y-34901D01*
G37*
G36*
X75932Y-34920D02*
X75928Y-34921D01*
X75916Y-34922D01*
X75898Y-34922D01*
X75875Y-34923D01*
X75849Y-34923D01*
X75846Y-34923D01*
X75760Y-34923D01*
X75712Y-34840D01*
X75707Y-34830D01*
X75707Y-34336D01*
X75704Y-34304D01*
X75694Y-34279D01*
X75678Y-34258D01*
X75655Y-34242D01*
X75652Y-34240D01*
X75629Y-34231D01*
X75599Y-34224D01*
X75566Y-34218D01*
X75530Y-34215D01*
X75496Y-34215D01*
X75478Y-34216D01*
X75444Y-34219D01*
X75444Y-34339D01*
X75444Y-34459D01*
X75519Y-34456D01*
X75549Y-34455D01*
X75576Y-34453D01*
X75598Y-34451D01*
X75613Y-34448D01*
X75615Y-34448D01*
X75648Y-34436D01*
X75673Y-34420D01*
X75690Y-34401D01*
X75701Y-34378D01*
X75706Y-34348D01*
X75707Y-34336D01*
X75707Y-34830D01*
X75691Y-34804D01*
X75669Y-34767D01*
X75647Y-34732D01*
X75627Y-34700D01*
X75608Y-34671D01*
X75591Y-34646D01*
X75577Y-34627D01*
X75567Y-34616D01*
X75552Y-34600D01*
X75494Y-34600D01*
X75469Y-34600D01*
X75451Y-34600D01*
X75440Y-34602D01*
X75433Y-34604D01*
X75429Y-34606D01*
X75427Y-34609D01*
X75426Y-34614D01*
X75424Y-34622D01*
X75424Y-34633D01*
X75423Y-34650D01*
X75423Y-34671D01*
X75422Y-34699D01*
X75422Y-34735D01*
X75422Y-34768D01*
X75422Y-34923D01*
X75342Y-34923D01*
X75263Y-34923D01*
X75263Y-34504D01*
X75263Y-34444D01*
X75263Y-34387D01*
X75263Y-34332D01*
X75263Y-34282D01*
X75263Y-34236D01*
X75263Y-34195D01*
X75263Y-34159D01*
X75263Y-34130D01*
X75264Y-34107D01*
X75264Y-34093D01*
X75264Y-34086D01*
X75264Y-34085D01*
X75269Y-34085D01*
X75280Y-34083D01*
X75297Y-34081D01*
X75311Y-34079D01*
X75350Y-34074D01*
X75394Y-34070D01*
X75440Y-34067D01*
X75485Y-34066D01*
X75528Y-34066D01*
X75562Y-34068D01*
X75628Y-34076D01*
X75687Y-34088D01*
X75738Y-34105D01*
X75782Y-34127D01*
X75819Y-34154D01*
X75848Y-34186D01*
X75870Y-34223D01*
X75884Y-34264D01*
X75885Y-34268D01*
X75891Y-34308D01*
X75892Y-34350D01*
X75887Y-34391D01*
X75877Y-34430D01*
X75869Y-34449D01*
X75858Y-34466D01*
X75841Y-34486D01*
X75821Y-34506D01*
X75799Y-34525D01*
X75777Y-34540D01*
X75766Y-34546D01*
X75749Y-34556D01*
X75738Y-34566D01*
X75733Y-34577D01*
X75734Y-34589D01*
X75741Y-34605D01*
X75754Y-34626D01*
X75763Y-34638D01*
X75785Y-34670D01*
X75810Y-34706D01*
X75835Y-34746D01*
X75860Y-34786D01*
X75882Y-34825D01*
X75901Y-34858D01*
X75902Y-34861D01*
X75913Y-34882D01*
X75922Y-34899D01*
X75928Y-34912D01*
X75932Y-34919D01*
X75932Y-34920D01*
X75932Y-34920D01*
X75932Y-34920D01*
G37*
G36*
X77745Y-34291D02*
X77743Y-34297D01*
X77740Y-34308D01*
X77735Y-34321D01*
X77730Y-34332D01*
X77727Y-34340D01*
X77727Y-34340D01*
X77724Y-34346D01*
X77720Y-34358D01*
X77713Y-34377D01*
X77705Y-34400D01*
X77696Y-34426D01*
X77690Y-34444D01*
X77673Y-34493D01*
X77653Y-34547D01*
X77632Y-34604D01*
X77609Y-34663D01*
X77586Y-34720D01*
X77563Y-34774D01*
X77542Y-34823D01*
X77529Y-34850D01*
X77495Y-34923D01*
X77430Y-34923D01*
X77366Y-34923D01*
X77337Y-34862D01*
X77308Y-34799D01*
X77279Y-34730D01*
X77249Y-34657D01*
X77221Y-34583D01*
X77194Y-34510D01*
X77170Y-34441D01*
X77155Y-34397D01*
X77148Y-34376D01*
X77142Y-34358D01*
X77137Y-34345D01*
X77134Y-34338D01*
X77133Y-34338D01*
X77130Y-34334D01*
X77126Y-34325D01*
X77121Y-34313D01*
X77117Y-34302D01*
X77115Y-34293D01*
X77115Y-34293D01*
X77119Y-34292D01*
X77131Y-34291D01*
X77149Y-34290D01*
X77171Y-34289D01*
X77197Y-34289D01*
X77227Y-34289D01*
X77249Y-34290D01*
X77264Y-34291D01*
X77274Y-34292D01*
X77278Y-34293D01*
X77279Y-34295D01*
X77281Y-34304D01*
X77284Y-34319D01*
X77290Y-34341D01*
X77298Y-34368D01*
X77307Y-34400D01*
X77318Y-34434D01*
X77329Y-34471D01*
X77341Y-34508D01*
X77353Y-34546D01*
X77364Y-34582D01*
X77376Y-34616D01*
X77386Y-34647D01*
X77393Y-34667D01*
X77402Y-34691D01*
X77409Y-34707D01*
X77414Y-34718D01*
X77419Y-34724D01*
X77423Y-34726D01*
X77424Y-34726D01*
X77437Y-34727D01*
X77447Y-34722D01*
X77456Y-34710D01*
X77461Y-34698D01*
X77471Y-34672D01*
X77482Y-34639D01*
X77495Y-34600D01*
X77509Y-34555D01*
X77525Y-34506D01*
X77541Y-34454D01*
X77557Y-34401D01*
X77573Y-34346D01*
X77581Y-34321D01*
X77590Y-34289D01*
X77667Y-34289D01*
X77692Y-34289D01*
X77714Y-34289D01*
X77731Y-34290D01*
X77742Y-34290D01*
X77745Y-34291D01*
X77745Y-34291D01*
X77745Y-34291D01*
G37*
G36*
X77917Y-34923D02*
X77842Y-34923D01*
X77767Y-34923D01*
X77767Y-34616D01*
X77767Y-34564D01*
X77767Y-34515D01*
X77766Y-34469D01*
X77766Y-34427D01*
X77766Y-34390D01*
X77766Y-34358D01*
X77765Y-34332D01*
X77765Y-34313D01*
X77764Y-34302D01*
X77764Y-34299D01*
X77761Y-34289D01*
X77839Y-34289D01*
X77917Y-34289D01*
X77917Y-34606D01*
X77917Y-34923D01*
X77917Y-34923D01*
X77917Y-34923D01*
G37*
G36*
X77934Y-34086D02*
X77933Y-34093D01*
X77930Y-34107D01*
X77923Y-34119D01*
X77912Y-34132D01*
X77909Y-34135D01*
X77886Y-34153D01*
X77860Y-34163D01*
X77833Y-34164D01*
X77810Y-34159D01*
X77787Y-34146D01*
X77769Y-34128D01*
X77757Y-34106D01*
X77751Y-34082D01*
X77752Y-34057D01*
X77760Y-34034D01*
X77764Y-34027D01*
X77783Y-34006D01*
X77806Y-33991D01*
X77831Y-33985D01*
X77857Y-33986D01*
X77883Y-33994D01*
X77906Y-34010D01*
X77912Y-34016D01*
X77927Y-34037D01*
X77934Y-34059D01*
X77934Y-34086D01*
X77934Y-34086D01*
X77934Y-34086D01*
G37*
G54D13*
X73500Y-41250D03*
X73500Y-41750D03*
X73425Y-30893D03*
X73425Y-30393D03*
X73425Y-29893D03*
X73500Y-40250D03*
X73500Y-40750D03*
X73500Y-39750D03*
X73500Y-39250D03*
G54D14*
X81929Y-36102D03*
X81929Y-35550D03*
X80905Y-41259D03*
X80905Y-41811D03*
X86299Y-41850D03*
X86299Y-41298D03*
X84291Y-36220D03*
X84291Y-35668D03*
G54D15*
X87164Y-38661D03*
X87716Y-38661D03*
G54D14*
X85748Y-41850D03*
X85748Y-41298D03*
G54D15*
X81260Y-34803D03*
X80708Y-34803D03*
G54D14*
X87322Y-34920D03*
X87322Y-35472D03*
X87244Y-33542D03*
X87244Y-34094D03*
X87244Y-32164D03*
X87244Y-32716D03*
G54D15*
X80708Y-36850D03*
X81260Y-36850D03*
G54D14*
X85118Y-35472D03*
X85118Y-34920D03*
X85118Y-34094D03*
X85118Y-33542D03*
X85118Y-32716D03*
X85118Y-32164D03*
X79251Y-41811D03*
X79251Y-41259D03*
X80354Y-41259D03*
X80354Y-41811D03*
X82480Y-35709D03*
X82480Y-35157D03*
G54D15*
X87716Y-41496D03*
X87164Y-41496D03*
G54D14*
X78425Y-29842D03*
X78425Y-30394D03*
G54D15*
X87164Y-39212D03*
X87716Y-39212D03*
X76524Y-31385D03*
X75972Y-31385D03*
X74803Y-39724D03*
X74251Y-39724D03*
X79960Y-32952D03*
X80512Y-32952D03*
G54D14*
X79606Y-29842D03*
X79606Y-30394D03*
X80196Y-29842D03*
X80196Y-30394D03*
X80787Y-30394D03*
X80787Y-29842D03*
G54D15*
X77834Y-41811D03*
X78386Y-41811D03*
G54D16*
X76161Y-40688D03*
X75905Y-40688D03*
X75649Y-40688D03*
X75393Y-40688D03*
X75137Y-40688D03*
G54D17*
X75314Y-41751D03*
X75984Y-41751D03*
G54D18*
X74389Y-40688D03*
X76909Y-40688D03*
G54D17*
X74271Y-41751D03*
X77027Y-41751D03*
G54D19*
X85866Y-36614D03*
X86653Y-36988D03*
X86653Y-36240D03*
G54D14*
X87755Y-34094D03*
X87755Y-33542D03*
X87755Y-32716D03*
X87755Y-32164D03*
X87204Y-36890D03*
X87204Y-36338D03*
X86653Y-38661D03*
X86653Y-39213D03*
G54D15*
X78621Y-39311D03*
X79173Y-39311D03*
X78621Y-39822D03*
X79173Y-39822D03*
X79173Y-40334D03*
X78621Y-40334D03*
X79587Y-30944D03*
X79035Y-30944D03*
X80216Y-30944D03*
X80768Y-30944D03*
G54D14*
X81377Y-30394D03*
X81377Y-29842D03*
G54D15*
X80708Y-34251D03*
X81260Y-34251D03*
G54D14*
X83740Y-32441D03*
X83740Y-31889D03*
G54D15*
X78150Y-31141D03*
X77598Y-31141D03*
X87164Y-38070D03*
X87716Y-38070D03*
X87716Y-37480D03*
X87164Y-37480D03*
X77834Y-41259D03*
X78386Y-41259D03*
G54D14*
X79015Y-29842D03*
X79015Y-30394D03*
X82559Y-31889D03*
X82559Y-32441D03*
X83149Y-32441D03*
X83149Y-31889D03*
G54D20*
X74459Y-30836D03*
X75138Y-30836D03*
X74459Y-29596D03*
X75138Y-29596D03*
G54D21*
X74803Y-30875D03*
X74803Y-29557D03*
G54D22*
X85728Y-40177D03*
X85728Y-39980D03*
X85728Y-39783D03*
X85728Y-39586D03*
X85728Y-39389D03*
X85728Y-40767D03*
X85728Y-40571D03*
X85728Y-40374D03*
G54D23*
X84861Y-36948D03*
X84665Y-36948D03*
X84468Y-36948D03*
X84271Y-36948D03*
X84074Y-36948D03*
X83877Y-36948D03*
X83680Y-36948D03*
X83483Y-36948D03*
G54D22*
X81043Y-37815D03*
X81043Y-38011D03*
X81043Y-38208D03*
X81043Y-38405D03*
X81043Y-38602D03*
X81043Y-38799D03*
X81043Y-38996D03*
X81043Y-39193D03*
G54D23*
X81909Y-41634D03*
X82105Y-41634D03*
X82302Y-41634D03*
X82499Y-41634D03*
X82696Y-41634D03*
X82893Y-41634D03*
X83090Y-41634D03*
X83287Y-41634D03*
G54D22*
X85728Y-39193D03*
X85728Y-38996D03*
X85728Y-38799D03*
G54D23*
X83287Y-36948D03*
X83090Y-36948D03*
X82893Y-36948D03*
G54D22*
X81043Y-39389D03*
X81043Y-39586D03*
X81043Y-39783D03*
G54D23*
X83483Y-41634D03*
X83680Y-41634D03*
X83877Y-41634D03*
G54D22*
X85728Y-38602D03*
X85728Y-38405D03*
X85728Y-38208D03*
X85728Y-38011D03*
X85728Y-37815D03*
G54D23*
X82696Y-36948D03*
X82499Y-36948D03*
X82302Y-36948D03*
X82105Y-36948D03*
X81909Y-36948D03*
G54D22*
X81043Y-39980D03*
X81043Y-40177D03*
X81043Y-40374D03*
X81043Y-40571D03*
X81043Y-40767D03*
G54D23*
X84074Y-41634D03*
X84271Y-41634D03*
X84468Y-41634D03*
X84665Y-41634D03*
X84861Y-41634D03*
G54D24*
X81299Y-35472D03*
X81141Y-35472D03*
X80984Y-35472D03*
X80826Y-35472D03*
X80669Y-35472D03*
X80669Y-36181D03*
X80826Y-36181D03*
X80984Y-36181D03*
X81141Y-36181D03*
X81299Y-36181D03*
G54D25*
X80984Y-35472D03*
X80984Y-36181D03*
G54D26*
X78012Y-39066D03*
X77262Y-39066D03*
X77637Y-40066D03*
X77637Y-39066D03*
X77262Y-40066D03*
X78012Y-40066D03*
G54D27*
X87617Y-40787D03*
X87617Y-39921D03*
X86948Y-39921D03*
X86948Y-40787D03*
G54D13*
X87755Y-30551D03*
G54D28*
X82677Y-30629D03*
G54D29*
X79958Y-33521D03*
X79958Y-33856D03*
G54D30*
X79958Y-34190D03*
X79958Y-34623D03*
X79958Y-35056D03*
X79958Y-35490D03*
X79958Y-35923D03*
X79958Y-36356D03*
X79958Y-36789D03*
X79958Y-37222D03*
G54D31*
X76687Y-38876D03*
X76187Y-38876D03*
X74187Y-38876D03*
X75687Y-38876D03*
X75187Y-38876D03*
X74687Y-38876D03*
G54D32*
X73443Y-31731D03*
X73443Y-38581D03*
G54D33*
X79665Y-38188D03*
X79665Y-32125D03*
G54D34*
X79173Y-31535D03*
G54D19*
X86720Y-35571D03*
X86720Y-34821D03*
X85720Y-35571D03*
X86720Y-35196D03*
X85720Y-34821D03*
X86720Y-34193D03*
X86720Y-33443D03*
X85720Y-34193D03*
X86720Y-33818D03*
X85720Y-33443D03*
X86720Y-32815D03*
X86720Y-32065D03*
X85720Y-32815D03*
X86720Y-32440D03*
X85720Y-32065D03*
X76783Y-29743D03*
X76783Y-30493D03*
X77783Y-29743D03*
X76783Y-30118D03*
X77783Y-30493D03*
G54D35*
X74055Y-29685D03*
X87440Y-41968D03*
G54D14*
X84448Y-33188D03*
X84448Y-33740D03*
X82362Y-33740D03*
X82362Y-33188D03*
G54D13*
X88268Y-36252D03*
X88268Y-35752D03*
X88268Y-35252D03*
X87268Y-42402D03*
X86768Y-42402D03*
X87268Y-29252D03*
X88268Y-31752D03*
X88268Y-31252D03*
X83768Y-42402D03*
X83268Y-42402D03*
X88268Y-33752D03*
X85768Y-29252D03*
X88268Y-32752D03*
X88268Y-32252D03*
X88268Y-33252D03*
X85768Y-42402D03*
X85268Y-42402D03*
X84768Y-29252D03*
X83768Y-29252D03*
X84268Y-29252D03*
X88268Y-30752D03*
X88268Y-30252D03*
X85268Y-29252D03*
X86268Y-42402D03*
X86768Y-29252D03*
G54D19*
X83925Y-33839D03*
X83925Y-33089D03*
X82925Y-33839D03*
X83925Y-33464D03*
X82925Y-33089D03*
G54D13*
X84768Y-42402D03*
X72953Y-30252D03*
X72953Y-30752D03*
X88268Y-37752D03*
X72953Y-40901D03*
X72953Y-41401D03*
X86268Y-29252D03*
X83268Y-29252D03*
X88268Y-36752D03*
X88268Y-37252D03*
G54D36*
X87716Y-36141D03*
G54D37*
X80610Y-28346D03*
X80610Y-43307D03*
G54D38*
X83779Y-31177D03*
X83937Y-31177D03*
X84094Y-31177D03*
X84251Y-31177D03*
X84409Y-31177D03*
X84566Y-31177D03*
X84724Y-31177D03*
X84881Y-31177D03*
X85039Y-31177D03*
X85196Y-31177D03*
X85354Y-31177D03*
X85511Y-31177D03*
X85511Y-30082D03*
X85354Y-30082D03*
X85196Y-30082D03*
X85039Y-30082D03*
X84881Y-30082D03*
X84724Y-30082D03*
X84566Y-30082D03*
X84409Y-30082D03*
X84251Y-30082D03*
X84094Y-30082D03*
X83937Y-30082D03*
X83779Y-30082D03*
G54D39*
X86000Y-30629D03*
X83291Y-30629D03*
G54D14*
X83031Y-35709D03*
X83031Y-35157D03*
G54D20*
X76318Y-29596D03*
X75639Y-29596D03*
X76318Y-30836D03*
X75639Y-30836D03*
G54D21*
X75974Y-29557D03*
X75974Y-30875D03*
G54D13*
X77452Y-42401D03*
X77952Y-42401D03*
X88267Y-38251D03*
X88267Y-39251D03*
X88267Y-38751D03*
G54D40*
X86744Y-41464D03*
G54D41*
X86783Y-41661D03*
G54D42*
X86645Y-41543D03*
G54D43*
X86763Y-41523D03*
X86724Y-41405D03*
G54D42*
X86842Y-41385D03*
G54D41*
X86704Y-41267D03*
G54D13*
X77452Y-29251D03*
X72952Y-39401D03*
X77952Y-29251D03*
G54D44*
X86692Y-30629D03*
M02*
